solid OpenSCAD_Model
  facet normal 0.844328 0.535826 0
    outer loop
      vertex 3.06707 -8.31386 4
      vertex 2.83156 -7.94275 0
      vertex 2.83156 -7.94275 4
    endloop
  endfacet
  facet normal 0.844328 0.535826 0
    outer loop
      vertex 2.83156 -7.94275 0
      vertex 3.06707 -8.31386 4
      vertex 3.06707 -8.31386 0
    endloop
  endfacet
  facet normal -0.904827 0.425779 0
    outer loop
      vertex -3.25422 -8.71156 0
      vertex -3.06707 -8.31386 4
      vertex -3.06707 -8.31386 0
    endloop
  endfacet
  facet normal -0.904827 0.425779 0
    outer loop
      vertex -3.06707 -8.31386 4
      vertex -3.25422 -8.71156 0
      vertex -3.25422 -8.71156 4
    endloop
  endfacet
  facet normal 0.982287 -0.187381 0
    outer loop
      vertex 3.39004 -10.8704 4
      vertex 3.4724 -10.4387 0
      vertex 3.4724 -10.4387 4
    endloop
  endfacet
  facet normal 0.982287 -0.187381 0
    outer loop
      vertex 3.4724 -10.4387 0
      vertex 3.39004 -10.8704 4
      vertex 3.39004 -10.8704 0
    endloop
  endfacet
  facet normal -0.982287 0.187381 0
    outer loop
      vertex -3.4724 -9.56133 0
      vertex -3.39004 -9.12959 4
      vertex -3.39004 -9.12959 0
    endloop
  endfacet
  facet normal -0.982287 0.187381 0
    outer loop
      vertex -3.39004 -9.12959 4
      vertex -3.4724 -9.56133 0
      vertex -3.4724 -9.56133 4
    endloop
  endfacet
  facet normal -0.770513 0.637425 0
    outer loop
      vertex -2.83156 -7.94275 0
      vertex -2.55139 -7.60408 4
      vertex -2.55139 -7.60408 0
    endloop
  endfacet
  facet normal -0.770513 0.637425 0
    outer loop
      vertex -2.55139 -7.60408 4
      vertex -2.83156 -7.94275 0
      vertex -2.83156 -7.94275 4
    endloop
  endfacet
  facet normal -0.684548 0.728967 0
    outer loop
      vertex -2.5 -7.55583 0
      vertex -2.55139 -7.60408 4
      vertex -2.5 -7.55583 4
    endloop
  endfacet
  facet normal -0.684548 0.728967 0
    outer loop
      vertex -2.55139 -7.60408 4
      vertex -2.5 -7.55583 0
      vertex -2.55139 -7.60408 0
    endloop
  endfacet
  facet normal 0.998027 0.0627923 0
    outer loop
      vertex 3.5 -10 4
      vertex 3.4724 -9.56133 0
      vertex 3.4724 -9.56133 4
    endloop
  endfacet
  facet normal 0.998027 0.0627923 0
    outer loop
      vertex 3.4724 -9.56133 0
      vertex 3.5 -10 4
      vertex 3.5 -10 0
    endloop
  endfacet
  facet normal 0.481754 -0.876307 0
    outer loop
      vertex 1.7 -13.0516 0
      vertex 1.87539 -12.9551 4
      vertex 1.7 -13.0516 4
    endloop
  endfacet
  facet normal 0.481754 -0.876307 0
    outer loop
      vertex 1.87539 -12.9551 4
      vertex 1.7 -13.0516 0
      vertex 1.87539 -12.9551 0
    endloop
  endfacet
  facet normal 0.951057 -0.309017 0
    outer loop
      vertex 3.25422 -11.2884 4
      vertex 3.39004 -10.8704 0
      vertex 3.39004 -10.8704 4
    endloop
  endfacet
  facet normal 0.951057 -0.309017 0
    outer loop
      vertex 3.39004 -10.8704 0
      vertex 3.25422 -11.2884 4
      vertex 3.25422 -11.2884 0
    endloop
  endfacet
  facet normal 0.684548 0.728967 -0
    outer loop
      vertex 2.55139 -7.60408 0
      vertex 2.5 -7.55583 4
      vertex 2.55139 -7.60408 4
    endloop
  endfacet
  facet normal 0.684548 0.728967 0
    outer loop
      vertex 2.5 -7.55583 4
      vertex 2.55139 -7.60408 0
      vertex 2.5 -7.55583 0
    endloop
  endfacet
  facet normal 0.770513 0.637425 0
    outer loop
      vertex 2.83156 -7.94275 4
      vertex 2.55139 -7.60408 0
      vertex 2.55139 -7.60408 4
    endloop
  endfacet
  facet normal 0.770513 0.637425 0
    outer loop
      vertex 2.55139 -7.60408 0
      vertex 2.83156 -7.94275 4
      vertex 2.83156 -7.94275 0
    endloop
  endfacet
  facet normal -0.998027 0.0627923 0
    outer loop
      vertex -3.5 -10 0
      vertex -3.4724 -9.56133 4
      vertex -3.4724 -9.56133 0
    endloop
  endfacet
  facet normal -0.998027 0.0627923 0
    outer loop
      vertex -3.4724 -9.56133 4
      vertex -3.5 -10 0
      vertex -3.5 -10 4
    endloop
  endfacet
  facet normal -0.951057 0.309017 0
    outer loop
      vertex -3.39004 -9.12959 0
      vertex -3.25422 -8.71156 4
      vertex -3.25422 -8.71156 0
    endloop
  endfacet
  facet normal -0.951057 0.309017 0
    outer loop
      vertex -3.25422 -8.71156 4
      vertex -3.39004 -9.12959 0
      vertex -3.39004 -9.12959 4
    endloop
  endfacet
  facet normal -0.844328 0.535826 0
    outer loop
      vertex -3.06707 -8.31386 0
      vertex -2.83156 -7.94275 4
      vertex -2.83156 -7.94275 0
    endloop
  endfacet
  facet normal -0.844328 0.535826 0
    outer loop
      vertex -2.83156 -7.94275 4
      vertex -3.06707 -8.31386 0
      vertex -3.06707 -8.31386 4
    endloop
  endfacet
  facet normal 0.998027 -0.0627924 0
    outer loop
      vertex 3.4724 -10.4387 4
      vertex 3.5 -10 0
      vertex 3.5 -10 4
    endloop
  endfacet
  facet normal 0.998027 -0.0627924 0
    outer loop
      vertex 3.5 -10 0
      vertex 3.4724 -10.4387 4
      vertex 3.4724 -10.4387 0
    endloop
  endfacet
  facet normal 0.904827 0.425779 0
    outer loop
      vertex 3.25422 -8.71156 4
      vertex 3.06707 -8.31386 0
      vertex 3.06707 -8.31386 4
    endloop
  endfacet
  facet normal 0.904827 0.425779 0
    outer loop
      vertex 3.06707 -8.31386 0
      vertex 3.25422 -8.71156 4
      vertex 3.25422 -8.71156 0
    endloop
  endfacet
  facet normal 0.951057 0.309017 0
    outer loop
      vertex 3.39004 -9.12959 4
      vertex 3.25422 -8.71156 0
      vertex 3.25422 -8.71156 4
    endloop
  endfacet
  facet normal 0.951057 0.309017 0
    outer loop
      vertex 3.25422 -8.71156 0
      vertex 3.39004 -9.12959 4
      vertex 3.39004 -9.12959 0
    endloop
  endfacet
  facet normal 0.982287 0.187381 0
    outer loop
      vertex 3.4724 -9.56133 4
      vertex 3.39004 -9.12959 0
      vertex 3.39004 -9.12959 4
    endloop
  endfacet
  facet normal 0.982287 0.187381 0
    outer loop
      vertex 3.39004 -9.12959 0
      vertex 3.4724 -9.56133 4
      vertex 3.4724 -9.56133 0
    endloop
  endfacet
  facet normal -0 0 1
    outer loop
      vertex -4.46197 5.39359 4
      vertex -4 3.77377 4
      vertex -4 5.72923 4
    endloop
  endfacet
  facet normal -0 0 1
    outer loop
      vertex -5.10278 4.79183 4
      vertex -4 3.77377 4
      vertex -4.46197 5.39359 4
    endloop
  endfacet
  facet normal 0 0 1
    outer loop
      vertex -4 3.77377 4
      vertex -5.10278 4.79183 4
      vertex -4.00933 3.76501 4
    endloop
  endfacet
  facet normal 0 0 1
    outer loop
      vertex -4.00933 3.76501 4
      vertex -5.10278 4.79183 4
      vertex -4.44959 3.23282 4
    endloop
  endfacet
  facet normal -0 0 1
    outer loop
      vertex -5.66312 4.1145 4
      vertex -4.44959 3.23282 4
      vertex -5.10278 4.79183 4
    endloop
  endfacet
  facet normal 0 0 1
    outer loop
      vertex -4.44959 3.23282 4
      vertex -5.66312 4.1145 4
      vertex -4.81969 2.64964 4
    endloop
  endfacet
  facet normal -0 0 1
    outer loop
      vertex -6.13415 3.37228 4
      vertex -4.81969 2.64964 4
      vertex -5.66312 4.1145 4
    endloop
  endfacet
  facet normal 0 0 1
    outer loop
      vertex -4.81969 2.64964 4
      vertex -6.13415 3.37228 4
      vertex -5.11377 2.02468 4
    endloop
  endfacet
  facet normal 0 0 1
    outer loop
      vertex -5.11377 2.02468 4
      vertex -6.50844 2.57687 4
      vertex -5.32721 1.36779 4
    endloop
  endfacet
  facet normal -0 0 1
    outer loop
      vertex -6.50844 2.57687 4
      vertex -5.11377 2.02468 4
      vertex -6.13415 3.37228 4
    endloop
  endfacet
  facet normal 0 0 1
    outer loop
      vertex 3.4724 -9.56133 4
      vertex 2.23226 -9.718 4
      vertex 2.25 -10 4
    endloop
  endfacet
  facet normal 0 0 1
    outer loop
      vertex 2.5 -7.55583 4
      vertex 2.17931 -9.44045 4
      vertex 2.23226 -9.718 4
    endloop
  endfacet
  facet normal 0 0 1
    outer loop
      vertex 2.5 -7.55583 4
      vertex 2.092 -9.17172 4
      vertex 2.17931 -9.44045 4
    endloop
  endfacet
  facet normal 0 0 1
    outer loop
      vertex 2.5 -7.55583 4
      vertex 1.97169 -8.91605 4
      vertex 2.092 -9.17172 4
    endloop
  endfacet
  facet normal 0 0 1
    outer loop
      vertex 2.5 -7.55583 4
      vertex 1.82029 -8.67748 4
      vertex 1.97169 -8.91605 4
    endloop
  endfacet
  facet normal 0 0 1
    outer loop
      vertex 0.695288 -7.86012 4
      vertex 2.5 -6.52401 4
      vertex 1.0306 -5.40258 4
    endloop
  endfacet
  facet normal 0 0 1
    outer loop
      vertex 2.5 -7.55583 4
      vertex 1.64018 -8.45977 4
      vertex 1.82029 -8.67748 4
    endloop
  endfacet
  facet normal 0 0 1
    outer loop
      vertex 2.5 -7.55583 4
      vertex 1.4342 -8.26635 4
      vertex 1.64018 -8.45977 4
    endloop
  endfacet
  facet normal 0 0 1
    outer loop
      vertex 2.5 -7.55583 4
      vertex 1.20561 -8.10026 4
      vertex 1.4342 -8.26635 4
    endloop
  endfacet
  facet normal 0 0 1
    outer loop
      vertex 2.5 -6.52401 4
      vertex 0.958003 -7.96414 4
      vertex 2.5 -7.55583 4
    endloop
  endfacet
  facet normal 0 0 1
    outer loop
      vertex 2.5 -7.55583 4
      vertex 0.958003 -7.96414 4
      vertex 1.20561 -8.10026 4
    endloop
  endfacet
  facet normal 0 0 1
    outer loop
      vertex 2.5 -6.52401 4
      vertex 0.695288 -7.86012 4
      vertex 0.958003 -7.96414 4
    endloop
  endfacet
  facet normal 0 0 1
    outer loop
      vertex 1.0306 -5.40258 4
      vertex 0.421607 -7.78985 4
      vertex 0.695288 -7.86012 4
    endloop
  endfacet
  facet normal -0 0 1
    outer loop
      vertex 0.345347 -5.48915 4
      vertex 0.421607 -7.78985 4
      vertex 1.0306 -5.40258 4
    endloop
  endfacet
  facet normal 0 0 1
    outer loop
      vertex 0.345347 -5.48915 4
      vertex 0.141278 -7.75444 4
      vertex 0.421607 -7.78985 4
    endloop
  endfacet
  facet normal 0 0 1
    outer loop
      vertex 0.345347 -5.48915 4
      vertex -0.141278 -7.75444 4
      vertex 0.141278 -7.75444 4
    endloop
  endfacet
  facet normal -0 0 1
    outer loop
      vertex -0.345347 -5.48915 4
      vertex -0.141278 -7.75444 4
      vertex 0.345347 -5.48915 4
    endloop
  endfacet
  facet normal 0 0 1
    outer loop
      vertex -0.345347 -5.48915 4
      vertex -0.421607 -7.78985 4
      vertex -0.141278 -7.75444 4
    endloop
  endfacet
  facet normal 0 0 1
    outer loop
      vertex -1.0306 -5.40258 4
      vertex -0.421607 -7.78985 4
      vertex -0.345347 -5.48915 4
    endloop
  endfacet
  facet normal 0 0 1
    outer loop
      vertex -0.421607 -7.78985 4
      vertex -1.0306 -5.40258 4
      vertex -0.695288 -7.86012 4
    endloop
  endfacet
  facet normal 0 0 1
    outer loop
      vertex -0.695288 -7.86012 4
      vertex -1.0306 -5.40258 4
      vertex -0.958003 -7.96414 4
    endloop
  endfacet
  facet normal -0 0 1
    outer loop
      vertex -2.5 -7.55583 4
      vertex -0.958003 -7.96414 4
      vertex -1.0306 -5.40258 4
    endloop
  endfacet
  facet normal 0 0 1
    outer loop
      vertex -0.958003 -7.96414 4
      vertex -2.5 -7.55583 4
      vertex -1.20561 -8.10026 4
    endloop
  endfacet
  facet normal 0 0 1
    outer loop
      vertex -1.20561 -8.10026 4
      vertex -2.5 -7.55583 4
      vertex -1.4342 -8.26635 4
    endloop
  endfacet
  facet normal 0 0 1
    outer loop
      vertex -2.5 -7.55583 4
      vertex -1.0306 -5.40258 4
      vertex -1.69959 -5.23081 4
    endloop
  endfacet
  facet normal 0 0 1
    outer loop
      vertex -1.4342 -8.26635 4
      vertex -2.5 -7.55583 4
      vertex -1.64018 -8.45977 4
    endloop
  endfacet
  facet normal -0 0 1
    outer loop
      vertex -2.55139 -7.60408 4
      vertex -1.64018 -8.45977 4
      vertex -2.5 -7.55583 4
    endloop
  endfacet
  facet normal 0 0 1
    outer loop
      vertex -1.64018 -8.45977 4
      vertex -2.55139 -7.60408 4
      vertex -1.82029 -8.67748 4
    endloop
  endfacet
  facet normal -0 0 1
    outer loop
      vertex -2.83156 -7.94275 4
      vertex -1.82029 -8.67748 4
      vertex -2.55139 -7.60408 4
    endloop
  endfacet
  facet normal 0 0 1
    outer loop
      vertex -1.82029 -8.67748 4
      vertex -2.83156 -7.94275 4
      vertex -1.97169 -8.91605 4
    endloop
  endfacet
  facet normal -0 0 1
    outer loop
      vertex -3.06707 -8.31386 4
      vertex -1.97169 -8.91605 4
      vertex -2.83156 -7.94275 4
    endloop
  endfacet
  facet normal 0 0 1
    outer loop
      vertex -2.5 -7.55583 4
      vertex -1.69959 -5.23081 4
      vertex -2.34179 -4.97655 4
    endloop
  endfacet
  facet normal 0 0 1
    outer loop
      vertex 5.5 0 4
      vertex 7 0 4
      vertex 6.9448 0.877332 4
    endloop
  endfacet
  facet normal 0 0 1
    outer loop
      vertex 5.45663 0.689332 4
      vertex 6.9448 0.877332 4
      vertex 6.78008 1.74083 4
    endloop
  endfacet
  facet normal 0 0 1
    outer loop
      vertex 7 0 4
      vertex 5.5 0 4
      vertex 6.9448 -0.877332 4
    endloop
  endfacet
  facet normal 0 0 1
    outer loop
      vertex 5.32721 1.36779 4
      vertex 6.78008 1.74083 4
      vertex 6.50844 2.57687 4
    endloop
  endfacet
  facet normal -0 0 1
    outer loop
      vertex 5.45663 -0.689332 4
      vertex 6.9448 -0.877332 4
      vertex 5.5 0 4
    endloop
  endfacet
  facet normal 0 0 1
    outer loop
      vertex 5.11377 2.02468 4
      vertex 6.50844 2.57687 4
      vertex 6.13415 3.37228 4
    endloop
  endfacet
  facet normal 0 0 1
    outer loop
      vertex 6.9448 -0.877332 4
      vertex 5.45663 -0.689332 4
      vertex 6.78008 -1.74083 4
    endloop
  endfacet
  facet normal 0 0 1
    outer loop
      vertex 4.81969 2.64964 4
      vertex 6.13415 3.37228 4
      vertex 5.66312 4.1145 4
    endloop
  endfacet
  facet normal -0 0 1
    outer loop
      vertex 5.32721 -1.36779 4
      vertex 6.78008 -1.74083 4
      vertex 5.45663 -0.689332 4
    endloop
  endfacet
  facet normal 0 0 1
    outer loop
      vertex 6.78008 -1.74083 4
      vertex 5.32721 -1.36779 4
      vertex 6.50844 -2.57687 4
    endloop
  endfacet
  facet normal 0 0 1
    outer loop
      vertex 6.9448 0.877332 4
      vertex 5.45663 0.689332 4
      vertex 5.5 0 4
    endloop
  endfacet
  facet normal 0 0 1
    outer loop
      vertex 6.78008 1.74083 4
      vertex 5.32721 1.36779 4
      vertex 5.45663 0.689332 4
    endloop
  endfacet
  facet normal 0 0 1
    outer loop
      vertex 6.50844 2.57687 4
      vertex 5.11377 2.02468 4
      vertex 5.32721 1.36779 4
    endloop
  endfacet
  facet normal 0 0 1
    outer loop
      vertex 4.44959 3.23282 4
      vertex 5.66312 4.1145 4
      vertex 5.10278 4.79183 4
    endloop
  endfacet
  facet normal 0 0 1
    outer loop
      vertex 6.13415 3.37228 4
      vertex 4.81969 2.64964 4
      vertex 5.11377 2.02468 4
    endloop
  endfacet
  facet normal 0 0 1
    outer loop
      vertex 4 3.77377 4
      vertex 5.10278 4.79183 4
      vertex 4.46197 5.39359 4
    endloop
  endfacet
  facet normal 0 0 1
    outer loop
      vertex 5.66312 4.1145 4
      vertex 4.44959 3.23282 4
      vertex 4.81969 2.64964 4
    endloop
  endfacet
  facet normal 0 0 1
    outer loop
      vertex 5.10278 4.79183 4
      vertex 4.00933 3.76501 4
      vertex 4.44959 3.23282 4
    endloop
  endfacet
  facet normal 0 0 1
    outer loop
      vertex 4 3.77377 4
      vertex 4.46197 5.39359 4
      vertex 4 5.72923 4
    endloop
  endfacet
  facet normal 0 0 1
    outer loop
      vertex 5.10278 4.79183 4
      vertex 4 3.77377 4
      vertex 4.00933 3.76501 4
    endloop
  endfacet
  facet normal -0 0 1
    outer loop
      vertex 5.11377 -2.02468 4
      vertex 6.50844 -2.57687 4
      vertex 5.32721 -1.36779 4
    endloop
  endfacet
  facet normal 0 0 1
    outer loop
      vertex 6.50844 -2.57687 4
      vertex 5.11377 -2.02468 4
      vertex 6.13415 -3.37228 4
    endloop
  endfacet
  facet normal -0 0 1
    outer loop
      vertex 4.81969 -2.64964 4
      vertex 6.13415 -3.37228 4
      vertex 5.11377 -2.02468 4
    endloop
  endfacet
  facet normal 0 0 1
    outer loop
      vertex 6.13415 -3.37228 4
      vertex 4.81969 -2.64964 4
      vertex 5.66312 -4.1145 4
    endloop
  endfacet
  facet normal -0 0 1
    outer loop
      vertex 4.44959 -3.23282 4
      vertex 5.66312 -4.1145 4
      vertex 4.81969 -2.64964 4
    endloop
  endfacet
  facet normal 0 0 1
    outer loop
      vertex 5.66312 -4.1145 4
      vertex 4.44959 -3.23282 4
      vertex 5.10278 -4.79183 4
    endloop
  endfacet
  facet normal -0 0 1
    outer loop
      vertex 4.00933 -3.76501 4
      vertex 5.10278 -4.79183 4
      vertex 4.44959 -3.23282 4
    endloop
  endfacet
  facet normal 0 0 1
    outer loop
      vertex 5.10278 -4.79183 4
      vertex 4.00933 -3.76501 4
      vertex 4.46197 -5.39359 4
    endloop
  endfacet
  facet normal -0 0 1
    outer loop
      vertex 3.50583 -4.23782 4
      vertex 4.46197 -5.39359 4
      vertex 4.00933 -3.76501 4
    endloop
  endfacet
  facet normal 0 0 1
    outer loop
      vertex 4.46197 -5.39359 4
      vertex 3.50583 -4.23782 4
      vertex 3.75079 -5.91029 4
    endloop
  endfacet
  facet normal -0 0 1
    outer loop
      vertex 2.94705 -4.6438 4
      vertex 3.75079 -5.91029 4
      vertex 3.50583 -4.23782 4
    endloop
  endfacet
  facet normal 0 0 1
    outer loop
      vertex 3.75079 -5.91029 4
      vertex 2.94705 -4.6438 4
      vertex 2.98045 -6.33379 4
    endloop
  endfacet
  facet normal -0 0 1
    outer loop
      vertex 2.34179 -4.97655 4
      vertex 2.98045 -6.33379 4
      vertex 2.94705 -4.6438 4
    endloop
  endfacet
  facet normal -0 0 1
    outer loop
      vertex 1.69959 -5.23081 4
      vertex 2.5 -6.52401 4
      vertex 2.34179 -4.97655 4
    endloop
  endfacet
  facet normal 0 0 1
    outer loop
      vertex 2.98045 -6.33379 4
      vertex 2.34179 -4.97655 4
      vertex 2.5 -6.52401 4
    endloop
  endfacet
  facet normal 0 0 1
    outer loop
      vertex 2.25 -10 4
      vertex 3.5 -10 4
      vertex 3.4724 -9.56133 4
    endloop
  endfacet
  facet normal 0 0 1
    outer loop
      vertex 2.23226 -9.718 4
      vertex 3.4724 -9.56133 4
      vertex 3.39004 -9.12959 4
    endloop
  endfacet
  facet normal 0 0 1
    outer loop
      vertex 3.5 -10 4
      vertex 2.25 -10 4
      vertex 3.4724 -10.4387 4
    endloop
  endfacet
  facet normal 0 0 1
    outer loop
      vertex 2.23226 -9.718 4
      vertex 3.39004 -9.12959 4
      vertex 3.25422 -8.71156 4
    endloop
  endfacet
  facet normal -0 0 1
    outer loop
      vertex 2.23226 -10.282 4
      vertex 3.4724 -10.4387 4
      vertex 2.25 -10 4
    endloop
  endfacet
  facet normal 0 0 1
    outer loop
      vertex 2.23226 -9.718 4
      vertex 3.25422 -8.71156 4
      vertex 3.06707 -8.31386 4
    endloop
  endfacet
  facet normal 0 0 1
    outer loop
      vertex 3.4724 -10.4387 4
      vertex 2.23226 -10.282 4
      vertex 3.39004 -10.8704 4
    endloop
  endfacet
  facet normal 0 0 1
    outer loop
      vertex 2.23226 -9.718 4
      vertex 3.06707 -8.31386 4
      vertex 2.83156 -7.94275 4
    endloop
  endfacet
  facet normal -0 0 1
    outer loop
      vertex 2.17931 -10.5596 4
      vertex 3.39004 -10.8704 4
      vertex 2.23226 -10.282 4
    endloop
  endfacet
  facet normal 0 0 1
    outer loop
      vertex 2.23226 -9.718 4
      vertex 2.83156 -7.94275 4
      vertex 2.55139 -7.60408 4
    endloop
  endfacet
  facet normal 0 0 1
    outer loop
      vertex 3.39004 -10.8704 4
      vertex 2.17931 -10.5596 4
      vertex 3.25422 -11.2884 4
    endloop
  endfacet
  facet normal 0 0 1
    outer loop
      vertex 2.23226 -9.718 4
      vertex 2.55139 -7.60408 4
      vertex 2.5 -7.55583 4
    endloop
  endfacet
  facet normal -0 0 1
    outer loop
      vertex 1.0306 -5.40258 4
      vertex 2.5 -6.52401 4
      vertex 1.69959 -5.23081 4
    endloop
  endfacet
  facet normal -0 0 1
    outer loop
      vertex 2.092 -10.8283 4
      vertex 3.25422 -11.2884 4
      vertex 2.17931 -10.5596 4
    endloop
  endfacet
  facet normal 0 0 1
    outer loop
      vertex 3.25422 -11.2884 4
      vertex 2.092 -10.8283 4
      vertex 3.06707 -11.6861 4
    endloop
  endfacet
  facet normal -0 0 1
    outer loop
      vertex 1.97169 -11.0839 4
      vertex 3.06707 -11.6861 4
      vertex 2.092 -10.8283 4
    endloop
  endfacet
  facet normal 0 0 1
    outer loop
      vertex 3.06707 -11.6861 4
      vertex 1.97169 -11.0839 4
      vertex 2.83156 -12.0572 4
    endloop
  endfacet
  facet normal -0 0 1
    outer loop
      vertex 1.82029 -11.3225 4
      vertex 2.83156 -12.0572 4
      vertex 1.97169 -11.0839 4
    endloop
  endfacet
  facet normal -0 0 1
    outer loop
      vertex 1.7 -11.4679 4
      vertex 2.83156 -12.0572 4
      vertex 1.82029 -11.3225 4
    endloop
  endfacet
  facet normal 0 0 1
    outer loop
      vertex 2.83156 -12.0572 4
      vertex 1.7 -11.4679 4
      vertex 2.55139 -12.3959 4
    endloop
  endfacet
  facet normal 0 0 1
    outer loop
      vertex 2.55139 -12.3959 4
      vertex 1.7 -11.4679 4
      vertex 2.23098 -12.6968 4
    endloop
  endfacet
  facet normal 0 0 1
    outer loop
      vertex 2.23098 -12.6968 4
      vertex 1.7 -11.4679 4
      vertex 1.87539 -12.9551 4
    endloop
  endfacet
  facet normal 0 0 1
    outer loop
      vertex 1.87539 -12.9551 4
      vertex 1.7 -11.4679 4
      vertex 1.7 -13.0516 4
    endloop
  endfacet
  facet normal 0 0 1
    outer loop
      vertex -2.83156 -12.0572 4
      vertex -1.7 -11.4679 4
      vertex -1.82029 -11.3225 4
    endloop
  endfacet
  facet normal 0 0 1
    outer loop
      vertex -1.7 -11.4679 4
      vertex -1.87539 -12.9551 4
      vertex -1.7 -13.0516 4
    endloop
  endfacet
  facet normal 0 0 1
    outer loop
      vertex -2.83156 -12.0572 4
      vertex -1.82029 -11.3225 4
      vertex -1.97169 -11.0839 4
    endloop
  endfacet
  facet normal 0 0 1
    outer loop
      vertex -3.06707 -11.6861 4
      vertex -1.97169 -11.0839 4
      vertex -2.092 -10.8283 4
    endloop
  endfacet
  facet normal 0 0 1
    outer loop
      vertex -3.25422 -11.2884 4
      vertex -2.092 -10.8283 4
      vertex -2.17931 -10.5596 4
    endloop
  endfacet
  facet normal 0 0 1
    outer loop
      vertex -1.7 -11.4679 4
      vertex -2.23098 -12.6968 4
      vertex -1.87539 -12.9551 4
    endloop
  endfacet
  facet normal 0 0 1
    outer loop
      vertex -3.39004 -10.8704 4
      vertex -2.17931 -10.5596 4
      vertex -2.23226 -10.282 4
    endloop
  endfacet
  facet normal 0 0 1
    outer loop
      vertex -3.4724 -10.4387 4
      vertex -2.23226 -10.282 4
      vertex -2.25 -10 4
    endloop
  endfacet
  facet normal 0 0 1
    outer loop
      vertex -1.97169 -8.91605 4
      vertex -3.06707 -8.31386 4
      vertex -2.092 -9.17172 4
    endloop
  endfacet
  facet normal 0 0 1
    outer loop
      vertex -2.5 -7.55583 4
      vertex -2.34179 -4.97655 4
      vertex -2.5 -6.52401 4
    endloop
  endfacet
  facet normal -0 0 1
    outer loop
      vertex -3.25422 -8.71156 4
      vertex -2.092 -9.17172 4
      vertex -3.06707 -8.31386 4
    endloop
  endfacet
  facet normal 0 0 1
    outer loop
      vertex -2.092 -9.17172 4
      vertex -3.25422 -8.71156 4
      vertex -2.17931 -9.44045 4
    endloop
  endfacet
  facet normal 0 0 1
    outer loop
      vertex -1.7 -11.4679 4
      vertex -2.55139 -12.3959 4
      vertex -2.23098 -12.6968 4
    endloop
  endfacet
  facet normal -0 0 1
    outer loop
      vertex -3.39004 -9.12959 4
      vertex -2.17931 -9.44045 4
      vertex -3.25422 -8.71156 4
    endloop
  endfacet
  facet normal 0 0 1
    outer loop
      vertex -1.7 -11.4679 4
      vertex -2.83156 -12.0572 4
      vertex -2.55139 -12.3959 4
    endloop
  endfacet
  facet normal 0 0 1
    outer loop
      vertex -2.17931 -9.44045 4
      vertex -3.39004 -9.12959 4
      vertex -2.23226 -9.718 4
    endloop
  endfacet
  facet normal 0 0 1
    outer loop
      vertex -1.97169 -11.0839 4
      vertex -3.06707 -11.6861 4
      vertex -2.83156 -12.0572 4
    endloop
  endfacet
  facet normal -0 0 1
    outer loop
      vertex -3.4724 -9.56133 4
      vertex -2.23226 -9.718 4
      vertex -3.39004 -9.12959 4
    endloop
  endfacet
  facet normal 0 0 1
    outer loop
      vertex -2.092 -10.8283 4
      vertex -3.25422 -11.2884 4
      vertex -3.06707 -11.6861 4
    endloop
  endfacet
  facet normal 0 0 1
    outer loop
      vertex -2.23226 -9.718 4
      vertex -3.4724 -9.56133 4
      vertex -2.25 -10 4
    endloop
  endfacet
  facet normal 0 0 1
    outer loop
      vertex -2.17931 -10.5596 4
      vertex -3.39004 -10.8704 4
      vertex -3.25422 -11.2884 4
    endloop
  endfacet
  facet normal 0 0 1
    outer loop
      vertex -3.5 -10 4
      vertex -2.25 -10 4
      vertex -3.4724 -9.56133 4
    endloop
  endfacet
  facet normal 0 0 1
    outer loop
      vertex -2.23226 -10.282 4
      vertex -3.4724 -10.4387 4
      vertex -3.39004 -10.8704 4
    endloop
  endfacet
  facet normal 0 0 1
    outer loop
      vertex -2.25 -10 4
      vertex -3.5 -10 4
      vertex -3.4724 -10.4387 4
    endloop
  endfacet
  facet normal 0 0 1
    outer loop
      vertex -2.98045 -6.33379 4
      vertex -2.34179 -4.97655 4
      vertex -2.94705 -4.6438 4
    endloop
  endfacet
  facet normal 0 0 1
    outer loop
      vertex -2.34179 -4.97655 4
      vertex -2.98045 -6.33379 4
      vertex -2.5 -6.52401 4
    endloop
  endfacet
  facet normal 0 0 1
    outer loop
      vertex -3.75079 -5.91029 4
      vertex -2.94705 -4.6438 4
      vertex -3.50583 -4.23782 4
    endloop
  endfacet
  facet normal 0 0 1
    outer loop
      vertex -2.94705 -4.6438 4
      vertex -3.75079 -5.91029 4
      vertex -2.98045 -6.33379 4
    endloop
  endfacet
  facet normal 0 0 1
    outer loop
      vertex -4.46197 -5.39359 4
      vertex -3.50583 -4.23782 4
      vertex -4.00933 -3.76501 4
    endloop
  endfacet
  facet normal 0 0 1
    outer loop
      vertex -5.10278 -4.79183 4
      vertex -4.00933 -3.76501 4
      vertex -4.44959 -3.23282 4
    endloop
  endfacet
  facet normal 0 0 1
    outer loop
      vertex -3.50583 -4.23782 4
      vertex -4.46197 -5.39359 4
      vertex -3.75079 -5.91029 4
    endloop
  endfacet
  facet normal 0 0 1
    outer loop
      vertex -5.66312 -4.1145 4
      vertex -4.44959 -3.23282 4
      vertex -4.81969 -2.64964 4
    endloop
  endfacet
  facet normal 0 0 1
    outer loop
      vertex -4.00933 -3.76501 4
      vertex -5.10278 -4.79183 4
      vertex -4.46197 -5.39359 4
    endloop
  endfacet
  facet normal 0 0 1
    outer loop
      vertex -6.13415 -3.37228 4
      vertex -4.81969 -2.64964 4
      vertex -5.11377 -2.02468 4
    endloop
  endfacet
  facet normal 0 0 1
    outer loop
      vertex -6.50844 -2.57687 4
      vertex -5.11377 -2.02468 4
      vertex -5.32721 -1.36779 4
    endloop
  endfacet
  facet normal 0 0 1
    outer loop
      vertex -6.78008 -1.74083 4
      vertex -5.32721 -1.36779 4
      vertex -5.45663 -0.689332 4
    endloop
  endfacet
  facet normal 0 0 1
    outer loop
      vertex -4.44959 -3.23282 4
      vertex -5.66312 -4.1145 4
      vertex -5.10278 -4.79183 4
    endloop
  endfacet
  facet normal 0 0 1
    outer loop
      vertex -6.9448 -0.877332 4
      vertex -5.45663 -0.689332 4
      vertex -5.5 0 4
    endloop
  endfacet
  facet normal -0 0 1
    outer loop
      vertex -6.78008 1.74083 4
      vertex -5.32721 1.36779 4
      vertex -6.50844 2.57687 4
    endloop
  endfacet
  facet normal 0 0 1
    outer loop
      vertex -5.32721 1.36779 4
      vertex -6.78008 1.74083 4
      vertex -5.45663 0.689332 4
    endloop
  endfacet
  facet normal 0 0 1
    outer loop
      vertex -4.81969 -2.64964 4
      vertex -6.13415 -3.37228 4
      vertex -5.66312 -4.1145 4
    endloop
  endfacet
  facet normal -0 0 1
    outer loop
      vertex -6.9448 0.877332 4
      vertex -5.45663 0.689332 4
      vertex -6.78008 1.74083 4
    endloop
  endfacet
  facet normal 0 0 1
    outer loop
      vertex -5.11377 -2.02468 4
      vertex -6.50844 -2.57687 4
      vertex -6.13415 -3.37228 4
    endloop
  endfacet
  facet normal 0 0 1
    outer loop
      vertex -5.45663 0.689332 4
      vertex -6.9448 0.877332 4
      vertex -5.5 0 4
    endloop
  endfacet
  facet normal 0 0 1
    outer loop
      vertex -5.32721 -1.36779 4
      vertex -6.78008 -1.74083 4
      vertex -6.50844 -2.57687 4
    endloop
  endfacet
  facet normal 0 0 1
    outer loop
      vertex -7 0 4
      vertex -5.5 0 4
      vertex -6.9448 0.877332 4
    endloop
  endfacet
  facet normal 0 0 1
    outer loop
      vertex -5.45663 -0.689332 4
      vertex -6.9448 -0.877332 4
      vertex -6.78008 -1.74083 4
    endloop
  endfacet
  facet normal 0 0 1
    outer loop
      vertex -5.5 0 4
      vertex -7 0 4
      vertex -6.9448 -0.877332 4
    endloop
  endfacet
  facet normal 0.844328 -0.535826 0
    outer loop
      vertex 2.83156 -12.0572 4
      vertex 3.06707 -11.6861 0
      vertex 3.06707 -11.6861 4
    endloop
  endfacet
  facet normal 0.844328 -0.535826 0
    outer loop
      vertex 3.06707 -11.6861 0
      vertex 2.83156 -12.0572 4
      vertex 2.83156 -12.0572 0
    endloop
  endfacet
  facet normal 0.904827 -0.425779 0
    outer loop
      vertex 3.06707 -11.6861 4
      vertex 3.25422 -11.2884 0
      vertex 3.25422 -11.2884 4
    endloop
  endfacet
  facet normal 0.904827 -0.425779 0
    outer loop
      vertex 3.25422 -11.2884 0
      vertex 3.06707 -11.6861 4
      vertex 3.06707 -11.6861 0
    endloop
  endfacet
  facet normal -0.998027 -0.0627924 0
    outer loop
      vertex -3.4724 -10.4387 0
      vertex -3.5 -10 4
      vertex -3.5 -10 0
    endloop
  endfacet
  facet normal -0.998027 -0.0627924 0
    outer loop
      vertex -3.5 -10 4
      vertex -3.4724 -10.4387 0
      vertex -3.4724 -10.4387 4
    endloop
  endfacet
  facet normal -0.982287 -0.187381 0
    outer loop
      vertex -3.39004 -10.8704 0
      vertex -3.4724 -10.4387 4
      vertex -3.4724 -10.4387 0
    endloop
  endfacet
  facet normal -0.982287 -0.187381 0
    outer loop
      vertex -3.4724 -10.4387 4
      vertex -3.39004 -10.8704 0
      vertex -3.39004 -10.8704 4
    endloop
  endfacet
  facet normal -0.770513 -0.637425 0
    outer loop
      vertex -2.55139 -12.3959 0
      vertex -2.83156 -12.0572 4
      vertex -2.83156 -12.0572 0
    endloop
  endfacet
  facet normal -0.770513 -0.637425 0
    outer loop
      vertex -2.83156 -12.0572 4
      vertex -2.55139 -12.3959 0
      vertex -2.55139 -12.3959 4
    endloop
  endfacet
  facet normal -0.904827 -0.425779 0
    outer loop
      vertex -3.06707 -11.6861 0
      vertex -3.25422 -11.2884 4
      vertex -3.25422 -11.2884 0
    endloop
  endfacet
  facet normal -0.904827 -0.425779 0
    outer loop
      vertex -3.25422 -11.2884 4
      vertex -3.06707 -11.6861 0
      vertex -3.06707 -11.6861 4
    endloop
  endfacet
  facet normal 0.684547 -0.728968 0
    outer loop
      vertex 2.23098 -12.6968 0
      vertex 2.55139 -12.3959 4
      vertex 2.23098 -12.6968 4
    endloop
  endfacet
  facet normal 0.684547 -0.728968 0
    outer loop
      vertex 2.55139 -12.3959 4
      vertex 2.23098 -12.6968 0
      vertex 2.55139 -12.3959 0
    endloop
  endfacet
  facet normal 0 0 -1
    outer loop
      vertex -1.87539 -12.9551 0
      vertex -1.7 -11.4679 0
      vertex -1.7 -13.0516 0
    endloop
  endfacet
  facet normal 0 0 -1
    outer loop
      vertex -2.23098 -12.6968 0
      vertex -1.7 -11.4679 0
      vertex -1.87539 -12.9551 0
    endloop
  endfacet
  facet normal 0 0 -1
    outer loop
      vertex -2.55139 -12.3959 0
      vertex -1.7 -11.4679 0
      vertex -2.23098 -12.6968 0
    endloop
  endfacet
  facet normal 0 0 -1
    outer loop
      vertex -2.83156 -12.0572 0
      vertex -1.7 -11.4679 0
      vertex -2.55139 -12.3959 0
    endloop
  endfacet
  facet normal -0 0 -1
    outer loop
      vertex -1.7 -11.4679 0
      vertex -2.83156 -12.0572 0
      vertex -1.82029 -11.3225 0
    endloop
  endfacet
  facet normal -0 0 -1
    outer loop
      vertex -1.82029 -11.3225 0
      vertex -2.83156 -12.0572 0
      vertex -1.97169 -11.0839 0
    endloop
  endfacet
  facet normal 0 0 -1
    outer loop
      vertex -3.06707 -11.6861 0
      vertex -1.97169 -11.0839 0
      vertex -2.83156 -12.0572 0
    endloop
  endfacet
  facet normal -0 0 -1
    outer loop
      vertex -1.97169 -11.0839 0
      vertex -3.06707 -11.6861 0
      vertex -2.092 -10.8283 0
    endloop
  endfacet
  facet normal 0 0 -1
    outer loop
      vertex -3.25422 -11.2884 0
      vertex -2.092 -10.8283 0
      vertex -3.06707 -11.6861 0
    endloop
  endfacet
  facet normal 0 0 -1
    outer loop
      vertex -2.25 -10 0
      vertex -2.5 -7.55583 0
      vertex -2.34179 -4.97655 0
    endloop
  endfacet
  facet normal -0 0 -1
    outer loop
      vertex -2.092 -10.8283 0
      vertex -3.25422 -11.2884 0
      vertex -2.17931 -10.5596 0
    endloop
  endfacet
  facet normal 0 0 -1
    outer loop
      vertex -3.39004 -10.8704 0
      vertex -2.17931 -10.5596 0
      vertex -3.25422 -11.2884 0
    endloop
  endfacet
  facet normal 0 -0 -1
    outer loop
      vertex -2.55139 -7.60408 0
      vertex -2.25 -10 0
      vertex -2.83156 -7.94275 0
    endloop
  endfacet
  facet normal 0 0 -1
    outer loop
      vertex -2.25 -10 0
      vertex -2.55139 -7.60408 0
      vertex -2.5 -7.55583 0
    endloop
  endfacet
  facet normal -0 0 -1
    outer loop
      vertex -2.17931 -10.5596 0
      vertex -3.39004 -10.8704 0
      vertex -2.23226 -10.282 0
    endloop
  endfacet
  facet normal 0 0 -1
    outer loop
      vertex -2.25 -10 0
      vertex -3.06707 -8.31386 0
      vertex -2.83156 -7.94275 0
    endloop
  endfacet
  facet normal 0 0 -1
    outer loop
      vertex -3.4724 -10.4387 0
      vertex -2.23226 -10.282 0
      vertex -3.39004 -10.8704 0
    endloop
  endfacet
  facet normal 0 0 -1
    outer loop
      vertex -2.25 -10 0
      vertex -3.25422 -8.71156 0
      vertex -3.06707 -8.31386 0
    endloop
  endfacet
  facet normal -0 0 -1
    outer loop
      vertex -2.23226 -10.282 0
      vertex -3.4724 -10.4387 0
      vertex -2.25 -10 0
    endloop
  endfacet
  facet normal 0 0 -1
    outer loop
      vertex -2.25 -10 0
      vertex -3.39004 -9.12959 0
      vertex -3.25422 -8.71156 0
    endloop
  endfacet
  facet normal 0 0 -1
    outer loop
      vertex -3.5 -10 0
      vertex -2.25 -10 0
      vertex -3.4724 -10.4387 0
    endloop
  endfacet
  facet normal 0 0 -1
    outer loop
      vertex -2.25 -10 0
      vertex -3.4724 -9.56133 0
      vertex -3.39004 -9.12959 0
    endloop
  endfacet
  facet normal 0 0 -1
    outer loop
      vertex -2.25 -10 0
      vertex -3.5 -10 0
      vertex -3.4724 -9.56133 0
    endloop
  endfacet
  facet normal 0 0 -1
    outer loop
      vertex 2.25 -10 0
      vertex 3.5 -10 0
      vertex 3.4724 -10.4387 0
    endloop
  endfacet
  facet normal 0 0 -1
    outer loop
      vertex 2.23226 -10.282 0
      vertex 3.4724 -10.4387 0
      vertex 3.39004 -10.8704 0
    endloop
  endfacet
  facet normal 0 0 -1
    outer loop
      vertex 3.5 -10 0
      vertex 2.25 -10 0
      vertex 3.4724 -9.56133 0
    endloop
  endfacet
  facet normal 0 0 -1
    outer loop
      vertex 2.17931 -10.5596 0
      vertex 3.39004 -10.8704 0
      vertex 3.25422 -11.2884 0
    endloop
  endfacet
  facet normal 0 0 -1
    outer loop
      vertex 2.23226 -9.718 0
      vertex 3.4724 -9.56133 0
      vertex 2.25 -10 0
    endloop
  endfacet
  facet normal 0 0 -1
    outer loop
      vertex 2.092 -10.8283 0
      vertex 3.25422 -11.2884 0
      vertex 3.06707 -11.6861 0
    endloop
  endfacet
  facet normal -0 0 -1
    outer loop
      vertex 3.4724 -9.56133 0
      vertex 2.23226 -9.718 0
      vertex 3.39004 -9.12959 0
    endloop
  endfacet
  facet normal 0 0 -1
    outer loop
      vertex 1.97169 -11.0839 0
      vertex 3.06707 -11.6861 0
      vertex 2.83156 -12.0572 0
    endloop
  endfacet
  facet normal 0 0 -1
    outer loop
      vertex 2.17931 -9.44045 0
      vertex 3.39004 -9.12959 0
      vertex 2.23226 -9.718 0
    endloop
  endfacet
  facet normal 0 0 -1
    outer loop
      vertex 1.7 -11.4679 0
      vertex 2.83156 -12.0572 0
      vertex 2.55139 -12.3959 0
    endloop
  endfacet
  facet normal -0 0 -1
    outer loop
      vertex 3.39004 -9.12959 0
      vertex 2.17931 -9.44045 0
      vertex 3.25422 -8.71156 0
    endloop
  endfacet
  facet normal 0 0 -1
    outer loop
      vertex 2.092 -9.17172 0
      vertex 3.25422 -8.71156 0
      vertex 2.17931 -9.44045 0
    endloop
  endfacet
  facet normal 0 0 -1
    outer loop
      vertex 0.958003 -7.96414 0
      vertex 2.5 -6.52401 0
      vertex 2.5 -7.55583 0
    endloop
  endfacet
  facet normal -0 0 -1
    outer loop
      vertex 3.25422 -8.71156 0
      vertex 2.092 -9.17172 0
      vertex 3.06707 -8.31386 0
    endloop
  endfacet
  facet normal 0 0 -1
    outer loop
      vertex 1.97169 -8.91605 0
      vertex 3.06707 -8.31386 0
      vertex 2.092 -9.17172 0
    endloop
  endfacet
  facet normal 0 0 -1
    outer loop
      vertex 3.4724 -10.4387 0
      vertex 2.23226 -10.282 0
      vertex 2.25 -10 0
    endloop
  endfacet
  facet normal 0 0 -1
    outer loop
      vertex 1.7 -11.4679 0
      vertex 2.55139 -12.3959 0
      vertex 2.23098 -12.6968 0
    endloop
  endfacet
  facet normal 0 0 -1
    outer loop
      vertex 3.39004 -10.8704 0
      vertex 2.17931 -10.5596 0
      vertex 2.23226 -10.282 0
    endloop
  endfacet
  facet normal 0 0 -1
    outer loop
      vertex 3.25422 -11.2884 0
      vertex 2.092 -10.8283 0
      vertex 2.17931 -10.5596 0
    endloop
  endfacet
  facet normal 0 0 -1
    outer loop
      vertex 3.06707 -11.6861 0
      vertex 1.97169 -11.0839 0
      vertex 2.092 -10.8283 0
    endloop
  endfacet
  facet normal 0 0 -1
    outer loop
      vertex 1.7 -11.4679 0
      vertex 2.23098 -12.6968 0
      vertex 1.87539 -12.9551 0
    endloop
  endfacet
  facet normal 0 0 -1
    outer loop
      vertex 2.83156 -12.0572 0
      vertex 1.82029 -11.3225 0
      vertex 1.97169 -11.0839 0
    endloop
  endfacet
  facet normal 0 0 -1
    outer loop
      vertex 1.7 -11.4679 0
      vertex 1.87539 -12.9551 0
      vertex 1.7 -13.0516 0
    endloop
  endfacet
  facet normal 0 0 -1
    outer loop
      vertex 2.83156 -12.0572 0
      vertex 1.7 -11.4679 0
      vertex 1.82029 -11.3225 0
    endloop
  endfacet
  facet normal 0 0 -1
    outer loop
      vertex 5.5 0 0
      vertex 7 0 0
      vertex 6.9448 -0.877332 0
    endloop
  endfacet
  facet normal 0 0 -1
    outer loop
      vertex 5.45663 -0.689332 0
      vertex 6.9448 -0.877332 0
      vertex 6.78008 -1.74083 0
    endloop
  endfacet
  facet normal 0 0 -1
    outer loop
      vertex 7 0 0
      vertex 5.5 0 0
      vertex 6.9448 0.877332 0
    endloop
  endfacet
  facet normal 0 0 -1
    outer loop
      vertex 5.32721 -1.36779 0
      vertex 6.78008 -1.74083 0
      vertex 6.50844 -2.57687 0
    endloop
  endfacet
  facet normal 0 0 -1
    outer loop
      vertex 5.45663 0.689332 0
      vertex 6.9448 0.877332 0
      vertex 5.5 0 0
    endloop
  endfacet
  facet normal 0 0 -1
    outer loop
      vertex 5.11377 -2.02468 0
      vertex 6.50844 -2.57687 0
      vertex 6.13415 -3.37228 0
    endloop
  endfacet
  facet normal -0 0 -1
    outer loop
      vertex 6.9448 0.877332 0
      vertex 5.45663 0.689332 0
      vertex 6.78008 1.74083 0
    endloop
  endfacet
  facet normal 0 0 -1
    outer loop
      vertex 4.81969 -2.64964 0
      vertex 6.13415 -3.37228 0
      vertex 5.66312 -4.1145 0
    endloop
  endfacet
  facet normal 0 0 -1
    outer loop
      vertex 5.32721 1.36779 0
      vertex 6.78008 1.74083 0
      vertex 5.45663 0.689332 0
    endloop
  endfacet
  facet normal -0 0 -1
    outer loop
      vertex 6.78008 1.74083 0
      vertex 5.32721 1.36779 0
      vertex 6.50844 2.57687 0
    endloop
  endfacet
  facet normal 0 0 -1
    outer loop
      vertex 6.9448 -0.877332 0
      vertex 5.45663 -0.689332 0
      vertex 5.5 0 0
    endloop
  endfacet
  facet normal 0 0 -1
    outer loop
      vertex 6.78008 -1.74083 0
      vertex 5.32721 -1.36779 0
      vertex 5.45663 -0.689332 0
    endloop
  endfacet
  facet normal 0 0 -1
    outer loop
      vertex 6.50844 -2.57687 0
      vertex 5.11377 -2.02468 0
      vertex 5.32721 -1.36779 0
    endloop
  endfacet
  facet normal 0 0 -1
    outer loop
      vertex 4.44959 -3.23282 0
      vertex 5.66312 -4.1145 0
      vertex 5.10278 -4.79183 0
    endloop
  endfacet
  facet normal 0 0 -1
    outer loop
      vertex 6.13415 -3.37228 0
      vertex 4.81969 -2.64964 0
      vertex 5.11377 -2.02468 0
    endloop
  endfacet
  facet normal 0 0 -1
    outer loop
      vertex 4.00933 -3.76501 0
      vertex 5.10278 -4.79183 0
      vertex 4.46197 -5.39359 0
    endloop
  endfacet
  facet normal 0 0 -1
    outer loop
      vertex 5.66312 -4.1145 0
      vertex 4.44959 -3.23282 0
      vertex 4.81969 -2.64964 0
    endloop
  endfacet
  facet normal 0 0 -1
    outer loop
      vertex 5.10278 -4.79183 0
      vertex 4.00933 -3.76501 0
      vertex 4.44959 -3.23282 0
    endloop
  endfacet
  facet normal 0 0 -1
    outer loop
      vertex 3.50583 -4.23782 0
      vertex 4.46197 -5.39359 0
      vertex 3.75079 -5.91029 0
    endloop
  endfacet
  facet normal 0 0 -1
    outer loop
      vertex 4.46197 -5.39359 0
      vertex 3.50583 -4.23782 0
      vertex 4.00933 -3.76501 0
    endloop
  endfacet
  facet normal 0 0 -1
    outer loop
      vertex 2.94705 -4.6438 0
      vertex 3.75079 -5.91029 0
      vertex 2.98045 -6.33379 0
    endloop
  endfacet
  facet normal 0 0 -1
    outer loop
      vertex 3.75079 -5.91029 0
      vertex 2.94705 -4.6438 0
      vertex 3.50583 -4.23782 0
    endloop
  endfacet
  facet normal 0 0 -1
    outer loop
      vertex 2.34179 -4.97655 0
      vertex 2.98045 -6.33379 0
      vertex 2.5 -6.52401 0
    endloop
  endfacet
  facet normal 0 0 -1
    outer loop
      vertex 2.98045 -6.33379 0
      vertex 2.34179 -4.97655 0
      vertex 2.94705 -4.6438 0
    endloop
  endfacet
  facet normal 0 0 -1
    outer loop
      vertex 5.11377 2.02468 0
      vertex 6.50844 2.57687 0
      vertex 5.32721 1.36779 0
    endloop
  endfacet
  facet normal -0 0 -1
    outer loop
      vertex 6.50844 2.57687 0
      vertex 5.11377 2.02468 0
      vertex 6.13415 3.37228 0
    endloop
  endfacet
  facet normal 0 0 -1
    outer loop
      vertex 4.81969 2.64964 0
      vertex 6.13415 3.37228 0
      vertex 5.11377 2.02468 0
    endloop
  endfacet
  facet normal -0 0 -1
    outer loop
      vertex 6.13415 3.37228 0
      vertex 4.81969 2.64964 0
      vertex 5.66312 4.1145 0
    endloop
  endfacet
  facet normal 0 0 -1
    outer loop
      vertex 4.44959 3.23282 0
      vertex 5.66312 4.1145 0
      vertex 4.81969 2.64964 0
    endloop
  endfacet
  facet normal -0 0 -1
    outer loop
      vertex 5.66312 4.1145 0
      vertex 4.44959 3.23282 0
      vertex 5.10278 4.79183 0
    endloop
  endfacet
  facet normal 0 0 -1
    outer loop
      vertex 4.00933 3.76501 0
      vertex 5.10278 4.79183 0
      vertex 4.44959 3.23282 0
    endloop
  endfacet
  facet normal 0 0 -1
    outer loop
      vertex 4 3.77377 0
      vertex 5.10278 4.79183 0
      vertex 4.00933 3.76501 0
    endloop
  endfacet
  facet normal -0 0 -1
    outer loop
      vertex 5.10278 4.79183 0
      vertex 4 3.77377 0
      vertex 4.46197 5.39359 0
    endloop
  endfacet
  facet normal -0 0 -1
    outer loop
      vertex 4.46197 5.39359 0
      vertex 4 3.77377 0
      vertex 4 5.72923 0
    endloop
  endfacet
  facet normal -0 0 -1
    outer loop
      vertex 3.06707 -8.31386 0
      vertex 1.97169 -8.91605 0
      vertex 2.83156 -7.94275 0
    endloop
  endfacet
  facet normal 0 0 -1
    outer loop
      vertex 1.82029 -8.67748 0
      vertex 2.83156 -7.94275 0
      vertex 1.97169 -8.91605 0
    endloop
  endfacet
  facet normal -0 0 -1
    outer loop
      vertex 2.83156 -7.94275 0
      vertex 1.82029 -8.67748 0
      vertex 2.55139 -7.60408 0
    endloop
  endfacet
  facet normal 0 0 -1
    outer loop
      vertex 1.64018 -8.45977 0
      vertex 2.55139 -7.60408 0
      vertex 1.82029 -8.67748 0
    endloop
  endfacet
  facet normal -0 0 -1
    outer loop
      vertex 2.55139 -7.60408 0
      vertex 1.64018 -8.45977 0
      vertex 2.5 -7.55583 0
    endloop
  endfacet
  facet normal 0 0 -1
    outer loop
      vertex 1.4342 -8.26635 0
      vertex 2.5 -7.55583 0
      vertex 1.64018 -8.45977 0
    endloop
  endfacet
  facet normal 0 0 -1
    outer loop
      vertex 1.20561 -8.10026 0
      vertex 2.5 -7.55583 0
      vertex 1.4342 -8.26635 0
    endloop
  endfacet
  facet normal 0 0 -1
    outer loop
      vertex 2.5 -6.52401 0
      vertex 1.69959 -5.23081 0
      vertex 2.34179 -4.97655 0
    endloop
  endfacet
  facet normal 0 0 -1
    outer loop
      vertex 0.958003 -7.96414 0
      vertex 2.5 -7.55583 0
      vertex 1.20561 -8.10026 0
    endloop
  endfacet
  facet normal 0 0 -1
    outer loop
      vertex 0.695288 -7.86012 0
      vertex 2.5 -6.52401 0
      vertex 0.958003 -7.96414 0
    endloop
  endfacet
  facet normal 0 0 -1
    outer loop
      vertex 2.5 -6.52401 0
      vertex 1.0306 -5.40258 0
      vertex 1.69959 -5.23081 0
    endloop
  endfacet
  facet normal -0 0 -1
    outer loop
      vertex 2.5 -6.52401 0
      vertex 0.695288 -7.86012 0
      vertex 1.0306 -5.40258 0
    endloop
  endfacet
  facet normal 0 0 -1
    outer loop
      vertex 0.421607 -7.78985 0
      vertex 1.0306 -5.40258 0
      vertex 0.695288 -7.86012 0
    endloop
  endfacet
  facet normal 0 0 -1
    outer loop
      vertex 0.421607 -7.78985 0
      vertex 0.345347 -5.48915 0
      vertex 1.0306 -5.40258 0
    endloop
  endfacet
  facet normal 0 0 -1
    outer loop
      vertex 0.141278 -7.75444 0
      vertex 0.345347 -5.48915 0
      vertex 0.421607 -7.78985 0
    endloop
  endfacet
  facet normal 0 0 -1
    outer loop
      vertex -0.141278 -7.75444 0
      vertex 0.345347 -5.48915 0
      vertex 0.141278 -7.75444 0
    endloop
  endfacet
  facet normal 0 0 -1
    outer loop
      vertex -0.141278 -7.75444 0
      vertex -0.345347 -5.48915 0
      vertex 0.345347 -5.48915 0
    endloop
  endfacet
  facet normal 0 0 -1
    outer loop
      vertex -0.421607 -7.78985 0
      vertex -0.345347 -5.48915 0
      vertex -0.141278 -7.75444 0
    endloop
  endfacet
  facet normal 0 0 -1
    outer loop
      vertex -1.0306 -5.40258 0
      vertex -0.421607 -7.78985 0
      vertex -0.695288 -7.86012 0
    endloop
  endfacet
  facet normal 0 0 -1
    outer loop
      vertex -1.0306 -5.40258 0
      vertex -0.695288 -7.86012 0
      vertex -0.958003 -7.96414 0
    endloop
  endfacet
  facet normal 0 0 -1
    outer loop
      vertex -0.421607 -7.78985 0
      vertex -1.0306 -5.40258 0
      vertex -0.345347 -5.48915 0
    endloop
  endfacet
  facet normal 0 0 -1
    outer loop
      vertex -1.69959 -5.23081 0
      vertex -0.958003 -7.96414 0
      vertex -1.20561 -8.10026 0
    endloop
  endfacet
  facet normal 0 0 -1
    outer loop
      vertex -1.69959 -5.23081 0
      vertex -1.20561 -8.10026 0
      vertex -1.4342 -8.26635 0
    endloop
  endfacet
  facet normal 0 0 -1
    outer loop
      vertex -2.34179 -4.97655 0
      vertex -1.4342 -8.26635 0
      vertex -1.64018 -8.45977 0
    endloop
  endfacet
  facet normal 0 0 -1
    outer loop
      vertex -0.958003 -7.96414 0
      vertex -1.69959 -5.23081 0
      vertex -1.0306 -5.40258 0
    endloop
  endfacet
  facet normal 0 0 -1
    outer loop
      vertex -2.34179 -4.97655 0
      vertex -1.64018 -8.45977 0
      vertex -1.82029 -8.67748 0
    endloop
  endfacet
  facet normal 0 0 -1
    outer loop
      vertex -2.34179 -4.97655 0
      vertex -1.82029 -8.67748 0
      vertex -1.97169 -8.91605 0
    endloop
  endfacet
  facet normal 0 0 -1
    outer loop
      vertex -2.34179 -4.97655 0
      vertex -1.97169 -8.91605 0
      vertex -2.092 -9.17172 0
    endloop
  endfacet
  facet normal 0 0 -1
    outer loop
      vertex -2.34179 -4.97655 0
      vertex -2.092 -9.17172 0
      vertex -2.17931 -9.44045 0
    endloop
  endfacet
  facet normal 0 0 -1
    outer loop
      vertex -2.34179 -4.97655 0
      vertex -2.17931 -9.44045 0
      vertex -2.23226 -9.718 0
    endloop
  endfacet
  facet normal 0 0 -1
    outer loop
      vertex -1.4342 -8.26635 0
      vertex -2.34179 -4.97655 0
      vertex -1.69959 -5.23081 0
    endloop
  endfacet
  facet normal 0 0 -1
    outer loop
      vertex -2.34179 -4.97655 0
      vertex -2.23226 -9.718 0
      vertex -2.25 -10 0
    endloop
  endfacet
  facet normal 0 0 -1
    outer loop
      vertex -2.5 -6.52401 0
      vertex -2.34179 -4.97655 0
      vertex -2.5 -7.55583 0
    endloop
  endfacet
  facet normal 0 0 -1
    outer loop
      vertex -2.98045 -6.33379 0
      vertex -2.34179 -4.97655 0
      vertex -2.5 -6.52401 0
    endloop
  endfacet
  facet normal -0 0 -1
    outer loop
      vertex -2.34179 -4.97655 0
      vertex -2.98045 -6.33379 0
      vertex -2.94705 -4.6438 0
    endloop
  endfacet
  facet normal 0 0 -1
    outer loop
      vertex -3.75079 -5.91029 0
      vertex -2.94705 -4.6438 0
      vertex -2.98045 -6.33379 0
    endloop
  endfacet
  facet normal -0 0 -1
    outer loop
      vertex -2.94705 -4.6438 0
      vertex -3.75079 -5.91029 0
      vertex -3.50583 -4.23782 0
    endloop
  endfacet
  facet normal 0 0 -1
    outer loop
      vertex -4.46197 -5.39359 0
      vertex -3.50583 -4.23782 0
      vertex -3.75079 -5.91029 0
    endloop
  endfacet
  facet normal -0 0 -1
    outer loop
      vertex -3.50583 -4.23782 0
      vertex -4.46197 -5.39359 0
      vertex -4.00933 -3.76501 0
    endloop
  endfacet
  facet normal 0 0 -1
    outer loop
      vertex -5.10278 -4.79183 0
      vertex -4.00933 -3.76501 0
      vertex -4.46197 -5.39359 0
    endloop
  endfacet
  facet normal -0 0 -1
    outer loop
      vertex -4.00933 -3.76501 0
      vertex -5.10278 -4.79183 0
      vertex -4.44959 -3.23282 0
    endloop
  endfacet
  facet normal 0 0 -1
    outer loop
      vertex -5.66312 -4.1145 0
      vertex -4.44959 -3.23282 0
      vertex -5.10278 -4.79183 0
    endloop
  endfacet
  facet normal -0 0 -1
    outer loop
      vertex -4.44959 -3.23282 0
      vertex -5.66312 -4.1145 0
      vertex -4.81969 -2.64964 0
    endloop
  endfacet
  facet normal 0 0 -1
    outer loop
      vertex -6.13415 -3.37228 0
      vertex -4.81969 -2.64964 0
      vertex -5.66312 -4.1145 0
    endloop
  endfacet
  facet normal -0 0 -1
    outer loop
      vertex -4.81969 -2.64964 0
      vertex -6.13415 -3.37228 0
      vertex -5.11377 -2.02468 0
    endloop
  endfacet
  facet normal -0 0 -1
    outer loop
      vertex -5.11377 -2.02468 0
      vertex -6.50844 -2.57687 0
      vertex -5.32721 -1.36779 0
    endloop
  endfacet
  facet normal 0 0 -1
    outer loop
      vertex -6.50844 -2.57687 0
      vertex -5.11377 -2.02468 0
      vertex -6.13415 -3.37228 0
    endloop
  endfacet
  facet normal 0 0 -1
    outer loop
      vertex -5.10278 4.79183 0
      vertex -4 3.77377 0
      vertex -4.00933 3.76501 0
    endloop
  endfacet
  facet normal 0 0 -1
    outer loop
      vertex -5.10278 4.79183 0
      vertex -4.00933 3.76501 0
      vertex -4.44959 3.23282 0
    endloop
  endfacet
  facet normal 0 0 -1
    outer loop
      vertex -4 3.77377 0
      vertex -4.46197 5.39359 0
      vertex -4 5.72923 0
    endloop
  endfacet
  facet normal 0 0 -1
    outer loop
      vertex -5.66312 4.1145 0
      vertex -4.44959 3.23282 0
      vertex -4.81969 2.64964 0
    endloop
  endfacet
  facet normal 0 0 -1
    outer loop
      vertex -4 3.77377 0
      vertex -5.10278 4.79183 0
      vertex -4.46197 5.39359 0
    endloop
  endfacet
  facet normal 0 0 -1
    outer loop
      vertex -6.13415 3.37228 0
      vertex -4.81969 2.64964 0
      vertex -5.11377 2.02468 0
    endloop
  endfacet
  facet normal 0 0 -1
    outer loop
      vertex -6.50844 2.57687 0
      vertex -5.11377 2.02468 0
      vertex -5.32721 1.36779 0
    endloop
  endfacet
  facet normal 0 0 -1
    outer loop
      vertex -6.78008 1.74083 0
      vertex -5.32721 1.36779 0
      vertex -5.45663 0.689332 0
    endloop
  endfacet
  facet normal 0 0 -1
    outer loop
      vertex -4.44959 3.23282 0
      vertex -5.66312 4.1145 0
      vertex -5.10278 4.79183 0
    endloop
  endfacet
  facet normal 0 0 -1
    outer loop
      vertex -6.9448 0.877332 0
      vertex -5.45663 0.689332 0
      vertex -5.5 0 0
    endloop
  endfacet
  facet normal 0 0 -1
    outer loop
      vertex -6.78008 -1.74083 0
      vertex -5.32721 -1.36779 0
      vertex -6.50844 -2.57687 0
    endloop
  endfacet
  facet normal -0 0 -1
    outer loop
      vertex -5.32721 -1.36779 0
      vertex -6.78008 -1.74083 0
      vertex -5.45663 -0.689332 0
    endloop
  endfacet
  facet normal 0 0 -1
    outer loop
      vertex -4.81969 2.64964 0
      vertex -6.13415 3.37228 0
      vertex -5.66312 4.1145 0
    endloop
  endfacet
  facet normal 0 0 -1
    outer loop
      vertex -6.9448 -0.877332 0
      vertex -5.45663 -0.689332 0
      vertex -6.78008 -1.74083 0
    endloop
  endfacet
  facet normal 0 0 -1
    outer loop
      vertex -5.11377 2.02468 0
      vertex -6.50844 2.57687 0
      vertex -6.13415 3.37228 0
    endloop
  endfacet
  facet normal -0 0 -1
    outer loop
      vertex -5.45663 -0.689332 0
      vertex -6.9448 -0.877332 0
      vertex -5.5 0 0
    endloop
  endfacet
  facet normal 0 0 -1
    outer loop
      vertex -5.32721 1.36779 0
      vertex -6.78008 1.74083 0
      vertex -6.50844 2.57687 0
    endloop
  endfacet
  facet normal 0 0 -1
    outer loop
      vertex -7 0 0
      vertex -5.5 0 0
      vertex -6.9448 -0.877332 0
    endloop
  endfacet
  facet normal 0 0 -1
    outer loop
      vertex -5.45663 0.689332 0
      vertex -6.9448 0.877332 0
      vertex -6.78008 1.74083 0
    endloop
  endfacet
  facet normal 0 0 -1
    outer loop
      vertex -5.5 0 0
      vertex -7 0 0
      vertex -6.9448 0.877332 0
    endloop
  endfacet
  facet normal -0.844328 -0.535826 0
    outer loop
      vertex -2.83156 -12.0572 0
      vertex -3.06707 -11.6861 4
      vertex -3.06707 -11.6861 0
    endloop
  endfacet
  facet normal -0.844328 -0.535826 0
    outer loop
      vertex -3.06707 -11.6861 4
      vertex -2.83156 -12.0572 0
      vertex -2.83156 -12.0572 4
    endloop
  endfacet
  facet normal 0.770513 -0.637425 0
    outer loop
      vertex 2.55139 -12.3959 4
      vertex 2.83156 -12.0572 0
      vertex 2.83156 -12.0572 4
    endloop
  endfacet
  facet normal 0.770513 -0.637425 0
    outer loop
      vertex 2.83156 -12.0572 0
      vertex 2.55139 -12.3959 4
      vertex 2.55139 -12.3959 0
    endloop
  endfacet
  facet normal 0.587784 -0.809018 0
    outer loop
      vertex 1.87539 -12.9551 0
      vertex 2.23098 -12.6968 4
      vertex 1.87539 -12.9551 4
    endloop
  endfacet
  facet normal 0.587784 -0.809018 0
    outer loop
      vertex 2.23098 -12.6968 4
      vertex 1.87539 -12.9551 0
      vertex 2.23098 -12.6968 0
    endloop
  endfacet
  facet normal -0.951057 -0.309017 0
    outer loop
      vertex -3.25422 -11.2884 0
      vertex -3.39004 -10.8704 4
      vertex -3.39004 -10.8704 0
    endloop
  endfacet
  facet normal -0.951057 -0.309017 0
    outer loop
      vertex -3.39004 -10.8704 4
      vertex -3.25422 -11.2884 0
      vertex -3.25422 -11.2884 4
    endloop
  endfacet
  facet normal -0.684547 -0.728968 0
    outer loop
      vertex -2.55139 -12.3959 0
      vertex -2.23098 -12.6968 4
      vertex -2.55139 -12.3959 4
    endloop
  endfacet
  facet normal -0.684547 -0.728968 -0
    outer loop
      vertex -2.23098 -12.6968 4
      vertex -2.55139 -12.3959 0
      vertex -2.23098 -12.6968 0
    endloop
  endfacet
  facet normal -0.481754 -0.876307 0
    outer loop
      vertex -1.87539 -12.9551 0
      vertex -1.7 -13.0516 4
      vertex -1.87539 -12.9551 4
    endloop
  endfacet
  facet normal -0.481754 -0.876307 -0
    outer loop
      vertex -1.7 -13.0516 4
      vertex -1.87539 -12.9551 0
      vertex -1.7 -13.0516 0
    endloop
  endfacet
  facet normal -0.587784 -0.809018 0
    outer loop
      vertex -2.23098 -12.6968 0
      vertex -1.87539 -12.9551 4
      vertex -2.23098 -12.6968 4
    endloop
  endfacet
  facet normal -0.587784 -0.809018 -0
    outer loop
      vertex -1.87539 -12.9551 4
      vertex -2.23098 -12.6968 0
      vertex -1.87539 -12.9551 0
    endloop
  endfacet
  facet normal -0.998027 -0.0627912 0
    outer loop
      vertex 2.25 -10 0
      vertex 2.23226 -9.718 4
      vertex 2.23226 -9.718 0
    endloop
  endfacet
  facet normal -0.998027 -0.0627912 0
    outer loop
      vertex 2.23226 -9.718 4
      vertex 2.25 -10 0
      vertex 2.25 -10 4
    endloop
  endfacet
  facet normal 0.998027 -0.0627912 0
    outer loop
      vertex -2.25 -10 4
      vertex -2.23226 -9.718 0
      vertex -2.23226 -9.718 4
    endloop
  endfacet
  facet normal 0.998027 -0.0627912 0
    outer loop
      vertex -2.23226 -9.718 0
      vertex -2.25 -10 4
      vertex -2.25 -10 0
    endloop
  endfacet
  facet normal 0 -1 0
    outer loop
      vertex -0.141278 -7.75444 0
      vertex 0.141278 -7.75444 4
      vertex -0.141278 -7.75444 4
    endloop
  endfacet
  facet normal 0 -1 -0
    outer loop
      vertex 0.141278 -7.75444 4
      vertex -0.141278 -7.75444 0
      vertex 0.141278 -7.75444 0
    endloop
  endfacet
  facet normal -0.684546 -0.72897 0
    outer loop
      vertex 1.4342 -8.26635 0
      vertex 1.64018 -8.45977 4
      vertex 1.4342 -8.26635 4
    endloop
  endfacet
  facet normal -0.684546 -0.72897 -0
    outer loop
      vertex 1.64018 -8.45977 4
      vertex 1.4342 -8.26635 0
      vertex 1.64018 -8.45977 0
    endloop
  endfacet
  facet normal 0.684546 -0.72897 0
    outer loop
      vertex -1.64018 -8.45977 0
      vertex -1.4342 -8.26635 4
      vertex -1.64018 -8.45977 4
    endloop
  endfacet
  facet normal 0.684546 -0.72897 0
    outer loop
      vertex -1.4342 -8.26635 4
      vertex -1.64018 -8.45977 0
      vertex -1.4342 -8.26635 0
    endloop
  endfacet
  facet normal 0.368124 -0.929777 0
    outer loop
      vertex -0.958003 -7.96414 0
      vertex -0.695288 -7.86012 4
      vertex -0.958003 -7.96414 4
    endloop
  endfacet
  facet normal 0.368124 -0.929777 0
    outer loop
      vertex -0.695288 -7.86012 4
      vertex -0.958003 -7.96414 0
      vertex -0.695288 -7.86012 0
    endloop
  endfacet
  facet normal -0.904827 -0.425779 0
    outer loop
      vertex 2.092 -9.17172 0
      vertex 1.97169 -8.91605 4
      vertex 1.97169 -8.91605 0
    endloop
  endfacet
  facet normal -0.904827 -0.425779 0
    outer loop
      vertex 1.97169 -8.91605 4
      vertex 2.092 -9.17172 0
      vertex 2.092 -9.17172 4
    endloop
  endfacet
  facet normal -0.982287 -0.187382 0
    outer loop
      vertex 2.23226 -9.718 0
      vertex 2.17931 -9.44045 4
      vertex 2.17931 -9.44045 0
    endloop
  endfacet
  facet normal -0.982287 -0.187382 0
    outer loop
      vertex 2.17931 -9.44045 4
      vertex 2.23226 -9.718 0
      vertex 2.23226 -9.718 4
    endloop
  endfacet
  facet normal -0.368124 -0.929777 0
    outer loop
      vertex 0.695288 -7.86012 0
      vertex 0.958003 -7.96414 4
      vertex 0.695288 -7.86012 4
    endloop
  endfacet
  facet normal -0.368124 -0.929777 -0
    outer loop
      vertex 0.958003 -7.96414 4
      vertex 0.695288 -7.86012 0
      vertex 0.958003 -7.96414 0
    endloop
  endfacet
  facet normal -0.248691 -0.968583 0
    outer loop
      vertex 0.421607 -7.78985 0
      vertex 0.695288 -7.86012 4
      vertex 0.421607 -7.78985 4
    endloop
  endfacet
  facet normal -0.248691 -0.968583 -0
    outer loop
      vertex 0.695288 -7.86012 4
      vertex 0.421607 -7.78985 0
      vertex 0.695288 -7.86012 0
    endloop
  endfacet
  facet normal -0.587787 -0.809015 0
    outer loop
      vertex 1.20561 -8.10026 0
      vertex 1.4342 -8.26635 4
      vertex 1.20561 -8.10026 4
    endloop
  endfacet
  facet normal -0.587787 -0.809015 -0
    outer loop
      vertex 1.4342 -8.26635 4
      vertex 1.20561 -8.10026 0
      vertex 1.4342 -8.26635 0
    endloop
  endfacet
  facet normal 0.844328 -0.535826 0
    outer loop
      vertex -1.97169 -8.91605 4
      vertex -1.82029 -8.67748 0
      vertex -1.82029 -8.67748 4
    endloop
  endfacet
  facet normal 0.844328 -0.535826 0
    outer loop
      vertex -1.82029 -8.67748 0
      vertex -1.97169 -8.91605 4
      vertex -1.97169 -8.91605 0
    endloop
  endfacet
  facet normal 0.770513 -0.637424 0
    outer loop
      vertex -1.82029 -8.67748 4
      vertex -1.64018 -8.45977 0
      vertex -1.64018 -8.45977 4
    endloop
  endfacet
  facet normal 0.770513 -0.637424 0
    outer loop
      vertex -1.64018 -8.45977 0
      vertex -1.82029 -8.67748 4
      vertex -1.82029 -8.67748 0
    endloop
  endfacet
  facet normal 0.951056 -0.309019 0
    outer loop
      vertex -2.17931 -9.44045 4
      vertex -2.092 -9.17172 0
      vertex -2.092 -9.17172 4
    endloop
  endfacet
  facet normal 0.951056 -0.309019 0
    outer loop
      vertex -2.092 -9.17172 0
      vertex -2.17931 -9.44045 4
      vertex -2.17931 -9.44045 0
    endloop
  endfacet
  facet normal 0.481752 -0.876307 0
    outer loop
      vertex -1.20561 -8.10026 0
      vertex -0.958003 -7.96414 4
      vertex -1.20561 -8.10026 4
    endloop
  endfacet
  facet normal 0.481752 -0.876307 0
    outer loop
      vertex -0.958003 -7.96414 4
      vertex -1.20561 -8.10026 0
      vertex -0.958003 -7.96414 0
    endloop
  endfacet
  facet normal 0.125333 -0.992115 0
    outer loop
      vertex -0.421607 -7.78985 0
      vertex -0.141278 -7.75444 4
      vertex -0.421607 -7.78985 4
    endloop
  endfacet
  facet normal 0.125333 -0.992115 0
    outer loop
      vertex -0.141278 -7.75444 4
      vertex -0.421607 -7.78985 0
      vertex -0.141278 -7.75444 0
    endloop
  endfacet
  facet normal -0.951056 -0.309019 0
    outer loop
      vertex 2.17931 -9.44045 0
      vertex 2.092 -9.17172 4
      vertex 2.092 -9.17172 0
    endloop
  endfacet
  facet normal -0.951056 -0.309019 0
    outer loop
      vertex 2.092 -9.17172 4
      vertex 2.17931 -9.44045 0
      vertex 2.17931 -9.44045 4
    endloop
  endfacet
  facet normal -0.770513 -0.637424 0
    outer loop
      vertex 1.82029 -8.67748 0
      vertex 1.64018 -8.45977 4
      vertex 1.64018 -8.45977 0
    endloop
  endfacet
  facet normal -0.770513 -0.637424 0
    outer loop
      vertex 1.64018 -8.45977 4
      vertex 1.82029 -8.67748 0
      vertex 1.82029 -8.67748 4
    endloop
  endfacet
  facet normal -0.844328 -0.535826 0
    outer loop
      vertex 1.97169 -8.91605 0
      vertex 1.82029 -8.67748 4
      vertex 1.82029 -8.67748 0
    endloop
  endfacet
  facet normal -0.844328 -0.535826 0
    outer loop
      vertex 1.82029 -8.67748 4
      vertex 1.97169 -8.91605 0
      vertex 1.97169 -8.91605 4
    endloop
  endfacet
  facet normal -0.125333 -0.992115 0
    outer loop
      vertex 0.141278 -7.75444 0
      vertex 0.421607 -7.78985 4
      vertex 0.141278 -7.75444 4
    endloop
  endfacet
  facet normal -0.125333 -0.992115 -0
    outer loop
      vertex 0.421607 -7.78985 4
      vertex 0.141278 -7.75444 0
      vertex 0.421607 -7.78985 0
    endloop
  endfacet
  facet normal -0.481752 -0.876307 0
    outer loop
      vertex 0.958003 -7.96414 0
      vertex 1.20561 -8.10026 4
      vertex 0.958003 -7.96414 4
    endloop
  endfacet
  facet normal -0.481752 -0.876307 -0
    outer loop
      vertex 1.20561 -8.10026 4
      vertex 0.958003 -7.96414 0
      vertex 1.20561 -8.10026 0
    endloop
  endfacet
  facet normal 0.904827 -0.425779 0
    outer loop
      vertex -2.092 -9.17172 4
      vertex -1.97169 -8.91605 0
      vertex -1.97169 -8.91605 4
    endloop
  endfacet
  facet normal 0.904827 -0.425779 0
    outer loop
      vertex -1.97169 -8.91605 0
      vertex -2.092 -9.17172 4
      vertex -2.092 -9.17172 0
    endloop
  endfacet
  facet normal 0.982287 -0.187382 0
    outer loop
      vertex -2.23226 -9.718 4
      vertex -2.17931 -9.44045 0
      vertex -2.17931 -9.44045 4
    endloop
  endfacet
  facet normal 0.982287 -0.187382 0
    outer loop
      vertex -2.17931 -9.44045 0
      vertex -2.23226 -9.718 4
      vertex -2.23226 -9.718 0
    endloop
  endfacet
  facet normal -0.844328 0.535826 0
    outer loop
      vertex 1.82029 -11.3225 0
      vertex 1.97169 -11.0839 4
      vertex 1.97169 -11.0839 0
    endloop
  endfacet
  facet normal -0.844328 0.535826 0
    outer loop
      vertex 1.97169 -11.0839 4
      vertex 1.82029 -11.3225 0
      vertex 1.82029 -11.3225 4
    endloop
  endfacet
  facet normal -0.982287 0.187382 0
    outer loop
      vertex 2.17931 -10.5596 0
      vertex 2.23226 -10.282 4
      vertex 2.23226 -10.282 0
    endloop
  endfacet
  facet normal -0.982287 0.187382 0
    outer loop
      vertex 2.23226 -10.282 4
      vertex 2.17931 -10.5596 0
      vertex 2.17931 -10.5596 4
    endloop
  endfacet
  facet normal 0.587787 -0.809015 0
    outer loop
      vertex -1.4342 -8.26635 0
      vertex -1.20561 -8.10026 4
      vertex -1.4342 -8.26635 4
    endloop
  endfacet
  facet normal 0.587787 -0.809015 0
    outer loop
      vertex -1.20561 -8.10026 4
      vertex -1.4342 -8.26635 0
      vertex -1.20561 -8.10026 0
    endloop
  endfacet
  facet normal 0.248691 -0.968583 0
    outer loop
      vertex -0.695288 -7.86012 0
      vertex -0.421607 -7.78985 4
      vertex -0.695288 -7.86012 4
    endloop
  endfacet
  facet normal 0.248691 -0.968583 0
    outer loop
      vertex -0.421607 -7.78985 4
      vertex -0.695288 -7.86012 0
      vertex -0.421607 -7.78985 0
    endloop
  endfacet
  facet normal -0.951056 0.309019 0
    outer loop
      vertex 2.092 -10.8283 0
      vertex 2.17931 -10.5596 4
      vertex 2.17931 -10.5596 0
    endloop
  endfacet
  facet normal -0.951056 0.309019 0
    outer loop
      vertex 2.17931 -10.5596 4
      vertex 2.092 -10.8283 0
      vertex 2.092 -10.8283 4
    endloop
  endfacet
  facet normal -0.904827 0.425779 0
    outer loop
      vertex 1.97169 -11.0839 0
      vertex 2.092 -10.8283 4
      vertex 2.092 -10.8283 0
    endloop
  endfacet
  facet normal -0.904827 0.425779 0
    outer loop
      vertex 2.092 -10.8283 4
      vertex 1.97169 -11.0839 0
      vertex 1.97169 -11.0839 4
    endloop
  endfacet
  facet normal -0.998027 0.0627914 0
    outer loop
      vertex 2.23226 -10.282 0
      vertex 2.25 -10 4
      vertex 2.25 -10 0
    endloop
  endfacet
  facet normal -0.998027 0.0627914 0
    outer loop
      vertex 2.25 -10 4
      vertex 2.23226 -10.282 0
      vertex 2.23226 -10.282 4
    endloop
  endfacet
  facet normal 0.770513 0.637424 0
    outer loop
      vertex -1.7 -11.4679 4
      vertex -1.82029 -11.3225 0
      vertex -1.82029 -11.3225 4
    endloop
  endfacet
  facet normal 0.770513 0.637424 0
    outer loop
      vertex -1.82029 -11.3225 0
      vertex -1.7 -11.4679 4
      vertex -1.7 -11.4679 0
    endloop
  endfacet
  facet normal 0.951056 0.309019 0
    outer loop
      vertex -2.092 -10.8283 4
      vertex -2.17931 -10.5596 0
      vertex -2.17931 -10.5596 4
    endloop
  endfacet
  facet normal 0.951056 0.309019 0
    outer loop
      vertex -2.17931 -10.5596 0
      vertex -2.092 -10.8283 4
      vertex -2.092 -10.8283 0
    endloop
  endfacet
  facet normal -0.770513 0.637424 0
    outer loop
      vertex 1.7 -11.4679 0
      vertex 1.82029 -11.3225 4
      vertex 1.82029 -11.3225 0
    endloop
  endfacet
  facet normal -0.770513 0.637424 0
    outer loop
      vertex 1.82029 -11.3225 4
      vertex 1.7 -11.4679 0
      vertex 1.7 -11.4679 4
    endloop
  endfacet
  facet normal 0.844328 0.535826 0
    outer loop
      vertex -1.82029 -11.3225 4
      vertex -1.97169 -11.0839 0
      vertex -1.97169 -11.0839 4
    endloop
  endfacet
  facet normal 0.844328 0.535826 0
    outer loop
      vertex -1.97169 -11.0839 0
      vertex -1.82029 -11.3225 4
      vertex -1.82029 -11.3225 0
    endloop
  endfacet
  facet normal 0.904827 0.425779 0
    outer loop
      vertex -1.97169 -11.0839 4
      vertex -2.092 -10.8283 0
      vertex -2.092 -10.8283 4
    endloop
  endfacet
  facet normal 0.904827 0.425779 0
    outer loop
      vertex -2.092 -10.8283 0
      vertex -1.97169 -11.0839 4
      vertex -1.97169 -11.0839 0
    endloop
  endfacet
  facet normal 0.982287 0.187382 0
    outer loop
      vertex -2.17931 -10.5596 4
      vertex -2.23226 -10.282 0
      vertex -2.23226 -10.282 4
    endloop
  endfacet
  facet normal 0.982287 0.187382 0
    outer loop
      vertex -2.23226 -10.282 0
      vertex -2.17931 -10.5596 4
      vertex -2.17931 -10.5596 0
    endloop
  endfacet
  facet normal 0.998027 0.0627914 0
    outer loop
      vertex -2.23226 -10.282 4
      vertex -2.25 -10 0
      vertex -2.25 -10 4
    endloop
  endfacet
  facet normal 0.998027 0.0627914 0
    outer loop
      vertex -2.25 -10 0
      vertex -2.23226 -10.282 4
      vertex -2.23226 -10.282 0
    endloop
  endfacet
  facet normal 1 -0 0
    outer loop
      vertex -1.7 -13.0516 4
      vertex -1.7 -11.4679 0
      vertex -1.7 -11.4679 4
    endloop
  endfacet
  facet normal 1 0 0
    outer loop
      vertex -1.7 -11.4679 0
      vertex -1.7 -13.0516 4
      vertex -1.7 -13.0516 0
    endloop
  endfacet
  facet normal -1 0 0
    outer loop
      vertex 1.7 -13.0516 0
      vertex 1.7 -11.4679 4
      vertex 1.7 -11.4679 0
    endloop
  endfacet
  facet normal -1 -0 0
    outer loop
      vertex 1.7 -11.4679 4
      vertex 1.7 -13.0516 0
      vertex 1.7 -13.0516 4
    endloop
  endfacet
  facet normal -0.951057 0.309017 0
    outer loop
      vertex -6.78008 1.74083 0
      vertex -6.50844 2.57687 4
      vertex -6.50844 2.57687 0
    endloop
  endfacet
  facet normal -0.951057 0.309017 0
    outer loop
      vertex -6.50844 2.57687 4
      vertex -6.78008 1.74083 0
      vertex -6.78008 1.74083 4
    endloop
  endfacet
  facet normal 0.844328 0.535827 0
    outer loop
      vertex 6.13415 3.37228 4
      vertex 5.66312 4.1145 0
      vertex 5.66312 4.1145 4
    endloop
  endfacet
  facet normal 0.844328 0.535827 0
    outer loop
      vertex 5.66312 4.1145 0
      vertex 6.13415 3.37228 4
      vertex 6.13415 3.37228 0
    endloop
  endfacet
  facet normal -0.904827 0.425779 0
    outer loop
      vertex -6.50844 2.57687 0
      vertex -6.13415 3.37228 4
      vertex -6.13415 3.37228 0
    endloop
  endfacet
  facet normal -0.904827 0.425779 0
    outer loop
      vertex -6.13415 3.37228 4
      vertex -6.50844 2.57687 0
      vertex -6.50844 2.57687 4
    endloop
  endfacet
  facet normal 0.998027 -0.0627913 0
    outer loop
      vertex 6.9448 -0.877332 4
      vertex 7 0 0
      vertex 7 0 4
    endloop
  endfacet
  facet normal 0.998027 -0.0627913 0
    outer loop
      vertex 7 0 0
      vertex 6.9448 -0.877332 4
      vertex 6.9448 -0.877332 0
    endloop
  endfacet
  facet normal 0.368125 -0.929776 0
    outer loop
      vertex 2.5 -6.52401 0
      vertex 2.98045 -6.33379 4
      vertex 2.5 -6.52401 4
    endloop
  endfacet
  facet normal 0.368125 -0.929776 0
    outer loop
      vertex 2.98045 -6.33379 4
      vertex 2.5 -6.52401 0
      vertex 2.98045 -6.33379 0
    endloop
  endfacet
  facet normal 0.684547 0.728969 -0
    outer loop
      vertex 5.10278 4.79183 0
      vertex 4.46197 5.39359 4
      vertex 5.10278 4.79183 4
    endloop
  endfacet
  facet normal 0.684547 0.728969 0
    outer loop
      vertex 4.46197 5.39359 4
      vertex 5.10278 4.79183 0
      vertex 4.46197 5.39359 0
    endloop
  endfacet
  facet normal -0.770514 0.637424 0
    outer loop
      vertex -5.66312 4.1145 0
      vertex -5.10278 4.79183 4
      vertex -5.10278 4.79183 0
    endloop
  endfacet
  facet normal -0.770514 0.637424 0
    outer loop
      vertex -5.10278 4.79183 4
      vertex -5.66312 4.1145 0
      vertex -5.66312 4.1145 4
    endloop
  endfacet
  facet normal -0.684547 0.728969 0
    outer loop
      vertex -4.46197 5.39359 0
      vertex -5.10278 4.79183 4
      vertex -4.46197 5.39359 4
    endloop
  endfacet
  facet normal -0.684547 0.728969 0
    outer loop
      vertex -5.10278 4.79183 4
      vertex -4.46197 5.39359 0
      vertex -5.10278 4.79183 0
    endloop
  endfacet
  facet normal 0.587785 -0.809017 0
    outer loop
      vertex 3.75079 -5.91029 0
      vertex 4.46197 -5.39359 4
      vertex 3.75079 -5.91029 4
    endloop
  endfacet
  facet normal 0.587785 -0.809017 0
    outer loop
      vertex 4.46197 -5.39359 4
      vertex 3.75079 -5.91029 0
      vertex 4.46197 -5.39359 0
    endloop
  endfacet
  facet normal 0.904827 -0.425779 0
    outer loop
      vertex 6.13415 -3.37228 4
      vertex 6.50844 -2.57687 0
      vertex 6.50844 -2.57687 4
    endloop
  endfacet
  facet normal 0.904827 -0.425779 0
    outer loop
      vertex 6.50844 -2.57687 0
      vertex 6.13415 -3.37228 4
      vertex 6.13415 -3.37228 0
    endloop
  endfacet
  facet normal 0.770514 0.637424 0
    outer loop
      vertex 5.66312 4.1145 4
      vertex 5.10278 4.79183 0
      vertex 5.10278 4.79183 4
    endloop
  endfacet
  facet normal 0.770514 0.637424 0
    outer loop
      vertex 5.10278 4.79183 0
      vertex 5.66312 4.1145 4
      vertex 5.66312 4.1145 0
    endloop
  endfacet
  facet normal 0.587785 0.809017 -0
    outer loop
      vertex 4.46197 5.39359 0
      vertex 4 5.72923 4
      vertex 4.46197 5.39359 4
    endloop
  endfacet
  facet normal 0.587785 0.809017 0
    outer loop
      vertex 4 5.72923 4
      vertex 4.46197 5.39359 0
      vertex 4 5.72923 0
    endloop
  endfacet
  facet normal -0.998027 0.0627913 0
    outer loop
      vertex -7 0 0
      vertex -6.9448 0.877332 4
      vertex -6.9448 0.877332 0
    endloop
  endfacet
  facet normal -0.998027 0.0627913 0
    outer loop
      vertex -6.9448 0.877332 4
      vertex -7 0 0
      vertex -7 0 4
    endloop
  endfacet
  facet normal -0.844328 0.535827 0
    outer loop
      vertex -6.13415 3.37228 0
      vertex -5.66312 4.1145 4
      vertex -5.66312 4.1145 0
    endloop
  endfacet
  facet normal -0.844328 0.535827 0
    outer loop
      vertex -5.66312 4.1145 4
      vertex -6.13415 3.37228 0
      vertex -6.13415 3.37228 4
    endloop
  endfacet
  facet normal -0.587785 0.809017 0
    outer loop
      vertex -4 5.72923 0
      vertex -4.46197 5.39359 4
      vertex -4 5.72923 4
    endloop
  endfacet
  facet normal -0.587785 0.809017 0
    outer loop
      vertex -4.46197 5.39359 4
      vertex -4 5.72923 0
      vertex -4.46197 5.39359 0
    endloop
  endfacet
  facet normal 0.998027 0.0627913 0
    outer loop
      vertex 7 0 4
      vertex 6.9448 0.877332 0
      vertex 6.9448 0.877332 4
    endloop
  endfacet
  facet normal 0.998027 0.0627913 0
    outer loop
      vertex 6.9448 0.877332 0
      vertex 7 0 4
      vertex 7 0 0
    endloop
  endfacet
  facet normal 0.770514 -0.637424 0
    outer loop
      vertex 5.10278 -4.79183 4
      vertex 5.66312 -4.1145 0
      vertex 5.66312 -4.1145 4
    endloop
  endfacet
  facet normal 0.770514 -0.637424 0
    outer loop
      vertex 5.66312 -4.1145 0
      vertex 5.10278 -4.79183 4
      vertex 5.10278 -4.79183 0
    endloop
  endfacet
  facet normal 0.844328 -0.535827 0
    outer loop
      vertex 5.66312 -4.1145 4
      vertex 6.13415 -3.37228 0
      vertex 6.13415 -3.37228 4
    endloop
  endfacet
  facet normal 0.844328 -0.535827 0
    outer loop
      vertex 6.13415 -3.37228 0
      vertex 5.66312 -4.1145 4
      vertex 5.66312 -4.1145 0
    endloop
  endfacet
  facet normal -0.844328 -0.535827 0
    outer loop
      vertex -5.66312 -4.1145 0
      vertex -6.13415 -3.37228 4
      vertex -6.13415 -3.37228 0
    endloop
  endfacet
  facet normal -0.844328 -0.535827 0
    outer loop
      vertex -6.13415 -3.37228 4
      vertex -5.66312 -4.1145 0
      vertex -5.66312 -4.1145 4
    endloop
  endfacet
  facet normal 0.904827 0.425779 0
    outer loop
      vertex 6.50844 2.57687 4
      vertex 6.13415 3.37228 0
      vertex 6.13415 3.37228 4
    endloop
  endfacet
  facet normal 0.904827 0.425779 0
    outer loop
      vertex 6.13415 3.37228 0
      vertex 6.50844 2.57687 4
      vertex 6.50844 2.57687 0
    endloop
  endfacet
  facet normal 0.951057 0.309017 0
    outer loop
      vertex 6.78008 1.74083 4
      vertex 6.50844 2.57687 0
      vertex 6.50844 2.57687 4
    endloop
  endfacet
  facet normal 0.951057 0.309017 0
    outer loop
      vertex 6.50844 2.57687 0
      vertex 6.78008 1.74083 4
      vertex 6.78008 1.74083 0
    endloop
  endfacet
  facet normal 0.982287 0.187381 0
    outer loop
      vertex 6.9448 0.877332 4
      vertex 6.78008 1.74083 0
      vertex 6.78008 1.74083 4
    endloop
  endfacet
  facet normal 0.982287 0.187381 0
    outer loop
      vertex 6.78008 1.74083 0
      vertex 6.9448 0.877332 4
      vertex 6.9448 0.877332 0
    endloop
  endfacet
  facet normal -0.982287 0.187381 0
    outer loop
      vertex -6.9448 0.877332 0
      vertex -6.78008 1.74083 4
      vertex -6.78008 1.74083 0
    endloop
  endfacet
  facet normal -0.982287 0.187381 0
    outer loop
      vertex -6.78008 1.74083 4
      vertex -6.9448 0.877332 0
      vertex -6.9448 0.877332 4
    endloop
  endfacet
  facet normal -0.368125 -0.929776 0
    outer loop
      vertex -2.98045 -6.33379 0
      vertex -2.5 -6.52401 4
      vertex -2.98045 -6.33379 4
    endloop
  endfacet
  facet normal -0.368125 -0.929776 -0
    outer loop
      vertex -2.5 -6.52401 4
      vertex -2.98045 -6.33379 0
      vertex -2.5 -6.52401 0
    endloop
  endfacet
  facet normal -0.998027 -0.0627913 0
    outer loop
      vertex -6.9448 -0.877332 0
      vertex -7 0 4
      vertex -7 0 0
    endloop
  endfacet
  facet normal -0.998027 -0.0627913 0
    outer loop
      vertex -7 0 4
      vertex -6.9448 -0.877332 0
      vertex -6.9448 -0.877332 4
    endloop
  endfacet
  facet normal -0.951057 -0.309017 0
    outer loop
      vertex -6.50844 -2.57687 0
      vertex -6.78008 -1.74083 4
      vertex -6.78008 -1.74083 0
    endloop
  endfacet
  facet normal -0.951057 -0.309017 0
    outer loop
      vertex -6.78008 -1.74083 4
      vertex -6.50844 -2.57687 0
      vertex -6.50844 -2.57687 4
    endloop
  endfacet
  facet normal -0.904827 -0.425779 0
    outer loop
      vertex -6.13415 -3.37228 0
      vertex -6.50844 -2.57687 4
      vertex -6.50844 -2.57687 0
    endloop
  endfacet
  facet normal -0.904827 -0.425779 0
    outer loop
      vertex -6.50844 -2.57687 4
      vertex -6.13415 -3.37228 0
      vertex -6.13415 -3.37228 4
    endloop
  endfacet
  facet normal 0.684547 -0.728969 0
    outer loop
      vertex 4.46197 -5.39359 0
      vertex 5.10278 -4.79183 4
      vertex 4.46197 -5.39359 4
    endloop
  endfacet
  facet normal 0.684547 -0.728969 0
    outer loop
      vertex 5.10278 -4.79183 4
      vertex 4.46197 -5.39359 0
      vertex 5.10278 -4.79183 0
    endloop
  endfacet
  facet normal 0.481754 -0.876306 0
    outer loop
      vertex 2.98045 -6.33379 0
      vertex 3.75079 -5.91029 4
      vertex 2.98045 -6.33379 4
    endloop
  endfacet
  facet normal 0.481754 -0.876306 0
    outer loop
      vertex 3.75079 -5.91029 4
      vertex 2.98045 -6.33379 0
      vertex 3.75079 -5.91029 0
    endloop
  endfacet
  facet normal 0.982287 -0.187381 0
    outer loop
      vertex 6.78008 -1.74083 4
      vertex 6.9448 -0.877332 0
      vertex 6.9448 -0.877332 4
    endloop
  endfacet
  facet normal 0.982287 -0.187381 0
    outer loop
      vertex 6.9448 -0.877332 0
      vertex 6.78008 -1.74083 4
      vertex 6.78008 -1.74083 0
    endloop
  endfacet
  facet normal -0.684547 -0.728969 0
    outer loop
      vertex -5.10278 -4.79183 0
      vertex -4.46197 -5.39359 4
      vertex -5.10278 -4.79183 4
    endloop
  endfacet
  facet normal -0.684547 -0.728969 -0
    outer loop
      vertex -4.46197 -5.39359 4
      vertex -5.10278 -4.79183 0
      vertex -4.46197 -5.39359 0
    endloop
  endfacet
  facet normal -0.587785 -0.809017 0
    outer loop
      vertex -4.46197 -5.39359 0
      vertex -3.75079 -5.91029 4
      vertex -4.46197 -5.39359 4
    endloop
  endfacet
  facet normal -0.587785 -0.809017 -0
    outer loop
      vertex -3.75079 -5.91029 4
      vertex -4.46197 -5.39359 0
      vertex -3.75079 -5.91029 0
    endloop
  endfacet
  facet normal -0.481754 -0.876306 0
    outer loop
      vertex -3.75079 -5.91029 0
      vertex -2.98045 -6.33379 4
      vertex -3.75079 -5.91029 4
    endloop
  endfacet
  facet normal -0.481754 -0.876306 -0
    outer loop
      vertex -2.98045 -6.33379 4
      vertex -3.75079 -5.91029 0
      vertex -2.98045 -6.33379 0
    endloop
  endfacet
  facet normal -0.982287 -0.187381 0
    outer loop
      vertex -6.78008 -1.74083 0
      vertex -6.9448 -0.877332 4
      vertex -6.9448 -0.877332 0
    endloop
  endfacet
  facet normal -0.982287 -0.187381 0
    outer loop
      vertex -6.9448 -0.877332 4
      vertex -6.78008 -1.74083 0
      vertex -6.78008 -1.74083 4
    endloop
  endfacet
  facet normal -0.770514 -0.637424 0
    outer loop
      vertex -5.10278 -4.79183 0
      vertex -5.66312 -4.1145 4
      vertex -5.66312 -4.1145 0
    endloop
  endfacet
  facet normal -0.770514 -0.637424 0
    outer loop
      vertex -5.66312 -4.1145 4
      vertex -5.10278 -4.79183 0
      vertex -5.10278 -4.79183 4
    endloop
  endfacet
  facet normal 0.951057 -0.309017 0
    outer loop
      vertex 6.50844 -2.57687 4
      vertex 6.78008 -1.74083 0
      vertex 6.78008 -1.74083 4
    endloop
  endfacet
  facet normal 0.951057 -0.309017 0
    outer loop
      vertex 6.78008 -1.74083 0
      vertex 6.50844 -2.57687 4
      vertex 6.50844 -2.57687 0
    endloop
  endfacet
  facet normal -0.998027 -0.0627908 0
    outer loop
      vertex 5.5 0 0
      vertex 5.45663 0.689332 4
      vertex 5.45663 0.689332 0
    endloop
  endfacet
  facet normal -0.998027 -0.0627908 0
    outer loop
      vertex 5.45663 0.689332 4
      vertex 5.5 0 0
      vertex 5.5 0 4
    endloop
  endfacet
  facet normal 0.998027 -0.0627908 0
    outer loop
      vertex -5.5 0 4
      vertex -5.45663 0.689332 0
      vertex -5.45663 0.689332 4
    endloop
  endfacet
  facet normal 0.998027 -0.0627908 0
    outer loop
      vertex -5.45663 0.689332 0
      vertex -5.5 0 4
      vertex -5.5 0 0
    endloop
  endfacet
  facet normal 0 1 -0
    outer loop
      vertex 0.345347 -5.48915 0
      vertex -0.345347 -5.48915 4
      vertex 0.345347 -5.48915 4
    endloop
  endfacet
  facet normal 0 1 0
    outer loop
      vertex -0.345347 -5.48915 4
      vertex 0.345347 -5.48915 0
      vertex -0.345347 -5.48915 0
    endloop
  endfacet
  facet normal -0.684546 -0.72897 0
    outer loop
      vertex 4 3.77377 0
      vertex 4.00933 3.76501 4
      vertex 4 3.77377 4
    endloop
  endfacet
  facet normal -0.684546 -0.72897 -0
    outer loop
      vertex 4.00933 3.76501 4
      vertex 4 3.77377 0
      vertex 4.00933 3.76501 0
    endloop
  endfacet
  facet normal 0.684546 -0.72897 0
    outer loop
      vertex -4.00933 3.76501 0
      vertex -4 3.77377 4
      vertex -4.00933 3.76501 4
    endloop
  endfacet
  facet normal 0.684546 -0.72897 0
    outer loop
      vertex -4 3.77377 4
      vertex -4.00933 3.76501 0
      vertex -4 3.77377 0
    endloop
  endfacet
  facet normal -0.770514 0.637424 0
    outer loop
      vertex 4.00933 -3.76501 0
      vertex 4.44959 -3.23282 4
      vertex 4.44959 -3.23282 0
    endloop
  endfacet
  facet normal -0.770514 0.637424 0
    outer loop
      vertex 4.44959 -3.23282 4
      vertex 4.00933 -3.76501 0
      vertex 4.00933 -3.76501 4
    endloop
  endfacet
  facet normal -0.904827 -0.42578 0
    outer loop
      vertex 5.11377 2.02468 0
      vertex 4.81969 2.64964 4
      vertex 4.81969 2.64964 0
    endloop
  endfacet
  facet normal -0.904827 -0.42578 0
    outer loop
      vertex 4.81969 2.64964 4
      vertex 5.11377 2.02468 0
      vertex 5.11377 2.02468 4
    endloop
  endfacet
  facet normal 0.844328 -0.535827 0
    outer loop
      vertex -4.81969 2.64964 4
      vertex -4.44959 3.23282 0
      vertex -4.44959 3.23282 4
    endloop
  endfacet
  facet normal 0.844328 -0.535827 0
    outer loop
      vertex -4.44959 3.23282 0
      vertex -4.81969 2.64964 4
      vertex -4.81969 2.64964 0
    endloop
  endfacet
  facet normal 0.770514 -0.637424 0
    outer loop
      vertex -4.44959 3.23282 4
      vertex -4.00933 3.76501 0
      vertex -4.00933 3.76501 4
    endloop
  endfacet
  facet normal 0.770514 -0.637424 0
    outer loop
      vertex -4.00933 3.76501 0
      vertex -4.44959 3.23282 4
      vertex -4.44959 3.23282 0
    endloop
  endfacet
  facet normal -0.125333 0.992115 0
    outer loop
      vertex 1.0306 -5.40258 0
      vertex 0.345347 -5.48915 4
      vertex 1.0306 -5.40258 4
    endloop
  endfacet
  facet normal -0.125333 0.992115 0
    outer loop
      vertex 0.345347 -5.48915 4
      vertex 1.0306 -5.40258 0
      vertex 0.345347 -5.48915 0
    endloop
  endfacet
  facet normal -0.951057 -0.309016 0
    outer loop
      vertex 5.32721 1.36779 0
      vertex 5.11377 2.02468 4
      vertex 5.11377 2.02468 0
    endloop
  endfacet
  facet normal -0.951057 -0.309016 0
    outer loop
      vertex 5.11377 2.02468 4
      vertex 5.32721 1.36779 0
      vertex 5.32721 1.36779 4
    endloop
  endfacet
  facet normal -0.982287 -0.187382 0
    outer loop
      vertex 5.45663 0.689332 0
      vertex 5.32721 1.36779 4
      vertex 5.32721 1.36779 0
    endloop
  endfacet
  facet normal -0.982287 -0.187382 0
    outer loop
      vertex 5.32721 1.36779 4
      vertex 5.45663 0.689332 0
      vertex 5.45663 0.689332 4
    endloop
  endfacet
  facet normal -0.770514 -0.637424 0
    outer loop
      vertex 4.44959 3.23282 0
      vertex 4.00933 3.76501 4
      vertex 4.00933 3.76501 0
    endloop
  endfacet
  facet normal -0.770514 -0.637424 0
    outer loop
      vertex 4.00933 3.76501 4
      vertex 4.44959 3.23282 0
      vertex 4.44959 3.23282 4
    endloop
  endfacet
  facet normal -0.844328 -0.535827 0
    outer loop
      vertex 4.81969 2.64964 0
      vertex 4.44959 3.23282 4
      vertex 4.44959 3.23282 0
    endloop
  endfacet
  facet normal -0.844328 -0.535827 0
    outer loop
      vertex 4.44959 3.23282 4
      vertex 4.81969 2.64964 0
      vertex 4.81969 2.64964 4
    endloop
  endfacet
  facet normal 0.904827 -0.42578 0
    outer loop
      vertex -5.11377 2.02468 4
      vertex -4.81969 2.64964 0
      vertex -4.81969 2.64964 4
    endloop
  endfacet
  facet normal 0.904827 -0.42578 0
    outer loop
      vertex -4.81969 2.64964 0
      vertex -5.11377 2.02468 4
      vertex -5.11377 2.02468 0
    endloop
  endfacet
  facet normal 0.951057 -0.309016 0
    outer loop
      vertex -5.32721 1.36779 4
      vertex -5.11377 2.02468 0
      vertex -5.11377 2.02468 4
    endloop
  endfacet
  facet normal 0.951057 -0.309016 0
    outer loop
      vertex -5.11377 2.02468 0
      vertex -5.32721 1.36779 4
      vertex -5.32721 1.36779 0
    endloop
  endfacet
  facet normal 0.982287 -0.187382 0
    outer loop
      vertex -5.45663 0.689332 4
      vertex -5.32721 1.36779 0
      vertex -5.32721 1.36779 4
    endloop
  endfacet
  facet normal 0.982287 -0.187382 0
    outer loop
      vertex -5.32721 1.36779 0
      vertex -5.45663 0.689332 4
      vertex -5.45663 0.689332 0
    endloop
  endfacet
  facet normal -0.998027 0.0627908 0
    outer loop
      vertex 5.45663 -0.689332 0
      vertex 5.5 0 4
      vertex 5.5 0 0
    endloop
  endfacet
  facet normal -0.998027 0.0627908 0
    outer loop
      vertex 5.5 0 4
      vertex 5.45663 -0.689332 0
      vertex 5.45663 -0.689332 4
    endloop
  endfacet
  facet normal -0.684547 0.728969 0
    outer loop
      vertex 4.00933 -3.76501 0
      vertex 3.50583 -4.23782 4
      vertex 4.00933 -3.76501 4
    endloop
  endfacet
  facet normal -0.684547 0.728969 0
    outer loop
      vertex 3.50583 -4.23782 4
      vertex 4.00933 -3.76501 0
      vertex 3.50583 -4.23782 0
    endloop
  endfacet
  facet normal -0.844328 0.535827 0
    outer loop
      vertex 4.44959 -3.23282 0
      vertex 4.81969 -2.64964 4
      vertex 4.81969 -2.64964 0
    endloop
  endfacet
  facet normal -0.844328 0.535827 0
    outer loop
      vertex 4.81969 -2.64964 4
      vertex 4.44959 -3.23282 0
      vertex 4.44959 -3.23282 4
    endloop
  endfacet
  facet normal -0.368124 0.929777 0
    outer loop
      vertex 2.34179 -4.97655 0
      vertex 1.69959 -5.23081 4
      vertex 2.34179 -4.97655 4
    endloop
  endfacet
  facet normal -0.368124 0.929777 0
    outer loop
      vertex 1.69959 -5.23081 4
      vertex 2.34179 -4.97655 0
      vertex 1.69959 -5.23081 0
    endloop
  endfacet
  facet normal -0.951057 0.309016 0
    outer loop
      vertex 5.11377 -2.02468 0
      vertex 5.32721 -1.36779 4
      vertex 5.32721 -1.36779 0
    endloop
  endfacet
  facet normal -0.951057 0.309016 0
    outer loop
      vertex 5.32721 -1.36779 4
      vertex 5.11377 -2.02468 0
      vertex 5.11377 -2.02468 4
    endloop
  endfacet
  facet normal -0.982287 0.187382 0
    outer loop
      vertex 5.32721 -1.36779 0
      vertex 5.45663 -0.689332 4
      vertex 5.45663 -0.689332 0
    endloop
  endfacet
  facet normal -0.982287 0.187382 0
    outer loop
      vertex 5.45663 -0.689332 4
      vertex 5.32721 -1.36779 0
      vertex 5.32721 -1.36779 4
    endloop
  endfacet
  facet normal -0.481754 0.876307 0
    outer loop
      vertex 2.94705 -4.6438 0
      vertex 2.34179 -4.97655 4
      vertex 2.94705 -4.6438 4
    endloop
  endfacet
  facet normal -0.481754 0.876307 0
    outer loop
      vertex 2.34179 -4.97655 4
      vertex 2.94705 -4.6438 0
      vertex 2.34179 -4.97655 0
    endloop
  endfacet
  facet normal -0.904827 0.42578 0
    outer loop
      vertex 4.81969 -2.64964 0
      vertex 5.11377 -2.02468 4
      vertex 5.11377 -2.02468 0
    endloop
  endfacet
  facet normal -0.904827 0.42578 0
    outer loop
      vertex 5.11377 -2.02468 4
      vertex 4.81969 -2.64964 0
      vertex 4.81969 -2.64964 4
    endloop
  endfacet
  facet normal 0.368124 0.929777 -0
    outer loop
      vertex -1.69959 -5.23081 0
      vertex -2.34179 -4.97655 4
      vertex -1.69959 -5.23081 4
    endloop
  endfacet
  facet normal 0.368124 0.929777 0
    outer loop
      vertex -2.34179 -4.97655 4
      vertex -1.69959 -5.23081 0
      vertex -2.34179 -4.97655 0
    endloop
  endfacet
  facet normal 0.770514 0.637424 0
    outer loop
      vertex -4.00933 -3.76501 4
      vertex -4.44959 -3.23282 0
      vertex -4.44959 -3.23282 4
    endloop
  endfacet
  facet normal 0.770514 0.637424 0
    outer loop
      vertex -4.44959 -3.23282 0
      vertex -4.00933 -3.76501 4
      vertex -4.00933 -3.76501 0
    endloop
  endfacet
  facet normal 0.998027 0.0627908 0
    outer loop
      vertex -5.45663 -0.689332 4
      vertex -5.5 0 0
      vertex -5.5 0 4
    endloop
  endfacet
  facet normal 0.998027 0.0627908 0
    outer loop
      vertex -5.5 0 0
      vertex -5.45663 -0.689332 4
      vertex -5.45663 -0.689332 0
    endloop
  endfacet
  facet normal 0.982287 0.187382 0
    outer loop
      vertex -5.32721 -1.36779 4
      vertex -5.45663 -0.689332 0
      vertex -5.45663 -0.689332 4
    endloop
  endfacet
  facet normal 0.982287 0.187382 0
    outer loop
      vertex -5.45663 -0.689332 0
      vertex -5.32721 -1.36779 4
      vertex -5.32721 -1.36779 0
    endloop
  endfacet
  facet normal 0.951057 0.309016 0
    outer loop
      vertex -5.11377 -2.02468 4
      vertex -5.32721 -1.36779 0
      vertex -5.32721 -1.36779 4
    endloop
  endfacet
  facet normal 0.951057 0.309016 0
    outer loop
      vertex -5.32721 -1.36779 0
      vertex -5.11377 -2.02468 4
      vertex -5.11377 -2.02468 0
    endloop
  endfacet
  facet normal -0.24869 0.968583 0
    outer loop
      vertex 1.69959 -5.23081 0
      vertex 1.0306 -5.40258 4
      vertex 1.69959 -5.23081 4
    endloop
  endfacet
  facet normal -0.24869 0.968583 0
    outer loop
      vertex 1.0306 -5.40258 4
      vertex 1.69959 -5.23081 0
      vertex 1.0306 -5.40258 0
    endloop
  endfacet
  facet normal -0.587785 0.809017 0
    outer loop
      vertex 3.50583 -4.23782 0
      vertex 2.94705 -4.6438 4
      vertex 3.50583 -4.23782 4
    endloop
  endfacet
  facet normal -0.587785 0.809017 0
    outer loop
      vertex 2.94705 -4.6438 4
      vertex 3.50583 -4.23782 0
      vertex 2.94705 -4.6438 0
    endloop
  endfacet
  facet normal 0.24869 0.968583 -0
    outer loop
      vertex -1.0306 -5.40258 0
      vertex -1.69959 -5.23081 4
      vertex -1.0306 -5.40258 4
    endloop
  endfacet
  facet normal 0.24869 0.968583 0
    outer loop
      vertex -1.69959 -5.23081 4
      vertex -1.0306 -5.40258 0
      vertex -1.69959 -5.23081 0
    endloop
  endfacet
  facet normal 0.684547 0.728969 -0
    outer loop
      vertex -3.50583 -4.23782 0
      vertex -4.00933 -3.76501 4
      vertex -3.50583 -4.23782 4
    endloop
  endfacet
  facet normal 0.684547 0.728969 0
    outer loop
      vertex -4.00933 -3.76501 4
      vertex -3.50583 -4.23782 0
      vertex -4.00933 -3.76501 0
    endloop
  endfacet
  facet normal 0.904827 0.42578 0
    outer loop
      vertex -4.81969 -2.64964 4
      vertex -5.11377 -2.02468 0
      vertex -5.11377 -2.02468 4
    endloop
  endfacet
  facet normal 0.904827 0.42578 0
    outer loop
      vertex -5.11377 -2.02468 0
      vertex -4.81969 -2.64964 4
      vertex -4.81969 -2.64964 0
    endloop
  endfacet
  facet normal 0.844328 0.535827 0
    outer loop
      vertex -4.44959 -3.23282 4
      vertex -4.81969 -2.64964 0
      vertex -4.81969 -2.64964 4
    endloop
  endfacet
  facet normal 0.844328 0.535827 0
    outer loop
      vertex -4.81969 -2.64964 0
      vertex -4.44959 -3.23282 4
      vertex -4.44959 -3.23282 0
    endloop
  endfacet
  facet normal 0.587785 0.809017 -0
    outer loop
      vertex -2.94705 -4.6438 0
      vertex -3.50583 -4.23782 4
      vertex -2.94705 -4.6438 4
    endloop
  endfacet
  facet normal 0.587785 0.809017 0
    outer loop
      vertex -3.50583 -4.23782 4
      vertex -2.94705 -4.6438 0
      vertex -3.50583 -4.23782 0
    endloop
  endfacet
  facet normal 0.481754 0.876307 -0
    outer loop
      vertex -2.34179 -4.97655 0
      vertex -2.94705 -4.6438 4
      vertex -2.34179 -4.97655 4
    endloop
  endfacet
  facet normal 0.481754 0.876307 0
    outer loop
      vertex -2.94705 -4.6438 4
      vertex -2.34179 -4.97655 0
      vertex -2.94705 -4.6438 0
    endloop
  endfacet
  facet normal 0.125333 0.992115 -0
    outer loop
      vertex -0.345347 -5.48915 0
      vertex -1.0306 -5.40258 4
      vertex -0.345347 -5.48915 4
    endloop
  endfacet
  facet normal 0.125333 0.992115 0
    outer loop
      vertex -1.0306 -5.40258 4
      vertex -0.345347 -5.48915 0
      vertex -1.0306 -5.40258 0
    endloop
  endfacet
  facet normal 1 -0 0
    outer loop
      vertex -4 3.77377 4
      vertex -4 5.72923 0
      vertex -4 5.72923 4
    endloop
  endfacet
  facet normal 1 0 0
    outer loop
      vertex -4 5.72923 0
      vertex -4 3.77377 4
      vertex -4 3.77377 0
    endloop
  endfacet
  facet normal -1 0 0
    outer loop
      vertex 4 3.77377 0
      vertex 4 5.72923 4
      vertex 4 5.72923 0
    endloop
  endfacet
  facet normal -1 -0 0
    outer loop
      vertex 4 5.72923 4
      vertex 4 3.77377 0
      vertex 4 3.77377 4
    endloop
  endfacet
  facet normal -1 0 0
    outer loop
      vertex -2.5 -7.55583 0
      vertex -2.5 -6.52401 4
      vertex -2.5 -6.52401 0
    endloop
  endfacet
  facet normal -1 -0 0
    outer loop
      vertex -2.5 -6.52401 4
      vertex -2.5 -7.55583 0
      vertex -2.5 -7.55583 4
    endloop
  endfacet
  facet normal 1 -0 0
    outer loop
      vertex 2.5 -7.55583 4
      vertex 2.5 -6.52401 0
      vertex 2.5 -6.52401 4
    endloop
  endfacet
  facet normal 1 0 0
    outer loop
      vertex 2.5 -6.52401 0
      vertex 2.5 -7.55583 4
      vertex 2.5 -7.55583 0
    endloop
  endfacet
endsolid OpenSCAD_Model
