solid OpenSCAD_Model
  facet normal 0.866032 0.499988 0
    outer loop
      vertex 10.9625 4.88084 6
      vertex 9.7082 7.05342 0
      vertex 9.7082 7.05342 6
    endloop
  endfacet
  facet normal 0.866032 0.499988 0
    outer loop
      vertex 9.7082 7.05342 0
      vertex 10.9625 4.88084 6
      vertex 10.9625 4.88084 0
    endloop
  endfacet
  facet normal -0.951048 0.309044 0
    outer loop
      vertex -11.7378 2.49494 0
      vertex -10.9625 4.88084 6
      vertex -10.9625 4.88084 0
    endloop
  endfacet
  facet normal -0.951048 0.309044 0
    outer loop
      vertex -10.9625 4.88084 6
      vertex -11.7378 2.49494 0
      vertex -11.7378 2.49494 6
    endloop
  endfacet
  facet normal 0.743147 0.669128 0
    outer loop
      vertex 9.7082 7.05342 6
      vertex 8.02957 8.91774 0
      vertex 8.02957 8.91774 6
    endloop
  endfacet
  facet normal 0.743147 0.669128 0
    outer loop
      vertex 8.02957 8.91774 0
      vertex 9.7082 7.05342 6
      vertex 9.7082 7.05342 0
    endloop
  endfacet
  facet normal 0.207918 0.978146 -0
    outer loop
      vertex 3.7082 11.4127 0
      vertex 1.25434 11.9343 6
      vertex 3.7082 11.4127 6
    endloop
  endfacet
  facet normal 0.207918 0.978146 0
    outer loop
      vertex 1.25434 11.9343 6
      vertex 3.7082 11.4127 0
      vertex 1.25434 11.9343 0
    endloop
  endfacet
  facet normal 0.406745 0.913542 -0
    outer loop
      vertex 6 10.3923 0
      vertex 3.7082 11.4127 6
      vertex 6 10.3923 6
    endloop
  endfacet
  facet normal 0.406745 0.913542 0
    outer loop
      vertex 3.7082 11.4127 6
      vertex 6 10.3923 0
      vertex 3.7082 11.4127 0
    endloop
  endfacet
  facet normal -0.406745 0.913542 0
    outer loop
      vertex -3.7082 11.4127 0
      vertex -6 10.3923 6
      vertex -3.7082 11.4127 6
    endloop
  endfacet
  facet normal -0.406745 0.913542 0
    outer loop
      vertex -6 10.3923 6
      vertex -3.7082 11.4127 0
      vertex -6 10.3923 0
    endloop
  endfacet
  facet normal 0.994523 -0.104517 0
    outer loop
      vertex 11.7378 -2.49494 6
      vertex 12 0 0
      vertex 12 0 6
    endloop
  endfacet
  facet normal 0.994523 -0.104517 0
    outer loop
      vertex 12 0 0
      vertex 11.7378 -2.49494 6
      vertex 11.7378 -2.49494 0
    endloop
  endfacet
  facet normal 0.951048 0.309044 0
    outer loop
      vertex 11.7378 2.49494 6
      vertex 10.9625 4.88084 0
      vertex 10.9625 4.88084 6
    endloop
  endfacet
  facet normal 0.951048 0.309044 0
    outer loop
      vertex 10.9625 4.88084 0
      vertex 11.7378 2.49494 6
      vertex 11.7378 2.49494 0
    endloop
  endfacet
  facet normal 0.587783 0.809019 -0
    outer loop
      vertex 8.02957 8.91774 0
      vertex 6 10.3923 6
      vertex 8.02957 8.91774 6
    endloop
  endfacet
  facet normal 0.587783 0.809019 0
    outer loop
      vertex 6 10.3923 6
      vertex 8.02957 8.91774 0
      vertex 6 10.3923 0
    endloop
  endfacet
  facet normal 0 1 -0
    outer loop
      vertex 1.25434 11.9343 0
      vertex -1.25434 11.9343 6
      vertex 1.25434 11.9343 6
    endloop
  endfacet
  facet normal 0 1 0
    outer loop
      vertex -1.25434 11.9343 6
      vertex 1.25434 11.9343 0
      vertex -1.25434 11.9343 0
    endloop
  endfacet
  facet normal -0.994523 0.104517 0
    outer loop
      vertex -12 0 0
      vertex -11.7378 2.49494 6
      vertex -11.7378 2.49494 0
    endloop
  endfacet
  facet normal -0.994523 0.104517 0
    outer loop
      vertex -11.7378 2.49494 6
      vertex -12 0 0
      vertex -12 0 6
    endloop
  endfacet
  facet normal -0.866032 0.499988 0
    outer loop
      vertex -10.9625 4.88084 0
      vertex -9.7082 7.05342 6
      vertex -9.7082 7.05342 0
    endloop
  endfacet
  facet normal -0.866032 0.499988 0
    outer loop
      vertex -9.7082 7.05342 6
      vertex -10.9625 4.88084 0
      vertex -10.9625 4.88084 6
    endloop
  endfacet
  facet normal -0.587783 0.809019 0
    outer loop
      vertex -6 10.3923 0
      vertex -8.02957 8.91774 6
      vertex -6 10.3923 6
    endloop
  endfacet
  facet normal -0.587783 0.809019 0
    outer loop
      vertex -8.02957 8.91774 6
      vertex -6 10.3923 0
      vertex -8.02957 8.91774 0
    endloop
  endfacet
  facet normal -0.207918 0.978146 0
    outer loop
      vertex -1.25434 11.9343 0
      vertex -3.7082 11.4127 6
      vertex -1.25434 11.9343 6
    endloop
  endfacet
  facet normal -0.207918 0.978146 0
    outer loop
      vertex -3.7082 11.4127 6
      vertex -1.25434 11.9343 0
      vertex -3.7082 11.4127 0
    endloop
  endfacet
  facet normal -0.743147 0.669128 0
    outer loop
      vertex -9.7082 7.05342 0
      vertex -8.02957 8.91774 6
      vertex -8.02957 8.91774 0
    endloop
  endfacet
  facet normal -0.743147 0.669128 0
    outer loop
      vertex -8.02957 8.91774 6
      vertex -9.7082 7.05342 0
      vertex -9.7082 7.05342 6
    endloop
  endfacet
  facet normal 0.994523 0.104517 0
    outer loop
      vertex 12 0 6
      vertex 11.7378 2.49494 0
      vertex 11.7378 2.49494 6
    endloop
  endfacet
  facet normal 0.994523 0.104517 0
    outer loop
      vertex 11.7378 2.49494 0
      vertex 12 0 6
      vertex 12 0 0
    endloop
  endfacet
  facet normal 0.951048 -0.309044 0
    outer loop
      vertex 10.9625 -4.88084 6
      vertex 11.7378 -2.49494 0
      vertex 11.7378 -2.49494 6
    endloop
  endfacet
  facet normal 0.951048 -0.309044 0
    outer loop
      vertex 11.7378 -2.49494 0
      vertex 10.9625 -4.88084 6
      vertex 10.9625 -4.88084 0
    endloop
  endfacet
  facet normal -0.866032 -0.499988 0
    outer loop
      vertex -9.7082 -7.05342 0
      vertex -10.9625 -4.88084 6
      vertex -10.9625 -4.88084 0
    endloop
  endfacet
  facet normal -0.866032 -0.499988 0
    outer loop
      vertex -10.9625 -4.88084 6
      vertex -9.7082 -7.05342 0
      vertex -9.7082 -7.05342 6
    endloop
  endfacet
  facet normal 0.587783 -0.809019 0
    outer loop
      vertex 6 -10.3923 0
      vertex 8.02957 -8.91774 6
      vertex 6 -10.3923 6
    endloop
  endfacet
  facet normal 0.587783 -0.809019 0
    outer loop
      vertex 8.02957 -8.91774 6
      vertex 6 -10.3923 0
      vertex 8.02957 -8.91774 0
    endloop
  endfacet
  facet normal -0 0 1
    outer loop
      vertex 9.42509 1.19067 6
      vertex 12 0 6
      vertex 11.7378 2.49494 6
    endloop
  endfacet
  facet normal -0 0 1
    outer loop
      vertex 9.03504 2.93566 6
      vertex 11.7378 2.49494 6
      vertex 10.9625 4.88084 6
    endloop
  endfacet
  facet normal 0 0 1
    outer loop
      vertex 12 0 6
      vertex 9.42509 1.19067 6
      vertex 9.48125 0.59651 6
    endloop
  endfacet
  facet normal 0 0 1
    outer loop
      vertex 8.32491 4.57666 6
      vertex 10.9625 4.88084 6
      vertex 9.7082 7.05342 6
    endloop
  endfacet
  facet normal 0 0 1
    outer loop
      vertex 12 0 6
      vertex 9.48125 0.59651 6
      vertex 9.5 0 6
    endloop
  endfacet
  facet normal 0 0 1
    outer loop
      vertex 12 0 6
      vertex 9.42509 -1.19067 6
      vertex 11.7378 -2.49494 6
    endloop
  endfacet
  facet normal 0 0 1
    outer loop
      vertex 9.42509 -1.19067 6
      vertex 12 0 6
      vertex 9.48125 -0.59651 6
    endloop
  endfacet
  facet normal 0 0 1
    outer loop
      vertex 9.48125 -0.59651 6
      vertex 12 0 6
      vertex 9.5 0 6
    endloop
  endfacet
  facet normal 0 0 1
    outer loop
      vertex 11.7378 2.49494 6
      vertex 9.33173 1.78012 6
      vertex 9.42509 1.19067 6
    endloop
  endfacet
  facet normal 0 0 1
    outer loop
      vertex 11.7378 2.49494 6
      vertex 9.20154 2.36255 6
      vertex 9.33173 1.78012 6
    endloop
  endfacet
  facet normal 0 0 1
    outer loop
      vertex 11.7378 2.49494 6
      vertex 9.03504 2.93566 6
      vertex 9.20154 2.36255 6
    endloop
  endfacet
  facet normal 0 0 1
    outer loop
      vertex 10.9625 4.88084 6
      vertex 8.83288 3.49718 6
      vertex 9.03504 2.93566 6
    endloop
  endfacet
  facet normal 0 0 1
    outer loop
      vertex 10.9625 4.88084 6
      vertex 8.59586 4.0449 6
      vertex 8.83288 3.49718 6
    endloop
  endfacet
  facet normal 0 0 1
    outer loop
      vertex 10.9625 4.88084 6
      vertex 8.32491 4.57666 6
      vertex 8.59586 4.0449 6
    endloop
  endfacet
  facet normal 0 0 1
    outer loop
      vertex 6.9252 6.5032 6
      vertex 9.7082 7.05342 6
      vertex 8.02957 8.91774 6
    endloop
  endfacet
  facet normal 0 0 1
    outer loop
      vertex 9.7082 7.05342 6
      vertex 8.02111 5.09035 6
      vertex 8.32491 4.57666 6
    endloop
  endfacet
  facet normal 0 0 1
    outer loop
      vertex 9.7082 7.05342 6
      vertex 7.68566 5.58396 6
      vertex 8.02111 5.09035 6
    endloop
  endfacet
  facet normal 0 0 1
    outer loop
      vertex 9.7082 7.05342 6
      vertex 7.31988 6.05553 6
      vertex 7.68566 5.58396 6
    endloop
  endfacet
  facet normal 0 0 1
    outer loop
      vertex 9.7082 7.05342 6
      vertex 6.9252 6.5032 6
      vertex 7.31988 6.05553 6
    endloop
  endfacet
  facet normal 0 0 1
    outer loop
      vertex 8.02957 8.91774 6
      vertex 6.5032 6.9252 6
      vertex 6.9252 6.5032 6
    endloop
  endfacet
  facet normal 0 0 1
    outer loop
      vertex 8.02957 8.91774 6
      vertex 6.05553 7.31988 6
      vertex 6.5032 6.9252 6
    endloop
  endfacet
  facet normal 0 0 1
    outer loop
      vertex 5.58396 7.68566 6
      vertex 8.02957 8.91774 6
      vertex 6 10.3923 6
    endloop
  endfacet
  facet normal 0 0 1
    outer loop
      vertex 8.02957 8.91774 6
      vertex 5.58396 7.68566 6
      vertex 6.05553 7.31988 6
    endloop
  endfacet
  facet normal 0 0 1
    outer loop
      vertex 6 10.3923 6
      vertex 5.09035 8.02111 6
      vertex 5.58396 7.68566 6
    endloop
  endfacet
  facet normal 0 0 1
    outer loop
      vertex 6 10.3923 6
      vertex 4.57666 8.32491 6
      vertex 5.09035 8.02111 6
    endloop
  endfacet
  facet normal 0 0 1
    outer loop
      vertex 6 10.3923 6
      vertex 4.0449 8.59586 6
      vertex 4.57666 8.32491 6
    endloop
  endfacet
  facet normal 0 0 1
    outer loop
      vertex 3.7082 11.4127 6
      vertex 4.0449 8.59586 6
      vertex 6 10.3923 6
    endloop
  endfacet
  facet normal 0 0 1
    outer loop
      vertex 3.7082 11.4127 6
      vertex 3.49718 8.83288 6
      vertex 4.0449 8.59586 6
    endloop
  endfacet
  facet normal 0 0 1
    outer loop
      vertex 3.7082 11.4127 6
      vertex 2.93566 9.03504 6
      vertex 3.49718 8.83288 6
    endloop
  endfacet
  facet normal 0 0 1
    outer loop
      vertex 3.7082 11.4127 6
      vertex 2.36255 9.20154 6
      vertex 2.93566 9.03504 6
    endloop
  endfacet
  facet normal 0 0 1
    outer loop
      vertex 3.7082 11.4127 6
      vertex 1.78012 9.33173 6
      vertex 2.36255 9.20154 6
    endloop
  endfacet
  facet normal 0 0 1
    outer loop
      vertex 1.25434 11.9343 6
      vertex 1.78012 9.33173 6
      vertex 3.7082 11.4127 6
    endloop
  endfacet
  facet normal 0 0 1
    outer loop
      vertex 1.25434 11.9343 6
      vertex 1.19067 9.42509 6
      vertex 1.78012 9.33173 6
    endloop
  endfacet
  facet normal 0 0 1
    outer loop
      vertex 1.25434 11.9343 6
      vertex 0.59651 9.48125 6
      vertex 1.19067 9.42509 6
    endloop
  endfacet
  facet normal 0 0 1
    outer loop
      vertex 1.25434 11.9343 6
      vertex 0 9.5 6
      vertex 0.59651 9.48125 6
    endloop
  endfacet
  facet normal -0 0 1
    outer loop
      vertex -1.25434 11.9343 6
      vertex 0 9.5 6
      vertex 1.25434 11.9343 6
    endloop
  endfacet
  facet normal 0 0 1
    outer loop
      vertex 0 9.5 6
      vertex -1.25434 11.9343 6
      vertex -0.59651 9.48125 6
    endloop
  endfacet
  facet normal 0 0 1
    outer loop
      vertex -0.59651 9.48125 6
      vertex -1.25434 11.9343 6
      vertex -1.19067 9.42509 6
    endloop
  endfacet
  facet normal 0 0 1
    outer loop
      vertex -1.25434 11.9343 6
      vertex -1.78012 9.33173 6
      vertex -1.19067 9.42509 6
    endloop
  endfacet
  facet normal -0 0 1
    outer loop
      vertex -3.7082 11.4127 6
      vertex -1.78012 9.33173 6
      vertex -1.25434 11.9343 6
    endloop
  endfacet
  facet normal 0 0 1
    outer loop
      vertex -1.78012 9.33173 6
      vertex -3.7082 11.4127 6
      vertex -2.36255 9.20154 6
    endloop
  endfacet
  facet normal 0 0 1
    outer loop
      vertex -2.36255 9.20154 6
      vertex -3.7082 11.4127 6
      vertex -2.93566 9.03504 6
    endloop
  endfacet
  facet normal 0 0 1
    outer loop
      vertex -2.93566 9.03504 6
      vertex -3.7082 11.4127 6
      vertex -3.49718 8.83288 6
    endloop
  endfacet
  facet normal 0 0 1
    outer loop
      vertex -3.7082 11.4127 6
      vertex -4.0449 8.59586 6
      vertex -3.49718 8.83288 6
    endloop
  endfacet
  facet normal -0 0 1
    outer loop
      vertex -6 10.3923 6
      vertex -4.0449 8.59586 6
      vertex -3.7082 11.4127 6
    endloop
  endfacet
  facet normal 0 0 1
    outer loop
      vertex -4.0449 8.59586 6
      vertex -6 10.3923 6
      vertex -4.57666 8.32491 6
    endloop
  endfacet
  facet normal 0 0 1
    outer loop
      vertex -4.57666 8.32491 6
      vertex -6 10.3923 6
      vertex -5.09035 8.02111 6
    endloop
  endfacet
  facet normal 0 0 1
    outer loop
      vertex -5.09035 8.02111 6
      vertex -6 10.3923 6
      vertex -5.58396 7.68566 6
    endloop
  endfacet
  facet normal -0 0 1
    outer loop
      vertex -8.02957 8.91774 6
      vertex -5.58396 7.68566 6
      vertex -6 10.3923 6
    endloop
  endfacet
  facet normal 0 0 1
    outer loop
      vertex -5.58396 7.68566 6
      vertex -8.02957 8.91774 6
      vertex -6.05553 7.31988 6
    endloop
  endfacet
  facet normal 0 0 1
    outer loop
      vertex -6.05553 7.31988 6
      vertex -8.02957 8.91774 6
      vertex -6.5032 6.9252 6
    endloop
  endfacet
  facet normal 0 0 1
    outer loop
      vertex -6.5032 6.9252 6
      vertex -8.02957 8.91774 6
      vertex -6.9252 6.5032 6
    endloop
  endfacet
  facet normal -0 0 1
    outer loop
      vertex -9.7082 7.05342 6
      vertex -6.9252 6.5032 6
      vertex -8.02957 8.91774 6
    endloop
  endfacet
  facet normal 0 0 1
    outer loop
      vertex -6.9252 6.5032 6
      vertex -9.7082 7.05342 6
      vertex -7.31988 6.05553 6
    endloop
  endfacet
  facet normal 0 0 1
    outer loop
      vertex -7.31988 6.05553 6
      vertex -9.7082 7.05342 6
      vertex -7.68566 5.58396 6
    endloop
  endfacet
  facet normal 0 0 1
    outer loop
      vertex -7.68566 5.58396 6
      vertex -9.7082 7.05342 6
      vertex -8.02111 5.09035 6
    endloop
  endfacet
  facet normal 0 0 1
    outer loop
      vertex -8.02111 5.09035 6
      vertex -9.7082 7.05342 6
      vertex -8.32491 4.57666 6
    endloop
  endfacet
  facet normal -0 0 1
    outer loop
      vertex -10.9625 4.88084 6
      vertex -8.32491 4.57666 6
      vertex -9.7082 7.05342 6
    endloop
  endfacet
  facet normal 0 0 1
    outer loop
      vertex -8.32491 4.57666 6
      vertex -10.9625 4.88084 6
      vertex -8.59586 4.0449 6
    endloop
  endfacet
  facet normal 0 0 1
    outer loop
      vertex -8.59586 4.0449 6
      vertex -10.9625 4.88084 6
      vertex -8.83288 3.49718 6
    endloop
  endfacet
  facet normal 0 0 1
    outer loop
      vertex -8.83288 3.49718 6
      vertex -10.9625 4.88084 6
      vertex -9.03504 2.93566 6
    endloop
  endfacet
  facet normal 0 0 1
    outer loop
      vertex -9.33173 1.78012 6
      vertex -11.7378 2.49494 6
      vertex -9.42509 1.19067 6
    endloop
  endfacet
  facet normal 0 0 1
    outer loop
      vertex -9.20154 2.36255 6
      vertex -11.7378 2.49494 6
      vertex -9.33173 1.78012 6
    endloop
  endfacet
  facet normal 0 0 1
    outer loop
      vertex -9.03504 2.93566 6
      vertex -11.7378 2.49494 6
      vertex -9.20154 2.36255 6
    endloop
  endfacet
  facet normal 0 0 1
    outer loop
      vertex -11.7378 2.49494 6
      vertex -9.03504 2.93566 6
      vertex -10.9625 4.88084 6
    endloop
  endfacet
  facet normal -0 0 1
    outer loop
      vertex 9.33173 -1.78012 6
      vertex 11.7378 -2.49494 6
      vertex 9.42509 -1.19067 6
    endloop
  endfacet
  facet normal -0 0 1
    outer loop
      vertex 9.20154 -2.36255 6
      vertex 11.7378 -2.49494 6
      vertex 9.33173 -1.78012 6
    endloop
  endfacet
  facet normal 0 0 1
    outer loop
      vertex 9.03504 -2.93566 6
      vertex 11.7378 -2.49494 6
      vertex 9.20154 -2.36255 6
    endloop
  endfacet
  facet normal 0 0 1
    outer loop
      vertex 11.7378 -2.49494 6
      vertex 9.03504 -2.93566 6
      vertex 10.9625 -4.88084 6
    endloop
  endfacet
  facet normal -0 0 1
    outer loop
      vertex 8.83288 -3.49718 6
      vertex 10.9625 -4.88084 6
      vertex 9.03504 -2.93566 6
    endloop
  endfacet
  facet normal -0 0 1
    outer loop
      vertex 8.59586 -4.0449 6
      vertex 10.9625 -4.88084 6
      vertex 8.83288 -3.49718 6
    endloop
  endfacet
  facet normal -0 0 1
    outer loop
      vertex 8.32491 -4.57666 6
      vertex 10.9625 -4.88084 6
      vertex 8.59586 -4.0449 6
    endloop
  endfacet
  facet normal 0 0 1
    outer loop
      vertex 10.9625 -4.88084 6
      vertex 8.32491 -4.57666 6
      vertex 9.7082 -7.05342 6
    endloop
  endfacet
  facet normal -0 0 1
    outer loop
      vertex 8.02111 -5.09035 6
      vertex 9.7082 -7.05342 6
      vertex 8.32491 -4.57666 6
    endloop
  endfacet
  facet normal -0 0 1
    outer loop
      vertex 7.68566 -5.58396 6
      vertex 9.7082 -7.05342 6
      vertex 8.02111 -5.09035 6
    endloop
  endfacet
  facet normal -0 0 1
    outer loop
      vertex 7.31988 -6.05553 6
      vertex 9.7082 -7.05342 6
      vertex 7.68566 -5.58396 6
    endloop
  endfacet
  facet normal -0 0 1
    outer loop
      vertex 6.9252 -6.5032 6
      vertex 9.7082 -7.05342 6
      vertex 7.31988 -6.05553 6
    endloop
  endfacet
  facet normal 0 0 1
    outer loop
      vertex 9.7082 -7.05342 6
      vertex 6.9252 -6.5032 6
      vertex 8.02957 -8.91774 6
    endloop
  endfacet
  facet normal -0 0 1
    outer loop
      vertex 6.5032 -6.9252 6
      vertex 8.02957 -8.91774 6
      vertex 6.9252 -6.5032 6
    endloop
  endfacet
  facet normal -0 0 1
    outer loop
      vertex 6.05553 -7.31988 6
      vertex 8.02957 -8.91774 6
      vertex 6.5032 -6.9252 6
    endloop
  endfacet
  facet normal -0 0 1
    outer loop
      vertex 5.58396 -7.68566 6
      vertex 8.02957 -8.91774 6
      vertex 6.05553 -7.31988 6
    endloop
  endfacet
  facet normal 0 0 1
    outer loop
      vertex 8.02957 -8.91774 6
      vertex 5.58396 -7.68566 6
      vertex 6 -10.3923 6
    endloop
  endfacet
  facet normal -0 0 1
    outer loop
      vertex 5.09035 -8.02111 6
      vertex 6 -10.3923 6
      vertex 5.58396 -7.68566 6
    endloop
  endfacet
  facet normal -0 0 1
    outer loop
      vertex 4.57666 -8.32491 6
      vertex 6 -10.3923 6
      vertex 5.09035 -8.02111 6
    endloop
  endfacet
  facet normal -0 0 1
    outer loop
      vertex 4.0449 -8.59586 6
      vertex 6 -10.3923 6
      vertex 4.57666 -8.32491 6
    endloop
  endfacet
  facet normal 0 0 1
    outer loop
      vertex 4.0449 -8.59586 6
      vertex 3.7082 -11.4127 6
      vertex 6 -10.3923 6
    endloop
  endfacet
  facet normal -0 0 1
    outer loop
      vertex 3.49718 -8.83288 6
      vertex 3.7082 -11.4127 6
      vertex 4.0449 -8.59586 6
    endloop
  endfacet
  facet normal -0 0 1
    outer loop
      vertex 2.93566 -9.03504 6
      vertex 3.7082 -11.4127 6
      vertex 3.49718 -8.83288 6
    endloop
  endfacet
  facet normal -0 0 1
    outer loop
      vertex 2.36255 -9.20154 6
      vertex 3.7082 -11.4127 6
      vertex 2.93566 -9.03504 6
    endloop
  endfacet
  facet normal -0 0 1
    outer loop
      vertex 1.78012 -9.33173 6
      vertex 3.7082 -11.4127 6
      vertex 2.36255 -9.20154 6
    endloop
  endfacet
  facet normal 0 0 1
    outer loop
      vertex 1.78012 -9.33173 6
      vertex 1.25434 -11.9343 6
      vertex 3.7082 -11.4127 6
    endloop
  endfacet
  facet normal -0 0 1
    outer loop
      vertex 1.19067 -9.42509 6
      vertex 1.25434 -11.9343 6
      vertex 1.78012 -9.33173 6
    endloop
  endfacet
  facet normal -0 0 1
    outer loop
      vertex 0.59651 -9.48125 6
      vertex 1.25434 -11.9343 6
      vertex 1.19067 -9.42509 6
    endloop
  endfacet
  facet normal -0 0 1
    outer loop
      vertex 0 -9.5 6
      vertex 1.25434 -11.9343 6
      vertex 0.59651 -9.48125 6
    endloop
  endfacet
  facet normal 0 0 1
    outer loop
      vertex -1.25434 -11.9343 6
      vertex 0 -9.5 6
      vertex -0.59651 -9.48125 6
    endloop
  endfacet
  facet normal 0 0 1
    outer loop
      vertex -1.25434 -11.9343 6
      vertex -0.59651 -9.48125 6
      vertex -1.19067 -9.42509 6
    endloop
  endfacet
  facet normal 0 0 1
    outer loop
      vertex 0 -9.5 6
      vertex -1.25434 -11.9343 6
      vertex 1.25434 -11.9343 6
    endloop
  endfacet
  facet normal 0 0 1
    outer loop
      vertex -1.78012 -9.33173 6
      vertex -1.25434 -11.9343 6
      vertex -1.19067 -9.42509 6
    endloop
  endfacet
  facet normal 0 0 1
    outer loop
      vertex -3.7082 -11.4127 6
      vertex -1.78012 -9.33173 6
      vertex -2.36255 -9.20154 6
    endloop
  endfacet
  facet normal 0 0 1
    outer loop
      vertex -3.7082 -11.4127 6
      vertex -2.36255 -9.20154 6
      vertex -2.93566 -9.03504 6
    endloop
  endfacet
  facet normal 0 0 1
    outer loop
      vertex -3.7082 -11.4127 6
      vertex -2.93566 -9.03504 6
      vertex -3.49718 -8.83288 6
    endloop
  endfacet
  facet normal 0 0 1
    outer loop
      vertex -1.78012 -9.33173 6
      vertex -3.7082 -11.4127 6
      vertex -1.25434 -11.9343 6
    endloop
  endfacet
  facet normal 0 0 1
    outer loop
      vertex -4.0449 -8.59586 6
      vertex -3.7082 -11.4127 6
      vertex -3.49718 -8.83288 6
    endloop
  endfacet
  facet normal 0 0 1
    outer loop
      vertex -6 -10.3923 6
      vertex -4.0449 -8.59586 6
      vertex -4.57666 -8.32491 6
    endloop
  endfacet
  facet normal 0 0 1
    outer loop
      vertex -6 -10.3923 6
      vertex -4.57666 -8.32491 6
      vertex -5.09035 -8.02111 6
    endloop
  endfacet
  facet normal 0 0 1
    outer loop
      vertex -6 -10.3923 6
      vertex -5.09035 -8.02111 6
      vertex -5.58396 -7.68566 6
    endloop
  endfacet
  facet normal 0 0 1
    outer loop
      vertex -4.0449 -8.59586 6
      vertex -6 -10.3923 6
      vertex -3.7082 -11.4127 6
    endloop
  endfacet
  facet normal 0 0 1
    outer loop
      vertex -8.02957 -8.91774 6
      vertex -5.58396 -7.68566 6
      vertex -6.05553 -7.31988 6
    endloop
  endfacet
  facet normal 0 0 1
    outer loop
      vertex -8.02957 -8.91774 6
      vertex -6.05553 -7.31988 6
      vertex -6.5032 -6.9252 6
    endloop
  endfacet
  facet normal 0 0 1
    outer loop
      vertex -8.02957 -8.91774 6
      vertex -6.5032 -6.9252 6
      vertex -6.9252 -6.5032 6
    endloop
  endfacet
  facet normal 0 0 1
    outer loop
      vertex -9.7082 -7.05342 6
      vertex -6.9252 -6.5032 6
      vertex -7.31988 -6.05553 6
    endloop
  endfacet
  facet normal 0 0 1
    outer loop
      vertex -9.7082 -7.05342 6
      vertex -7.31988 -6.05553 6
      vertex -7.68566 -5.58396 6
    endloop
  endfacet
  facet normal 0 0 1
    outer loop
      vertex -9.7082 -7.05342 6
      vertex -7.68566 -5.58396 6
      vertex -8.02111 -5.09035 6
    endloop
  endfacet
  facet normal 0 0 1
    outer loop
      vertex -5.58396 -7.68566 6
      vertex -8.02957 -8.91774 6
      vertex -6 -10.3923 6
    endloop
  endfacet
  facet normal 0 0 1
    outer loop
      vertex -9.7082 -7.05342 6
      vertex -8.02111 -5.09035 6
      vertex -8.32491 -4.57666 6
    endloop
  endfacet
  facet normal 0 0 1
    outer loop
      vertex -10.9625 -4.88084 6
      vertex -8.32491 -4.57666 6
      vertex -8.59586 -4.0449 6
    endloop
  endfacet
  facet normal 0 0 1
    outer loop
      vertex -10.9625 -4.88084 6
      vertex -8.59586 -4.0449 6
      vertex -8.83288 -3.49718 6
    endloop
  endfacet
  facet normal 0 0 1
    outer loop
      vertex -10.9625 -4.88084 6
      vertex -8.83288 -3.49718 6
      vertex -9.03504 -2.93566 6
    endloop
  endfacet
  facet normal -0 0 1
    outer loop
      vertex -11.7378 -2.49494 6
      vertex -9.03504 -2.93566 6
      vertex -9.20154 -2.36255 6
    endloop
  endfacet
  facet normal 0 0 1
    outer loop
      vertex -11.7378 -2.49494 6
      vertex -9.20154 -2.36255 6
      vertex -9.33173 -1.78012 6
    endloop
  endfacet
  facet normal 0 0 1
    outer loop
      vertex -6.9252 -6.5032 6
      vertex -9.7082 -7.05342 6
      vertex -8.02957 -8.91774 6
    endloop
  endfacet
  facet normal 0 0 1
    outer loop
      vertex -11.7378 -2.49494 6
      vertex -9.33173 -1.78012 6
      vertex -9.42509 -1.19067 6
    endloop
  endfacet
  facet normal 0 0 1
    outer loop
      vertex -12 0 6
      vertex -9.42509 -1.19067 6
      vertex -9.48125 -0.59651 6
    endloop
  endfacet
  facet normal -0 0 1
    outer loop
      vertex -12 0 6
      vertex -9.48125 -0.59651 6
      vertex -9.5 0 6
    endloop
  endfacet
  facet normal 0 0 1
    outer loop
      vertex -12 0 6
      vertex -9.42509 1.19067 6
      vertex -11.7378 2.49494 6
    endloop
  endfacet
  facet normal 0 0 1
    outer loop
      vertex -9.42509 1.19067 6
      vertex -12 0 6
      vertex -9.48125 0.59651 6
    endloop
  endfacet
  facet normal 0 0 1
    outer loop
      vertex -8.32491 -4.57666 6
      vertex -10.9625 -4.88084 6
      vertex -9.7082 -7.05342 6
    endloop
  endfacet
  facet normal 0 0 1
    outer loop
      vertex -9.48125 0.59651 6
      vertex -12 0 6
      vertex -9.5 0 6
    endloop
  endfacet
  facet normal 0 0 1
    outer loop
      vertex -9.03504 -2.93566 6
      vertex -11.7378 -2.49494 6
      vertex -10.9625 -4.88084 6
    endloop
  endfacet
  facet normal 0 0 1
    outer loop
      vertex -9.42509 -1.19067 6
      vertex -12 0 6
      vertex -11.7378 -2.49494 6
    endloop
  endfacet
  facet normal 0.866032 -0.499988 0
    outer loop
      vertex 9.7082 -7.05342 6
      vertex 10.9625 -4.88084 0
      vertex 10.9625 -4.88084 6
    endloop
  endfacet
  facet normal 0.866032 -0.499988 0
    outer loop
      vertex 10.9625 -4.88084 0
      vertex 9.7082 -7.05342 6
      vertex 9.7082 -7.05342 0
    endloop
  endfacet
  facet normal -0.994523 -0.104517 0
    outer loop
      vertex -11.7378 -2.49494 0
      vertex -12 0 6
      vertex -12 0 0
    endloop
  endfacet
  facet normal -0.994523 -0.104517 0
    outer loop
      vertex -12 0 6
      vertex -11.7378 -2.49494 0
      vertex -11.7378 -2.49494 6
    endloop
  endfacet
  facet normal 0.207918 -0.978146 0
    outer loop
      vertex 1.25434 -11.9343 0
      vertex 3.7082 -11.4127 6
      vertex 1.25434 -11.9343 6
    endloop
  endfacet
  facet normal 0.207918 -0.978146 0
    outer loop
      vertex 3.7082 -11.4127 6
      vertex 1.25434 -11.9343 0
      vertex 3.7082 -11.4127 0
    endloop
  endfacet
  facet normal 0.406745 -0.913542 0
    outer loop
      vertex 3.7082 -11.4127 0
      vertex 6 -10.3923 6
      vertex 3.7082 -11.4127 6
    endloop
  endfacet
  facet normal 0.406745 -0.913542 0
    outer loop
      vertex 6 -10.3923 6
      vertex 3.7082 -11.4127 0
      vertex 6 -10.3923 0
    endloop
  endfacet
  facet normal -0.207918 -0.978146 0
    outer loop
      vertex -3.7082 -11.4127 0
      vertex -1.25434 -11.9343 6
      vertex -3.7082 -11.4127 6
    endloop
  endfacet
  facet normal -0.207918 -0.978146 -0
    outer loop
      vertex -1.25434 -11.9343 6
      vertex -3.7082 -11.4127 0
      vertex -1.25434 -11.9343 0
    endloop
  endfacet
  facet normal 0 -1 0
    outer loop
      vertex -1.25434 -11.9343 0
      vertex 1.25434 -11.9343 6
      vertex -1.25434 -11.9343 6
    endloop
  endfacet
  facet normal 0 -1 -0
    outer loop
      vertex 1.25434 -11.9343 6
      vertex -1.25434 -11.9343 0
      vertex 1.25434 -11.9343 0
    endloop
  endfacet
  facet normal 0 0 -1
    outer loop
      vertex 11.7378 -2.49494 0
      vertex 11.7378 2.49494 0
      vertex 12 0 0
    endloop
  endfacet
  facet normal 0 0 -1
    outer loop
      vertex 10.9625 -4.88084 0
      vertex 11.7378 2.49494 0
      vertex 11.7378 -2.49494 0
    endloop
  endfacet
  facet normal 0 0 -1
    outer loop
      vertex 10.9625 -4.88084 0
      vertex 10.9625 4.88084 0
      vertex 11.7378 2.49494 0
    endloop
  endfacet
  facet normal 0 0 -1
    outer loop
      vertex 9.7082 -7.05342 0
      vertex 10.9625 4.88084 0
      vertex 10.9625 -4.88084 0
    endloop
  endfacet
  facet normal 0 0 -1
    outer loop
      vertex 9.7082 -7.05342 0
      vertex 9.7082 7.05342 0
      vertex 10.9625 4.88084 0
    endloop
  endfacet
  facet normal 0 0 -1
    outer loop
      vertex 8.02957 -8.91774 0
      vertex 9.7082 7.05342 0
      vertex 9.7082 -7.05342 0
    endloop
  endfacet
  facet normal 0 0 -1
    outer loop
      vertex 8.02957 -8.91774 0
      vertex 8.02957 8.91774 0
      vertex 9.7082 7.05342 0
    endloop
  endfacet
  facet normal 0 0 -1
    outer loop
      vertex 6 -10.3923 0
      vertex 8.02957 8.91774 0
      vertex 8.02957 -8.91774 0
    endloop
  endfacet
  facet normal 0 0 -1
    outer loop
      vertex 6 -10.3923 0
      vertex 6 10.3923 0
      vertex 8.02957 8.91774 0
    endloop
  endfacet
  facet normal 0 0 -1
    outer loop
      vertex 3.7082 -11.4127 0
      vertex 6 10.3923 0
      vertex 6 -10.3923 0
    endloop
  endfacet
  facet normal 0 0 -1
    outer loop
      vertex 3.7082 -11.4127 0
      vertex 3.7082 11.4127 0
      vertex 6 10.3923 0
    endloop
  endfacet
  facet normal 0 0 -1
    outer loop
      vertex 1.25434 -11.9343 0
      vertex 3.7082 11.4127 0
      vertex 3.7082 -11.4127 0
    endloop
  endfacet
  facet normal 0 0 -1
    outer loop
      vertex 1.25434 -11.9343 0
      vertex 1.25434 11.9343 0
      vertex 3.7082 11.4127 0
    endloop
  endfacet
  facet normal 0 0 -1
    outer loop
      vertex -1.25434 -11.9343 0
      vertex 1.25434 11.9343 0
      vertex 1.25434 -11.9343 0
    endloop
  endfacet
  facet normal 0 0 -1
    outer loop
      vertex -1.25434 -11.9343 0
      vertex -1.25434 11.9343 0
      vertex 1.25434 11.9343 0
    endloop
  endfacet
  facet normal 0 0 -1
    outer loop
      vertex -3.7082 -11.4127 0
      vertex -1.25434 11.9343 0
      vertex -1.25434 -11.9343 0
    endloop
  endfacet
  facet normal 0 0 -1
    outer loop
      vertex -3.7082 -11.4127 0
      vertex -3.7082 11.4127 0
      vertex -1.25434 11.9343 0
    endloop
  endfacet
  facet normal 0 0 -1
    outer loop
      vertex -6 -10.3923 0
      vertex -3.7082 11.4127 0
      vertex -3.7082 -11.4127 0
    endloop
  endfacet
  facet normal 0 0 -1
    outer loop
      vertex -6 -10.3923 0
      vertex -6 10.3923 0
      vertex -3.7082 11.4127 0
    endloop
  endfacet
  facet normal 0 0 -1
    outer loop
      vertex -8.02957 -8.91774 0
      vertex -6 10.3923 0
      vertex -6 -10.3923 0
    endloop
  endfacet
  facet normal 0 0 -1
    outer loop
      vertex -8.02957 -8.91774 0
      vertex -8.02957 8.91774 0
      vertex -6 10.3923 0
    endloop
  endfacet
  facet normal 0 0 -1
    outer loop
      vertex -9.7082 -7.05342 0
      vertex -8.02957 8.91774 0
      vertex -8.02957 -8.91774 0
    endloop
  endfacet
  facet normal 0 0 -1
    outer loop
      vertex -9.7082 -7.05342 0
      vertex -9.7082 7.05342 0
      vertex -8.02957 8.91774 0
    endloop
  endfacet
  facet normal 0 0 -1
    outer loop
      vertex -10.9625 -4.88084 0
      vertex -9.7082 7.05342 0
      vertex -9.7082 -7.05342 0
    endloop
  endfacet
  facet normal 0 0 -1
    outer loop
      vertex -10.9625 -4.88084 0
      vertex -10.9625 4.88084 0
      vertex -9.7082 7.05342 0
    endloop
  endfacet
  facet normal 0 0 -1
    outer loop
      vertex -11.7378 -2.49494 0
      vertex -10.9625 4.88084 0
      vertex -10.9625 -4.88084 0
    endloop
  endfacet
  facet normal 0 0 -1
    outer loop
      vertex -11.7378 -2.49494 0
      vertex -11.7378 2.49494 0
      vertex -10.9625 4.88084 0
    endloop
  endfacet
  facet normal 0 -0 -1
    outer loop
      vertex -11.7378 2.49494 0
      vertex -11.7378 -2.49494 0
      vertex -12 0 0
    endloop
  endfacet
  facet normal -0.951048 -0.309044 0
    outer loop
      vertex -10.9625 -4.88084 0
      vertex -11.7378 -2.49494 6
      vertex -11.7378 -2.49494 0
    endloop
  endfacet
  facet normal -0.951048 -0.309044 0
    outer loop
      vertex -11.7378 -2.49494 6
      vertex -10.9625 -4.88084 0
      vertex -10.9625 -4.88084 6
    endloop
  endfacet
  facet normal -0.743147 -0.669128 0
    outer loop
      vertex -8.02957 -8.91774 0
      vertex -9.7082 -7.05342 6
      vertex -9.7082 -7.05342 0
    endloop
  endfacet
  facet normal -0.743147 -0.669128 0
    outer loop
      vertex -9.7082 -7.05342 6
      vertex -8.02957 -8.91774 0
      vertex -8.02957 -8.91774 6
    endloop
  endfacet
  facet normal 0.743147 -0.669128 0
    outer loop
      vertex 8.02957 -8.91774 6
      vertex 9.7082 -7.05342 0
      vertex 9.7082 -7.05342 6
    endloop
  endfacet
  facet normal 0.743147 -0.669128 0
    outer loop
      vertex 9.7082 -7.05342 0
      vertex 8.02957 -8.91774 6
      vertex 8.02957 -8.91774 0
    endloop
  endfacet
  facet normal -0.406745 -0.913542 0
    outer loop
      vertex -6 -10.3923 0
      vertex -3.7082 -11.4127 6
      vertex -6 -10.3923 6
    endloop
  endfacet
  facet normal -0.406745 -0.913542 -0
    outer loop
      vertex -3.7082 -11.4127 6
      vertex -6 -10.3923 0
      vertex -3.7082 -11.4127 0
    endloop
  endfacet
  facet normal -0.587783 -0.809019 0
    outer loop
      vertex -8.02957 -8.91774 0
      vertex -6 -10.3923 6
      vertex -8.02957 -8.91774 6
    endloop
  endfacet
  facet normal -0.587783 -0.809019 -0
    outer loop
      vertex -6 -10.3923 6
      vertex -8.02957 -8.91774 0
      vertex -6 -10.3923 0
    endloop
  endfacet
  facet normal 0.997562 0.0313562 0.0623476
    outer loop
      vertex 9.48125 0.59651 6
      vertex 8.5 0 22
      vertex 9.5 0 6
    endloop
  endfacet
  facet normal -0.997562 -0.0313562 0.0623476
    outer loop
      vertex -8.5 0 22
      vertex -9.5 0 6
      vertex -9.48125 -0.59651 6
    endloop
  endfacet
  facet normal 0.958424 0.278455 0.0623474
    outer loop
      vertex 9.20154 2.36255 6
      vertex 8.08398 2.62664 22
      vertex 8.23296 2.11386 22
    endloop
  endfacet
  facet normal -0.156124 -0.985768 0.062348
    outer loop
      vertex -1.06533 -8.43297 22
      vertex -1.59274 -8.34944 22
      vertex -1.19067 -9.42509 6
    endloop
  endfacet
  facet normal 0.93905 0.338079 0.0623477
    outer loop
      vertex 8.83288 3.49718 6
      vertex 7.9031 3.12906 22
      vertex 9.03504 2.93566 6
    endloop
  endfacet
  facet normal 0.396376 0.915969 0.0623477
    outer loop
      vertex 3.49718 8.83288 6
      vertex 3.12906 7.9031 22
      vertex 4.0449 8.59586 6
    endloop
  endfacet
  facet normal -0.338079 0.93905 0.0623477
    outer loop
      vertex -2.93566 9.03504 6
      vertex -3.49718 8.83288 6
      vertex -3.12906 7.9031 22
    endloop
  endfacet
  facet normal 0.396376 -0.915969 0.0623477
    outer loop
      vertex 4.0449 -8.59586 6
      vertex 3.12906 -7.9031 22
      vertex 3.49718 -8.83288 6
    endloop
  endfacet
  facet normal 0.974018 -0.217721 0.0623478
    outer loop
      vertex 9.33173 -1.78012 6
      vertex 8.34944 -1.59274 22
      vertex 9.20154 -2.36255 6
    endloop
  endfacet
  facet normal -0.660031 0.748647 0.0623478
    outer loop
      vertex -6.05553 7.31988 6
      vertex -6.5032 6.9252 6
      vertex -5.81865 6.19623 22
    endloop
  endfacet
  facet normal -0.958424 0.278455 0.0623474
    outer loop
      vertex -8.08398 2.62664 22
      vertex -9.20154 2.36255 6
      vertex -8.23296 2.11386 22
    endloop
  endfacet
  facet normal -0.748647 -0.660031 0.0623478
    outer loop
      vertex -6.19623 -5.81865 22
      vertex -7.31988 -6.05553 6
      vertex -6.9252 -6.5032 6
    endloop
  endfacet
  facet normal -0.889278 0.453097 0.0623478
    outer loop
      vertex -7.44861 4.09491 22
      vertex -8.59586 4.0449 6
      vertex -7.69103 3.61912 22
    endloop
  endfacet
  facet normal -0.217721 -0.974018 0.0623478
    outer loop
      vertex -1.59274 -8.34944 22
      vertex -2.36255 -9.20154 6
      vertex -1.78012 -9.33173 6
    endloop
  endfacet
  facet normal 0.0939175 0.993626 0.062348
    outer loop
      vertex 1.19067 9.42509 6
      vertex 0.59651 9.48125 6
      vertex 1.06533 8.43297 22
    endloop
  endfacet
  facet normal 0.508053 0.859066 0.062347
    outer loop
      vertex 5.09035 8.02111 6
      vertex 4.09491 7.44861 22
      vertex 4.55453 7.17679 22
    endloop
  endfacet
  facet normal -0.396376 0.915969 0.0623477
    outer loop
      vertex -3.49718 8.83288 6
      vertex -4.0449 8.59586 6
      vertex -3.12906 7.9031 22
    endloop
  endfacet
  facet normal 0.788624 0.611707 0.062348
    outer loop
      vertex 7.31988 6.05553 6
      vertex 6.87664 4.99617 22
      vertex 7.68566 5.58396 6
    endloop
  endfacet
  facet normal 0.985768 0.156124 0.062348
    outer loop
      vertex 9.42509 1.19067 6
      vertex 8.34944 1.59274 22
      vertex 8.43297 1.06533 22
    endloop
  endfacet
  facet normal 0.396379 -0.915968 0.0623478
    outer loop
      vertex 3.61912 -7.69103 22
      vertex 3.12906 -7.9031 22
      vertex 4.0449 -8.59586 6
    endloop
  endfacet
  facet normal -0.705731 0.705731 0.0623478
    outer loop
      vertex -6.9252 6.5032 6
      vertex -5.81865 6.19623 22
      vertex -6.5032 6.9252 6
    endloop
  endfacet
  facet normal -0.705731 0.705731 0.0623478
    outer loop
      vertex -5.81865 6.19623 22
      vertex -6.9252 6.5032 6
      vertex -6.19623 5.81865 22
    endloop
  endfacet
  facet normal -0.985767 0.156131 0.0623478
    outer loop
      vertex -9.33173 1.78012 6
      vertex -9.42509 1.19067 6
      vertex -8.34944 1.59274 22
    endloop
  endfacet
  facet normal -0.997562 -0.0313444 0.0623472
    outer loop
      vertex -8.5 0 22
      vertex -9.48125 -0.59651 6
      vertex -8.48323 -0.533719 22
    endloop
  endfacet
  facet normal -0.915968 -0.396379 0.0623478
    outer loop
      vertex -7.9031 -3.12906 22
      vertex -8.59586 -4.0449 6
      vertex -7.69103 -3.61912 22
    endloop
  endfacet
  facet normal -0.915969 0.396376 0.0623477
    outer loop
      vertex -8.59586 4.0449 6
      vertex -8.83288 3.49718 6
      vertex -7.9031 3.12906 22
    endloop
  endfacet
  facet normal 0 0 1
    outer loop
      vertex 8.48323 0.533719 22
      vertex 8.48323 -0.533719 22
      vertex 8.5 0 22
    endloop
  endfacet
  facet normal 0 0 1
    outer loop
      vertex 8.43297 1.06533 22
      vertex 8.48323 -0.533719 22
      vertex 8.48323 0.533719 22
    endloop
  endfacet
  facet normal 0 0 1
    outer loop
      vertex 8.43297 1.06533 22
      vertex 8.43297 -1.06533 22
      vertex 8.48323 -0.533719 22
    endloop
  endfacet
  facet normal 0 0 1
    outer loop
      vertex 8.34944 1.59274 22
      vertex 8.43297 -1.06533 22
      vertex 8.43297 1.06533 22
    endloop
  endfacet
  facet normal 0 0 1
    outer loop
      vertex 8.34944 1.59274 22
      vertex 8.34944 -1.59274 22
      vertex 8.43297 -1.06533 22
    endloop
  endfacet
  facet normal 0 0 1
    outer loop
      vertex 8.23296 2.11386 22
      vertex 8.34944 -1.59274 22
      vertex 8.34944 1.59274 22
    endloop
  endfacet
  facet normal 0 0 1
    outer loop
      vertex 8.23296 2.11386 22
      vertex 8.23296 -2.11386 22
      vertex 8.34944 -1.59274 22
    endloop
  endfacet
  facet normal 0 0 1
    outer loop
      vertex 8.08398 2.62664 22
      vertex 8.23296 -2.11386 22
      vertex 8.23296 2.11386 22
    endloop
  endfacet
  facet normal 0 0 1
    outer loop
      vertex 8.08398 2.62664 22
      vertex 8.08398 -2.62664 22
      vertex 8.23296 -2.11386 22
    endloop
  endfacet
  facet normal 0 0 1
    outer loop
      vertex 7.9031 3.12906 22
      vertex 8.08398 -2.62664 22
      vertex 8.08398 2.62664 22
    endloop
  endfacet
  facet normal 0 0 1
    outer loop
      vertex 7.9031 3.12906 22
      vertex 7.9031 -3.12906 22
      vertex 8.08398 -2.62664 22
    endloop
  endfacet
  facet normal 0 0 1
    outer loop
      vertex 7.69103 3.61912 22
      vertex 7.9031 -3.12906 22
      vertex 7.9031 3.12906 22
    endloop
  endfacet
  facet normal 0 0 1
    outer loop
      vertex 7.69103 3.61912 22
      vertex 7.69103 -3.61912 22
      vertex 7.9031 -3.12906 22
    endloop
  endfacet
  facet normal 0 0 1
    outer loop
      vertex 7.44861 4.09491 22
      vertex 7.69103 -3.61912 22
      vertex 7.69103 3.61912 22
    endloop
  endfacet
  facet normal 0 0 1
    outer loop
      vertex 7.44861 4.09491 22
      vertex 7.44861 -4.09491 22
      vertex 7.69103 -3.61912 22
    endloop
  endfacet
  facet normal 0 0 1
    outer loop
      vertex 7.17679 4.55453 22
      vertex 7.44861 -4.09491 22
      vertex 7.44861 4.09491 22
    endloop
  endfacet
  facet normal 0 0 1
    outer loop
      vertex 7.17679 4.55453 22
      vertex 7.17679 -4.55453 22
      vertex 7.44861 -4.09491 22
    endloop
  endfacet
  facet normal 0 0 1
    outer loop
      vertex 6.87664 4.99617 22
      vertex 7.17679 -4.55453 22
      vertex 7.17679 4.55453 22
    endloop
  endfacet
  facet normal 0 0 1
    outer loop
      vertex 6.87664 4.99617 22
      vertex 6.87664 -4.99617 22
      vertex 7.17679 -4.55453 22
    endloop
  endfacet
  facet normal 0 0 1
    outer loop
      vertex 6.54936 5.4181 22
      vertex 6.87664 -4.99617 22
      vertex 6.87664 4.99617 22
    endloop
  endfacet
  facet normal 0 0 1
    outer loop
      vertex 6.54936 5.4181 22
      vertex 6.54936 -5.4181 22
      vertex 6.87664 -4.99617 22
    endloop
  endfacet
  facet normal 0 0 1
    outer loop
      vertex 6.19623 5.81865 22
      vertex 6.54936 -5.4181 22
      vertex 6.54936 5.4181 22
    endloop
  endfacet
  facet normal 0 0 1
    outer loop
      vertex 6.19623 5.81865 22
      vertex 6.19623 -5.81865 22
      vertex 6.54936 -5.4181 22
    endloop
  endfacet
  facet normal 0 0 1
    outer loop
      vertex 5.81865 6.19623 22
      vertex 6.19623 -5.81865 22
      vertex 6.19623 5.81865 22
    endloop
  endfacet
  facet normal 0 0 1
    outer loop
      vertex 5.81865 6.19623 22
      vertex 5.81865 -6.19623 22
      vertex 6.19623 -5.81865 22
    endloop
  endfacet
  facet normal 0 0 1
    outer loop
      vertex 5.4181 6.54936 22
      vertex 5.81865 -6.19623 22
      vertex 5.81865 6.19623 22
    endloop
  endfacet
  facet normal 0 0 1
    outer loop
      vertex 5.4181 6.54936 22
      vertex 5.4181 -6.54936 22
      vertex 5.81865 -6.19623 22
    endloop
  endfacet
  facet normal 0 0 1
    outer loop
      vertex 4.99617 6.87664 22
      vertex 5.4181 -6.54936 22
      vertex 5.4181 6.54936 22
    endloop
  endfacet
  facet normal 0 0 1
    outer loop
      vertex 4.99617 6.87664 22
      vertex 4.99617 -6.87664 22
      vertex 5.4181 -6.54936 22
    endloop
  endfacet
  facet normal 0 0 1
    outer loop
      vertex 4.55453 7.17679 22
      vertex 4.99617 -6.87664 22
      vertex 4.99617 6.87664 22
    endloop
  endfacet
  facet normal 0 0 1
    outer loop
      vertex 4.55453 7.17679 22
      vertex 4.55453 -7.17679 22
      vertex 4.99617 -6.87664 22
    endloop
  endfacet
  facet normal 0 0 1
    outer loop
      vertex 4.09491 7.44861 22
      vertex 4.55453 -7.17679 22
      vertex 4.55453 7.17679 22
    endloop
  endfacet
  facet normal 0 0 1
    outer loop
      vertex 4.09491 7.44861 22
      vertex 4.09491 -7.44861 22
      vertex 4.55453 -7.17679 22
    endloop
  endfacet
  facet normal 0 0 1
    outer loop
      vertex 3.61912 7.69103 22
      vertex 4.09491 -7.44861 22
      vertex 4.09491 7.44861 22
    endloop
  endfacet
  facet normal 0 0 1
    outer loop
      vertex 3.61912 7.69103 22
      vertex 3.61912 -7.69103 22
      vertex 4.09491 -7.44861 22
    endloop
  endfacet
  facet normal 0 0 1
    outer loop
      vertex 3.12906 7.9031 22
      vertex 3.61912 -7.69103 22
      vertex 3.61912 7.69103 22
    endloop
  endfacet
  facet normal 0 0 1
    outer loop
      vertex 3.12906 7.9031 22
      vertex 3.12906 -7.9031 22
      vertex 3.61912 -7.69103 22
    endloop
  endfacet
  facet normal 0 0 1
    outer loop
      vertex 2.62664 8.08398 22
      vertex 3.12906 -7.9031 22
      vertex 3.12906 7.9031 22
    endloop
  endfacet
  facet normal 0 0 1
    outer loop
      vertex 2.62664 8.08398 22
      vertex 2.62664 -8.08398 22
      vertex 3.12906 -7.9031 22
    endloop
  endfacet
  facet normal 0 0 1
    outer loop
      vertex 2.11386 8.23296 22
      vertex 2.62664 -8.08398 22
      vertex 2.62664 8.08398 22
    endloop
  endfacet
  facet normal 0 0 1
    outer loop
      vertex 2.11386 8.23296 22
      vertex 2.11386 -8.23296 22
      vertex 2.62664 -8.08398 22
    endloop
  endfacet
  facet normal 0 0 1
    outer loop
      vertex 1.59274 8.34944 22
      vertex 2.11386 -8.23296 22
      vertex 2.11386 8.23296 22
    endloop
  endfacet
  facet normal 0 0 1
    outer loop
      vertex 1.59274 8.34944 22
      vertex 1.59274 -8.34944 22
      vertex 2.11386 -8.23296 22
    endloop
  endfacet
  facet normal 0 0 1
    outer loop
      vertex 1.06533 8.43297 22
      vertex 1.59274 -8.34944 22
      vertex 1.59274 8.34944 22
    endloop
  endfacet
  facet normal 0 0 1
    outer loop
      vertex 1.06533 8.43297 22
      vertex 1.06533 -8.43297 22
      vertex 1.59274 -8.34944 22
    endloop
  endfacet
  facet normal 0 0 1
    outer loop
      vertex 0.533719 8.48323 22
      vertex 1.06533 -8.43297 22
      vertex 1.06533 8.43297 22
    endloop
  endfacet
  facet normal 0 0 1
    outer loop
      vertex 0.533719 8.48323 22
      vertex 0.533719 -8.48323 22
      vertex 1.06533 -8.43297 22
    endloop
  endfacet
  facet normal 0 0 1
    outer loop
      vertex 0 8.5 22
      vertex 0.533719 -8.48323 22
      vertex 0.533719 8.48323 22
    endloop
  endfacet
  facet normal 0 0 1
    outer loop
      vertex 0 8.5 22
      vertex 0 -8.5 22
      vertex 0.533719 -8.48323 22
    endloop
  endfacet
  facet normal -0 0 1
    outer loop
      vertex -0.533719 8.48323 22
      vertex 0 -8.5 22
      vertex 0 8.5 22
    endloop
  endfacet
  facet normal 0 0 1
    outer loop
      vertex -0.533719 8.48323 22
      vertex -0.533719 -8.48323 22
      vertex 0 -8.5 22
    endloop
  endfacet
  facet normal -0 0 1
    outer loop
      vertex -1.06533 8.43297 22
      vertex -0.533719 -8.48323 22
      vertex -0.533719 8.48323 22
    endloop
  endfacet
  facet normal 0 0 1
    outer loop
      vertex -1.06533 8.43297 22
      vertex -1.06533 -8.43297 22
      vertex -0.533719 -8.48323 22
    endloop
  endfacet
  facet normal -0 0 1
    outer loop
      vertex -1.59274 8.34944 22
      vertex -1.06533 -8.43297 22
      vertex -1.06533 8.43297 22
    endloop
  endfacet
  facet normal 0 0 1
    outer loop
      vertex -1.59274 8.34944 22
      vertex -1.59274 -8.34944 22
      vertex -1.06533 -8.43297 22
    endloop
  endfacet
  facet normal -0 0 1
    outer loop
      vertex -2.11386 8.23296 22
      vertex -1.59274 -8.34944 22
      vertex -1.59274 8.34944 22
    endloop
  endfacet
  facet normal 0 0 1
    outer loop
      vertex -2.11386 8.23296 22
      vertex -2.11386 -8.23296 22
      vertex -1.59274 -8.34944 22
    endloop
  endfacet
  facet normal -0 0 1
    outer loop
      vertex -2.62664 8.08398 22
      vertex -2.11386 -8.23296 22
      vertex -2.11386 8.23296 22
    endloop
  endfacet
  facet normal 0 0 1
    outer loop
      vertex -2.62664 8.08398 22
      vertex -2.62664 -8.08398 22
      vertex -2.11386 -8.23296 22
    endloop
  endfacet
  facet normal -0 0 1
    outer loop
      vertex -3.12906 7.9031 22
      vertex -2.62664 -8.08398 22
      vertex -2.62664 8.08398 22
    endloop
  endfacet
  facet normal 0 0 1
    outer loop
      vertex -3.12906 7.9031 22
      vertex -3.12906 -7.9031 22
      vertex -2.62664 -8.08398 22
    endloop
  endfacet
  facet normal -0 0 1
    outer loop
      vertex -3.61912 7.69103 22
      vertex -3.12906 -7.9031 22
      vertex -3.12906 7.9031 22
    endloop
  endfacet
  facet normal 0 0 1
    outer loop
      vertex -3.61912 7.69103 22
      vertex -3.61912 -7.69103 22
      vertex -3.12906 -7.9031 22
    endloop
  endfacet
  facet normal -0 0 1
    outer loop
      vertex -4.09491 7.44861 22
      vertex -3.61912 -7.69103 22
      vertex -3.61912 7.69103 22
    endloop
  endfacet
  facet normal 0 0 1
    outer loop
      vertex -4.09491 7.44861 22
      vertex -4.09491 -7.44861 22
      vertex -3.61912 -7.69103 22
    endloop
  endfacet
  facet normal -0 0 1
    outer loop
      vertex -4.55453 7.17679 22
      vertex -4.09491 -7.44861 22
      vertex -4.09491 7.44861 22
    endloop
  endfacet
  facet normal 0 0 1
    outer loop
      vertex -4.55453 7.17679 22
      vertex -4.55453 -7.17679 22
      vertex -4.09491 -7.44861 22
    endloop
  endfacet
  facet normal -0 0 1
    outer loop
      vertex -4.99617 6.87664 22
      vertex -4.55453 -7.17679 22
      vertex -4.55453 7.17679 22
    endloop
  endfacet
  facet normal 0 0 1
    outer loop
      vertex -4.99617 6.87664 22
      vertex -4.99617 -6.87664 22
      vertex -4.55453 -7.17679 22
    endloop
  endfacet
  facet normal -0 0 1
    outer loop
      vertex -5.4181 6.54936 22
      vertex -4.99617 -6.87664 22
      vertex -4.99617 6.87664 22
    endloop
  endfacet
  facet normal 0 0 1
    outer loop
      vertex -5.4181 6.54936 22
      vertex -5.4181 -6.54936 22
      vertex -4.99617 -6.87664 22
    endloop
  endfacet
  facet normal -0 0 1
    outer loop
      vertex -5.81865 6.19623 22
      vertex -5.4181 -6.54936 22
      vertex -5.4181 6.54936 22
    endloop
  endfacet
  facet normal 0 0 1
    outer loop
      vertex -5.81865 6.19623 22
      vertex -5.81865 -6.19623 22
      vertex -5.4181 -6.54936 22
    endloop
  endfacet
  facet normal -0 0 1
    outer loop
      vertex -6.19623 5.81865 22
      vertex -5.81865 -6.19623 22
      vertex -5.81865 6.19623 22
    endloop
  endfacet
  facet normal 0 0 1
    outer loop
      vertex -6.19623 5.81865 22
      vertex -6.19623 -5.81865 22
      vertex -5.81865 -6.19623 22
    endloop
  endfacet
  facet normal -0 0 1
    outer loop
      vertex -6.54936 5.4181 22
      vertex -6.19623 -5.81865 22
      vertex -6.19623 5.81865 22
    endloop
  endfacet
  facet normal 0 0 1
    outer loop
      vertex -6.54936 5.4181 22
      vertex -6.54936 -5.4181 22
      vertex -6.19623 -5.81865 22
    endloop
  endfacet
  facet normal -0 0 1
    outer loop
      vertex -6.87664 4.99617 22
      vertex -6.54936 -5.4181 22
      vertex -6.54936 5.4181 22
    endloop
  endfacet
  facet normal 0 0 1
    outer loop
      vertex -6.87664 4.99617 22
      vertex -6.87664 -4.99617 22
      vertex -6.54936 -5.4181 22
    endloop
  endfacet
  facet normal -0 0 1
    outer loop
      vertex -7.17679 4.55453 22
      vertex -6.87664 -4.99617 22
      vertex -6.87664 4.99617 22
    endloop
  endfacet
  facet normal 0 0 1
    outer loop
      vertex -7.17679 4.55453 22
      vertex -7.17679 -4.55453 22
      vertex -6.87664 -4.99617 22
    endloop
  endfacet
  facet normal -0 0 1
    outer loop
      vertex -7.44861 4.09491 22
      vertex -7.17679 -4.55453 22
      vertex -7.17679 4.55453 22
    endloop
  endfacet
  facet normal 0 0 1
    outer loop
      vertex -7.44861 4.09491 22
      vertex -7.44861 -4.09491 22
      vertex -7.17679 -4.55453 22
    endloop
  endfacet
  facet normal -0 0 1
    outer loop
      vertex -7.69103 3.61912 22
      vertex -7.44861 -4.09491 22
      vertex -7.44861 4.09491 22
    endloop
  endfacet
  facet normal 0 0 1
    outer loop
      vertex -7.69103 3.61912 22
      vertex -7.69103 -3.61912 22
      vertex -7.44861 -4.09491 22
    endloop
  endfacet
  facet normal -0 0 1
    outer loop
      vertex -7.9031 3.12906 22
      vertex -7.69103 -3.61912 22
      vertex -7.69103 3.61912 22
    endloop
  endfacet
  facet normal 0 0 1
    outer loop
      vertex -7.9031 3.12906 22
      vertex -7.9031 -3.12906 22
      vertex -7.69103 -3.61912 22
    endloop
  endfacet
  facet normal -0 0 1
    outer loop
      vertex -8.08398 2.62664 22
      vertex -7.9031 -3.12906 22
      vertex -7.9031 3.12906 22
    endloop
  endfacet
  facet normal 0 0 1
    outer loop
      vertex -8.08398 2.62664 22
      vertex -8.08398 -2.62664 22
      vertex -7.9031 -3.12906 22
    endloop
  endfacet
  facet normal -0 0 1
    outer loop
      vertex -8.23296 2.11386 22
      vertex -8.08398 -2.62664 22
      vertex -8.08398 2.62664 22
    endloop
  endfacet
  facet normal 0 0 1
    outer loop
      vertex -8.23296 2.11386 22
      vertex -8.23296 -2.11386 22
      vertex -8.08398 -2.62664 22
    endloop
  endfacet
  facet normal -0 0 1
    outer loop
      vertex -8.34944 1.59274 22
      vertex -8.23296 -2.11386 22
      vertex -8.23296 2.11386 22
    endloop
  endfacet
  facet normal 0 0 1
    outer loop
      vertex -8.34944 1.59274 22
      vertex -8.34944 -1.59274 22
      vertex -8.23296 -2.11386 22
    endloop
  endfacet
  facet normal -0 0 1
    outer loop
      vertex -8.43297 1.06533 22
      vertex -8.34944 -1.59274 22
      vertex -8.34944 1.59274 22
    endloop
  endfacet
  facet normal 0 0 1
    outer loop
      vertex -8.43297 1.06533 22
      vertex -8.43297 -1.06533 22
      vertex -8.34944 -1.59274 22
    endloop
  endfacet
  facet normal -0 0 1
    outer loop
      vertex -8.48323 0.533719 22
      vertex -8.43297 -1.06533 22
      vertex -8.43297 1.06533 22
    endloop
  endfacet
  facet normal 0 0 1
    outer loop
      vertex -8.48323 0.533719 22
      vertex -8.48323 -0.533719 22
      vertex -8.43297 -1.06533 22
    endloop
  endfacet
  facet normal 0 -0 1
    outer loop
      vertex -8.48323 -0.533719 22
      vertex -8.48323 0.533719 22
      vertex -8.5 0 22
    endloop
  endfacet
  facet normal -0.788624 0.611707 0.062348
    outer loop
      vertex -7.31988 6.05553 6
      vertex -7.68566 5.58396 6
      vertex -6.87664 4.99617 22
    endloop
  endfacet
  facet normal -0.508057 0.859064 0.0623471
    outer loop
      vertex -4.57666 8.32491 6
      vertex -5.09035 8.02111 6
      vertex -4.09491 7.44861 22
    endloop
  endfacet
  facet normal -0.217712 0.97402 0.0623474
    outer loop
      vertex -1.59274 8.34944 22
      vertex -2.36255 9.20154 6
      vertex -2.11386 8.23296 22
    endloop
  endfacet
  facet normal 0.09394 0.993624 0.0623472
    outer loop
      vertex 0.59651 9.48125 6
      vertex 0.533719 8.48323 22
      vertex 1.06533 8.43297 22
    endloop
  endfacet
  facet normal 0.0313562 0.997562 0.0623476
    outer loop
      vertex 0 9.5 6
      vertex 0 8.5 22
      vertex 0.59651 9.48125 6
    endloop
  endfacet
  facet normal -0.0313562 0.997562 0.0623476
    outer loop
      vertex 0 9.5 6
      vertex -0.59651 9.48125 6
      vertex 0 8.5 22
    endloop
  endfacet
  facet normal -0.217721 0.974018 0.0623478
    outer loop
      vertex -1.78012 9.33173 6
      vertex -2.36255 9.20154 6
      vertex -1.59274 8.34944 22
    endloop
  endfacet
  facet normal -0.0313444 0.997562 0.0623472
    outer loop
      vertex 0 8.5 22
      vertex -0.59651 9.48125 6
      vertex -0.533719 8.48323 22
    endloop
  endfacet
  facet normal 0.88927 0.453114 0.0623472
    outer loop
      vertex 8.32491 4.57666 6
      vertex 7.44861 4.09491 22
      vertex 8.59586 4.0449 6
    endloop
  endfacet
  facet normal 0.78862 0.611712 0.0623482
    outer loop
      vertex 7.31988 6.05553 6
      vertex 6.54936 5.4181 22
      vertex 6.87664 4.99617 22
    endloop
  endfacet
  facet normal 0.705731 0.705731 0.0623478
    outer loop
      vertex 5.81865 6.19623 22
      vertex 6.9252 6.5032 6
      vertex 6.5032 6.9252 6
    endloop
  endfacet
  facet normal 0.705731 0.705731 0.0623478
    outer loop
      vertex 6.9252 6.5032 6
      vertex 5.81865 6.19623 22
      vertex 6.19623 5.81865 22
    endloop
  endfacet
  facet normal 0.939052 0.338075 0.0623479
    outer loop
      vertex 9.03504 2.93566 6
      vertex 7.9031 3.12906 22
      vertex 8.08398 2.62664 22
    endloop
  endfacet
  facet normal 0.859064 0.508057 0.0623471
    outer loop
      vertex 8.02111 5.09035 6
      vertex 7.44861 4.09491 22
      vertex 8.32491 4.57666 6
    endloop
  endfacet
  facet normal 0.974018 0.217721 0.0623478
    outer loop
      vertex 9.20154 2.36255 6
      vertex 8.34944 1.59274 22
      vertex 9.33173 1.78012 6
    endloop
  endfacet
  facet normal 0.915968 -0.396379 0.0623478
    outer loop
      vertex 7.9031 -3.12906 22
      vertex 7.69103 -3.61912 22
      vertex 8.59586 -4.0449 6
    endloop
  endfacet
  facet normal 0.705731 -0.705731 0.0623478
    outer loop
      vertex 5.81865 -6.19623 22
      vertex 6.9252 -6.5032 6
      vertex 6.19623 -5.81865 22
    endloop
  endfacet
  facet normal 0.705731 -0.705731 0.0623478
    outer loop
      vertex 6.9252 -6.5032 6
      vertex 5.81865 -6.19623 22
      vertex 6.5032 -6.9252 6
    endloop
  endfacet
  facet normal -0.453114 -0.88927 0.0623472
    outer loop
      vertex -4.09491 -7.44861 22
      vertex -4.57666 -8.32491 6
      vertex -4.0449 -8.59586 6
    endloop
  endfacet
  facet normal 0.217721 -0.974018 0.0623478
    outer loop
      vertex 2.36255 -9.20154 6
      vertex 1.59274 -8.34944 22
      vertex 1.78012 -9.33173 6
    endloop
  endfacet
  facet normal 0.508057 -0.859064 0.0623471
    outer loop
      vertex 5.09035 -8.02111 6
      vertex 4.09491 -7.44861 22
      vertex 4.57666 -8.32491 6
    endloop
  endfacet
  facet normal 0.997562 -0.0313562 0.0623476
    outer loop
      vertex 9.5 0 6
      vertex 8.5 0 22
      vertex 9.48125 -0.59651 6
    endloop
  endfacet
  facet normal 0.985767 -0.156131 0.0623478
    outer loop
      vertex 9.42509 -1.19067 6
      vertex 8.34944 -1.59274 22
      vertex 9.33173 -1.78012 6
    endloop
  endfacet
  facet normal 0.985768 -0.156124 0.062348
    outer loop
      vertex 8.43297 -1.06533 22
      vertex 8.34944 -1.59274 22
      vertex 9.42509 -1.19067 6
    endloop
  endfacet
  facet normal -0.748647 0.660031 0.0623478
    outer loop
      vertex -6.9252 6.5032 6
      vertex -7.31988 6.05553 6
      vertex -6.19623 5.81865 22
    endloop
  endfacet
  facet normal -0.560982 0.825477 0.062347
    outer loop
      vertex -5.09035 8.02111 6
      vertex -5.58396 7.68566 6
      vertex -4.55453 7.17679 22
    endloop
  endfacet
  facet normal -0.997562 0.0313562 0.0623476
    outer loop
      vertex -9.48125 0.59651 6
      vertex -9.5 0 6
      vertex -8.5 0 22
    endloop
  endfacet
  facet normal -0.958424 -0.278455 0.0623474
    outer loop
      vertex -8.23296 -2.11386 22
      vertex -9.20154 -2.36255 6
      vertex -8.08398 -2.62664 22
    endloop
  endfacet
  facet normal -0.825477 -0.560982 0.062347
    outer loop
      vertex -7.17679 -4.55453 22
      vertex -8.02111 -5.09035 6
      vertex -7.68566 -5.58396 6
    endloop
  endfacet
  facet normal -0.915968 0.396379 0.0623478
    outer loop
      vertex -7.69103 3.61912 22
      vertex -8.59586 4.0449 6
      vertex -7.9031 3.12906 22
    endloop
  endfacet
  facet normal -0.974018 0.217721 0.0623478
    outer loop
      vertex -9.20154 2.36255 6
      vertex -9.33173 1.78012 6
      vertex -8.34944 1.59274 22
    endloop
  endfacet
  facet normal -0.993626 0.0939175 0.062348
    outer loop
      vertex -9.42509 1.19067 6
      vertex -9.48125 0.59651 6
      vertex -8.43297 1.06533 22
    endloop
  endfacet
  facet normal -0.993624 0.09394 0.0623472
    outer loop
      vertex -8.43297 1.06533 22
      vertex -9.48125 0.59651 6
      vertex -8.48323 0.533719 22
    endloop
  endfacet
  facet normal -0.997562 0.0313444 0.0623472
    outer loop
      vertex -8.48323 0.533719 22
      vertex -9.48125 0.59651 6
      vertex -8.5 0 22
    endloop
  endfacet
  facet normal -0.78862 0.611712 0.0623482
    outer loop
      vertex -6.54936 5.4181 22
      vertex -7.31988 6.05553 6
      vertex -6.87664 4.99617 22
    endloop
  endfacet
  facet normal -0.859064 0.508057 0.0623471
    outer loop
      vertex -8.02111 5.09035 6
      vertex -8.32491 4.57666 6
      vertex -7.44861 4.09491 22
    endloop
  endfacet
  facet normal -0.88927 0.453114 0.0623472
    outer loop
      vertex -8.32491 4.57666 6
      vertex -8.59586 4.0449 6
      vertex -7.44861 4.09491 22
    endloop
  endfacet
  facet normal -0.611707 -0.788624 0.062348
    outer loop
      vertex -4.99617 -6.87664 22
      vertex -6.05553 -7.31988 6
      vertex -5.58396 -7.68566 6
    endloop
  endfacet
  facet normal 0.338075 0.939052 0.0623479
    outer loop
      vertex 2.93566 9.03504 6
      vertex 2.62664 8.08398 22
      vertex 3.12906 7.9031 22
    endloop
  endfacet
  facet normal 0.217721 0.974018 0.0623478
    outer loop
      vertex 1.78012 9.33173 6
      vertex 1.59274 8.34944 22
      vertex 2.36255 9.20154 6
    endloop
  endfacet
  facet normal 0.278442 0.958427 0.0623479
    outer loop
      vertex 2.93566 9.03504 6
      vertex 2.36255 9.20154 6
      vertex 2.62664 8.08398 22
    endloop
  endfacet
  facet normal 0.338079 0.93905 0.0623477
    outer loop
      vertex 3.49718 8.83288 6
      vertex 2.93566 9.03504 6
      vertex 3.12906 7.9031 22
    endloop
  endfacet
  facet normal -0.453114 0.88927 0.0623472
    outer loop
      vertex -4.0449 8.59586 6
      vertex -4.57666 8.32491 6
      vertex -4.09491 7.44861 22
    endloop
  endfacet
  facet normal -0.396379 0.915968 0.0623478
    outer loop
      vertex -3.12906 7.9031 22
      vertex -4.0449 8.59586 6
      vertex -3.61912 7.69103 22
    endloop
  endfacet
  facet normal -0.453097 0.889278 0.0623478
    outer loop
      vertex -4.0449 8.59586 6
      vertex -4.09491 7.44861 22
      vertex -3.61912 7.69103 22
    endloop
  endfacet
  facet normal 0.156124 0.985768 0.062348
    outer loop
      vertex 1.19067 9.42509 6
      vertex 1.06533 8.43297 22
      vertex 1.59274 8.34944 22
    endloop
  endfacet
  facet normal 0.156131 0.985767 0.0623478
    outer loop
      vertex 1.78012 9.33173 6
      vertex 1.19067 9.42509 6
      vertex 1.59274 8.34944 22
    endloop
  endfacet
  facet normal 0.0313444 0.997562 0.0623472
    outer loop
      vertex 0.59651 9.48125 6
      vertex 0 8.5 22
      vertex 0.533719 8.48323 22
    endloop
  endfacet
  facet normal -0.278455 0.958424 0.0623474
    outer loop
      vertex -2.36255 9.20154 6
      vertex -2.62664 8.08398 22
      vertex -2.11386 8.23296 22
    endloop
  endfacet
  facet normal -0.156124 0.985768 0.062348
    outer loop
      vertex -1.19067 9.42509 6
      vertex -1.59274 8.34944 22
      vertex -1.06533 8.43297 22
    endloop
  endfacet
  facet normal -0.0939175 0.993626 0.062348
    outer loop
      vertex -0.59651 9.48125 6
      vertex -1.19067 9.42509 6
      vertex -1.06533 8.43297 22
    endloop
  endfacet
  facet normal 0.611707 0.788624 0.062348
    outer loop
      vertex 5.58396 7.68566 6
      vertex 4.99617 6.87664 22
      vertex 6.05553 7.31988 6
    endloop
  endfacet
  facet normal 0.453114 0.88927 0.0623472
    outer loop
      vertex 4.57666 8.32491 6
      vertex 4.0449 8.59586 6
      vertex 4.09491 7.44861 22
    endloop
  endfacet
  facet normal 0.508057 0.859064 0.0623471
    outer loop
      vertex 4.57666 8.32491 6
      vertex 4.09491 7.44861 22
      vertex 5.09035 8.02111 6
    endloop
  endfacet
  facet normal 0.453097 0.889278 0.0623478
    outer loop
      vertex 4.0449 8.59586 6
      vertex 3.61912 7.69103 22
      vertex 4.09491 7.44861 22
    endloop
  endfacet
  facet normal 0.396379 0.915968 0.0623478
    outer loop
      vertex 4.0449 8.59586 6
      vertex 3.12906 7.9031 22
      vertex 3.61912 7.69103 22
    endloop
  endfacet
  facet normal 0.915969 0.396376 0.0623477
    outer loop
      vertex 8.59586 4.0449 6
      vertex 7.9031 3.12906 22
      vertex 8.83288 3.49718 6
    endloop
  endfacet
  facet normal 0.958427 0.278442 0.0623479
    outer loop
      vertex 9.03504 2.93566 6
      vertex 8.08398 2.62664 22
      vertex 9.20154 2.36255 6
    endloop
  endfacet
  facet normal 0.889278 0.453097 0.0623478
    outer loop
      vertex 8.59586 4.0449 6
      vertex 7.44861 4.09491 22
      vertex 7.69103 3.61912 22
    endloop
  endfacet
  facet normal 0.859066 0.508053 0.062347
    outer loop
      vertex 8.02111 5.09035 6
      vertex 7.17679 4.55453 22
      vertex 7.44861 4.09491 22
    endloop
  endfacet
  facet normal 0.97402 0.217712 0.0623474
    outer loop
      vertex 9.20154 2.36255 6
      vertex 8.23296 2.11386 22
      vertex 8.34944 1.59274 22
    endloop
  endfacet
  facet normal 0.993624 0.09394 0.0623472
    outer loop
      vertex 9.48125 0.59651 6
      vertex 8.43297 1.06533 22
      vertex 8.48323 0.533719 22
    endloop
  endfacet
  facet normal 0.993626 0.0939175 0.062348
    outer loop
      vertex 9.42509 1.19067 6
      vertex 8.43297 1.06533 22
      vertex 9.48125 0.59651 6
    endloop
  endfacet
  facet normal 0.985767 0.156131 0.0623478
    outer loop
      vertex 9.33173 1.78012 6
      vertex 8.34944 1.59274 22
      vertex 9.42509 1.19067 6
    endloop
  endfacet
  facet normal 0.915969 -0.396376 0.0623477
    outer loop
      vertex 8.83288 -3.49718 6
      vertex 7.9031 -3.12906 22
      vertex 8.59586 -4.0449 6
    endloop
  endfacet
  facet normal 0.88927 -0.453114 0.0623472
    outer loop
      vertex 8.59586 -4.0449 6
      vertex 7.44861 -4.09491 22
      vertex 8.32491 -4.57666 6
    endloop
  endfacet
  facet normal 0.825461 -0.561005 0.062348
    outer loop
      vertex 7.17679 -4.55453 22
      vertex 6.87664 -4.99617 22
      vertex 7.68566 -5.58396 6
    endloop
  endfacet
  facet normal 0.611712 -0.78862 0.0623482
    outer loop
      vertex 5.4181 -6.54936 22
      vertex 4.99617 -6.87664 22
      vertex 6.05553 -7.31988 6
    endloop
  endfacet
  facet normal 0.748647 -0.660031 0.0623478
    outer loop
      vertex 7.31988 -6.05553 6
      vertex 6.19623 -5.81865 22
      vertex 6.9252 -6.5032 6
    endloop
  endfacet
  facet normal -0.0939175 -0.993626 0.062348
    outer loop
      vertex -1.06533 -8.43297 22
      vertex -1.19067 -9.42509 6
      vertex -0.59651 -9.48125 6
    endloop
  endfacet
  facet normal -0.396379 -0.915968 0.0623478
    outer loop
      vertex -3.61912 -7.69103 22
      vertex -4.0449 -8.59586 6
      vertex -3.12906 -7.9031 22
    endloop
  endfacet
  facet normal 0.0313562 -0.997562 0.0623476
    outer loop
      vertex 0 -8.5 22
      vertex 0 -9.5 6
      vertex 0.59651 -9.48125 6
    endloop
  endfacet
  facet normal 0.217712 -0.97402 0.0623474
    outer loop
      vertex 2.11386 -8.23296 22
      vertex 1.59274 -8.34944 22
      vertex 2.36255 -9.20154 6
    endloop
  endfacet
  facet normal 0.278455 -0.958424 0.0623474
    outer loop
      vertex 2.62664 -8.08398 22
      vertex 2.11386 -8.23296 22
      vertex 2.36255 -9.20154 6
    endloop
  endfacet
  facet normal 0.338079 -0.93905 0.0623477
    outer loop
      vertex 3.12906 -7.9031 22
      vertex 2.93566 -9.03504 6
      vertex 3.49718 -8.83288 6
    endloop
  endfacet
  facet normal 0.97402 -0.217712 0.0623474
    outer loop
      vertex 8.34944 -1.59274 22
      vertex 8.23296 -2.11386 22
      vertex 9.20154 -2.36255 6
    endloop
  endfacet
  facet normal -0.611707 0.788624 0.062348
    outer loop
      vertex -5.58396 7.68566 6
      vertex -6.05553 7.31988 6
      vertex -4.99617 6.87664 22
    endloop
  endfacet
  facet normal -0.561005 0.825461 0.062348
    outer loop
      vertex -4.55453 7.17679 22
      vertex -5.58396 7.68566 6
      vertex -4.99617 6.87664 22
    endloop
  endfacet
  facet normal -0.611712 0.78862 0.0623482
    outer loop
      vertex -4.99617 6.87664 22
      vertex -6.05553 7.31988 6
      vertex -5.4181 6.54936 22
    endloop
  endfacet
  facet normal -0.660023 0.748654 0.0623482
    outer loop
      vertex -5.4181 6.54936 22
      vertex -6.05553 7.31988 6
      vertex -5.81865 6.19623 22
    endloop
  endfacet
  facet normal -0.508053 0.859066 0.062347
    outer loop
      vertex -4.09491 7.44861 22
      vertex -5.09035 8.02111 6
      vertex -4.55453 7.17679 22
    endloop
  endfacet
  facet normal -0.93905 -0.338079 0.0623477
    outer loop
      vertex -7.9031 -3.12906 22
      vertex -9.03504 -2.93566 6
      vertex -8.83288 -3.49718 6
    endloop
  endfacet
  facet normal -0.97402 -0.217712 0.0623474
    outer loop
      vertex -8.34944 -1.59274 22
      vertex -9.20154 -2.36255 6
      vertex -8.23296 -2.11386 22
    endloop
  endfacet
  facet normal -0.859066 -0.508053 0.062347
    outer loop
      vertex -7.44861 -4.09491 22
      vertex -8.02111 -5.09035 6
      vertex -7.17679 -4.55453 22
    endloop
  endfacet
  facet normal -0.93905 0.338079 0.0623477
    outer loop
      vertex -8.83288 3.49718 6
      vertex -9.03504 2.93566 6
      vertex -7.9031 3.12906 22
    endloop
  endfacet
  facet normal -0.97402 0.217712 0.0623474
    outer loop
      vertex -8.23296 2.11386 22
      vertex -9.20154 2.36255 6
      vertex -8.34944 1.59274 22
    endloop
  endfacet
  facet normal -0.748654 0.660023 0.0623482
    outer loop
      vertex -6.19623 5.81865 22
      vertex -7.31988 6.05553 6
      vertex -6.54936 5.4181 22
    endloop
  endfacet
  facet normal -0.825477 0.560982 0.062347
    outer loop
      vertex -7.68566 5.58396 6
      vertex -8.02111 5.09035 6
      vertex -7.17679 4.55453 22
    endloop
  endfacet
  facet normal -0.859066 0.508053 0.062347
    outer loop
      vertex -7.17679 4.55453 22
      vertex -8.02111 5.09035 6
      vertex -7.44861 4.09491 22
    endloop
  endfacet
  facet normal -0.508057 -0.859064 0.0623471
    outer loop
      vertex -4.09491 -7.44861 22
      vertex -5.09035 -8.02111 6
      vertex -4.57666 -8.32491 6
    endloop
  endfacet
  facet normal -0.660031 -0.748647 0.0623478
    outer loop
      vertex -5.81865 -6.19623 22
      vertex -6.5032 -6.9252 6
      vertex -6.05553 -7.31988 6
    endloop
  endfacet
  facet normal -0.705731 -0.705731 0.0623478
    outer loop
      vertex -6.9252 -6.5032 6
      vertex -5.81865 -6.19623 22
      vertex -6.19623 -5.81865 22
    endloop
  endfacet
  facet normal -0.705731 -0.705731 0.0623478
    outer loop
      vertex -5.81865 -6.19623 22
      vertex -6.9252 -6.5032 6
      vertex -6.5032 -6.9252 6
    endloop
  endfacet
  facet normal 0.217712 0.97402 0.0623474
    outer loop
      vertex 2.36255 9.20154 6
      vertex 1.59274 8.34944 22
      vertex 2.11386 8.23296 22
    endloop
  endfacet
  facet normal -0.278442 0.958427 0.0623479
    outer loop
      vertex -2.36255 9.20154 6
      vertex -2.93566 9.03504 6
      vertex -2.62664 8.08398 22
    endloop
  endfacet
  facet normal -0.338075 0.939052 0.0623479
    outer loop
      vertex -2.93566 9.03504 6
      vertex -3.12906 7.9031 22
      vertex -2.62664 8.08398 22
    endloop
  endfacet
  facet normal -0.09394 0.993624 0.0623472
    outer loop
      vertex -0.59651 9.48125 6
      vertex -1.06533 8.43297 22
      vertex -0.533719 8.48323 22
    endloop
  endfacet
  facet normal -0.156131 0.985767 0.0623478
    outer loop
      vertex -1.19067 9.42509 6
      vertex -1.78012 9.33173 6
      vertex -1.59274 8.34944 22
    endloop
  endfacet
  facet normal 0.748654 0.660023 0.0623482
    outer loop
      vertex 7.31988 6.05553 6
      vertex 6.19623 5.81865 22
      vertex 6.54936 5.4181 22
    endloop
  endfacet
  facet normal 0.748647 0.660031 0.0623478
    outer loop
      vertex 6.9252 6.5032 6
      vertex 6.19623 5.81865 22
      vertex 7.31988 6.05553 6
    endloop
  endfacet
  facet normal 0.660031 0.748647 0.0623478
    outer loop
      vertex 6.05553 7.31988 6
      vertex 5.81865 6.19623 22
      vertex 6.5032 6.9252 6
    endloop
  endfacet
  facet normal 0.660023 0.748654 0.0623482
    outer loop
      vertex 6.05553 7.31988 6
      vertex 5.4181 6.54936 22
      vertex 5.81865 6.19623 22
    endloop
  endfacet
  facet normal 0.611712 0.78862 0.0623482
    outer loop
      vertex 6.05553 7.31988 6
      vertex 4.99617 6.87664 22
      vertex 5.4181 6.54936 22
    endloop
  endfacet
  facet normal 0.560982 0.825477 0.062347
    outer loop
      vertex 5.09035 8.02111 6
      vertex 4.55453 7.17679 22
      vertex 5.58396 7.68566 6
    endloop
  endfacet
  facet normal 0.915968 0.396379 0.0623478
    outer loop
      vertex 8.59586 4.0449 6
      vertex 7.69103 3.61912 22
      vertex 7.9031 3.12906 22
    endloop
  endfacet
  facet normal 0.825477 0.560982 0.062347
    outer loop
      vertex 7.68566 5.58396 6
      vertex 7.17679 4.55453 22
      vertex 8.02111 5.09035 6
    endloop
  endfacet
  facet normal 0.825461 0.561005 0.062348
    outer loop
      vertex 7.68566 5.58396 6
      vertex 6.87664 4.99617 22
      vertex 7.17679 4.55453 22
    endloop
  endfacet
  facet normal 0.997562 0.0313444 0.0623472
    outer loop
      vertex 9.48125 0.59651 6
      vertex 8.48323 0.533719 22
      vertex 8.5 0 22
    endloop
  endfacet
  facet normal 0.93905 -0.338079 0.0623477
    outer loop
      vertex 9.03504 -2.93566 6
      vertex 7.9031 -3.12906 22
      vertex 8.83288 -3.49718 6
    endloop
  endfacet
  facet normal 0.889278 -0.453097 0.0623478
    outer loop
      vertex 7.69103 -3.61912 22
      vertex 7.44861 -4.09491 22
      vertex 8.59586 -4.0449 6
    endloop
  endfacet
  facet normal 0.825477 -0.560982 0.062347
    outer loop
      vertex 8.02111 -5.09035 6
      vertex 7.17679 -4.55453 22
      vertex 7.68566 -5.58396 6
    endloop
  endfacet
  facet normal 0.453097 -0.889278 0.0623478
    outer loop
      vertex 4.09491 -7.44861 22
      vertex 3.61912 -7.69103 22
      vertex 4.0449 -8.59586 6
    endloop
  endfacet
  facet normal 0.453114 -0.88927 0.0623472
    outer loop
      vertex 4.09491 -7.44861 22
      vertex 4.0449 -8.59586 6
      vertex 4.57666 -8.32491 6
    endloop
  endfacet
  facet normal 0.560982 -0.825477 0.062347
    outer loop
      vertex 5.58396 -7.68566 6
      vertex 4.55453 -7.17679 22
      vertex 5.09035 -8.02111 6
    endloop
  endfacet
  facet normal 0.660023 -0.748654 0.0623482
    outer loop
      vertex 5.81865 -6.19623 22
      vertex 5.4181 -6.54936 22
      vertex 6.05553 -7.31988 6
    endloop
  endfacet
  facet normal 0.660031 -0.748647 0.0623478
    outer loop
      vertex 6.5032 -6.9252 6
      vertex 5.81865 -6.19623 22
      vertex 6.05553 -7.31988 6
    endloop
  endfacet
  facet normal 0.788624 -0.611707 0.062348
    outer loop
      vertex 7.68566 -5.58396 6
      vertex 6.87664 -4.99617 22
      vertex 7.31988 -6.05553 6
    endloop
  endfacet
  facet normal -0.508053 -0.859066 0.062347
    outer loop
      vertex -4.55453 -7.17679 22
      vertex -5.09035 -8.02111 6
      vertex -4.09491 -7.44861 22
    endloop
  endfacet
  facet normal -0.156131 -0.985767 0.0623478
    outer loop
      vertex -1.59274 -8.34944 22
      vertex -1.78012 -9.33173 6
      vertex -1.19067 -9.42509 6
    endloop
  endfacet
  facet normal -0.396376 -0.915969 0.0623477
    outer loop
      vertex -3.12906 -7.9031 22
      vertex -4.0449 -8.59586 6
      vertex -3.49718 -8.83288 6
    endloop
  endfacet
  facet normal -0.278442 -0.958427 0.0623479
    outer loop
      vertex -2.62664 -8.08398 22
      vertex -2.93566 -9.03504 6
      vertex -2.36255 -9.20154 6
    endloop
  endfacet
  facet normal -0.453097 -0.889278 0.0623478
    outer loop
      vertex -3.61912 -7.69103 22
      vertex -4.09491 -7.44861 22
      vertex -4.0449 -8.59586 6
    endloop
  endfacet
  facet normal 0.0939175 -0.993626 0.062348
    outer loop
      vertex 1.06533 -8.43297 22
      vertex 0.59651 -9.48125 6
      vertex 1.19067 -9.42509 6
    endloop
  endfacet
  facet normal 0.0313444 -0.997562 0.0623472
    outer loop
      vertex 0.533719 -8.48323 22
      vertex 0 -8.5 22
      vertex 0.59651 -9.48125 6
    endloop
  endfacet
  facet normal 0.09394 -0.993624 0.0623472
    outer loop
      vertex 1.06533 -8.43297 22
      vertex 0.533719 -8.48323 22
      vertex 0.59651 -9.48125 6
    endloop
  endfacet
  facet normal 0.156124 -0.985768 0.062348
    outer loop
      vertex 1.59274 -8.34944 22
      vertex 1.06533 -8.43297 22
      vertex 1.19067 -9.42509 6
    endloop
  endfacet
  facet normal 0.156131 -0.985767 0.0623478
    outer loop
      vertex 1.59274 -8.34944 22
      vertex 1.19067 -9.42509 6
      vertex 1.78012 -9.33173 6
    endloop
  endfacet
  facet normal 0.278442 -0.958427 0.0623479
    outer loop
      vertex 2.62664 -8.08398 22
      vertex 2.36255 -9.20154 6
      vertex 2.93566 -9.03504 6
    endloop
  endfacet
  facet normal 0.338075 -0.939052 0.0623479
    outer loop
      vertex 3.12906 -7.9031 22
      vertex 2.62664 -8.08398 22
      vertex 2.93566 -9.03504 6
    endloop
  endfacet
  facet normal 0.993626 -0.0939175 0.062348
    outer loop
      vertex 9.48125 -0.59651 6
      vertex 8.43297 -1.06533 22
      vertex 9.42509 -1.19067 6
    endloop
  endfacet
  facet normal 0.993624 -0.09394 0.0623472
    outer loop
      vertex 8.48323 -0.533719 22
      vertex 8.43297 -1.06533 22
      vertex 9.48125 -0.59651 6
    endloop
  endfacet
  facet normal 0.939052 -0.338075 0.0623479
    outer loop
      vertex 8.08398 -2.62664 22
      vertex 7.9031 -3.12906 22
      vertex 9.03504 -2.93566 6
    endloop
  endfacet
  facet normal 0.958427 -0.278442 0.0623479
    outer loop
      vertex 9.20154 -2.36255 6
      vertex 8.08398 -2.62664 22
      vertex 9.03504 -2.93566 6
    endloop
  endfacet
  facet normal -0.889278 -0.453097 0.0623478
    outer loop
      vertex -7.69103 -3.61912 22
      vertex -8.59586 -4.0449 6
      vertex -7.44861 -4.09491 22
    endloop
  endfacet
  facet normal -0.985768 -0.156124 0.062348
    outer loop
      vertex -8.43297 -1.06533 22
      vertex -9.42509 -1.19067 6
      vertex -8.34944 -1.59274 22
    endloop
  endfacet
  facet normal -0.939052 -0.338075 0.0623479
    outer loop
      vertex -8.08398 -2.62664 22
      vertex -9.03504 -2.93566 6
      vertex -7.9031 -3.12906 22
    endloop
  endfacet
  facet normal -0.958427 -0.278442 0.0623479
    outer loop
      vertex -8.08398 -2.62664 22
      vertex -9.20154 -2.36255 6
      vertex -9.03504 -2.93566 6
    endloop
  endfacet
  facet normal -0.915969 -0.396376 0.0623477
    outer loop
      vertex -7.9031 -3.12906 22
      vertex -8.83288 -3.49718 6
      vertex -8.59586 -4.0449 6
    endloop
  endfacet
  facet normal -0.993624 -0.09394 0.0623472
    outer loop
      vertex -8.48323 -0.533719 22
      vertex -9.48125 -0.59651 6
      vertex -8.43297 -1.06533 22
    endloop
  endfacet
  facet normal -0.993626 -0.0939175 0.062348
    outer loop
      vertex -8.43297 -1.06533 22
      vertex -9.48125 -0.59651 6
      vertex -9.42509 -1.19067 6
    endloop
  endfacet
  facet normal -0.985767 -0.156131 0.0623478
    outer loop
      vertex -8.34944 -1.59274 22
      vertex -9.42509 -1.19067 6
      vertex -9.33173 -1.78012 6
    endloop
  endfacet
  facet normal -0.974018 -0.217721 0.0623478
    outer loop
      vertex -8.34944 -1.59274 22
      vertex -9.33173 -1.78012 6
      vertex -9.20154 -2.36255 6
    endloop
  endfacet
  facet normal -0.78862 -0.611712 0.0623482
    outer loop
      vertex -6.87664 -4.99617 22
      vertex -7.31988 -6.05553 6
      vertex -6.54936 -5.4181 22
    endloop
  endfacet
  facet normal -0.748654 -0.660023 0.0623482
    outer loop
      vertex -6.54936 -5.4181 22
      vertex -7.31988 -6.05553 6
      vertex -6.19623 -5.81865 22
    endloop
  endfacet
  facet normal -0.788624 -0.611707 0.062348
    outer loop
      vertex -6.87664 -4.99617 22
      vertex -7.68566 -5.58396 6
      vertex -7.31988 -6.05553 6
    endloop
  endfacet
  facet normal -0.825461 -0.561005 0.062348
    outer loop
      vertex -7.17679 -4.55453 22
      vertex -7.68566 -5.58396 6
      vertex -6.87664 -4.99617 22
    endloop
  endfacet
  facet normal -0.939052 0.338075 0.0623479
    outer loop
      vertex -7.9031 3.12906 22
      vertex -9.03504 2.93566 6
      vertex -8.08398 2.62664 22
    endloop
  endfacet
  facet normal -0.958427 0.278442 0.0623479
    outer loop
      vertex -9.03504 2.93566 6
      vertex -9.20154 2.36255 6
      vertex -8.08398 2.62664 22
    endloop
  endfacet
  facet normal -0.985768 0.156124 0.062348
    outer loop
      vertex -8.34944 1.59274 22
      vertex -9.42509 1.19067 6
      vertex -8.43297 1.06533 22
    endloop
  endfacet
  facet normal -0.825461 0.561005 0.062348
    outer loop
      vertex -6.87664 4.99617 22
      vertex -7.68566 5.58396 6
      vertex -7.17679 4.55453 22
    endloop
  endfacet
  facet normal -0.660023 -0.748654 0.0623482
    outer loop
      vertex -5.81865 -6.19623 22
      vertex -6.05553 -7.31988 6
      vertex -5.4181 -6.54936 22
    endloop
  endfacet
  facet normal 0.278455 0.958424 0.0623474
    outer loop
      vertex 2.36255 9.20154 6
      vertex 2.11386 8.23296 22
      vertex 2.62664 8.08398 22
    endloop
  endfacet
  facet normal 0.561005 0.825461 0.062348
    outer loop
      vertex 5.58396 7.68566 6
      vertex 4.55453 7.17679 22
      vertex 4.99617 6.87664 22
    endloop
  endfacet
  facet normal 0.859064 -0.508057 0.0623471
    outer loop
      vertex 8.32491 -4.57666 6
      vertex 7.44861 -4.09491 22
      vertex 8.02111 -5.09035 6
    endloop
  endfacet
  facet normal 0.859066 -0.508053 0.062347
    outer loop
      vertex 7.44861 -4.09491 22
      vertex 7.17679 -4.55453 22
      vertex 8.02111 -5.09035 6
    endloop
  endfacet
  facet normal 0.611707 -0.788624 0.062348
    outer loop
      vertex 6.05553 -7.31988 6
      vertex 4.99617 -6.87664 22
      vertex 5.58396 -7.68566 6
    endloop
  endfacet
  facet normal 0.561005 -0.825461 0.062348
    outer loop
      vertex 4.99617 -6.87664 22
      vertex 4.55453 -7.17679 22
      vertex 5.58396 -7.68566 6
    endloop
  endfacet
  facet normal 0.508053 -0.859066 0.062347
    outer loop
      vertex 4.55453 -7.17679 22
      vertex 4.09491 -7.44861 22
      vertex 5.09035 -8.02111 6
    endloop
  endfacet
  facet normal 0.748654 -0.660023 0.0623482
    outer loop
      vertex 6.54936 -5.4181 22
      vertex 6.19623 -5.81865 22
      vertex 7.31988 -6.05553 6
    endloop
  endfacet
  facet normal 0.78862 -0.611712 0.0623482
    outer loop
      vertex 6.87664 -4.99617 22
      vertex 6.54936 -5.4181 22
      vertex 7.31988 -6.05553 6
    endloop
  endfacet
  facet normal -0.561005 -0.825461 0.062348
    outer loop
      vertex -4.99617 -6.87664 22
      vertex -5.58396 -7.68566 6
      vertex -4.55453 -7.17679 22
    endloop
  endfacet
  facet normal -0.560982 -0.825477 0.062347
    outer loop
      vertex -4.55453 -7.17679 22
      vertex -5.58396 -7.68566 6
      vertex -5.09035 -8.02111 6
    endloop
  endfacet
  facet normal -0.338075 -0.939052 0.0623479
    outer loop
      vertex -2.62664 -8.08398 22
      vertex -3.12906 -7.9031 22
      vertex -2.93566 -9.03504 6
    endloop
  endfacet
  facet normal -0.338079 -0.93905 0.0623477
    outer loop
      vertex -3.12906 -7.9031 22
      vertex -3.49718 -8.83288 6
      vertex -2.93566 -9.03504 6
    endloop
  endfacet
  facet normal -0.278455 -0.958424 0.0623474
    outer loop
      vertex -2.11386 -8.23296 22
      vertex -2.62664 -8.08398 22
      vertex -2.36255 -9.20154 6
    endloop
  endfacet
  facet normal -0.217712 -0.97402 0.0623474
    outer loop
      vertex -2.11386 -8.23296 22
      vertex -2.36255 -9.20154 6
      vertex -1.59274 -8.34944 22
    endloop
  endfacet
  facet normal -0.0313562 -0.997562 0.0623476
    outer loop
      vertex 0 -8.5 22
      vertex -0.59651 -9.48125 6
      vertex 0 -9.5 6
    endloop
  endfacet
  facet normal -0.09394 -0.993624 0.0623472
    outer loop
      vertex -0.533719 -8.48323 22
      vertex -1.06533 -8.43297 22
      vertex -0.59651 -9.48125 6
    endloop
  endfacet
  facet normal 0.997562 -0.0313444 0.0623472
    outer loop
      vertex 8.5 0 22
      vertex 8.48323 -0.533719 22
      vertex 9.48125 -0.59651 6
    endloop
  endfacet
  facet normal 0.958424 -0.278455 0.0623474
    outer loop
      vertex 8.23296 -2.11386 22
      vertex 8.08398 -2.62664 22
      vertex 9.20154 -2.36255 6
    endloop
  endfacet
  facet normal -0.859064 -0.508057 0.0623471
    outer loop
      vertex -7.44861 -4.09491 22
      vertex -8.32491 -4.57666 6
      vertex -8.02111 -5.09035 6
    endloop
  endfacet
  facet normal -0.611712 -0.78862 0.0623482
    outer loop
      vertex -5.4181 -6.54936 22
      vertex -6.05553 -7.31988 6
      vertex -4.99617 -6.87664 22
    endloop
  endfacet
  facet normal -0.0313444 -0.997562 0.0623472
    outer loop
      vertex -0.533719 -8.48323 22
      vertex -0.59651 -9.48125 6
      vertex 0 -8.5 22
    endloop
  endfacet
  facet normal -0.88927 -0.453114 0.0623472
    outer loop
      vertex -7.44861 -4.09491 22
      vertex -8.59586 -4.0449 6
      vertex -8.32491 -4.57666 6
    endloop
  endfacet
endsolid OpenSCAD_Model
