solid OpenSCAD_Model
  facet normal 0.998027 0.0627938 0
    outer loop
      vertex 21 0 2
      vertex 20.8344 2.632 0
      vertex 20.8344 2.632 2
    endloop
  endfacet
  facet normal 0.998027 0.0627938 0
    outer loop
      vertex 20.8344 2.632 0
      vertex 21 0 2
      vertex 21 0 0
    endloop
  endfacet
  facet normal -0.998027 0.0627938 0
    outer loop
      vertex -21 0 0
      vertex -20.8344 2.632 2
      vertex -20.8344 2.632 0
    endloop
  endfacet
  facet normal -0.998027 0.0627938 0
    outer loop
      vertex -20.8344 2.632 2
      vertex -21 0 0
      vertex -21 0 2
    endloop
  endfacet
  facet normal 0 1 -0
    outer loop
      vertex 1.3186 20.9586 0
      vertex -1.3186 20.9586 2
      vertex 1.3186 20.9586 2
    endloop
  endfacet
  facet normal 0 1 0
    outer loop
      vertex -1.3186 20.9586 2
      vertex 1.3186 20.9586 0
      vertex -1.3186 20.9586 0
    endloop
  endfacet
  facet normal 0 -1 0
    outer loop
      vertex -1.3186 -20.9586 0
      vertex 1.3186 -20.9586 2
      vertex -1.3186 -20.9586 2
    endloop
  endfacet
  facet normal 0 -1 -0
    outer loop
      vertex 1.3186 -20.9586 2
      vertex -1.3186 -20.9586 0
      vertex 1.3186 -20.9586 0
    endloop
  endfacet
  facet normal 0.684556 0.72896 -0
    outer loop
      vertex 15.3083 14.3755 0
      vertex 13.3859 16.1808 2
      vertex 15.3083 14.3755 2
    endloop
  endfacet
  facet normal 0.684556 0.72896 0
    outer loop
      vertex 13.3859 16.1808 2
      vertex 15.3083 14.3755 0
      vertex 13.3859 16.1808 0
    endloop
  endfacet
  facet normal -0.684556 0.72896 0
    outer loop
      vertex -13.3859 16.1808 0
      vertex -15.3083 14.3755 2
      vertex -13.3859 16.1808 2
    endloop
  endfacet
  facet normal -0.684556 0.72896 0
    outer loop
      vertex -15.3083 14.3755 2
      vertex -13.3859 16.1808 0
      vertex -15.3083 14.3755 0
    endloop
  endfacet
  facet normal -0.368119 0.929778 0
    outer loop
      vertex -6.48936 19.9722 0
      vertex -8.94136 19.0014 2
      vertex -6.48936 19.9722 2
    endloop
  endfacet
  facet normal -0.368119 0.929778 0
    outer loop
      vertex -8.94136 19.0014 2
      vertex -6.48936 19.9722 0
      vertex -8.94136 19.0014 0
    endloop
  endfacet
  facet normal 0.904821 0.425793 0
    outer loop
      vertex 19.5253 7.73061 2
      vertex 18.4024 10.1168 0
      vertex 18.4024 10.1168 2
    endloop
  endfacet
  facet normal 0.904821 0.425793 0
    outer loop
      vertex 18.4024 10.1168 0
      vertex 19.5253 7.73061 2
      vertex 19.5253 7.73061 0
    endloop
  endfacet
  facet normal 0.982285 0.187395 0
    outer loop
      vertex 20.8344 2.632 2
      vertex 20.3402 5.22249 0
      vertex 20.3402 5.22249 2
    endloop
  endfacet
  facet normal 0.982285 0.187395 0
    outer loop
      vertex 20.3402 5.22249 0
      vertex 20.8344 2.632 2
      vertex 20.8344 2.632 0
    endloop
  endfacet
  facet normal 0.368119 0.929778 -0
    outer loop
      vertex 8.94136 19.0014 0
      vertex 6.48936 19.9722 2
      vertex 8.94136 19.0014 2
    endloop
  endfacet
  facet normal 0.368119 0.929778 0
    outer loop
      vertex 6.48936 19.9722 2
      vertex 8.94136 19.0014 0
      vertex 6.48936 19.9722 0
    endloop
  endfacet
  facet normal 0.481752 0.876307 -0
    outer loop
      vertex 11.2524 17.7309 0
      vertex 8.94136 19.0014 2
      vertex 11.2524 17.7309 2
    endloop
  endfacet
  facet normal 0.481752 0.876307 0
    outer loop
      vertex 8.94136 19.0014 2
      vertex 11.2524 17.7309 0
      vertex 8.94136 19.0014 0
    endloop
  endfacet
  facet normal -0.904821 0.425793 0
    outer loop
      vertex -19.5253 7.73061 0
      vertex -18.4024 10.1168 2
      vertex -18.4024 10.1168 0
    endloop
  endfacet
  facet normal -0.904821 0.425793 0
    outer loop
      vertex -18.4024 10.1168 2
      vertex -19.5253 7.73061 0
      vertex -19.5253 7.73061 2
    endloop
  endfacet
  facet normal -0.951061 0.309004 0
    outer loop
      vertex -20.3402 5.22249 0
      vertex -19.5253 7.73061 2
      vertex -19.5253 7.73061 0
    endloop
  endfacet
  facet normal -0.951061 0.309004 0
    outer loop
      vertex -19.5253 7.73061 2
      vertex -20.3402 5.22249 0
      vertex -20.3402 5.22249 2
    endloop
  endfacet
  facet normal -0.12536 0.992111 0
    outer loop
      vertex -1.3186 20.9586 0
      vertex -3.93501 20.628 2
      vertex -1.3186 20.9586 2
    endloop
  endfacet
  facet normal -0.12536 0.992111 0
    outer loop
      vertex -3.93501 20.628 2
      vertex -1.3186 20.9586 0
      vertex -3.93501 20.628 0
    endloop
  endfacet
  facet normal 0.368119 -0.929778 0
    outer loop
      vertex 6.48936 -19.9722 0
      vertex 8.94136 -19.0014 2
      vertex 6.48936 -19.9722 2
    endloop
  endfacet
  facet normal 0.368119 -0.929778 0
    outer loop
      vertex 8.94136 -19.0014 2
      vertex 6.48936 -19.9722 0
      vertex 8.94136 -19.0014 0
    endloop
  endfacet
  facet normal 0.951061 0.309004 0
    outer loop
      vertex 20.3402 5.22249 2
      vertex 19.5253 7.73061 0
      vertex 19.5253 7.73061 2
    endloop
  endfacet
  facet normal 0.951061 0.309004 0
    outer loop
      vertex 19.5253 7.73061 0
      vertex 20.3402 5.22249 2
      vertex 20.3402 5.22249 0
    endloop
  endfacet
  facet normal 0.770498 0.637443 0
    outer loop
      vertex 16.9894 12.3435 2
      vertex 15.3083 14.3755 0
      vertex 15.3083 14.3755 2
    endloop
  endfacet
  facet normal 0.770498 0.637443 0
    outer loop
      vertex 15.3083 14.3755 0
      vertex 16.9894 12.3435 2
      vertex 16.9894 12.3435 0
    endloop
  endfacet
  facet normal 0.844346 0.535798 0
    outer loop
      vertex 18.4024 10.1168 2
      vertex 16.9894 12.3435 0
      vertex 16.9894 12.3435 2
    endloop
  endfacet
  facet normal 0.844346 0.535798 0
    outer loop
      vertex 16.9894 12.3435 0
      vertex 18.4024 10.1168 2
      vertex 18.4024 10.1168 0
    endloop
  endfacet
  facet normal 0.248674 0.968587 -0
    outer loop
      vertex 6.48936 19.9722 0
      vertex 3.93501 20.628 2
      vertex 6.48936 19.9722 2
    endloop
  endfacet
  facet normal 0.248674 0.968587 0
    outer loop
      vertex 3.93501 20.628 2
      vertex 6.48936 19.9722 0
      vertex 3.93501 20.628 0
    endloop
  endfacet
  facet normal 0.12536 0.992111 -0
    outer loop
      vertex 3.93501 20.628 0
      vertex 1.3186 20.9586 2
      vertex 3.93501 20.628 2
    endloop
  endfacet
  facet normal 0.12536 0.992111 0
    outer loop
      vertex 1.3186 20.9586 2
      vertex 3.93501 20.628 0
      vertex 1.3186 20.9586 0
    endloop
  endfacet
  facet normal 0.587791 0.809013 -0
    outer loop
      vertex 13.3859 16.1808 0
      vertex 11.2524 17.7309 2
      vertex 13.3859 16.1808 2
    endloop
  endfacet
  facet normal 0.587791 0.809013 0
    outer loop
      vertex 11.2524 17.7309 2
      vertex 13.3859 16.1808 0
      vertex 11.2524 17.7309 0
    endloop
  endfacet
  facet normal -0.844346 0.535798 0
    outer loop
      vertex -18.4024 10.1168 0
      vertex -16.9894 12.3435 2
      vertex -16.9894 12.3435 0
    endloop
  endfacet
  facet normal -0.844346 0.535798 0
    outer loop
      vertex -16.9894 12.3435 2
      vertex -18.4024 10.1168 0
      vertex -18.4024 10.1168 2
    endloop
  endfacet
  facet normal -0.770498 0.637443 0
    outer loop
      vertex -16.9894 12.3435 0
      vertex -15.3083 14.3755 2
      vertex -15.3083 14.3755 0
    endloop
  endfacet
  facet normal -0.770498 0.637443 0
    outer loop
      vertex -15.3083 14.3755 2
      vertex -16.9894 12.3435 0
      vertex -16.9894 12.3435 2
    endloop
  endfacet
  facet normal -0.982285 0.187395 0
    outer loop
      vertex -20.8344 2.632 0
      vertex -20.3402 5.22249 2
      vertex -20.3402 5.22249 0
    endloop
  endfacet
  facet normal -0.982285 0.187395 0
    outer loop
      vertex -20.3402 5.22249 2
      vertex -20.8344 2.632 0
      vertex -20.8344 2.632 2
    endloop
  endfacet
  facet normal 0 0 1
    outer loop
      vertex 18 0 2
      vertex 21 0 2
      vertex 20.8344 2.632 2
    endloop
  endfacet
  facet normal 0 0 1
    outer loop
      vertex 17.8581 2.256 2
      vertex 20.8344 2.632 2
      vertex 20.3402 5.22249 2
    endloop
  endfacet
  facet normal 0 0 1
    outer loop
      vertex 21 0 2
      vertex 18 0 2
      vertex 20.8344 -2.632 2
    endloop
  endfacet
  facet normal 0 0 1
    outer loop
      vertex 17.4345 4.47642 2
      vertex 20.3402 5.22249 2
      vertex 19.5253 7.73061 2
    endloop
  endfacet
  facet normal -0 0 1
    outer loop
      vertex 17.8581 -2.256 2
      vertex 20.8344 -2.632 2
      vertex 18 0 2
    endloop
  endfacet
  facet normal 0 0 1
    outer loop
      vertex 16.736 6.62624 2
      vertex 19.5253 7.73061 2
      vertex 18.4024 10.1168 2
    endloop
  endfacet
  facet normal 0 0 1
    outer loop
      vertex 20.8344 -2.632 2
      vertex 17.8581 -2.256 2
      vertex 20.3402 -5.22249 2
    endloop
  endfacet
  facet normal -0 0 1
    outer loop
      vertex 17.4345 -4.47642 2
      vertex 20.3402 -5.22249 2
      vertex 17.8581 -2.256 2
    endloop
  endfacet
  facet normal 0 0 1
    outer loop
      vertex 20.8344 2.632 2
      vertex 17.8581 2.256 2
      vertex 18 0 2
    endloop
  endfacet
  facet normal 0 0 1
    outer loop
      vertex 20.3402 5.22249 2
      vertex 17.4345 4.47642 2
      vertex 17.8581 2.256 2
    endloop
  endfacet
  facet normal 0 0 1
    outer loop
      vertex 15.7735 8.67157 2
      vertex 18.4024 10.1168 2
      vertex 16.9894 12.3435 2
    endloop
  endfacet
  facet normal 0 0 1
    outer loop
      vertex 19.5253 7.73061 2
      vertex 16.736 6.62624 2
      vertex 17.4345 4.47642 2
    endloop
  endfacet
  facet normal 0 0 1
    outer loop
      vertex 18.4024 10.1168 2
      vertex 15.7735 8.67157 2
      vertex 16.736 6.62624 2
    endloop
  endfacet
  facet normal 0 0 1
    outer loop
      vertex 14.5623 10.5801 2
      vertex 16.9894 12.3435 2
      vertex 15.3083 14.3755 2
    endloop
  endfacet
  facet normal 0 0 1
    outer loop
      vertex 16.9894 12.3435 2
      vertex 14.5623 10.5801 2
      vertex 15.7735 8.67157 2
    endloop
  endfacet
  facet normal 0 0 1
    outer loop
      vertex 13.1214 12.3218 2
      vertex 15.3083 14.3755 2
      vertex 13.3859 16.1808 2
    endloop
  endfacet
  facet normal 0 0 1
    outer loop
      vertex 15.3083 14.3755 2
      vertex 13.1214 12.3218 2
      vertex 14.5623 10.5801 2
    endloop
  endfacet
  facet normal 0 0 1
    outer loop
      vertex 13.3859 16.1808 2
      vertex 11.4736 13.8692 2
      vertex 13.1214 12.3218 2
    endloop
  endfacet
  facet normal 0 0 1
    outer loop
      vertex 11.2524 17.7309 2
      vertex 11.4736 13.8692 2
      vertex 13.3859 16.1808 2
    endloop
  endfacet
  facet normal 0 0 1
    outer loop
      vertex 11.2524 17.7309 2
      vertex 9.64488 15.1979 2
      vertex 11.4736 13.8692 2
    endloop
  endfacet
  facet normal 0 0 1
    outer loop
      vertex 8.94136 19.0014 2
      vertex 9.64488 15.1979 2
      vertex 11.2524 17.7309 2
    endloop
  endfacet
  facet normal 0 0 1
    outer loop
      vertex 8.94136 19.0014 2
      vertex 7.66403 16.2869 2
      vertex 9.64488 15.1979 2
    endloop
  endfacet
  facet normal 0 0 1
    outer loop
      vertex 6.48936 19.9722 2
      vertex 7.66403 16.2869 2
      vertex 8.94136 19.0014 2
    endloop
  endfacet
  facet normal 0 0 1
    outer loop
      vertex 6.48936 19.9722 2
      vertex 5.56231 17.119 2
      vertex 7.66403 16.2869 2
    endloop
  endfacet
  facet normal 0 0 1
    outer loop
      vertex 3.93501 20.628 2
      vertex 5.56231 17.119 2
      vertex 6.48936 19.9722 2
    endloop
  endfacet
  facet normal 0 0 1
    outer loop
      vertex 3.93501 20.628 2
      vertex 3.37286 17.6812 2
      vertex 5.56231 17.119 2
    endloop
  endfacet
  facet normal 0 0 1
    outer loop
      vertex 1.3186 20.9586 2
      vertex 3.37286 17.6812 2
      vertex 3.93501 20.628 2
    endloop
  endfacet
  facet normal 0 0 1
    outer loop
      vertex 1.3186 20.9586 2
      vertex 1.13023 17.9645 2
      vertex 3.37286 17.6812 2
    endloop
  endfacet
  facet normal 0 0 1
    outer loop
      vertex 1.3186 20.9586 2
      vertex -1.13023 17.9645 2
      vertex 1.13023 17.9645 2
    endloop
  endfacet
  facet normal -0 0 1
    outer loop
      vertex -1.3186 20.9586 2
      vertex -1.13023 17.9645 2
      vertex 1.3186 20.9586 2
    endloop
  endfacet
  facet normal 0 0 1
    outer loop
      vertex -1.3186 20.9586 2
      vertex -3.37286 17.6812 2
      vertex -1.13023 17.9645 2
    endloop
  endfacet
  facet normal -0 0 1
    outer loop
      vertex -3.93501 20.628 2
      vertex -3.37286 17.6812 2
      vertex -1.3186 20.9586 2
    endloop
  endfacet
  facet normal 0 0 1
    outer loop
      vertex -3.93501 20.628 2
      vertex -5.56231 17.119 2
      vertex -3.37286 17.6812 2
    endloop
  endfacet
  facet normal -0 0 1
    outer loop
      vertex -6.48936 19.9722 2
      vertex -5.56231 17.119 2
      vertex -3.93501 20.628 2
    endloop
  endfacet
  facet normal 0 0 1
    outer loop
      vertex -6.48936 19.9722 2
      vertex -7.66403 16.2869 2
      vertex -5.56231 17.119 2
    endloop
  endfacet
  facet normal -0 0 1
    outer loop
      vertex -8.94136 19.0014 2
      vertex -7.66403 16.2869 2
      vertex -6.48936 19.9722 2
    endloop
  endfacet
  facet normal 0 0 1
    outer loop
      vertex -8.94136 19.0014 2
      vertex -9.64488 15.1979 2
      vertex -7.66403 16.2869 2
    endloop
  endfacet
  facet normal -0 0 1
    outer loop
      vertex -11.2524 17.7309 2
      vertex -9.64488 15.1979 2
      vertex -8.94136 19.0014 2
    endloop
  endfacet
  facet normal 0 0 1
    outer loop
      vertex -11.2524 17.7309 2
      vertex -11.4736 13.8692 2
      vertex -9.64488 15.1979 2
    endloop
  endfacet
  facet normal -0 0 1
    outer loop
      vertex -13.3859 16.1808 2
      vertex -11.4736 13.8692 2
      vertex -11.2524 17.7309 2
    endloop
  endfacet
  facet normal 0 0 1
    outer loop
      vertex -11.4736 13.8692 2
      vertex -13.3859 16.1808 2
      vertex -13.1214 12.3218 2
    endloop
  endfacet
  facet normal -0 0 1
    outer loop
      vertex -15.3083 14.3755 2
      vertex -13.1214 12.3218 2
      vertex -13.3859 16.1808 2
    endloop
  endfacet
  facet normal 0 0 1
    outer loop
      vertex -13.1214 12.3218 2
      vertex -15.3083 14.3755 2
      vertex -14.5623 10.5801 2
    endloop
  endfacet
  facet normal -0 0 1
    outer loop
      vertex -16.9894 12.3435 2
      vertex -14.5623 10.5801 2
      vertex -15.3083 14.3755 2
    endloop
  endfacet
  facet normal 0 0 1
    outer loop
      vertex -14.5623 10.5801 2
      vertex -16.9894 12.3435 2
      vertex -15.7735 8.67157 2
    endloop
  endfacet
  facet normal -0 0 1
    outer loop
      vertex -18.4024 10.1168 2
      vertex -15.7735 8.67157 2
      vertex -16.9894 12.3435 2
    endloop
  endfacet
  facet normal 0 0 1
    outer loop
      vertex -15.7735 8.67157 2
      vertex -18.4024 10.1168 2
      vertex -16.736 6.62624 2
    endloop
  endfacet
  facet normal -0 0 1
    outer loop
      vertex -19.5253 7.73061 2
      vertex -16.736 6.62624 2
      vertex -18.4024 10.1168 2
    endloop
  endfacet
  facet normal -0 0 1
    outer loop
      vertex -20.3402 5.22249 2
      vertex -17.4345 4.47642 2
      vertex -19.5253 7.73061 2
    endloop
  endfacet
  facet normal 0 0 1
    outer loop
      vertex -16.736 6.62624 2
      vertex -19.5253 7.73061 2
      vertex -17.4345 4.47642 2
    endloop
  endfacet
  facet normal 0 0 1
    outer loop
      vertex 20.3402 -5.22249 2
      vertex 17.4345 -4.47642 2
      vertex 19.5253 -7.73061 2
    endloop
  endfacet
  facet normal -0 0 1
    outer loop
      vertex 16.736 -6.62624 2
      vertex 19.5253 -7.73061 2
      vertex 17.4345 -4.47642 2
    endloop
  endfacet
  facet normal 0 0 1
    outer loop
      vertex 19.5253 -7.73061 2
      vertex 16.736 -6.62624 2
      vertex 18.4024 -10.1168 2
    endloop
  endfacet
  facet normal -0 0 1
    outer loop
      vertex 15.7735 -8.67157 2
      vertex 18.4024 -10.1168 2
      vertex 16.736 -6.62624 2
    endloop
  endfacet
  facet normal 0 0 1
    outer loop
      vertex 18.4024 -10.1168 2
      vertex 15.7735 -8.67157 2
      vertex 16.9894 -12.3435 2
    endloop
  endfacet
  facet normal -0 0 1
    outer loop
      vertex 14.5623 -10.5801 2
      vertex 16.9894 -12.3435 2
      vertex 15.7735 -8.67157 2
    endloop
  endfacet
  facet normal 0 0 1
    outer loop
      vertex 16.9894 -12.3435 2
      vertex 14.5623 -10.5801 2
      vertex 15.3083 -14.3755 2
    endloop
  endfacet
  facet normal -0 0 1
    outer loop
      vertex 13.1214 -12.3218 2
      vertex 15.3083 -14.3755 2
      vertex 14.5623 -10.5801 2
    endloop
  endfacet
  facet normal 0 0 1
    outer loop
      vertex 15.3083 -14.3755 2
      vertex 13.1214 -12.3218 2
      vertex 13.3859 -16.1808 2
    endloop
  endfacet
  facet normal -0 0 1
    outer loop
      vertex 11.4736 -13.8692 2
      vertex 13.3859 -16.1808 2
      vertex 13.1214 -12.3218 2
    endloop
  endfacet
  facet normal 0 0 1
    outer loop
      vertex 11.4736 -13.8692 2
      vertex 11.2524 -17.7309 2
      vertex 13.3859 -16.1808 2
    endloop
  endfacet
  facet normal -0 0 1
    outer loop
      vertex 9.64488 -15.1979 2
      vertex 11.2524 -17.7309 2
      vertex 11.4736 -13.8692 2
    endloop
  endfacet
  facet normal 0 0 1
    outer loop
      vertex 9.64488 -15.1979 2
      vertex 8.94136 -19.0014 2
      vertex 11.2524 -17.7309 2
    endloop
  endfacet
  facet normal -0 0 1
    outer loop
      vertex 7.66403 -16.2869 2
      vertex 8.94136 -19.0014 2
      vertex 9.64488 -15.1979 2
    endloop
  endfacet
  facet normal 0 0 1
    outer loop
      vertex 7.66403 -16.2869 2
      vertex 6.48936 -19.9722 2
      vertex 8.94136 -19.0014 2
    endloop
  endfacet
  facet normal -0 0 1
    outer loop
      vertex 5.56231 -17.119 2
      vertex 6.48936 -19.9722 2
      vertex 7.66403 -16.2869 2
    endloop
  endfacet
  facet normal 0 0 1
    outer loop
      vertex 5.56231 -17.119 2
      vertex 3.93501 -20.628 2
      vertex 6.48936 -19.9722 2
    endloop
  endfacet
  facet normal -0 0 1
    outer loop
      vertex 3.37286 -17.6812 2
      vertex 3.93501 -20.628 2
      vertex 5.56231 -17.119 2
    endloop
  endfacet
  facet normal 0 0 1
    outer loop
      vertex 3.37286 -17.6812 2
      vertex 1.3186 -20.9586 2
      vertex 3.93501 -20.628 2
    endloop
  endfacet
  facet normal -0 0 1
    outer loop
      vertex 1.13023 -17.9645 2
      vertex 1.3186 -20.9586 2
      vertex 3.37286 -17.6812 2
    endloop
  endfacet
  facet normal -0 0 1
    outer loop
      vertex -1.13023 -17.9645 2
      vertex 1.3186 -20.9586 2
      vertex 1.13023 -17.9645 2
    endloop
  endfacet
  facet normal 0 0 1
    outer loop
      vertex -1.13023 -17.9645 2
      vertex -1.3186 -20.9586 2
      vertex 1.3186 -20.9586 2
    endloop
  endfacet
  facet normal 0 0 1
    outer loop
      vertex -3.37286 -17.6812 2
      vertex -1.3186 -20.9586 2
      vertex -1.13023 -17.9645 2
    endloop
  endfacet
  facet normal 0 0 1
    outer loop
      vertex -3.37286 -17.6812 2
      vertex -3.93501 -20.628 2
      vertex -1.3186 -20.9586 2
    endloop
  endfacet
  facet normal 0 0 1
    outer loop
      vertex -5.56231 -17.119 2
      vertex -3.93501 -20.628 2
      vertex -3.37286 -17.6812 2
    endloop
  endfacet
  facet normal 0 0 1
    outer loop
      vertex -5.56231 -17.119 2
      vertex -6.48936 -19.9722 2
      vertex -3.93501 -20.628 2
    endloop
  endfacet
  facet normal 0 0 1
    outer loop
      vertex -7.66403 -16.2869 2
      vertex -6.48936 -19.9722 2
      vertex -5.56231 -17.119 2
    endloop
  endfacet
  facet normal 0 0 1
    outer loop
      vertex -7.66403 -16.2869 2
      vertex -8.94136 -19.0014 2
      vertex -6.48936 -19.9722 2
    endloop
  endfacet
  facet normal 0 0 1
    outer loop
      vertex -9.64488 -15.1979 2
      vertex -8.94136 -19.0014 2
      vertex -7.66403 -16.2869 2
    endloop
  endfacet
  facet normal 0 0 1
    outer loop
      vertex -9.64488 -15.1979 2
      vertex -11.2524 -17.7309 2
      vertex -8.94136 -19.0014 2
    endloop
  endfacet
  facet normal 0 0 1
    outer loop
      vertex -11.4736 -13.8692 2
      vertex -11.2524 -17.7309 2
      vertex -9.64488 -15.1979 2
    endloop
  endfacet
  facet normal 0 0 1
    outer loop
      vertex -13.3859 -16.1808 2
      vertex -11.4736 -13.8692 2
      vertex -13.1214 -12.3218 2
    endloop
  endfacet
  facet normal 0 0 1
    outer loop
      vertex -11.4736 -13.8692 2
      vertex -13.3859 -16.1808 2
      vertex -11.2524 -17.7309 2
    endloop
  endfacet
  facet normal 0 0 1
    outer loop
      vertex -15.3083 -14.3755 2
      vertex -13.1214 -12.3218 2
      vertex -14.5623 -10.5801 2
    endloop
  endfacet
  facet normal 0 0 1
    outer loop
      vertex -13.1214 -12.3218 2
      vertex -15.3083 -14.3755 2
      vertex -13.3859 -16.1808 2
    endloop
  endfacet
  facet normal 0 0 1
    outer loop
      vertex -16.9894 -12.3435 2
      vertex -14.5623 -10.5801 2
      vertex -15.7735 -8.67157 2
    endloop
  endfacet
  facet normal 0 0 1
    outer loop
      vertex -18.4024 -10.1168 2
      vertex -15.7735 -8.67157 2
      vertex -16.736 -6.62624 2
    endloop
  endfacet
  facet normal 0 0 1
    outer loop
      vertex -14.5623 -10.5801 2
      vertex -16.9894 -12.3435 2
      vertex -15.3083 -14.3755 2
    endloop
  endfacet
  facet normal 0 0 1
    outer loop
      vertex -19.5253 -7.73061 2
      vertex -16.736 -6.62624 2
      vertex -17.4345 -4.47642 2
    endloop
  endfacet
  facet normal 0 0 1
    outer loop
      vertex -20.3402 -5.22249 2
      vertex -17.4345 -4.47642 2
      vertex -17.8581 -2.256 2
    endloop
  endfacet
  facet normal 0 0 1
    outer loop
      vertex -15.7735 -8.67157 2
      vertex -18.4024 -10.1168 2
      vertex -16.9894 -12.3435 2
    endloop
  endfacet
  facet normal 0 0 1
    outer loop
      vertex -20.8344 -2.632 2
      vertex -17.8581 -2.256 2
      vertex -18 0 2
    endloop
  endfacet
  facet normal 0 0 1
    outer loop
      vertex -17.4345 4.47642 2
      vertex -20.3402 5.22249 2
      vertex -17.8581 2.256 2
    endloop
  endfacet
  facet normal -0 0 1
    outer loop
      vertex -20.8344 2.632 2
      vertex -17.8581 2.256 2
      vertex -20.3402 5.22249 2
    endloop
  endfacet
  facet normal 0 0 1
    outer loop
      vertex -16.736 -6.62624 2
      vertex -19.5253 -7.73061 2
      vertex -18.4024 -10.1168 2
    endloop
  endfacet
  facet normal 0 0 1
    outer loop
      vertex -17.8581 2.256 2
      vertex -20.8344 2.632 2
      vertex -18 0 2
    endloop
  endfacet
  facet normal 0 0 1
    outer loop
      vertex -17.4345 -4.47642 2
      vertex -20.3402 -5.22249 2
      vertex -19.5253 -7.73061 2
    endloop
  endfacet
  facet normal 0 0 1
    outer loop
      vertex -21 0 2
      vertex -18 0 2
      vertex -20.8344 2.632 2
    endloop
  endfacet
  facet normal 0 0 1
    outer loop
      vertex -17.8581 -2.256 2
      vertex -20.8344 -2.632 2
      vertex -20.3402 -5.22249 2
    endloop
  endfacet
  facet normal 0 0 1
    outer loop
      vertex -18 0 2
      vertex -21 0 2
      vertex -20.8344 -2.632 2
    endloop
  endfacet
  facet normal -0.481752 0.876307 0
    outer loop
      vertex -8.94136 19.0014 0
      vertex -11.2524 17.7309 2
      vertex -8.94136 19.0014 2
    endloop
  endfacet
  facet normal -0.481752 0.876307 0
    outer loop
      vertex -11.2524 17.7309 2
      vertex -8.94136 19.0014 0
      vertex -11.2524 17.7309 0
    endloop
  endfacet
  facet normal -0.587791 0.809013 0
    outer loop
      vertex -11.2524 17.7309 0
      vertex -13.3859 16.1808 2
      vertex -11.2524 17.7309 2
    endloop
  endfacet
  facet normal -0.587791 0.809013 0
    outer loop
      vertex -13.3859 16.1808 2
      vertex -11.2524 17.7309 0
      vertex -13.3859 16.1808 0
    endloop
  endfacet
  facet normal -0.248674 0.968587 0
    outer loop
      vertex -3.93501 20.628 0
      vertex -6.48936 19.9722 2
      vertex -3.93501 20.628 2
    endloop
  endfacet
  facet normal -0.248674 0.968587 0
    outer loop
      vertex -6.48936 19.9722 2
      vertex -3.93501 20.628 0
      vertex -6.48936 19.9722 0
    endloop
  endfacet
  facet normal 0.998027 -0.0627938 0
    outer loop
      vertex 20.8344 -2.632 2
      vertex 21 0 0
      vertex 21 0 2
    endloop
  endfacet
  facet normal 0.998027 -0.0627938 0
    outer loop
      vertex 21 0 0
      vertex 20.8344 -2.632 2
      vertex 20.8344 -2.632 0
    endloop
  endfacet
  facet normal 0.481752 -0.876307 0
    outer loop
      vertex 8.94136 -19.0014 0
      vertex 11.2524 -17.7309 2
      vertex 8.94136 -19.0014 2
    endloop
  endfacet
  facet normal 0.481752 -0.876307 0
    outer loop
      vertex 11.2524 -17.7309 2
      vertex 8.94136 -19.0014 0
      vertex 11.2524 -17.7309 0
    endloop
  endfacet
  facet normal 0.684556 -0.72896 0
    outer loop
      vertex 13.3859 -16.1808 0
      vertex 15.3083 -14.3755 2
      vertex 13.3859 -16.1808 2
    endloop
  endfacet
  facet normal 0.684556 -0.72896 0
    outer loop
      vertex 15.3083 -14.3755 2
      vertex 13.3859 -16.1808 0
      vertex 15.3083 -14.3755 0
    endloop
  endfacet
  facet normal 0.982285 -0.187395 0
    outer loop
      vertex 20.3402 -5.22249 2
      vertex 20.8344 -2.632 0
      vertex 20.8344 -2.632 2
    endloop
  endfacet
  facet normal 0.982285 -0.187395 0
    outer loop
      vertex 20.8344 -2.632 0
      vertex 20.3402 -5.22249 2
      vertex 20.3402 -5.22249 0
    endloop
  endfacet
  facet normal 0 0 -1
    outer loop
      vertex 18 0 0
      vertex 21 0 0
      vertex 20.8344 -2.632 0
    endloop
  endfacet
  facet normal 0 0 -1
    outer loop
      vertex 17.8581 -2.256 0
      vertex 20.8344 -2.632 0
      vertex 20.3402 -5.22249 0
    endloop
  endfacet
  facet normal 0 0 -1
    outer loop
      vertex 21 0 0
      vertex 18 0 0
      vertex 20.8344 2.632 0
    endloop
  endfacet
  facet normal 0 0 -1
    outer loop
      vertex 17.4345 -4.47642 0
      vertex 20.3402 -5.22249 0
      vertex 19.5253 -7.73061 0
    endloop
  endfacet
  facet normal 0 0 -1
    outer loop
      vertex 17.8581 2.256 0
      vertex 20.8344 2.632 0
      vertex 18 0 0
    endloop
  endfacet
  facet normal 0 0 -1
    outer loop
      vertex 16.736 -6.62624 0
      vertex 19.5253 -7.73061 0
      vertex 18.4024 -10.1168 0
    endloop
  endfacet
  facet normal -0 0 -1
    outer loop
      vertex 20.8344 2.632 0
      vertex 17.8581 2.256 0
      vertex 20.3402 5.22249 0
    endloop
  endfacet
  facet normal 0 0 -1
    outer loop
      vertex 17.4345 4.47642 0
      vertex 20.3402 5.22249 0
      vertex 17.8581 2.256 0
    endloop
  endfacet
  facet normal 0 0 -1
    outer loop
      vertex 20.8344 -2.632 0
      vertex 17.8581 -2.256 0
      vertex 18 0 0
    endloop
  endfacet
  facet normal 0 0 -1
    outer loop
      vertex 20.3402 -5.22249 0
      vertex 17.4345 -4.47642 0
      vertex 17.8581 -2.256 0
    endloop
  endfacet
  facet normal 0 0 -1
    outer loop
      vertex 15.7735 -8.67157 0
      vertex 18.4024 -10.1168 0
      vertex 16.9894 -12.3435 0
    endloop
  endfacet
  facet normal 0 0 -1
    outer loop
      vertex 19.5253 -7.73061 0
      vertex 16.736 -6.62624 0
      vertex 17.4345 -4.47642 0
    endloop
  endfacet
  facet normal 0 0 -1
    outer loop
      vertex 18.4024 -10.1168 0
      vertex 15.7735 -8.67157 0
      vertex 16.736 -6.62624 0
    endloop
  endfacet
  facet normal 0 0 -1
    outer loop
      vertex 14.5623 -10.5801 0
      vertex 16.9894 -12.3435 0
      vertex 15.3083 -14.3755 0
    endloop
  endfacet
  facet normal 0 0 -1
    outer loop
      vertex 16.9894 -12.3435 0
      vertex 14.5623 -10.5801 0
      vertex 15.7735 -8.67157 0
    endloop
  endfacet
  facet normal 0 0 -1
    outer loop
      vertex 13.1214 -12.3218 0
      vertex 15.3083 -14.3755 0
      vertex 13.3859 -16.1808 0
    endloop
  endfacet
  facet normal 0 0 -1
    outer loop
      vertex 15.3083 -14.3755 0
      vertex 13.1214 -12.3218 0
      vertex 14.5623 -10.5801 0
    endloop
  endfacet
  facet normal 0 0 -1
    outer loop
      vertex 13.3859 -16.1808 0
      vertex 11.4736 -13.8692 0
      vertex 13.1214 -12.3218 0
    endloop
  endfacet
  facet normal 0 0 -1
    outer loop
      vertex 11.2524 -17.7309 0
      vertex 11.4736 -13.8692 0
      vertex 13.3859 -16.1808 0
    endloop
  endfacet
  facet normal 0 0 -1
    outer loop
      vertex 11.2524 -17.7309 0
      vertex 9.64488 -15.1979 0
      vertex 11.4736 -13.8692 0
    endloop
  endfacet
  facet normal 0 0 -1
    outer loop
      vertex 8.94136 -19.0014 0
      vertex 9.64488 -15.1979 0
      vertex 11.2524 -17.7309 0
    endloop
  endfacet
  facet normal 0 0 -1
    outer loop
      vertex 8.94136 -19.0014 0
      vertex 7.66403 -16.2869 0
      vertex 9.64488 -15.1979 0
    endloop
  endfacet
  facet normal 0 0 -1
    outer loop
      vertex 6.48936 -19.9722 0
      vertex 7.66403 -16.2869 0
      vertex 8.94136 -19.0014 0
    endloop
  endfacet
  facet normal 0 0 -1
    outer loop
      vertex 6.48936 -19.9722 0
      vertex 5.56231 -17.119 0
      vertex 7.66403 -16.2869 0
    endloop
  endfacet
  facet normal 0 0 -1
    outer loop
      vertex 3.93501 -20.628 0
      vertex 5.56231 -17.119 0
      vertex 6.48936 -19.9722 0
    endloop
  endfacet
  facet normal 0 0 -1
    outer loop
      vertex 3.93501 -20.628 0
      vertex 3.37286 -17.6812 0
      vertex 5.56231 -17.119 0
    endloop
  endfacet
  facet normal 0 0 -1
    outer loop
      vertex 1.3186 -20.9586 0
      vertex 3.37286 -17.6812 0
      vertex 3.93501 -20.628 0
    endloop
  endfacet
  facet normal 0 0 -1
    outer loop
      vertex 1.3186 -20.9586 0
      vertex 1.13023 -17.9645 0
      vertex 3.37286 -17.6812 0
    endloop
  endfacet
  facet normal 0 0 -1
    outer loop
      vertex 1.3186 -20.9586 0
      vertex -1.13023 -17.9645 0
      vertex 1.13023 -17.9645 0
    endloop
  endfacet
  facet normal 0 0 -1
    outer loop
      vertex -1.3186 -20.9586 0
      vertex -1.13023 -17.9645 0
      vertex 1.3186 -20.9586 0
    endloop
  endfacet
  facet normal 0 0 -1
    outer loop
      vertex -1.3186 -20.9586 0
      vertex -3.37286 -17.6812 0
      vertex -1.13023 -17.9645 0
    endloop
  endfacet
  facet normal 0 0 -1
    outer loop
      vertex -3.93501 -20.628 0
      vertex -3.37286 -17.6812 0
      vertex -1.3186 -20.9586 0
    endloop
  endfacet
  facet normal 0 0 -1
    outer loop
      vertex -3.93501 -20.628 0
      vertex -5.56231 -17.119 0
      vertex -3.37286 -17.6812 0
    endloop
  endfacet
  facet normal 0 0 -1
    outer loop
      vertex -6.48936 -19.9722 0
      vertex -5.56231 -17.119 0
      vertex -3.93501 -20.628 0
    endloop
  endfacet
  facet normal 0 0 -1
    outer loop
      vertex -6.48936 -19.9722 0
      vertex -7.66403 -16.2869 0
      vertex -5.56231 -17.119 0
    endloop
  endfacet
  facet normal 0 0 -1
    outer loop
      vertex -8.94136 -19.0014 0
      vertex -7.66403 -16.2869 0
      vertex -6.48936 -19.9722 0
    endloop
  endfacet
  facet normal 0 0 -1
    outer loop
      vertex -8.94136 -19.0014 0
      vertex -9.64488 -15.1979 0
      vertex -7.66403 -16.2869 0
    endloop
  endfacet
  facet normal 0 0 -1
    outer loop
      vertex -11.2524 -17.7309 0
      vertex -9.64488 -15.1979 0
      vertex -8.94136 -19.0014 0
    endloop
  endfacet
  facet normal 0 0 -1
    outer loop
      vertex -11.2524 -17.7309 0
      vertex -11.4736 -13.8692 0
      vertex -9.64488 -15.1979 0
    endloop
  endfacet
  facet normal 0 0 -1
    outer loop
      vertex -13.3859 -16.1808 0
      vertex -11.4736 -13.8692 0
      vertex -11.2524 -17.7309 0
    endloop
  endfacet
  facet normal -0 0 -1
    outer loop
      vertex -11.4736 -13.8692 0
      vertex -13.3859 -16.1808 0
      vertex -13.1214 -12.3218 0
    endloop
  endfacet
  facet normal 0 0 -1
    outer loop
      vertex -15.3083 -14.3755 0
      vertex -13.1214 -12.3218 0
      vertex -13.3859 -16.1808 0
    endloop
  endfacet
  facet normal -0 0 -1
    outer loop
      vertex -13.1214 -12.3218 0
      vertex -15.3083 -14.3755 0
      vertex -14.5623 -10.5801 0
    endloop
  endfacet
  facet normal 0 0 -1
    outer loop
      vertex -16.9894 -12.3435 0
      vertex -14.5623 -10.5801 0
      vertex -15.3083 -14.3755 0
    endloop
  endfacet
  facet normal -0 0 -1
    outer loop
      vertex -14.5623 -10.5801 0
      vertex -16.9894 -12.3435 0
      vertex -15.7735 -8.67157 0
    endloop
  endfacet
  facet normal 0 0 -1
    outer loop
      vertex -18.4024 -10.1168 0
      vertex -15.7735 -8.67157 0
      vertex -16.9894 -12.3435 0
    endloop
  endfacet
  facet normal -0 0 -1
    outer loop
      vertex -15.7735 -8.67157 0
      vertex -18.4024 -10.1168 0
      vertex -16.736 -6.62624 0
    endloop
  endfacet
  facet normal 0 0 -1
    outer loop
      vertex -19.5253 -7.73061 0
      vertex -16.736 -6.62624 0
      vertex -18.4024 -10.1168 0
    endloop
  endfacet
  facet normal 0 0 -1
    outer loop
      vertex -20.3402 -5.22249 0
      vertex -17.4345 -4.47642 0
      vertex -19.5253 -7.73061 0
    endloop
  endfacet
  facet normal -0 0 -1
    outer loop
      vertex -16.736 -6.62624 0
      vertex -19.5253 -7.73061 0
      vertex -17.4345 -4.47642 0
    endloop
  endfacet
  facet normal -0 0 -1
    outer loop
      vertex 20.3402 5.22249 0
      vertex 17.4345 4.47642 0
      vertex 19.5253 7.73061 0
    endloop
  endfacet
  facet normal 0 0 -1
    outer loop
      vertex 16.736 6.62624 0
      vertex 19.5253 7.73061 0
      vertex 17.4345 4.47642 0
    endloop
  endfacet
  facet normal -0 0 -1
    outer loop
      vertex 19.5253 7.73061 0
      vertex 16.736 6.62624 0
      vertex 18.4024 10.1168 0
    endloop
  endfacet
  facet normal 0 0 -1
    outer loop
      vertex 15.7735 8.67157 0
      vertex 18.4024 10.1168 0
      vertex 16.736 6.62624 0
    endloop
  endfacet
  facet normal -0 0 -1
    outer loop
      vertex 18.4024 10.1168 0
      vertex 15.7735 8.67157 0
      vertex 16.9894 12.3435 0
    endloop
  endfacet
  facet normal 0 0 -1
    outer loop
      vertex 14.5623 10.5801 0
      vertex 16.9894 12.3435 0
      vertex 15.7735 8.67157 0
    endloop
  endfacet
  facet normal -0 0 -1
    outer loop
      vertex 16.9894 12.3435 0
      vertex 14.5623 10.5801 0
      vertex 15.3083 14.3755 0
    endloop
  endfacet
  facet normal 0 0 -1
    outer loop
      vertex 13.1214 12.3218 0
      vertex 15.3083 14.3755 0
      vertex 14.5623 10.5801 0
    endloop
  endfacet
  facet normal -0 0 -1
    outer loop
      vertex 15.3083 14.3755 0
      vertex 13.1214 12.3218 0
      vertex 13.3859 16.1808 0
    endloop
  endfacet
  facet normal 0 0 -1
    outer loop
      vertex 11.4736 13.8692 0
      vertex 13.3859 16.1808 0
      vertex 13.1214 12.3218 0
    endloop
  endfacet
  facet normal 0 0 -1
    outer loop
      vertex 11.4736 13.8692 0
      vertex 11.2524 17.7309 0
      vertex 13.3859 16.1808 0
    endloop
  endfacet
  facet normal 0 0 -1
    outer loop
      vertex 9.64488 15.1979 0
      vertex 11.2524 17.7309 0
      vertex 11.4736 13.8692 0
    endloop
  endfacet
  facet normal 0 0 -1
    outer loop
      vertex 9.64488 15.1979 0
      vertex 8.94136 19.0014 0
      vertex 11.2524 17.7309 0
    endloop
  endfacet
  facet normal 0 0 -1
    outer loop
      vertex 7.66403 16.2869 0
      vertex 8.94136 19.0014 0
      vertex 9.64488 15.1979 0
    endloop
  endfacet
  facet normal 0 0 -1
    outer loop
      vertex 7.66403 16.2869 0
      vertex 6.48936 19.9722 0
      vertex 8.94136 19.0014 0
    endloop
  endfacet
  facet normal 0 0 -1
    outer loop
      vertex 5.56231 17.119 0
      vertex 6.48936 19.9722 0
      vertex 7.66403 16.2869 0
    endloop
  endfacet
  facet normal 0 0 -1
    outer loop
      vertex 5.56231 17.119 0
      vertex 3.93501 20.628 0
      vertex 6.48936 19.9722 0
    endloop
  endfacet
  facet normal 0 0 -1
    outer loop
      vertex 3.37286 17.6812 0
      vertex 3.93501 20.628 0
      vertex 5.56231 17.119 0
    endloop
  endfacet
  facet normal 0 0 -1
    outer loop
      vertex 3.37286 17.6812 0
      vertex 1.3186 20.9586 0
      vertex 3.93501 20.628 0
    endloop
  endfacet
  facet normal 0 0 -1
    outer loop
      vertex 1.13023 17.9645 0
      vertex 1.3186 20.9586 0
      vertex 3.37286 17.6812 0
    endloop
  endfacet
  facet normal 0 0 -1
    outer loop
      vertex -1.13023 17.9645 0
      vertex 1.3186 20.9586 0
      vertex 1.13023 17.9645 0
    endloop
  endfacet
  facet normal 0 0 -1
    outer loop
      vertex -1.13023 17.9645 0
      vertex -1.3186 20.9586 0
      vertex 1.3186 20.9586 0
    endloop
  endfacet
  facet normal 0 0 -1
    outer loop
      vertex -3.37286 17.6812 0
      vertex -1.3186 20.9586 0
      vertex -1.13023 17.9645 0
    endloop
  endfacet
  facet normal 0 0 -1
    outer loop
      vertex -3.37286 17.6812 0
      vertex -3.93501 20.628 0
      vertex -1.3186 20.9586 0
    endloop
  endfacet
  facet normal 0 0 -1
    outer loop
      vertex -5.56231 17.119 0
      vertex -3.93501 20.628 0
      vertex -3.37286 17.6812 0
    endloop
  endfacet
  facet normal 0 0 -1
    outer loop
      vertex -5.56231 17.119 0
      vertex -6.48936 19.9722 0
      vertex -3.93501 20.628 0
    endloop
  endfacet
  facet normal 0 0 -1
    outer loop
      vertex -7.66403 16.2869 0
      vertex -6.48936 19.9722 0
      vertex -5.56231 17.119 0
    endloop
  endfacet
  facet normal 0 0 -1
    outer loop
      vertex -7.66403 16.2869 0
      vertex -8.94136 19.0014 0
      vertex -6.48936 19.9722 0
    endloop
  endfacet
  facet normal 0 0 -1
    outer loop
      vertex -9.64488 15.1979 0
      vertex -8.94136 19.0014 0
      vertex -7.66403 16.2869 0
    endloop
  endfacet
  facet normal 0 0 -1
    outer loop
      vertex -9.64488 15.1979 0
      vertex -11.2524 17.7309 0
      vertex -8.94136 19.0014 0
    endloop
  endfacet
  facet normal 0 0 -1
    outer loop
      vertex -11.4736 13.8692 0
      vertex -11.2524 17.7309 0
      vertex -9.64488 15.1979 0
    endloop
  endfacet
  facet normal 0 0 -1
    outer loop
      vertex -13.3859 16.1808 0
      vertex -11.4736 13.8692 0
      vertex -13.1214 12.3218 0
    endloop
  endfacet
  facet normal 0 0 -1
    outer loop
      vertex -11.4736 13.8692 0
      vertex -13.3859 16.1808 0
      vertex -11.2524 17.7309 0
    endloop
  endfacet
  facet normal 0 0 -1
    outer loop
      vertex -15.3083 14.3755 0
      vertex -13.1214 12.3218 0
      vertex -14.5623 10.5801 0
    endloop
  endfacet
  facet normal 0 0 -1
    outer loop
      vertex -13.1214 12.3218 0
      vertex -15.3083 14.3755 0
      vertex -13.3859 16.1808 0
    endloop
  endfacet
  facet normal 0 0 -1
    outer loop
      vertex -16.9894 12.3435 0
      vertex -14.5623 10.5801 0
      vertex -15.7735 8.67157 0
    endloop
  endfacet
  facet normal 0 0 -1
    outer loop
      vertex -18.4024 10.1168 0
      vertex -15.7735 8.67157 0
      vertex -16.736 6.62624 0
    endloop
  endfacet
  facet normal 0 0 -1
    outer loop
      vertex -14.5623 10.5801 0
      vertex -16.9894 12.3435 0
      vertex -15.3083 14.3755 0
    endloop
  endfacet
  facet normal 0 0 -1
    outer loop
      vertex -19.5253 7.73061 0
      vertex -16.736 6.62624 0
      vertex -17.4345 4.47642 0
    endloop
  endfacet
  facet normal 0 0 -1
    outer loop
      vertex -20.3402 5.22249 0
      vertex -17.4345 4.47642 0
      vertex -17.8581 2.256 0
    endloop
  endfacet
  facet normal 0 0 -1
    outer loop
      vertex -15.7735 8.67157 0
      vertex -18.4024 10.1168 0
      vertex -16.9894 12.3435 0
    endloop
  endfacet
  facet normal 0 0 -1
    outer loop
      vertex -20.8344 2.632 0
      vertex -17.8581 2.256 0
      vertex -18 0 0
    endloop
  endfacet
  facet normal -0 0 -1
    outer loop
      vertex -17.4345 -4.47642 0
      vertex -20.3402 -5.22249 0
      vertex -17.8581 -2.256 0
    endloop
  endfacet
  facet normal 0 0 -1
    outer loop
      vertex -20.8344 -2.632 0
      vertex -17.8581 -2.256 0
      vertex -20.3402 -5.22249 0
    endloop
  endfacet
  facet normal 0 0 -1
    outer loop
      vertex -16.736 6.62624 0
      vertex -19.5253 7.73061 0
      vertex -18.4024 10.1168 0
    endloop
  endfacet
  facet normal -0 0 -1
    outer loop
      vertex -17.8581 -2.256 0
      vertex -20.8344 -2.632 0
      vertex -18 0 0
    endloop
  endfacet
  facet normal 0 0 -1
    outer loop
      vertex -17.4345 4.47642 0
      vertex -20.3402 5.22249 0
      vertex -19.5253 7.73061 0
    endloop
  endfacet
  facet normal 0 0 -1
    outer loop
      vertex -21 0 0
      vertex -18 0 0
      vertex -20.8344 -2.632 0
    endloop
  endfacet
  facet normal 0 0 -1
    outer loop
      vertex -17.8581 2.256 0
      vertex -20.8344 2.632 0
      vertex -20.3402 5.22249 0
    endloop
  endfacet
  facet normal 0 0 -1
    outer loop
      vertex -18 0 0
      vertex -21 0 0
      vertex -20.8344 2.632 0
    endloop
  endfacet
  facet normal 0.904821 -0.425793 0
    outer loop
      vertex 18.4024 -10.1168 2
      vertex 19.5253 -7.73061 0
      vertex 19.5253 -7.73061 2
    endloop
  endfacet
  facet normal 0.904821 -0.425793 0
    outer loop
      vertex 19.5253 -7.73061 0
      vertex 18.4024 -10.1168 2
      vertex 18.4024 -10.1168 0
    endloop
  endfacet
  facet normal 0.770498 -0.637443 0
    outer loop
      vertex 15.3083 -14.3755 2
      vertex 16.9894 -12.3435 0
      vertex 16.9894 -12.3435 2
    endloop
  endfacet
  facet normal 0.770498 -0.637443 0
    outer loop
      vertex 16.9894 -12.3435 0
      vertex 15.3083 -14.3755 2
      vertex 15.3083 -14.3755 0
    endloop
  endfacet
  facet normal -0.248674 -0.968587 0
    outer loop
      vertex -6.48936 -19.9722 0
      vertex -3.93501 -20.628 2
      vertex -6.48936 -19.9722 2
    endloop
  endfacet
  facet normal -0.248674 -0.968587 -0
    outer loop
      vertex -3.93501 -20.628 2
      vertex -6.48936 -19.9722 0
      vertex -3.93501 -20.628 0
    endloop
  endfacet
  facet normal -0.684556 -0.72896 0
    outer loop
      vertex -15.3083 -14.3755 0
      vertex -13.3859 -16.1808 2
      vertex -15.3083 -14.3755 2
    endloop
  endfacet
  facet normal -0.684556 -0.72896 -0
    outer loop
      vertex -13.3859 -16.1808 2
      vertex -15.3083 -14.3755 0
      vertex -13.3859 -16.1808 0
    endloop
  endfacet
  facet normal -0.844346 -0.535798 0
    outer loop
      vertex -16.9894 -12.3435 0
      vertex -18.4024 -10.1168 2
      vertex -18.4024 -10.1168 0
    endloop
  endfacet
  facet normal -0.844346 -0.535798 0
    outer loop
      vertex -18.4024 -10.1168 2
      vertex -16.9894 -12.3435 0
      vertex -16.9894 -12.3435 2
    endloop
  endfacet
  facet normal -0.951061 -0.309004 0
    outer loop
      vertex -19.5253 -7.73061 0
      vertex -20.3402 -5.22249 2
      vertex -20.3402 -5.22249 0
    endloop
  endfacet
  facet normal -0.951061 -0.309004 0
    outer loop
      vertex -20.3402 -5.22249 2
      vertex -19.5253 -7.73061 0
      vertex -19.5253 -7.73061 2
    endloop
  endfacet
  facet normal 0.248674 -0.968587 0
    outer loop
      vertex 3.93501 -20.628 0
      vertex 6.48936 -19.9722 2
      vertex 3.93501 -20.628 2
    endloop
  endfacet
  facet normal 0.248674 -0.968587 0
    outer loop
      vertex 6.48936 -19.9722 2
      vertex 3.93501 -20.628 0
      vertex 6.48936 -19.9722 0
    endloop
  endfacet
  facet normal 0.12536 -0.992111 0
    outer loop
      vertex 1.3186 -20.9586 0
      vertex 3.93501 -20.628 2
      vertex 1.3186 -20.9586 2
    endloop
  endfacet
  facet normal 0.12536 -0.992111 0
    outer loop
      vertex 3.93501 -20.628 2
      vertex 1.3186 -20.9586 0
      vertex 3.93501 -20.628 0
    endloop
  endfacet
  facet normal 0.587791 -0.809013 0
    outer loop
      vertex 11.2524 -17.7309 0
      vertex 13.3859 -16.1808 2
      vertex 11.2524 -17.7309 2
    endloop
  endfacet
  facet normal 0.587791 -0.809013 0
    outer loop
      vertex 13.3859 -16.1808 2
      vertex 11.2524 -17.7309 0
      vertex 13.3859 -16.1808 0
    endloop
  endfacet
  facet normal 0.951061 -0.309004 0
    outer loop
      vertex 19.5253 -7.73061 2
      vertex 20.3402 -5.22249 0
      vertex 20.3402 -5.22249 2
    endloop
  endfacet
  facet normal 0.951061 -0.309004 0
    outer loop
      vertex 20.3402 -5.22249 0
      vertex 19.5253 -7.73061 2
      vertex 19.5253 -7.73061 0
    endloop
  endfacet
  facet normal 0.844346 -0.535798 0
    outer loop
      vertex 16.9894 -12.3435 2
      vertex 18.4024 -10.1168 0
      vertex 18.4024 -10.1168 2
    endloop
  endfacet
  facet normal 0.844346 -0.535798 0
    outer loop
      vertex 18.4024 -10.1168 0
      vertex 16.9894 -12.3435 2
      vertex 16.9894 -12.3435 0
    endloop
  endfacet
  facet normal -0.12536 -0.992111 0
    outer loop
      vertex -3.93501 -20.628 0
      vertex -1.3186 -20.9586 2
      vertex -3.93501 -20.628 2
    endloop
  endfacet
  facet normal -0.12536 -0.992111 -0
    outer loop
      vertex -1.3186 -20.9586 2
      vertex -3.93501 -20.628 0
      vertex -1.3186 -20.9586 0
    endloop
  endfacet
  facet normal -0.368119 -0.929778 0
    outer loop
      vertex -8.94136 -19.0014 0
      vertex -6.48936 -19.9722 2
      vertex -8.94136 -19.0014 2
    endloop
  endfacet
  facet normal -0.368119 -0.929778 -0
    outer loop
      vertex -6.48936 -19.9722 2
      vertex -8.94136 -19.0014 0
      vertex -6.48936 -19.9722 0
    endloop
  endfacet
  facet normal -0.770498 -0.637443 0
    outer loop
      vertex -15.3083 -14.3755 0
      vertex -16.9894 -12.3435 2
      vertex -16.9894 -12.3435 0
    endloop
  endfacet
  facet normal -0.770498 -0.637443 0
    outer loop
      vertex -16.9894 -12.3435 2
      vertex -15.3083 -14.3755 0
      vertex -15.3083 -14.3755 2
    endloop
  endfacet
  facet normal -0.904821 -0.425793 0
    outer loop
      vertex -18.4024 -10.1168 0
      vertex -19.5253 -7.73061 2
      vertex -19.5253 -7.73061 0
    endloop
  endfacet
  facet normal -0.904821 -0.425793 0
    outer loop
      vertex -19.5253 -7.73061 2
      vertex -18.4024 -10.1168 0
      vertex -18.4024 -10.1168 2
    endloop
  endfacet
  facet normal -0.982285 -0.187395 0
    outer loop
      vertex -20.3402 -5.22249 0
      vertex -20.8344 -2.632 2
      vertex -20.8344 -2.632 0
    endloop
  endfacet
  facet normal -0.982285 -0.187395 0
    outer loop
      vertex -20.8344 -2.632 2
      vertex -20.3402 -5.22249 0
      vertex -20.3402 -5.22249 2
    endloop
  endfacet
  facet normal -0.998027 -0.0627938 0
    outer loop
      vertex -20.8344 -2.632 0
      vertex -21 0 2
      vertex -21 0 0
    endloop
  endfacet
  facet normal -0.998027 -0.0627938 0
    outer loop
      vertex -21 0 2
      vertex -20.8344 -2.632 0
      vertex -20.8344 -2.632 2
    endloop
  endfacet
  facet normal -0.481752 -0.876307 0
    outer loop
      vertex -11.2524 -17.7309 0
      vertex -8.94136 -19.0014 2
      vertex -11.2524 -17.7309 2
    endloop
  endfacet
  facet normal -0.481752 -0.876307 -0
    outer loop
      vertex -8.94136 -19.0014 2
      vertex -11.2524 -17.7309 0
      vertex -8.94136 -19.0014 0
    endloop
  endfacet
  facet normal -0.587791 -0.809013 0
    outer loop
      vertex -13.3859 -16.1808 0
      vertex -11.2524 -17.7309 2
      vertex -13.3859 -16.1808 2
    endloop
  endfacet
  facet normal -0.587791 -0.809013 -0
    outer loop
      vertex -11.2524 -17.7309 2
      vertex -13.3859 -16.1808 0
      vertex -11.2524 -17.7309 0
    endloop
  endfacet
  facet normal -0.998028 -0.0627749 0
    outer loop
      vertex 18 0 0
      vertex 17.8581 2.256 2
      vertex 17.8581 2.256 0
    endloop
  endfacet
  facet normal -0.998028 -0.0627749 0
    outer loop
      vertex 17.8581 2.256 2
      vertex 18 0 0
      vertex 18 0 2
    endloop
  endfacet
  facet normal 0.998028 -0.0627749 0
    outer loop
      vertex -18 0 2
      vertex -17.8581 2.256 0
      vertex -17.8581 2.256 2
    endloop
  endfacet
  facet normal 0.998028 -0.0627749 0
    outer loop
      vertex -17.8581 2.256 0
      vertex -18 0 2
      vertex -18 0 0
    endloop
  endfacet
  facet normal 0 -1 0
    outer loop
      vertex -1.13023 17.9645 0
      vertex 1.13023 17.9645 2
      vertex -1.13023 17.9645 2
    endloop
  endfacet
  facet normal 0 -1 -0
    outer loop
      vertex 1.13023 17.9645 2
      vertex -1.13023 17.9645 0
      vertex 1.13023 17.9645 0
    endloop
  endfacet
  facet normal 0 1 -0
    outer loop
      vertex 1.13023 -17.9645 0
      vertex -1.13023 -17.9645 2
      vertex 1.13023 -17.9645 2
    endloop
  endfacet
  facet normal 0 1 0
    outer loop
      vertex -1.13023 -17.9645 2
      vertex 1.13023 -17.9645 0
      vertex -1.13023 -17.9645 0
    endloop
  endfacet
  facet normal -0.68455 -0.728966 0
    outer loop
      vertex 11.4736 13.8692 0
      vertex 13.1214 12.3218 2
      vertex 11.4736 13.8692 2
    endloop
  endfacet
  facet normal -0.68455 -0.728966 -0
    outer loop
      vertex 13.1214 12.3218 2
      vertex 11.4736 13.8692 0
      vertex 13.1214 12.3218 0
    endloop
  endfacet
  facet normal 0.68455 -0.728966 0
    outer loop
      vertex -13.1214 12.3218 0
      vertex -11.4736 13.8692 2
      vertex -13.1214 12.3218 2
    endloop
  endfacet
  facet normal 0.68455 -0.728966 0
    outer loop
      vertex -11.4736 13.8692 2
      vertex -13.1214 12.3218 0
      vertex -11.4736 13.8692 0
    endloop
  endfacet
  facet normal 0.368113 -0.929781 0
    outer loop
      vertex -7.66403 16.2869 0
      vertex -5.56231 17.119 2
      vertex -7.66403 16.2869 2
    endloop
  endfacet
  facet normal 0.368113 -0.929781 0
    outer loop
      vertex -5.56231 17.119 2
      vertex -7.66403 16.2869 0
      vertex -5.56231 17.119 0
    endloop
  endfacet
  facet normal -0.90482 -0.425794 0
    outer loop
      vertex 16.736 6.62624 0
      vertex 15.7735 8.67157 2
      vertex 15.7735 8.67157 0
    endloop
  endfacet
  facet normal -0.90482 -0.425794 0
    outer loop
      vertex 15.7735 8.67157 2
      vertex 16.736 6.62624 0
      vertex 16.736 6.62624 2
    endloop
  endfacet
  facet normal -0.982285 -0.187395 0
    outer loop
      vertex 17.8581 2.256 0
      vertex 17.4345 4.47642 2
      vertex 17.4345 4.47642 0
    endloop
  endfacet
  facet normal -0.982285 -0.187395 0
    outer loop
      vertex 17.4345 4.47642 2
      vertex 17.8581 2.256 0
      vertex 17.8581 2.256 2
    endloop
  endfacet
  facet normal -0.844326 -0.53583 0
    outer loop
      vertex 15.7735 8.67157 0
      vertex 14.5623 10.5801 2
      vertex 14.5623 10.5801 0
    endloop
  endfacet
  facet normal -0.844326 -0.53583 0
    outer loop
      vertex 14.5623 10.5801 2
      vertex 15.7735 8.67157 0
      vertex 15.7735 8.67157 2
    endloop
  endfacet
  facet normal -0.368113 -0.929781 0
    outer loop
      vertex 5.56231 17.119 0
      vertex 7.66403 16.2869 2
      vertex 5.56231 17.119 2
    endloop
  endfacet
  facet normal -0.368113 -0.929781 -0
    outer loop
      vertex 7.66403 16.2869 2
      vertex 5.56231 17.119 0
      vertex 7.66403 16.2869 0
    endloop
  endfacet
  facet normal -0.248708 -0.968578 0
    outer loop
      vertex 3.37286 17.6812 0
      vertex 5.56231 17.119 2
      vertex 3.37286 17.6812 2
    endloop
  endfacet
  facet normal -0.248708 -0.968578 -0
    outer loop
      vertex 5.56231 17.119 2
      vertex 3.37286 17.6812 0
      vertex 5.56231 17.119 0
    endloop
  endfacet
  facet normal -0.48176 -0.876303 0
    outer loop
      vertex 7.66403 16.2869 0
      vertex 9.64488 15.1979 2
      vertex 7.66403 16.2869 2
    endloop
  endfacet
  facet normal -0.48176 -0.876303 -0
    outer loop
      vertex 9.64488 15.1979 2
      vertex 7.66403 16.2869 0
      vertex 9.64488 15.1979 0
    endloop
  endfacet
  facet normal 0.844326 -0.53583 0
    outer loop
      vertex -15.7735 8.67157 2
      vertex -14.5623 10.5801 0
      vertex -14.5623 10.5801 2
    endloop
  endfacet
  facet normal 0.844326 -0.53583 0
    outer loop
      vertex -14.5623 10.5801 0
      vertex -15.7735 8.67157 2
      vertex -15.7735 8.67157 0
    endloop
  endfacet
  facet normal 0.770504 -0.637435 0
    outer loop
      vertex -14.5623 10.5801 2
      vertex -13.1214 12.3218 0
      vertex -13.1214 12.3218 2
    endloop
  endfacet
  facet normal 0.770504 -0.637435 0
    outer loop
      vertex -13.1214 12.3218 0
      vertex -14.5623 10.5801 2
      vertex -14.5623 10.5801 0
    endloop
  endfacet
  facet normal 0.951059 -0.309009 0
    outer loop
      vertex -17.4345 4.47642 2
      vertex -16.736 6.62624 0
      vertex -16.736 6.62624 2
    endloop
  endfacet
  facet normal 0.951059 -0.309009 0
    outer loop
      vertex -16.736 6.62624 0
      vertex -17.4345 4.47642 2
      vertex -17.4345 4.47642 0
    endloop
  endfacet
  facet normal 0.48176 -0.876303 0
    outer loop
      vertex -9.64488 15.1979 0
      vertex -7.66403 16.2869 2
      vertex -9.64488 15.1979 2
    endloop
  endfacet
  facet normal 0.48176 -0.876303 0
    outer loop
      vertex -7.66403 16.2869 2
      vertex -9.64488 15.1979 0
      vertex -7.66403 16.2869 0
    endloop
  endfacet
  facet normal 0.125329 -0.992115 0
    outer loop
      vertex -3.37286 17.6812 0
      vertex -1.13023 17.9645 2
      vertex -3.37286 17.6812 2
    endloop
  endfacet
  facet normal 0.125329 -0.992115 0
    outer loop
      vertex -1.13023 17.9645 2
      vertex -3.37286 17.6812 0
      vertex -1.13023 17.9645 0
    endloop
  endfacet
  facet normal -0.125329 0.992115 0
    outer loop
      vertex 3.37286 -17.6812 0
      vertex 1.13023 -17.9645 2
      vertex 3.37286 -17.6812 2
    endloop
  endfacet
  facet normal -0.125329 0.992115 0
    outer loop
      vertex 1.13023 -17.9645 2
      vertex 3.37286 -17.6812 0
      vertex 1.13023 -17.9645 0
    endloop
  endfacet
  facet normal -0.951059 -0.309009 0
    outer loop
      vertex 17.4345 4.47642 0
      vertex 16.736 6.62624 2
      vertex 16.736 6.62624 0
    endloop
  endfacet
  facet normal -0.951059 -0.309009 0
    outer loop
      vertex 16.736 6.62624 2
      vertex 17.4345 4.47642 0
      vertex 17.4345 4.47642 2
    endloop
  endfacet
  facet normal -0.770504 -0.637435 0
    outer loop
      vertex 14.5623 10.5801 0
      vertex 13.1214 12.3218 2
      vertex 13.1214 12.3218 0
    endloop
  endfacet
  facet normal -0.770504 -0.637435 0
    outer loop
      vertex 13.1214 12.3218 2
      vertex 14.5623 10.5801 0
      vertex 14.5623 10.5801 2
    endloop
  endfacet
  facet normal -0.125329 -0.992115 0
    outer loop
      vertex 1.13023 17.9645 0
      vertex 3.37286 17.6812 2
      vertex 1.13023 17.9645 2
    endloop
  endfacet
  facet normal -0.125329 -0.992115 -0
    outer loop
      vertex 3.37286 17.6812 2
      vertex 1.13023 17.9645 0
      vertex 3.37286 17.6812 0
    endloop
  endfacet
  facet normal -0.587802 -0.809005 0
    outer loop
      vertex 9.64488 15.1979 0
      vertex 11.4736 13.8692 2
      vertex 9.64488 15.1979 2
    endloop
  endfacet
  facet normal -0.587802 -0.809005 -0
    outer loop
      vertex 11.4736 13.8692 2
      vertex 9.64488 15.1979 0
      vertex 11.4736 13.8692 0
    endloop
  endfacet
  facet normal 0.90482 -0.425794 0
    outer loop
      vertex -16.736 6.62624 2
      vertex -15.7735 8.67157 0
      vertex -15.7735 8.67157 2
    endloop
  endfacet
  facet normal 0.90482 -0.425794 0
    outer loop
      vertex -15.7735 8.67157 0
      vertex -16.736 6.62624 2
      vertex -16.736 6.62624 0
    endloop
  endfacet
  facet normal 0.982285 -0.187395 0
    outer loop
      vertex -17.8581 2.256 2
      vertex -17.4345 4.47642 0
      vertex -17.4345 4.47642 2
    endloop
  endfacet
  facet normal 0.982285 -0.187395 0
    outer loop
      vertex -17.4345 4.47642 0
      vertex -17.8581 2.256 2
      vertex -17.8581 2.256 0
    endloop
  endfacet
  facet normal 0.587802 -0.809005 0
    outer loop
      vertex -11.4736 13.8692 0
      vertex -9.64488 15.1979 2
      vertex -11.4736 13.8692 2
    endloop
  endfacet
  facet normal 0.587802 -0.809005 0
    outer loop
      vertex -9.64488 15.1979 2
      vertex -11.4736 13.8692 0
      vertex -9.64488 15.1979 0
    endloop
  endfacet
  facet normal 0.248708 -0.968578 0
    outer loop
      vertex -5.56231 17.119 0
      vertex -3.37286 17.6812 2
      vertex -5.56231 17.119 2
    endloop
  endfacet
  facet normal 0.248708 -0.968578 0
    outer loop
      vertex -3.37286 17.6812 2
      vertex -5.56231 17.119 0
      vertex -3.37286 17.6812 0
    endloop
  endfacet
  facet normal -0.770504 0.637435 0
    outer loop
      vertex 13.1214 -12.3218 0
      vertex 14.5623 -10.5801 2
      vertex 14.5623 -10.5801 0
    endloop
  endfacet
  facet normal -0.770504 0.637435 0
    outer loop
      vertex 14.5623 -10.5801 2
      vertex 13.1214 -12.3218 0
      vertex 13.1214 -12.3218 2
    endloop
  endfacet
  facet normal -0.951059 0.309009 0
    outer loop
      vertex 16.736 -6.62624 0
      vertex 17.4345 -4.47642 2
      vertex 17.4345 -4.47642 0
    endloop
  endfacet
  facet normal -0.951059 0.309009 0
    outer loop
      vertex 17.4345 -4.47642 2
      vertex 16.736 -6.62624 0
      vertex 16.736 -6.62624 2
    endloop
  endfacet
  facet normal -0.982285 0.187395 0
    outer loop
      vertex 17.4345 -4.47642 0
      vertex 17.8581 -2.256 2
      vertex 17.8581 -2.256 0
    endloop
  endfacet
  facet normal -0.982285 0.187395 0
    outer loop
      vertex 17.8581 -2.256 2
      vertex 17.4345 -4.47642 0
      vertex 17.4345 -4.47642 2
    endloop
  endfacet
  facet normal -0.368113 0.929781 0
    outer loop
      vertex 7.66403 -16.2869 0
      vertex 5.56231 -17.119 2
      vertex 7.66403 -16.2869 2
    endloop
  endfacet
  facet normal -0.368113 0.929781 0
    outer loop
      vertex 5.56231 -17.119 2
      vertex 7.66403 -16.2869 0
      vertex 5.56231 -17.119 0
    endloop
  endfacet
  facet normal -0.48176 0.876303 0
    outer loop
      vertex 9.64488 -15.1979 0
      vertex 7.66403 -16.2869 2
      vertex 9.64488 -15.1979 2
    endloop
  endfacet
  facet normal -0.48176 0.876303 0
    outer loop
      vertex 7.66403 -16.2869 2
      vertex 9.64488 -15.1979 0
      vertex 7.66403 -16.2869 0
    endloop
  endfacet
  facet normal -0.844326 0.53583 0
    outer loop
      vertex 14.5623 -10.5801 0
      vertex 15.7735 -8.67157 2
      vertex 15.7735 -8.67157 0
    endloop
  endfacet
  facet normal -0.844326 0.53583 0
    outer loop
      vertex 15.7735 -8.67157 2
      vertex 14.5623 -10.5801 0
      vertex 14.5623 -10.5801 2
    endloop
  endfacet
  facet normal -0.998028 0.0627749 0
    outer loop
      vertex 17.8581 -2.256 0
      vertex 18 0 2
      vertex 18 0 0
    endloop
  endfacet
  facet normal -0.998028 0.0627749 0
    outer loop
      vertex 18 0 2
      vertex 17.8581 -2.256 0
      vertex 17.8581 -2.256 2
    endloop
  endfacet
  facet normal 0.770504 0.637435 0
    outer loop
      vertex -13.1214 -12.3218 2
      vertex -14.5623 -10.5801 0
      vertex -14.5623 -10.5801 2
    endloop
  endfacet
  facet normal 0.770504 0.637435 0
    outer loop
      vertex -14.5623 -10.5801 0
      vertex -13.1214 -12.3218 2
      vertex -13.1214 -12.3218 0
    endloop
  endfacet
  facet normal 0.90482 0.425794 0
    outer loop
      vertex -15.7735 -8.67157 2
      vertex -16.736 -6.62624 0
      vertex -16.736 -6.62624 2
    endloop
  endfacet
  facet normal 0.90482 0.425794 0
    outer loop
      vertex -16.736 -6.62624 0
      vertex -15.7735 -8.67157 2
      vertex -15.7735 -8.67157 0
    endloop
  endfacet
  facet normal 0.951059 0.309009 0
    outer loop
      vertex -16.736 -6.62624 2
      vertex -17.4345 -4.47642 0
      vertex -17.4345 -4.47642 2
    endloop
  endfacet
  facet normal 0.951059 0.309009 0
    outer loop
      vertex -17.4345 -4.47642 0
      vertex -16.736 -6.62624 2
      vertex -16.736 -6.62624 0
    endloop
  endfacet
  facet normal 0.998028 0.0627749 0
    outer loop
      vertex -17.8581 -2.256 2
      vertex -18 0 0
      vertex -18 0 2
    endloop
  endfacet
  facet normal 0.998028 0.0627749 0
    outer loop
      vertex -18 0 0
      vertex -17.8581 -2.256 2
      vertex -17.8581 -2.256 0
    endloop
  endfacet
  facet normal -0.248708 0.968578 0
    outer loop
      vertex 5.56231 -17.119 0
      vertex 3.37286 -17.6812 2
      vertex 5.56231 -17.119 2
    endloop
  endfacet
  facet normal -0.248708 0.968578 0
    outer loop
      vertex 3.37286 -17.6812 2
      vertex 5.56231 -17.119 0
      vertex 3.37286 -17.6812 0
    endloop
  endfacet
  facet normal -0.90482 0.425794 0
    outer loop
      vertex 15.7735 -8.67157 0
      vertex 16.736 -6.62624 2
      vertex 16.736 -6.62624 0
    endloop
  endfacet
  facet normal -0.90482 0.425794 0
    outer loop
      vertex 16.736 -6.62624 2
      vertex 15.7735 -8.67157 0
      vertex 15.7735 -8.67157 2
    endloop
  endfacet
  facet normal 0.125329 0.992115 -0
    outer loop
      vertex -1.13023 -17.9645 0
      vertex -3.37286 -17.6812 2
      vertex -1.13023 -17.9645 2
    endloop
  endfacet
  facet normal 0.125329 0.992115 0
    outer loop
      vertex -3.37286 -17.6812 2
      vertex -1.13023 -17.9645 0
      vertex -3.37286 -17.6812 0
    endloop
  endfacet
  facet normal 0.368113 0.929781 -0
    outer loop
      vertex -5.56231 -17.119 0
      vertex -7.66403 -16.2869 2
      vertex -5.56231 -17.119 2
    endloop
  endfacet
  facet normal 0.368113 0.929781 0
    outer loop
      vertex -7.66403 -16.2869 2
      vertex -5.56231 -17.119 0
      vertex -7.66403 -16.2869 0
    endloop
  endfacet
  facet normal 0.248708 0.968578 -0
    outer loop
      vertex -3.37286 -17.6812 0
      vertex -5.56231 -17.119 2
      vertex -3.37286 -17.6812 2
    endloop
  endfacet
  facet normal 0.248708 0.968578 0
    outer loop
      vertex -5.56231 -17.119 2
      vertex -3.37286 -17.6812 0
      vertex -5.56231 -17.119 0
    endloop
  endfacet
  facet normal 0.68455 0.728966 -0
    outer loop
      vertex -11.4736 -13.8692 0
      vertex -13.1214 -12.3218 2
      vertex -11.4736 -13.8692 2
    endloop
  endfacet
  facet normal 0.68455 0.728966 0
    outer loop
      vertex -13.1214 -12.3218 2
      vertex -11.4736 -13.8692 0
      vertex -13.1214 -12.3218 0
    endloop
  endfacet
  facet normal 0.48176 0.876303 -0
    outer loop
      vertex -7.66403 -16.2869 0
      vertex -9.64488 -15.1979 2
      vertex -7.66403 -16.2869 2
    endloop
  endfacet
  facet normal 0.48176 0.876303 0
    outer loop
      vertex -9.64488 -15.1979 2
      vertex -7.66403 -16.2869 0
      vertex -9.64488 -15.1979 0
    endloop
  endfacet
  facet normal 0.844326 0.53583 0
    outer loop
      vertex -14.5623 -10.5801 2
      vertex -15.7735 -8.67157 0
      vertex -15.7735 -8.67157 2
    endloop
  endfacet
  facet normal 0.844326 0.53583 0
    outer loop
      vertex -15.7735 -8.67157 0
      vertex -14.5623 -10.5801 2
      vertex -14.5623 -10.5801 0
    endloop
  endfacet
  facet normal 0.982285 0.187395 0
    outer loop
      vertex -17.4345 -4.47642 2
      vertex -17.8581 -2.256 0
      vertex -17.8581 -2.256 2
    endloop
  endfacet
  facet normal 0.982285 0.187395 0
    outer loop
      vertex -17.8581 -2.256 0
      vertex -17.4345 -4.47642 2
      vertex -17.4345 -4.47642 0
    endloop
  endfacet
  facet normal -0.68455 0.728966 0
    outer loop
      vertex 13.1214 -12.3218 0
      vertex 11.4736 -13.8692 2
      vertex 13.1214 -12.3218 2
    endloop
  endfacet
  facet normal -0.68455 0.728966 0
    outer loop
      vertex 11.4736 -13.8692 2
      vertex 13.1214 -12.3218 0
      vertex 11.4736 -13.8692 0
    endloop
  endfacet
  facet normal -0.587802 0.809005 0
    outer loop
      vertex 11.4736 -13.8692 0
      vertex 9.64488 -15.1979 2
      vertex 11.4736 -13.8692 2
    endloop
  endfacet
  facet normal -0.587802 0.809005 0
    outer loop
      vertex 9.64488 -15.1979 2
      vertex 11.4736 -13.8692 0
      vertex 9.64488 -15.1979 0
    endloop
  endfacet
  facet normal 0.587802 0.809005 -0
    outer loop
      vertex -9.64488 -15.1979 0
      vertex -11.4736 -13.8692 2
      vertex -9.64488 -15.1979 2
    endloop
  endfacet
  facet normal 0.587802 0.809005 0
    outer loop
      vertex -11.4736 -13.8692 2
      vertex -9.64488 -15.1979 0
      vertex -11.4736 -13.8692 0
    endloop
  endfacet
endsolid OpenSCAD_Model
