solid OpenSCAD_Model
  facet normal 0.904843 0.425745 0
    outer loop
      vertex 14.4115 5.70593 3
      vertex 13.5828 7.46718 0
      vertex 13.5828 7.46718 3
    endloop
  endfacet
  facet normal 0.904843 0.425745 0
    outer loop
      vertex 13.5828 7.46718 0
      vertex 14.4115 5.70593 3
      vertex 14.4115 5.70593 0
    endloop
  endfacet
  facet normal -0.951057 0.309015 0
    outer loop
      vertex -15.013 3.85469 0
      vertex -14.4115 5.70593 3
      vertex -14.4115 5.70593 0
    endloop
  endfacet
  facet normal -0.951057 0.309015 0
    outer loop
      vertex -14.4115 5.70593 3
      vertex -15.013 3.85469 0
      vertex -15.013 3.85469 3
    endloop
  endfacet
  facet normal 0.998027 -0.062779 0
    outer loop
      vertex 15.3778 -1.94267 3
      vertex 15.5 0 0
      vertex 15.5 0 3
    endloop
  endfacet
  facet normal 0.998027 -0.062779 0
    outer loop
      vertex 15.5 0 0
      vertex 15.3778 -1.94267 3
      vertex 15.3778 -1.94267 0
    endloop
  endfacet
  facet normal 0.844326 0.53583 0
    outer loop
      vertex 13.5828 7.46718 3
      vertex 12.5398 9.11067 0
      vertex 12.5398 9.11067 3
    endloop
  endfacet
  facet normal 0.844326 0.53583 0
    outer loop
      vertex 12.5398 9.11067 0
      vertex 13.5828 7.46718 3
      vertex 13.5828 7.46718 0
    endloop
  endfacet
  facet normal 0.368143 0.929769 -0
    outer loop
      vertex 6.59958 14.0248 0
      vertex 4.78976 14.7414 3
      vertex 6.59958 14.0248 3
    endloop
  endfacet
  facet normal 0.368143 0.929769 0
    outer loop
      vertex 4.78976 14.7414 3
      vertex 6.59958 14.0248 0
      vertex 4.78976 14.7414 0
    endloop
  endfacet
  facet normal -0.368143 0.929769 0
    outer loop
      vertex -4.78976 14.7414 0
      vertex -6.59958 14.0248 3
      vertex -4.78976 14.7414 3
    endloop
  endfacet
  facet normal -0.368143 0.929769 0
    outer loop
      vertex -6.59958 14.0248 3
      vertex -4.78976 14.7414 0
      vertex -6.59958 14.0248 0
    endloop
  endfacet
  facet normal -0.904843 0.425745 0
    outer loop
      vertex -14.4115 5.70593 0
      vertex -13.5828 7.46718 3
      vertex -13.5828 7.46718 0
    endloop
  endfacet
  facet normal -0.904843 0.425745 0
    outer loop
      vertex -13.5828 7.46718 3
      vertex -14.4115 5.70593 0
      vertex -14.4115 5.70593 3
    endloop
  endfacet
  facet normal 0 1 -0
    outer loop
      vertex 0.973252 15.4694 0
      vertex -0.973252 15.4694 3
      vertex 0.973252 15.4694 3
    endloop
  endfacet
  facet normal 0 1 0
    outer loop
      vertex -0.973252 15.4694 3
      vertex 0.973252 15.4694 0
      vertex -0.973252 15.4694 0
    endloop
  endfacet
  facet normal 0.481738 0.876315 -0
    outer loop
      vertex 8.30532 13.0871 0
      vertex 6.59958 14.0248 3
      vertex 8.30532 13.0871 3
    endloop
  endfacet
  facet normal 0.481738 0.876315 0
    outer loop
      vertex 6.59958 14.0248 3
      vertex 8.30532 13.0871 0
      vertex 6.59958 14.0248 0
    endloop
  endfacet
  facet normal -0.982281 0.187412 0
    outer loop
      vertex -15.3778 1.94267 0
      vertex -15.013 3.85469 3
      vertex -15.013 3.85469 0
    endloop
  endfacet
  facet normal -0.982281 0.187412 0
    outer loop
      vertex -15.013 3.85469 3
      vertex -15.3778 1.94267 0
      vertex -15.3778 1.94267 3
    endloop
  endfacet
  facet normal -0.770505 0.637434 0
    outer loop
      vertex -12.5398 9.11067 0
      vertex -11.299 10.6105 3
      vertex -11.299 10.6105 0
    endloop
  endfacet
  facet normal -0.770505 0.637434 0
    outer loop
      vertex -11.299 10.6105 3
      vertex -12.5398 9.11067 0
      vertex -12.5398 9.11067 3
    endloop
  endfacet
  facet normal -0.248702 0.96858 0
    outer loop
      vertex -2.90441 15.2255 0
      vertex -4.78976 14.7414 3
      vertex -2.90441 15.2255 3
    endloop
  endfacet
  facet normal -0.248702 0.96858 0
    outer loop
      vertex -4.78976 14.7414 3
      vertex -2.90441 15.2255 0
      vertex -4.78976 14.7414 0
    endloop
  endfacet
  facet normal -0.684557 0.728959 0
    outer loop
      vertex -9.88007 11.943 0
      vertex -11.299 10.6105 3
      vertex -9.88007 11.943 3
    endloop
  endfacet
  facet normal -0.684557 0.728959 0
    outer loop
      vertex -11.299 10.6105 3
      vertex -9.88007 11.943 0
      vertex -11.299 10.6105 0
    endloop
  endfacet
  facet normal 0.904843 -0.425745 0
    outer loop
      vertex 13.5828 -7.46718 3
      vertex 14.4115 -5.70593 0
      vertex 14.4115 -5.70593 3
    endloop
  endfacet
  facet normal 0.904843 -0.425745 0
    outer loop
      vertex 14.4115 -5.70593 0
      vertex 13.5828 -7.46718 3
      vertex 13.5828 -7.46718 0
    endloop
  endfacet
  facet normal 0.951057 0.309015 0
    outer loop
      vertex 15.013 3.85469 3
      vertex 14.4115 5.70593 0
      vertex 14.4115 5.70593 3
    endloop
  endfacet
  facet normal 0.951057 0.309015 0
    outer loop
      vertex 14.4115 5.70593 0
      vertex 15.013 3.85469 3
      vertex 15.013 3.85469 0
    endloop
  endfacet
  facet normal 0.684557 0.728959 -0
    outer loop
      vertex 11.299 10.6105 0
      vertex 9.88007 11.943 3
      vertex 11.299 10.6105 3
    endloop
  endfacet
  facet normal 0.684557 0.728959 0
    outer loop
      vertex 9.88007 11.943 3
      vertex 11.299 10.6105 0
      vertex 9.88007 11.943 0
    endloop
  endfacet
  facet normal 0.248702 0.96858 -0
    outer loop
      vertex 4.78976 14.7414 0
      vertex 2.90441 15.2255 3
      vertex 4.78976 14.7414 3
    endloop
  endfacet
  facet normal 0.248702 0.96858 0
    outer loop
      vertex 2.90441 15.2255 3
      vertex 4.78976 14.7414 0
      vertex 2.90441 15.2255 0
    endloop
  endfacet
  facet normal 0.125302 0.992119 -0
    outer loop
      vertex 2.90441 15.2255 0
      vertex 0.973252 15.4694 3
      vertex 2.90441 15.2255 3
    endloop
  endfacet
  facet normal 0.125302 0.992119 0
    outer loop
      vertex 0.973252 15.4694 3
      vertex 2.90441 15.2255 0
      vertex 0.973252 15.4694 0
    endloop
  endfacet
  facet normal 0.587778 0.809023 -0
    outer loop
      vertex 9.88007 11.943 0
      vertex 8.30532 13.0871 3
      vertex 9.88007 11.943 3
    endloop
  endfacet
  facet normal 0.587778 0.809023 0
    outer loop
      vertex 8.30532 13.0871 3
      vertex 9.88007 11.943 0
      vertex 8.30532 13.0871 0
    endloop
  endfacet
  facet normal -0.998027 0.062779 0
    outer loop
      vertex -15.5 0 0
      vertex -15.3778 1.94267 3
      vertex -15.3778 1.94267 0
    endloop
  endfacet
  facet normal -0.998027 0.062779 0
    outer loop
      vertex -15.3778 1.94267 3
      vertex -15.5 0 0
      vertex -15.5 0 3
    endloop
  endfacet
  facet normal -0.844326 0.53583 0
    outer loop
      vertex -13.5828 7.46718 0
      vertex -12.5398 9.11067 3
      vertex -12.5398 9.11067 0
    endloop
  endfacet
  facet normal -0.844326 0.53583 0
    outer loop
      vertex -12.5398 9.11067 3
      vertex -13.5828 7.46718 0
      vertex -13.5828 7.46718 3
    endloop
  endfacet
  facet normal -0.125302 0.992119 0
    outer loop
      vertex -0.973252 15.4694 0
      vertex -2.90441 15.2255 3
      vertex -0.973252 15.4694 3
    endloop
  endfacet
  facet normal -0.125302 0.992119 0
    outer loop
      vertex -2.90441 15.2255 3
      vertex -0.973252 15.4694 0
      vertex -2.90441 15.2255 0
    endloop
  endfacet
  facet normal -0.587778 0.809023 0
    outer loop
      vertex -8.30532 13.0871 0
      vertex -9.88007 11.943 3
      vertex -8.30532 13.0871 3
    endloop
  endfacet
  facet normal -0.587778 0.809023 0
    outer loop
      vertex -9.88007 11.943 3
      vertex -8.30532 13.0871 0
      vertex -9.88007 11.943 0
    endloop
  endfacet
  facet normal -0.481738 0.876315 0
    outer loop
      vertex -6.59958 14.0248 0
      vertex -8.30532 13.0871 3
      vertex -6.59958 14.0248 3
    endloop
  endfacet
  facet normal -0.481738 0.876315 0
    outer loop
      vertex -8.30532 13.0871 3
      vertex -6.59958 14.0248 0
      vertex -8.30532 13.0871 0
    endloop
  endfacet
  facet normal 0.998027 0.062779 0
    outer loop
      vertex 15.5 0 3
      vertex 15.3778 1.94267 0
      vertex 15.3778 1.94267 3
    endloop
  endfacet
  facet normal 0.998027 0.062779 0
    outer loop
      vertex 15.3778 1.94267 0
      vertex 15.5 0 3
      vertex 15.5 0 0
    endloop
  endfacet
  facet normal 0.951057 -0.309015 0
    outer loop
      vertex 14.4115 -5.70593 3
      vertex 15.013 -3.85469 0
      vertex 15.013 -3.85469 3
    endloop
  endfacet
  facet normal 0.951057 -0.309015 0
    outer loop
      vertex 15.013 -3.85469 0
      vertex 14.4115 -5.70593 3
      vertex 14.4115 -5.70593 0
    endloop
  endfacet
  facet normal -0.904843 -0.425745 0
    outer loop
      vertex -13.5828 -7.46718 0
      vertex -14.4115 -5.70593 3
      vertex -14.4115 -5.70593 0
    endloop
  endfacet
  facet normal -0.904843 -0.425745 0
    outer loop
      vertex -14.4115 -5.70593 3
      vertex -13.5828 -7.46718 0
      vertex -13.5828 -7.46718 3
    endloop
  endfacet
  facet normal 0.125302 -0.992119 0
    outer loop
      vertex 0.973252 -15.4694 0
      vertex 2.90441 -15.2255 3
      vertex 0.973252 -15.4694 3
    endloop
  endfacet
  facet normal 0.125302 -0.992119 0
    outer loop
      vertex 2.90441 -15.2255 3
      vertex 0.973252 -15.4694 0
      vertex 2.90441 -15.2255 0
    endloop
  endfacet
  facet normal 0.368143 -0.929769 0
    outer loop
      vertex 4.78976 -14.7414 0
      vertex 6.59958 -14.0248 3
      vertex 4.78976 -14.7414 3
    endloop
  endfacet
  facet normal 0.368143 -0.929769 0
    outer loop
      vertex 6.59958 -14.0248 3
      vertex 4.78976 -14.7414 0
      vertex 6.59958 -14.0248 0
    endloop
  endfacet
  facet normal 0.982281 0.187412 0
    outer loop
      vertex 15.3778 1.94267 3
      vertex 15.013 3.85469 0
      vertex 15.013 3.85469 3
    endloop
  endfacet
  facet normal 0.982281 0.187412 0
    outer loop
      vertex 15.013 3.85469 0
      vertex 15.3778 1.94267 3
      vertex 15.3778 1.94267 0
    endloop
  endfacet
  facet normal 0.770505 0.637434 0
    outer loop
      vertex 12.5398 9.11067 3
      vertex 11.299 10.6105 0
      vertex 11.299 10.6105 3
    endloop
  endfacet
  facet normal 0.770505 0.637434 0
    outer loop
      vertex 11.299 10.6105 0
      vertex 12.5398 9.11067 3
      vertex 12.5398 9.11067 0
    endloop
  endfacet
  facet normal 0 0 1
    outer loop
      vertex 11.5 0 3
      vertex 15.5 0 3
      vertex 15.3778 1.94267 3
    endloop
  endfacet
  facet normal 0 0 1
    outer loop
      vertex 11.4093 1.44133 3
      vertex 15.3778 1.94267 3
      vertex 15.013 3.85469 3
    endloop
  endfacet
  facet normal 0 0 1
    outer loop
      vertex 15.5 0 3
      vertex 11.5 0 3
      vertex 15.3778 -1.94267 3
    endloop
  endfacet
  facet normal 0 0 1
    outer loop
      vertex 11.1387 2.85993 3
      vertex 15.013 3.85469 3
      vertex 14.4115 5.70593 3
    endloop
  endfacet
  facet normal -0 0 1
    outer loop
      vertex 11.4093 -1.44133 3
      vertex 15.3778 -1.94267 3
      vertex 11.5 0 3
    endloop
  endfacet
  facet normal 0 0 1
    outer loop
      vertex 10.6924 4.23343 3
      vertex 14.4115 5.70593 3
      vertex 13.5828 7.46718 3
    endloop
  endfacet
  facet normal 0 0 1
    outer loop
      vertex 15.3778 -1.94267 3
      vertex 11.4093 -1.44133 3
      vertex 15.013 -3.85469 3
    endloop
  endfacet
  facet normal 0 0 1
    outer loop
      vertex 10.0775 5.54017 3
      vertex 13.5828 7.46718 3
      vertex 12.5398 9.11067 3
    endloop
  endfacet
  facet normal -0 0 1
    outer loop
      vertex 11.1387 -2.85993 3
      vertex 15.013 -3.85469 3
      vertex 11.4093 -1.44133 3
    endloop
  endfacet
  facet normal 0 0 1
    outer loop
      vertex 15.013 -3.85469 3
      vertex 11.1387 -2.85993 3
      vertex 14.4115 -5.70593 3
    endloop
  endfacet
  facet normal 0 0 1
    outer loop
      vertex 15.3778 1.94267 3
      vertex 11.4093 1.44133 3
      vertex 11.5 0 3
    endloop
  endfacet
  facet normal 0 0 1
    outer loop
      vertex 9.30369 6.75953 3
      vertex 12.5398 9.11067 3
      vertex 11.299 10.6105 3
    endloop
  endfacet
  facet normal 0 0 1
    outer loop
      vertex 15.013 3.85469 3
      vertex 11.1387 2.85993 3
      vertex 11.4093 1.44133 3
    endloop
  endfacet
  facet normal 0 0 1
    outer loop
      vertex 14.4115 5.70593 3
      vertex 10.6924 4.23343 3
      vertex 11.1387 2.85993 3
    endloop
  endfacet
  facet normal 0 0 1
    outer loop
      vertex 13.5828 7.46718 3
      vertex 10.0775 5.54017 3
      vertex 10.6924 4.23343 3
    endloop
  endfacet
  facet normal 0 0 1
    outer loop
      vertex 8.38314 7.87229 3
      vertex 11.299 10.6105 3
      vertex 9.88007 11.943 3
    endloop
  endfacet
  facet normal 0 0 1
    outer loop
      vertex 12.5398 9.11067 3
      vertex 9.30369 6.75953 3
      vertex 10.0775 5.54017 3
    endloop
  endfacet
  facet normal 0 0 1
    outer loop
      vertex 11.299 10.6105 3
      vertex 8.38314 7.87229 3
      vertex 9.30369 6.75953 3
    endloop
  endfacet
  facet normal 0 0 1
    outer loop
      vertex 7.33038 8.8609 3
      vertex 9.88007 11.943 3
      vertex 8.30532 13.0871 3
    endloop
  endfacet
  facet normal 0 0 1
    outer loop
      vertex 9.88007 11.943 3
      vertex 7.33038 8.8609 3
      vertex 8.38314 7.87229 3
    endloop
  endfacet
  facet normal 0 0 1
    outer loop
      vertex 6.16201 9.70977 3
      vertex 8.30532 13.0871 3
      vertex 6.59958 14.0248 3
    endloop
  endfacet
  facet normal 0 0 1
    outer loop
      vertex 8.30532 13.0871 3
      vertex 6.16201 9.70977 3
      vertex 7.33038 8.8609 3
    endloop
  endfacet
  facet normal 0 0 1
    outer loop
      vertex 6.59958 14.0248 3
      vertex 4.89646 10.4055 3
      vertex 6.16201 9.70977 3
    endloop
  endfacet
  facet normal 0 0 1
    outer loop
      vertex 4.78976 14.7414 3
      vertex 4.89646 10.4055 3
      vertex 6.59958 14.0248 3
    endloop
  endfacet
  facet normal 0 0 1
    outer loop
      vertex 4.78976 14.7414 3
      vertex 3.55369 10.9371 3
      vertex 4.89646 10.4055 3
    endloop
  endfacet
  facet normal 0 0 1
    outer loop
      vertex 2.90441 15.2255 3
      vertex 3.55369 10.9371 3
      vertex 4.78976 14.7414 3
    endloop
  endfacet
  facet normal 0 0 1
    outer loop
      vertex 2.90441 15.2255 3
      vertex 2.15488 11.2963 3
      vertex 3.55369 10.9371 3
    endloop
  endfacet
  facet normal 0 0 1
    outer loop
      vertex 0.973252 15.4694 3
      vertex 2.15488 11.2963 3
      vertex 2.90441 15.2255 3
    endloop
  endfacet
  facet normal 0 0 1
    outer loop
      vertex 0.973252 15.4694 3
      vertex 0.722091 11.4773 3
      vertex 2.15488 11.2963 3
    endloop
  endfacet
  facet normal 0 0 1
    outer loop
      vertex 0.973252 15.4694 3
      vertex -0.722091 11.4773 3
      vertex 0.722091 11.4773 3
    endloop
  endfacet
  facet normal -0 0 1
    outer loop
      vertex -0.973252 15.4694 3
      vertex -0.722091 11.4773 3
      vertex 0.973252 15.4694 3
    endloop
  endfacet
  facet normal 0 0 1
    outer loop
      vertex -0.973252 15.4694 3
      vertex -2.15488 11.2963 3
      vertex -0.722091 11.4773 3
    endloop
  endfacet
  facet normal -0 0 1
    outer loop
      vertex -2.90441 15.2255 3
      vertex -2.15488 11.2963 3
      vertex -0.973252 15.4694 3
    endloop
  endfacet
  facet normal 0 0 1
    outer loop
      vertex -2.90441 15.2255 3
      vertex -3.55369 10.9371 3
      vertex -2.15488 11.2963 3
    endloop
  endfacet
  facet normal -0 0 1
    outer loop
      vertex -4.78976 14.7414 3
      vertex -3.55369 10.9371 3
      vertex -2.90441 15.2255 3
    endloop
  endfacet
  facet normal 0 0 1
    outer loop
      vertex -4.78976 14.7414 3
      vertex -4.89646 10.4055 3
      vertex -3.55369 10.9371 3
    endloop
  endfacet
  facet normal -0 0 1
    outer loop
      vertex -6.59958 14.0248 3
      vertex -4.89646 10.4055 3
      vertex -4.78976 14.7414 3
    endloop
  endfacet
  facet normal 0 0 1
    outer loop
      vertex -4.89646 10.4055 3
      vertex -6.59958 14.0248 3
      vertex -6.16201 9.70977 3
    endloop
  endfacet
  facet normal -0 0 1
    outer loop
      vertex -8.30532 13.0871 3
      vertex -6.16201 9.70977 3
      vertex -6.59958 14.0248 3
    endloop
  endfacet
  facet normal 0 0 1
    outer loop
      vertex -6.16201 9.70977 3
      vertex -8.30532 13.0871 3
      vertex -7.33038 8.8609 3
    endloop
  endfacet
  facet normal -0 0 1
    outer loop
      vertex -9.88007 11.943 3
      vertex -7.33038 8.8609 3
      vertex -8.30532 13.0871 3
    endloop
  endfacet
  facet normal 0 0 1
    outer loop
      vertex -7.33038 8.8609 3
      vertex -9.88007 11.943 3
      vertex -8.38314 7.87229 3
    endloop
  endfacet
  facet normal -0 0 1
    outer loop
      vertex -11.299 10.6105 3
      vertex -8.38314 7.87229 3
      vertex -9.88007 11.943 3
    endloop
  endfacet
  facet normal 0 0 1
    outer loop
      vertex -8.38314 7.87229 3
      vertex -11.299 10.6105 3
      vertex -9.30369 6.75953 3
    endloop
  endfacet
  facet normal -0 0 1
    outer loop
      vertex -12.5398 9.11067 3
      vertex -9.30369 6.75953 3
      vertex -11.299 10.6105 3
    endloop
  endfacet
  facet normal 0 0 1
    outer loop
      vertex -9.30369 6.75953 3
      vertex -12.5398 9.11067 3
      vertex -10.0775 5.54017 3
    endloop
  endfacet
  facet normal -0 0 1
    outer loop
      vertex -13.5828 7.46718 3
      vertex -10.0775 5.54017 3
      vertex -12.5398 9.11067 3
    endloop
  endfacet
  facet normal 0 0 1
    outer loop
      vertex -10.0775 5.54017 3
      vertex -13.5828 7.46718 3
      vertex -10.6924 4.23343 3
    endloop
  endfacet
  facet normal -0 0 1
    outer loop
      vertex -14.4115 5.70593 3
      vertex -10.6924 4.23343 3
      vertex -13.5828 7.46718 3
    endloop
  endfacet
  facet normal 0 0 1
    outer loop
      vertex -10.6924 4.23343 3
      vertex -14.4115 5.70593 3
      vertex -11.1387 2.85993 3
    endloop
  endfacet
  facet normal -0 0 1
    outer loop
      vertex 10.6924 -4.23343 3
      vertex 14.4115 -5.70593 3
      vertex 11.1387 -2.85993 3
    endloop
  endfacet
  facet normal 0 0 1
    outer loop
      vertex 14.4115 -5.70593 3
      vertex 10.6924 -4.23343 3
      vertex 13.5828 -7.46718 3
    endloop
  endfacet
  facet normal -0 0 1
    outer loop
      vertex 10.0775 -5.54017 3
      vertex 13.5828 -7.46718 3
      vertex 10.6924 -4.23343 3
    endloop
  endfacet
  facet normal 0 0 1
    outer loop
      vertex 13.5828 -7.46718 3
      vertex 10.0775 -5.54017 3
      vertex 12.5398 -9.11067 3
    endloop
  endfacet
  facet normal -0 0 1
    outer loop
      vertex 9.30369 -6.75953 3
      vertex 12.5398 -9.11067 3
      vertex 10.0775 -5.54017 3
    endloop
  endfacet
  facet normal 0 0 1
    outer loop
      vertex 12.5398 -9.11067 3
      vertex 9.30369 -6.75953 3
      vertex 11.299 -10.6105 3
    endloop
  endfacet
  facet normal -0 0 1
    outer loop
      vertex 8.38314 -7.87229 3
      vertex 11.299 -10.6105 3
      vertex 9.30369 -6.75953 3
    endloop
  endfacet
  facet normal 0 0 1
    outer loop
      vertex 11.299 -10.6105 3
      vertex 8.38314 -7.87229 3
      vertex 9.88007 -11.943 3
    endloop
  endfacet
  facet normal -0 0 1
    outer loop
      vertex 7.33038 -8.8609 3
      vertex 9.88007 -11.943 3
      vertex 8.38314 -7.87229 3
    endloop
  endfacet
  facet normal 0 0 1
    outer loop
      vertex 9.88007 -11.943 3
      vertex 7.33038 -8.8609 3
      vertex 8.30532 -13.0871 3
    endloop
  endfacet
  facet normal -0 0 1
    outer loop
      vertex 6.16201 -9.70977 3
      vertex 8.30532 -13.0871 3
      vertex 7.33038 -8.8609 3
    endloop
  endfacet
  facet normal 0 0 1
    outer loop
      vertex 8.30532 -13.0871 3
      vertex 6.16201 -9.70977 3
      vertex 6.59958 -14.0248 3
    endloop
  endfacet
  facet normal -0 0 1
    outer loop
      vertex 4.89646 -10.4055 3
      vertex 6.59958 -14.0248 3
      vertex 6.16201 -9.70977 3
    endloop
  endfacet
  facet normal 0 0 1
    outer loop
      vertex 4.89646 -10.4055 3
      vertex 4.78976 -14.7414 3
      vertex 6.59958 -14.0248 3
    endloop
  endfacet
  facet normal -0 0 1
    outer loop
      vertex 3.55369 -10.9371 3
      vertex 4.78976 -14.7414 3
      vertex 4.89646 -10.4055 3
    endloop
  endfacet
  facet normal 0 0 1
    outer loop
      vertex 3.55369 -10.9371 3
      vertex 2.90441 -15.2255 3
      vertex 4.78976 -14.7414 3
    endloop
  endfacet
  facet normal -0 0 1
    outer loop
      vertex 2.15488 -11.2963 3
      vertex 2.90441 -15.2255 3
      vertex 3.55369 -10.9371 3
    endloop
  endfacet
  facet normal 0 0 1
    outer loop
      vertex 2.15488 -11.2963 3
      vertex 0.973252 -15.4694 3
      vertex 2.90441 -15.2255 3
    endloop
  endfacet
  facet normal -0 0 1
    outer loop
      vertex 0.722091 -11.4773 3
      vertex 0.973252 -15.4694 3
      vertex 2.15488 -11.2963 3
    endloop
  endfacet
  facet normal -0 0 1
    outer loop
      vertex -0.722091 -11.4773 3
      vertex 0.973252 -15.4694 3
      vertex 0.722091 -11.4773 3
    endloop
  endfacet
  facet normal 0 0 1
    outer loop
      vertex -0.722091 -11.4773 3
      vertex -0.973252 -15.4694 3
      vertex 0.973252 -15.4694 3
    endloop
  endfacet
  facet normal 0 0 1
    outer loop
      vertex -2.15488 -11.2963 3
      vertex -0.973252 -15.4694 3
      vertex -0.722091 -11.4773 3
    endloop
  endfacet
  facet normal 0 0 1
    outer loop
      vertex -2.15488 -11.2963 3
      vertex -2.90441 -15.2255 3
      vertex -0.973252 -15.4694 3
    endloop
  endfacet
  facet normal 0 0 1
    outer loop
      vertex -3.55369 -10.9371 3
      vertex -2.90441 -15.2255 3
      vertex -2.15488 -11.2963 3
    endloop
  endfacet
  facet normal 0 0 1
    outer loop
      vertex -3.55369 -10.9371 3
      vertex -4.78976 -14.7414 3
      vertex -2.90441 -15.2255 3
    endloop
  endfacet
  facet normal 0 0 1
    outer loop
      vertex -4.89646 -10.4055 3
      vertex -4.78976 -14.7414 3
      vertex -3.55369 -10.9371 3
    endloop
  endfacet
  facet normal 0 0 1
    outer loop
      vertex -6.59958 -14.0248 3
      vertex -4.89646 -10.4055 3
      vertex -6.16201 -9.70977 3
    endloop
  endfacet
  facet normal 0 0 1
    outer loop
      vertex -4.89646 -10.4055 3
      vertex -6.59958 -14.0248 3
      vertex -4.78976 -14.7414 3
    endloop
  endfacet
  facet normal 0 0 1
    outer loop
      vertex -8.30532 -13.0871 3
      vertex -6.16201 -9.70977 3
      vertex -7.33038 -8.8609 3
    endloop
  endfacet
  facet normal 0 0 1
    outer loop
      vertex -6.16201 -9.70977 3
      vertex -8.30532 -13.0871 3
      vertex -6.59958 -14.0248 3
    endloop
  endfacet
  facet normal 0 0 1
    outer loop
      vertex -9.88007 -11.943 3
      vertex -7.33038 -8.8609 3
      vertex -8.38314 -7.87229 3
    endloop
  endfacet
  facet normal 0 0 1
    outer loop
      vertex -11.299 -10.6105 3
      vertex -8.38314 -7.87229 3
      vertex -9.30369 -6.75953 3
    endloop
  endfacet
  facet normal 0 0 1
    outer loop
      vertex -7.33038 -8.8609 3
      vertex -9.88007 -11.943 3
      vertex -8.30532 -13.0871 3
    endloop
  endfacet
  facet normal 0 0 1
    outer loop
      vertex -12.5398 -9.11067 3
      vertex -9.30369 -6.75953 3
      vertex -10.0775 -5.54017 3
    endloop
  endfacet
  facet normal 0 0 1
    outer loop
      vertex -13.5828 -7.46718 3
      vertex -10.0775 -5.54017 3
      vertex -10.6924 -4.23343 3
    endloop
  endfacet
  facet normal 0 0 1
    outer loop
      vertex -14.4115 -5.70593 3
      vertex -10.6924 -4.23343 3
      vertex -11.1387 -2.85993 3
    endloop
  endfacet
  facet normal 0 0 1
    outer loop
      vertex -8.38314 -7.87229 3
      vertex -11.299 -10.6105 3
      vertex -9.88007 -11.943 3
    endloop
  endfacet
  facet normal 0 0 1
    outer loop
      vertex -15.013 -3.85469 3
      vertex -11.1387 -2.85993 3
      vertex -11.4093 -1.44133 3
    endloop
  endfacet
  facet normal 0 0 1
    outer loop
      vertex -15.3778 -1.94267 3
      vertex -11.4093 -1.44133 3
      vertex -11.5 0 3
    endloop
  endfacet
  facet normal -0 0 1
    outer loop
      vertex -15.013 3.85469 3
      vertex -11.1387 2.85993 3
      vertex -14.4115 5.70593 3
    endloop
  endfacet
  facet normal 0 0 1
    outer loop
      vertex -9.30369 -6.75953 3
      vertex -12.5398 -9.11067 3
      vertex -11.299 -10.6105 3
    endloop
  endfacet
  facet normal 0 0 1
    outer loop
      vertex -11.1387 2.85993 3
      vertex -15.013 3.85469 3
      vertex -11.4093 1.44133 3
    endloop
  endfacet
  facet normal 0 0 1
    outer loop
      vertex -10.0775 -5.54017 3
      vertex -13.5828 -7.46718 3
      vertex -12.5398 -9.11067 3
    endloop
  endfacet
  facet normal -0 0 1
    outer loop
      vertex -15.3778 1.94267 3
      vertex -11.4093 1.44133 3
      vertex -15.013 3.85469 3
    endloop
  endfacet
  facet normal 0 0 1
    outer loop
      vertex -10.6924 -4.23343 3
      vertex -14.4115 -5.70593 3
      vertex -13.5828 -7.46718 3
    endloop
  endfacet
  facet normal 0 0 1
    outer loop
      vertex -11.4093 1.44133 3
      vertex -15.3778 1.94267 3
      vertex -11.5 0 3
    endloop
  endfacet
  facet normal 0 0 1
    outer loop
      vertex -11.1387 -2.85993 3
      vertex -15.013 -3.85469 3
      vertex -14.4115 -5.70593 3
    endloop
  endfacet
  facet normal 0 0 1
    outer loop
      vertex -15.5 0 3
      vertex -11.5 0 3
      vertex -15.3778 1.94267 3
    endloop
  endfacet
  facet normal 0 0 1
    outer loop
      vertex -11.4093 -1.44133 3
      vertex -15.3778 -1.94267 3
      vertex -15.013 -3.85469 3
    endloop
  endfacet
  facet normal 0 0 1
    outer loop
      vertex -11.5 0 3
      vertex -15.5 0 3
      vertex -15.3778 -1.94267 3
    endloop
  endfacet
  facet normal 0.982281 -0.187412 0
    outer loop
      vertex 15.013 -3.85469 3
      vertex 15.3778 -1.94267 0
      vertex 15.3778 -1.94267 3
    endloop
  endfacet
  facet normal 0.982281 -0.187412 0
    outer loop
      vertex 15.3778 -1.94267 0
      vertex 15.013 -3.85469 3
      vertex 15.013 -3.85469 0
    endloop
  endfacet
  facet normal 0 -1 0
    outer loop
      vertex -0.973252 -15.4694 0
      vertex 0.973252 -15.4694 3
      vertex -0.973252 -15.4694 3
    endloop
  endfacet
  facet normal 0 -1 -0
    outer loop
      vertex 0.973252 -15.4694 3
      vertex -0.973252 -15.4694 0
      vertex 0.973252 -15.4694 0
    endloop
  endfacet
  facet normal -0.998027 -0.062779 0
    outer loop
      vertex -15.3778 -1.94267 0
      vertex -15.5 0 3
      vertex -15.5 0 0
    endloop
  endfacet
  facet normal -0.998027 -0.062779 0
    outer loop
      vertex -15.5 0 3
      vertex -15.3778 -1.94267 0
      vertex -15.3778 -1.94267 3
    endloop
  endfacet
  facet normal -0.951057 -0.309015 0
    outer loop
      vertex -14.4115 -5.70593 0
      vertex -15.013 -3.85469 3
      vertex -15.013 -3.85469 0
    endloop
  endfacet
  facet normal -0.951057 -0.309015 0
    outer loop
      vertex -15.013 -3.85469 3
      vertex -14.4115 -5.70593 0
      vertex -14.4115 -5.70593 3
    endloop
  endfacet
  facet normal 0.684557 -0.728959 0
    outer loop
      vertex 9.88007 -11.943 0
      vertex 11.299 -10.6105 3
      vertex 9.88007 -11.943 3
    endloop
  endfacet
  facet normal 0.684557 -0.728959 0
    outer loop
      vertex 11.299 -10.6105 3
      vertex 9.88007 -11.943 0
      vertex 11.299 -10.6105 0
    endloop
  endfacet
  facet normal 0.844326 -0.53583 0
    outer loop
      vertex 12.5398 -9.11067 3
      vertex 13.5828 -7.46718 0
      vertex 13.5828 -7.46718 3
    endloop
  endfacet
  facet normal 0.844326 -0.53583 0
    outer loop
      vertex 13.5828 -7.46718 0
      vertex 12.5398 -9.11067 3
      vertex 12.5398 -9.11067 0
    endloop
  endfacet
  facet normal 0.248702 -0.96858 0
    outer loop
      vertex 2.90441 -15.2255 0
      vertex 4.78976 -14.7414 3
      vertex 2.90441 -15.2255 3
    endloop
  endfacet
  facet normal 0.248702 -0.96858 0
    outer loop
      vertex 4.78976 -14.7414 3
      vertex 2.90441 -15.2255 0
      vertex 4.78976 -14.7414 0
    endloop
  endfacet
  facet normal -0.368143 -0.929769 0
    outer loop
      vertex -6.59958 -14.0248 0
      vertex -4.78976 -14.7414 3
      vertex -6.59958 -14.0248 3
    endloop
  endfacet
  facet normal -0.368143 -0.929769 -0
    outer loop
      vertex -4.78976 -14.7414 3
      vertex -6.59958 -14.0248 0
      vertex -4.78976 -14.7414 0
    endloop
  endfacet
  facet normal -0.248702 -0.96858 0
    outer loop
      vertex -4.78976 -14.7414 0
      vertex -2.90441 -15.2255 3
      vertex -4.78976 -14.7414 3
    endloop
  endfacet
  facet normal -0.248702 -0.96858 -0
    outer loop
      vertex -2.90441 -15.2255 3
      vertex -4.78976 -14.7414 0
      vertex -2.90441 -15.2255 0
    endloop
  endfacet
  facet normal -0.844326 -0.53583 0
    outer loop
      vertex -12.5398 -9.11067 0
      vertex -13.5828 -7.46718 3
      vertex -13.5828 -7.46718 0
    endloop
  endfacet
  facet normal -0.844326 -0.53583 0
    outer loop
      vertex -13.5828 -7.46718 3
      vertex -12.5398 -9.11067 0
      vertex -12.5398 -9.11067 3
    endloop
  endfacet
  facet normal 0 0 -1
    outer loop
      vertex 11.5 0 0
      vertex 15.5 0 0
      vertex 15.3778 -1.94267 0
    endloop
  endfacet
  facet normal 0 0 -1
    outer loop
      vertex 11.4093 -1.44133 0
      vertex 15.3778 -1.94267 0
      vertex 15.013 -3.85469 0
    endloop
  endfacet
  facet normal 0 0 -1
    outer loop
      vertex 15.5 0 0
      vertex 11.5 0 0
      vertex 15.3778 1.94267 0
    endloop
  endfacet
  facet normal 0 0 -1
    outer loop
      vertex 11.1387 -2.85993 0
      vertex 15.013 -3.85469 0
      vertex 14.4115 -5.70593 0
    endloop
  endfacet
  facet normal 0 0 -1
    outer loop
      vertex 11.4093 1.44133 0
      vertex 15.3778 1.94267 0
      vertex 11.5 0 0
    endloop
  endfacet
  facet normal 0 0 -1
    outer loop
      vertex 10.6924 -4.23343 0
      vertex 14.4115 -5.70593 0
      vertex 13.5828 -7.46718 0
    endloop
  endfacet
  facet normal -0 0 -1
    outer loop
      vertex 15.3778 1.94267 0
      vertex 11.4093 1.44133 0
      vertex 15.013 3.85469 0
    endloop
  endfacet
  facet normal 0 0 -1
    outer loop
      vertex 10.0775 -5.54017 0
      vertex 13.5828 -7.46718 0
      vertex 12.5398 -9.11067 0
    endloop
  endfacet
  facet normal 0 0 -1
    outer loop
      vertex 11.1387 2.85993 0
      vertex 15.013 3.85469 0
      vertex 11.4093 1.44133 0
    endloop
  endfacet
  facet normal -0 0 -1
    outer loop
      vertex 15.013 3.85469 0
      vertex 11.1387 2.85993 0
      vertex 14.4115 5.70593 0
    endloop
  endfacet
  facet normal 0 0 -1
    outer loop
      vertex 15.3778 -1.94267 0
      vertex 11.4093 -1.44133 0
      vertex 11.5 0 0
    endloop
  endfacet
  facet normal 0 0 -1
    outer loop
      vertex 9.30369 -6.75953 0
      vertex 12.5398 -9.11067 0
      vertex 11.299 -10.6105 0
    endloop
  endfacet
  facet normal 0 0 -1
    outer loop
      vertex 15.013 -3.85469 0
      vertex 11.1387 -2.85993 0
      vertex 11.4093 -1.44133 0
    endloop
  endfacet
  facet normal 0 0 -1
    outer loop
      vertex 14.4115 -5.70593 0
      vertex 10.6924 -4.23343 0
      vertex 11.1387 -2.85993 0
    endloop
  endfacet
  facet normal 0 0 -1
    outer loop
      vertex 13.5828 -7.46718 0
      vertex 10.0775 -5.54017 0
      vertex 10.6924 -4.23343 0
    endloop
  endfacet
  facet normal 0 0 -1
    outer loop
      vertex 8.38314 -7.87229 0
      vertex 11.299 -10.6105 0
      vertex 9.88007 -11.943 0
    endloop
  endfacet
  facet normal 0 0 -1
    outer loop
      vertex 12.5398 -9.11067 0
      vertex 9.30369 -6.75953 0
      vertex 10.0775 -5.54017 0
    endloop
  endfacet
  facet normal 0 0 -1
    outer loop
      vertex 11.299 -10.6105 0
      vertex 8.38314 -7.87229 0
      vertex 9.30369 -6.75953 0
    endloop
  endfacet
  facet normal 0 0 -1
    outer loop
      vertex 7.33038 -8.8609 0
      vertex 9.88007 -11.943 0
      vertex 8.30532 -13.0871 0
    endloop
  endfacet
  facet normal 0 0 -1
    outer loop
      vertex 9.88007 -11.943 0
      vertex 7.33038 -8.8609 0
      vertex 8.38314 -7.87229 0
    endloop
  endfacet
  facet normal 0 0 -1
    outer loop
      vertex 6.16201 -9.70977 0
      vertex 8.30532 -13.0871 0
      vertex 6.59958 -14.0248 0
    endloop
  endfacet
  facet normal 0 0 -1
    outer loop
      vertex 8.30532 -13.0871 0
      vertex 6.16201 -9.70977 0
      vertex 7.33038 -8.8609 0
    endloop
  endfacet
  facet normal 0 0 -1
    outer loop
      vertex 6.59958 -14.0248 0
      vertex 4.89646 -10.4055 0
      vertex 6.16201 -9.70977 0
    endloop
  endfacet
  facet normal 0 0 -1
    outer loop
      vertex 4.78976 -14.7414 0
      vertex 4.89646 -10.4055 0
      vertex 6.59958 -14.0248 0
    endloop
  endfacet
  facet normal 0 0 -1
    outer loop
      vertex 4.78976 -14.7414 0
      vertex 3.55369 -10.9371 0
      vertex 4.89646 -10.4055 0
    endloop
  endfacet
  facet normal 0 0 -1
    outer loop
      vertex 2.90441 -15.2255 0
      vertex 3.55369 -10.9371 0
      vertex 4.78976 -14.7414 0
    endloop
  endfacet
  facet normal 0 0 -1
    outer loop
      vertex 2.90441 -15.2255 0
      vertex 2.15488 -11.2963 0
      vertex 3.55369 -10.9371 0
    endloop
  endfacet
  facet normal 0 0 -1
    outer loop
      vertex 0.973252 -15.4694 0
      vertex 2.15488 -11.2963 0
      vertex 2.90441 -15.2255 0
    endloop
  endfacet
  facet normal 0 0 -1
    outer loop
      vertex 0.973252 -15.4694 0
      vertex 0.722091 -11.4773 0
      vertex 2.15488 -11.2963 0
    endloop
  endfacet
  facet normal 0 0 -1
    outer loop
      vertex 0.973252 -15.4694 0
      vertex -0.722091 -11.4773 0
      vertex 0.722091 -11.4773 0
    endloop
  endfacet
  facet normal 0 0 -1
    outer loop
      vertex -0.973252 -15.4694 0
      vertex -0.722091 -11.4773 0
      vertex 0.973252 -15.4694 0
    endloop
  endfacet
  facet normal 0 0 -1
    outer loop
      vertex -0.973252 -15.4694 0
      vertex -2.15488 -11.2963 0
      vertex -0.722091 -11.4773 0
    endloop
  endfacet
  facet normal 0 0 -1
    outer loop
      vertex -2.90441 -15.2255 0
      vertex -2.15488 -11.2963 0
      vertex -0.973252 -15.4694 0
    endloop
  endfacet
  facet normal 0 0 -1
    outer loop
      vertex -2.90441 -15.2255 0
      vertex -3.55369 -10.9371 0
      vertex -2.15488 -11.2963 0
    endloop
  endfacet
  facet normal 0 0 -1
    outer loop
      vertex -4.78976 -14.7414 0
      vertex -3.55369 -10.9371 0
      vertex -2.90441 -15.2255 0
    endloop
  endfacet
  facet normal 0 0 -1
    outer loop
      vertex -4.78976 -14.7414 0
      vertex -4.89646 -10.4055 0
      vertex -3.55369 -10.9371 0
    endloop
  endfacet
  facet normal 0 0 -1
    outer loop
      vertex -6.59958 -14.0248 0
      vertex -4.89646 -10.4055 0
      vertex -4.78976 -14.7414 0
    endloop
  endfacet
  facet normal -0 0 -1
    outer loop
      vertex -4.89646 -10.4055 0
      vertex -6.59958 -14.0248 0
      vertex -6.16201 -9.70977 0
    endloop
  endfacet
  facet normal 0 0 -1
    outer loop
      vertex -8.30532 -13.0871 0
      vertex -6.16201 -9.70977 0
      vertex -6.59958 -14.0248 0
    endloop
  endfacet
  facet normal -0 0 -1
    outer loop
      vertex -6.16201 -9.70977 0
      vertex -8.30532 -13.0871 0
      vertex -7.33038 -8.8609 0
    endloop
  endfacet
  facet normal 0 0 -1
    outer loop
      vertex -9.88007 -11.943 0
      vertex -7.33038 -8.8609 0
      vertex -8.30532 -13.0871 0
    endloop
  endfacet
  facet normal -0 0 -1
    outer loop
      vertex -7.33038 -8.8609 0
      vertex -9.88007 -11.943 0
      vertex -8.38314 -7.87229 0
    endloop
  endfacet
  facet normal 0 0 -1
    outer loop
      vertex -11.299 -10.6105 0
      vertex -8.38314 -7.87229 0
      vertex -9.88007 -11.943 0
    endloop
  endfacet
  facet normal -0 0 -1
    outer loop
      vertex -8.38314 -7.87229 0
      vertex -11.299 -10.6105 0
      vertex -9.30369 -6.75953 0
    endloop
  endfacet
  facet normal 0 0 -1
    outer loop
      vertex -12.5398 -9.11067 0
      vertex -9.30369 -6.75953 0
      vertex -11.299 -10.6105 0
    endloop
  endfacet
  facet normal -0 0 -1
    outer loop
      vertex -9.30369 -6.75953 0
      vertex -12.5398 -9.11067 0
      vertex -10.0775 -5.54017 0
    endloop
  endfacet
  facet normal 0 0 -1
    outer loop
      vertex -13.5828 -7.46718 0
      vertex -10.0775 -5.54017 0
      vertex -12.5398 -9.11067 0
    endloop
  endfacet
  facet normal -0 0 -1
    outer loop
      vertex -10.0775 -5.54017 0
      vertex -13.5828 -7.46718 0
      vertex -10.6924 -4.23343 0
    endloop
  endfacet
  facet normal 0 0 -1
    outer loop
      vertex -14.4115 -5.70593 0
      vertex -10.6924 -4.23343 0
      vertex -13.5828 -7.46718 0
    endloop
  endfacet
  facet normal -0 0 -1
    outer loop
      vertex -10.6924 -4.23343 0
      vertex -14.4115 -5.70593 0
      vertex -11.1387 -2.85993 0
    endloop
  endfacet
  facet normal 0 0 -1
    outer loop
      vertex 10.6924 4.23343 0
      vertex 14.4115 5.70593 0
      vertex 11.1387 2.85993 0
    endloop
  endfacet
  facet normal -0 0 -1
    outer loop
      vertex 14.4115 5.70593 0
      vertex 10.6924 4.23343 0
      vertex 13.5828 7.46718 0
    endloop
  endfacet
  facet normal 0 0 -1
    outer loop
      vertex 10.0775 5.54017 0
      vertex 13.5828 7.46718 0
      vertex 10.6924 4.23343 0
    endloop
  endfacet
  facet normal -0 0 -1
    outer loop
      vertex 13.5828 7.46718 0
      vertex 10.0775 5.54017 0
      vertex 12.5398 9.11067 0
    endloop
  endfacet
  facet normal 0 0 -1
    outer loop
      vertex 9.30369 6.75953 0
      vertex 12.5398 9.11067 0
      vertex 10.0775 5.54017 0
    endloop
  endfacet
  facet normal -0 0 -1
    outer loop
      vertex 12.5398 9.11067 0
      vertex 9.30369 6.75953 0
      vertex 11.299 10.6105 0
    endloop
  endfacet
  facet normal 0 0 -1
    outer loop
      vertex 8.38314 7.87229 0
      vertex 11.299 10.6105 0
      vertex 9.30369 6.75953 0
    endloop
  endfacet
  facet normal -0 0 -1
    outer loop
      vertex 11.299 10.6105 0
      vertex 8.38314 7.87229 0
      vertex 9.88007 11.943 0
    endloop
  endfacet
  facet normal 0 0 -1
    outer loop
      vertex 7.33038 8.8609 0
      vertex 9.88007 11.943 0
      vertex 8.38314 7.87229 0
    endloop
  endfacet
  facet normal -0 0 -1
    outer loop
      vertex 9.88007 11.943 0
      vertex 7.33038 8.8609 0
      vertex 8.30532 13.0871 0
    endloop
  endfacet
  facet normal 0 0 -1
    outer loop
      vertex 6.16201 9.70977 0
      vertex 8.30532 13.0871 0
      vertex 7.33038 8.8609 0
    endloop
  endfacet
  facet normal -0 0 -1
    outer loop
      vertex 8.30532 13.0871 0
      vertex 6.16201 9.70977 0
      vertex 6.59958 14.0248 0
    endloop
  endfacet
  facet normal 0 0 -1
    outer loop
      vertex 4.89646 10.4055 0
      vertex 6.59958 14.0248 0
      vertex 6.16201 9.70977 0
    endloop
  endfacet
  facet normal 0 0 -1
    outer loop
      vertex 4.89646 10.4055 0
      vertex 4.78976 14.7414 0
      vertex 6.59958 14.0248 0
    endloop
  endfacet
  facet normal 0 0 -1
    outer loop
      vertex 3.55369 10.9371 0
      vertex 4.78976 14.7414 0
      vertex 4.89646 10.4055 0
    endloop
  endfacet
  facet normal 0 0 -1
    outer loop
      vertex 3.55369 10.9371 0
      vertex 2.90441 15.2255 0
      vertex 4.78976 14.7414 0
    endloop
  endfacet
  facet normal 0 0 -1
    outer loop
      vertex 2.15488 11.2963 0
      vertex 2.90441 15.2255 0
      vertex 3.55369 10.9371 0
    endloop
  endfacet
  facet normal 0 0 -1
    outer loop
      vertex 2.15488 11.2963 0
      vertex 0.973252 15.4694 0
      vertex 2.90441 15.2255 0
    endloop
  endfacet
  facet normal 0 0 -1
    outer loop
      vertex 0.722091 11.4773 0
      vertex 0.973252 15.4694 0
      vertex 2.15488 11.2963 0
    endloop
  endfacet
  facet normal 0 0 -1
    outer loop
      vertex -0.722091 11.4773 0
      vertex 0.973252 15.4694 0
      vertex 0.722091 11.4773 0
    endloop
  endfacet
  facet normal 0 0 -1
    outer loop
      vertex -0.722091 11.4773 0
      vertex -0.973252 15.4694 0
      vertex 0.973252 15.4694 0
    endloop
  endfacet
  facet normal 0 0 -1
    outer loop
      vertex -2.15488 11.2963 0
      vertex -0.973252 15.4694 0
      vertex -0.722091 11.4773 0
    endloop
  endfacet
  facet normal 0 0 -1
    outer loop
      vertex -2.15488 11.2963 0
      vertex -2.90441 15.2255 0
      vertex -0.973252 15.4694 0
    endloop
  endfacet
  facet normal 0 0 -1
    outer loop
      vertex -3.55369 10.9371 0
      vertex -2.90441 15.2255 0
      vertex -2.15488 11.2963 0
    endloop
  endfacet
  facet normal 0 0 -1
    outer loop
      vertex -3.55369 10.9371 0
      vertex -4.78976 14.7414 0
      vertex -2.90441 15.2255 0
    endloop
  endfacet
  facet normal 0 0 -1
    outer loop
      vertex -4.89646 10.4055 0
      vertex -4.78976 14.7414 0
      vertex -3.55369 10.9371 0
    endloop
  endfacet
  facet normal 0 0 -1
    outer loop
      vertex -6.59958 14.0248 0
      vertex -4.89646 10.4055 0
      vertex -6.16201 9.70977 0
    endloop
  endfacet
  facet normal 0 0 -1
    outer loop
      vertex -4.89646 10.4055 0
      vertex -6.59958 14.0248 0
      vertex -4.78976 14.7414 0
    endloop
  endfacet
  facet normal 0 0 -1
    outer loop
      vertex -8.30532 13.0871 0
      vertex -6.16201 9.70977 0
      vertex -7.33038 8.8609 0
    endloop
  endfacet
  facet normal 0 0 -1
    outer loop
      vertex -6.16201 9.70977 0
      vertex -8.30532 13.0871 0
      vertex -6.59958 14.0248 0
    endloop
  endfacet
  facet normal 0 0 -1
    outer loop
      vertex -9.88007 11.943 0
      vertex -7.33038 8.8609 0
      vertex -8.38314 7.87229 0
    endloop
  endfacet
  facet normal 0 0 -1
    outer loop
      vertex -11.299 10.6105 0
      vertex -8.38314 7.87229 0
      vertex -9.30369 6.75953 0
    endloop
  endfacet
  facet normal 0 0 -1
    outer loop
      vertex -7.33038 8.8609 0
      vertex -9.88007 11.943 0
      vertex -8.30532 13.0871 0
    endloop
  endfacet
  facet normal 0 0 -1
    outer loop
      vertex -12.5398 9.11067 0
      vertex -9.30369 6.75953 0
      vertex -10.0775 5.54017 0
    endloop
  endfacet
  facet normal 0 0 -1
    outer loop
      vertex -13.5828 7.46718 0
      vertex -10.0775 5.54017 0
      vertex -10.6924 4.23343 0
    endloop
  endfacet
  facet normal 0 0 -1
    outer loop
      vertex -14.4115 5.70593 0
      vertex -10.6924 4.23343 0
      vertex -11.1387 2.85993 0
    endloop
  endfacet
  facet normal 0 0 -1
    outer loop
      vertex -8.38314 7.87229 0
      vertex -11.299 10.6105 0
      vertex -9.88007 11.943 0
    endloop
  endfacet
  facet normal 0 0 -1
    outer loop
      vertex -15.013 3.85469 0
      vertex -11.1387 2.85993 0
      vertex -11.4093 1.44133 0
    endloop
  endfacet
  facet normal 0 0 -1
    outer loop
      vertex -15.3778 1.94267 0
      vertex -11.4093 1.44133 0
      vertex -11.5 0 0
    endloop
  endfacet
  facet normal 0 0 -1
    outer loop
      vertex -15.013 -3.85469 0
      vertex -11.1387 -2.85993 0
      vertex -14.4115 -5.70593 0
    endloop
  endfacet
  facet normal 0 0 -1
    outer loop
      vertex -9.30369 6.75953 0
      vertex -12.5398 9.11067 0
      vertex -11.299 10.6105 0
    endloop
  endfacet
  facet normal -0 0 -1
    outer loop
      vertex -11.1387 -2.85993 0
      vertex -15.013 -3.85469 0
      vertex -11.4093 -1.44133 0
    endloop
  endfacet
  facet normal 0 0 -1
    outer loop
      vertex -10.0775 5.54017 0
      vertex -13.5828 7.46718 0
      vertex -12.5398 9.11067 0
    endloop
  endfacet
  facet normal 0 0 -1
    outer loop
      vertex -15.3778 -1.94267 0
      vertex -11.4093 -1.44133 0
      vertex -15.013 -3.85469 0
    endloop
  endfacet
  facet normal 0 0 -1
    outer loop
      vertex -10.6924 4.23343 0
      vertex -14.4115 5.70593 0
      vertex -13.5828 7.46718 0
    endloop
  endfacet
  facet normal -0 0 -1
    outer loop
      vertex -11.4093 -1.44133 0
      vertex -15.3778 -1.94267 0
      vertex -11.5 0 0
    endloop
  endfacet
  facet normal 0 0 -1
    outer loop
      vertex -11.1387 2.85993 0
      vertex -15.013 3.85469 0
      vertex -14.4115 5.70593 0
    endloop
  endfacet
  facet normal 0 0 -1
    outer loop
      vertex -15.5 0 0
      vertex -11.5 0 0
      vertex -15.3778 -1.94267 0
    endloop
  endfacet
  facet normal 0 0 -1
    outer loop
      vertex -11.4093 1.44133 0
      vertex -15.3778 1.94267 0
      vertex -15.013 3.85469 0
    endloop
  endfacet
  facet normal 0 0 -1
    outer loop
      vertex -11.5 0 0
      vertex -15.5 0 0
      vertex -15.3778 1.94267 0
    endloop
  endfacet
  facet normal -0.982281 -0.187412 0
    outer loop
      vertex -15.013 -3.85469 0
      vertex -15.3778 -1.94267 3
      vertex -15.3778 -1.94267 0
    endloop
  endfacet
  facet normal -0.982281 -0.187412 0
    outer loop
      vertex -15.3778 -1.94267 3
      vertex -15.013 -3.85469 0
      vertex -15.013 -3.85469 3
    endloop
  endfacet
  facet normal 0.587778 -0.809023 0
    outer loop
      vertex 8.30532 -13.0871 0
      vertex 9.88007 -11.943 3
      vertex 8.30532 -13.0871 3
    endloop
  endfacet
  facet normal 0.587778 -0.809023 0
    outer loop
      vertex 9.88007 -11.943 3
      vertex 8.30532 -13.0871 0
      vertex 9.88007 -11.943 0
    endloop
  endfacet
  facet normal 0.481738 -0.876315 0
    outer loop
      vertex 6.59958 -14.0248 0
      vertex 8.30532 -13.0871 3
      vertex 6.59958 -14.0248 3
    endloop
  endfacet
  facet normal 0.481738 -0.876315 0
    outer loop
      vertex 8.30532 -13.0871 3
      vertex 6.59958 -14.0248 0
      vertex 8.30532 -13.0871 0
    endloop
  endfacet
  facet normal 0.770505 -0.637434 0
    outer loop
      vertex 11.299 -10.6105 3
      vertex 12.5398 -9.11067 0
      vertex 12.5398 -9.11067 3
    endloop
  endfacet
  facet normal 0.770505 -0.637434 0
    outer loop
      vertex 12.5398 -9.11067 0
      vertex 11.299 -10.6105 3
      vertex 11.299 -10.6105 0
    endloop
  endfacet
  facet normal -0.125302 -0.992119 0
    outer loop
      vertex -2.90441 -15.2255 0
      vertex -0.973252 -15.4694 3
      vertex -2.90441 -15.2255 3
    endloop
  endfacet
  facet normal -0.125302 -0.992119 -0
    outer loop
      vertex -0.973252 -15.4694 3
      vertex -2.90441 -15.2255 0
      vertex -0.973252 -15.4694 0
    endloop
  endfacet
  facet normal -0.770505 -0.637434 0
    outer loop
      vertex -11.299 -10.6105 0
      vertex -12.5398 -9.11067 3
      vertex -12.5398 -9.11067 0
    endloop
  endfacet
  facet normal -0.770505 -0.637434 0
    outer loop
      vertex -12.5398 -9.11067 3
      vertex -11.299 -10.6105 0
      vertex -11.299 -10.6105 3
    endloop
  endfacet
  facet normal -0.684557 -0.728959 0
    outer loop
      vertex -11.299 -10.6105 0
      vertex -9.88007 -11.943 3
      vertex -11.299 -10.6105 3
    endloop
  endfacet
  facet normal -0.684557 -0.728959 -0
    outer loop
      vertex -9.88007 -11.943 3
      vertex -11.299 -10.6105 0
      vertex -9.88007 -11.943 0
    endloop
  endfacet
  facet normal -0.481738 -0.876315 0
    outer loop
      vertex -8.30532 -13.0871 0
      vertex -6.59958 -14.0248 3
      vertex -8.30532 -13.0871 3
    endloop
  endfacet
  facet normal -0.481738 -0.876315 -0
    outer loop
      vertex -6.59958 -14.0248 3
      vertex -8.30532 -13.0871 0
      vertex -6.59958 -14.0248 0
    endloop
  endfacet
  facet normal -0.587778 -0.809023 0
    outer loop
      vertex -9.88007 -11.943 0
      vertex -8.30532 -13.0871 3
      vertex -9.88007 -11.943 3
    endloop
  endfacet
  facet normal -0.587778 -0.809023 -0
    outer loop
      vertex -8.30532 -13.0871 3
      vertex -9.88007 -11.943 0
      vertex -8.30532 -13.0871 0
    endloop
  endfacet
  facet normal -0.998026 -0.0628038 0
    outer loop
      vertex 11.5 0 0
      vertex 11.4093 1.44133 3
      vertex 11.4093 1.44133 0
    endloop
  endfacet
  facet normal -0.998026 -0.0628038 0
    outer loop
      vertex 11.4093 1.44133 3
      vertex 11.5 0 0
      vertex 11.5 0 3
    endloop
  endfacet
  facet normal 0.998026 -0.0628038 0
    outer loop
      vertex -11.5 0 3
      vertex -11.4093 1.44133 0
      vertex -11.4093 1.44133 3
    endloop
  endfacet
  facet normal 0.998026 -0.0628038 0
    outer loop
      vertex -11.4093 1.44133 0
      vertex -11.5 0 3
      vertex -11.5 0 0
    endloop
  endfacet
  facet normal 0 -1 0
    outer loop
      vertex -0.722091 11.4773 0
      vertex 0.722091 11.4773 3
      vertex -0.722091 11.4773 3
    endloop
  endfacet
  facet normal 0 -1 -0
    outer loop
      vertex 0.722091 11.4773 3
      vertex -0.722091 11.4773 0
      vertex 0.722091 11.4773 0
    endloop
  endfacet
  facet normal 0 1 -0
    outer loop
      vertex 0.722091 -11.4773 0
      vertex -0.722091 -11.4773 3
      vertex 0.722091 -11.4773 3
    endloop
  endfacet
  facet normal 0 1 0
    outer loop
      vertex -0.722091 -11.4773 3
      vertex 0.722091 -11.4773 0
      vertex -0.722091 -11.4773 0
    endloop
  endfacet
  facet normal -0.770515 0.637422 0
    outer loop
      vertex 8.38314 -7.87229 0
      vertex 9.30369 -6.75953 3
      vertex 9.30369 -6.75953 0
    endloop
  endfacet
  facet normal -0.770515 0.637422 0
    outer loop
      vertex 9.30369 -6.75953 3
      vertex 8.38314 -7.87229 0
      vertex 8.38314 -7.87229 3
    endloop
  endfacet
  facet normal -0.684548 -0.728968 0
    outer loop
      vertex 7.33038 8.8609 0
      vertex 8.38314 7.87229 3
      vertex 7.33038 8.8609 3
    endloop
  endfacet
  facet normal -0.684548 -0.728968 -0
    outer loop
      vertex 8.38314 7.87229 3
      vertex 7.33038 8.8609 0
      vertex 8.38314 7.87229 0
    endloop
  endfacet
  facet normal 0.684548 -0.728968 0
    outer loop
      vertex -8.38314 7.87229 0
      vertex -7.33038 8.8609 3
      vertex -8.38314 7.87229 3
    endloop
  endfacet
  facet normal 0.684548 -0.728968 0
    outer loop
      vertex -7.33038 8.8609 3
      vertex -8.38314 7.87229 0
      vertex -7.33038 8.8609 0
    endloop
  endfacet
  facet normal 0.3681 -0.929786 0
    outer loop
      vertex -4.89646 10.4055 0
      vertex -3.55369 10.9371 3
      vertex -4.89646 10.4055 3
    endloop
  endfacet
  facet normal 0.3681 -0.929786 0
    outer loop
      vertex -3.55369 10.9371 3
      vertex -4.89646 10.4055 0
      vertex -3.55369 10.9371 0
    endloop
  endfacet
  facet normal -0.904828 -0.425776 0
    outer loop
      vertex 10.6924 4.23343 0
      vertex 10.0775 5.54017 3
      vertex 10.0775 5.54017 0
    endloop
  endfacet
  facet normal -0.904828 -0.425776 0
    outer loop
      vertex 10.0775 5.54017 3
      vertex 10.6924 4.23343 0
      vertex 10.6924 4.23343 3
    endloop
  endfacet
  facet normal -0.3681 -0.929786 0
    outer loop
      vertex 3.55369 10.9371 0
      vertex 4.89646 10.4055 3
      vertex 3.55369 10.9371 3
    endloop
  endfacet
  facet normal -0.3681 -0.929786 -0
    outer loop
      vertex 4.89646 10.4055 3
      vertex 3.55369 10.9371 0
      vertex 4.89646 10.4055 0
    endloop
  endfacet
  facet normal -0.481747 -0.87631 0
    outer loop
      vertex 4.89646 10.4055 0
      vertex 6.16201 9.70977 3
      vertex 4.89646 10.4055 3
    endloop
  endfacet
  facet normal -0.481747 -0.87631 -0
    outer loop
      vertex 6.16201 9.70977 3
      vertex 4.89646 10.4055 0
      vertex 6.16201 9.70977 0
    endloop
  endfacet
  facet normal 0.844334 -0.535817 0
    outer loop
      vertex -10.0775 5.54017 3
      vertex -9.30369 6.75953 0
      vertex -9.30369 6.75953 3
    endloop
  endfacet
  facet normal 0.844334 -0.535817 0
    outer loop
      vertex -9.30369 6.75953 0
      vertex -10.0775 5.54017 3
      vertex -10.0775 5.54017 0
    endloop
  endfacet
  facet normal 0.770515 -0.637422 0
    outer loop
      vertex -9.30369 6.75953 3
      vertex -8.38314 7.87229 0
      vertex -8.38314 7.87229 3
    endloop
  endfacet
  facet normal 0.770515 -0.637422 0
    outer loop
      vertex -8.38314 7.87229 0
      vertex -9.30369 6.75953 3
      vertex -9.30369 6.75953 0
    endloop
  endfacet
  facet normal 0.587785 -0.809017 0
    outer loop
      vertex -7.33038 8.8609 0
      vertex -6.16201 9.70977 3
      vertex -7.33038 8.8609 3
    endloop
  endfacet
  facet normal 0.587785 -0.809017 0
    outer loop
      vertex -6.16201 9.70977 3
      vertex -7.33038 8.8609 0
      vertex -6.16201 9.70977 0
    endloop
  endfacet
  facet normal 0.125331 -0.992115 0
    outer loop
      vertex -2.15488 11.2963 0
      vertex -0.722091 11.4773 3
      vertex -2.15488 11.2963 3
    endloop
  endfacet
  facet normal 0.125331 -0.992115 0
    outer loop
      vertex -0.722091 11.4773 3
      vertex -2.15488 11.2963 0
      vertex -0.722091 11.4773 0
    endloop
  endfacet
  facet normal -0.125331 0.992115 0
    outer loop
      vertex 2.15488 -11.2963 0
      vertex 0.722091 -11.4773 3
      vertex 2.15488 -11.2963 3
    endloop
  endfacet
  facet normal -0.125331 0.992115 0
    outer loop
      vertex 0.722091 -11.4773 3
      vertex 2.15488 -11.2963 0
      vertex 0.722091 -11.4773 0
    endloop
  endfacet
  facet normal -0.951052 -0.309031 0
    outer loop
      vertex 11.1387 2.85993 0
      vertex 10.6924 4.23343 3
      vertex 10.6924 4.23343 0
    endloop
  endfacet
  facet normal -0.951052 -0.309031 0
    outer loop
      vertex 10.6924 4.23343 3
      vertex 11.1387 2.85993 0
      vertex 11.1387 2.85993 3
    endloop
  endfacet
  facet normal -0.982289 -0.187373 0
    outer loop
      vertex 11.4093 1.44133 0
      vertex 11.1387 2.85993 3
      vertex 11.1387 2.85993 0
    endloop
  endfacet
  facet normal -0.982289 -0.187373 0
    outer loop
      vertex 11.1387 2.85993 3
      vertex 11.4093 1.44133 0
      vertex 11.4093 1.44133 3
    endloop
  endfacet
  facet normal -0.770515 -0.637422 0
    outer loop
      vertex 9.30369 6.75953 0
      vertex 8.38314 7.87229 3
      vertex 8.38314 7.87229 0
    endloop
  endfacet
  facet normal -0.770515 -0.637422 0
    outer loop
      vertex 8.38314 7.87229 3
      vertex 9.30369 6.75953 0
      vertex 9.30369 6.75953 3
    endloop
  endfacet
  facet normal -0.844334 -0.535817 0
    outer loop
      vertex 10.0775 5.54017 0
      vertex 9.30369 6.75953 3
      vertex 9.30369 6.75953 0
    endloop
  endfacet
  facet normal -0.844334 -0.535817 0
    outer loop
      vertex 9.30369 6.75953 3
      vertex 10.0775 5.54017 0
      vertex 10.0775 5.54017 3
    endloop
  endfacet
  facet normal -0.24872 -0.968575 0
    outer loop
      vertex 2.15488 11.2963 0
      vertex 3.55369 10.9371 3
      vertex 2.15488 11.2963 3
    endloop
  endfacet
  facet normal -0.24872 -0.968575 -0
    outer loop
      vertex 3.55369 10.9371 3
      vertex 2.15488 11.2963 0
      vertex 3.55369 10.9371 0
    endloop
  endfacet
  facet normal -0.125331 -0.992115 0
    outer loop
      vertex 0.722091 11.4773 0
      vertex 2.15488 11.2963 3
      vertex 0.722091 11.4773 3
    endloop
  endfacet
  facet normal -0.125331 -0.992115 -0
    outer loop
      vertex 2.15488 11.2963 3
      vertex 0.722091 11.4773 0
      vertex 2.15488 11.2963 0
    endloop
  endfacet
  facet normal -0.587785 -0.809017 0
    outer loop
      vertex 6.16201 9.70977 0
      vertex 7.33038 8.8609 3
      vertex 6.16201 9.70977 3
    endloop
  endfacet
  facet normal -0.587785 -0.809017 -0
    outer loop
      vertex 7.33038 8.8609 3
      vertex 6.16201 9.70977 0
      vertex 7.33038 8.8609 0
    endloop
  endfacet
  facet normal 0.904828 -0.425776 0
    outer loop
      vertex -10.6924 4.23343 3
      vertex -10.0775 5.54017 0
      vertex -10.0775 5.54017 3
    endloop
  endfacet
  facet normal 0.904828 -0.425776 0
    outer loop
      vertex -10.0775 5.54017 0
      vertex -10.6924 4.23343 3
      vertex -10.6924 4.23343 0
    endloop
  endfacet
  facet normal 0.951052 -0.309031 0
    outer loop
      vertex -11.1387 2.85993 3
      vertex -10.6924 4.23343 0
      vertex -10.6924 4.23343 3
    endloop
  endfacet
  facet normal 0.951052 -0.309031 0
    outer loop
      vertex -10.6924 4.23343 0
      vertex -11.1387 2.85993 3
      vertex -11.1387 2.85993 0
    endloop
  endfacet
  facet normal 0.982289 -0.187373 0
    outer loop
      vertex -11.4093 1.44133 3
      vertex -11.1387 2.85993 0
      vertex -11.1387 2.85993 3
    endloop
  endfacet
  facet normal 0.982289 -0.187373 0
    outer loop
      vertex -11.1387 2.85993 0
      vertex -11.4093 1.44133 3
      vertex -11.4093 1.44133 0
    endloop
  endfacet
  facet normal 0.481747 -0.87631 0
    outer loop
      vertex -6.16201 9.70977 0
      vertex -4.89646 10.4055 3
      vertex -6.16201 9.70977 3
    endloop
  endfacet
  facet normal 0.481747 -0.87631 0
    outer loop
      vertex -4.89646 10.4055 3
      vertex -6.16201 9.70977 0
      vertex -4.89646 10.4055 0
    endloop
  endfacet
  facet normal 0.24872 -0.968575 0
    outer loop
      vertex -3.55369 10.9371 0
      vertex -2.15488 11.2963 3
      vertex -3.55369 10.9371 3
    endloop
  endfacet
  facet normal 0.24872 -0.968575 0
    outer loop
      vertex -2.15488 11.2963 3
      vertex -3.55369 10.9371 0
      vertex -2.15488 11.2963 0
    endloop
  endfacet
  facet normal -0.998026 0.0628038 0
    outer loop
      vertex 11.4093 -1.44133 0
      vertex 11.5 0 3
      vertex 11.5 0 0
    endloop
  endfacet
  facet normal -0.998026 0.0628038 0
    outer loop
      vertex 11.5 0 3
      vertex 11.4093 -1.44133 0
      vertex 11.4093 -1.44133 3
    endloop
  endfacet
  facet normal 0.998026 0.0628038 0
    outer loop
      vertex -11.4093 -1.44133 3
      vertex -11.5 0 0
      vertex -11.5 0 3
    endloop
  endfacet
  facet normal 0.998026 0.0628038 0
    outer loop
      vertex -11.5 0 0
      vertex -11.4093 -1.44133 3
      vertex -11.4093 -1.44133 0
    endloop
  endfacet
  facet normal -0.3681 0.929786 0
    outer loop
      vertex 4.89646 -10.4055 0
      vertex 3.55369 -10.9371 3
      vertex 4.89646 -10.4055 3
    endloop
  endfacet
  facet normal -0.3681 0.929786 0
    outer loop
      vertex 3.55369 -10.9371 3
      vertex 4.89646 -10.4055 0
      vertex 3.55369 -10.9371 0
    endloop
  endfacet
  facet normal -0.951052 0.309031 0
    outer loop
      vertex 10.6924 -4.23343 0
      vertex 11.1387 -2.85993 3
      vertex 11.1387 -2.85993 0
    endloop
  endfacet
  facet normal -0.951052 0.309031 0
    outer loop
      vertex 11.1387 -2.85993 3
      vertex 10.6924 -4.23343 0
      vertex 10.6924 -4.23343 3
    endloop
  endfacet
  facet normal 0.3681 0.929786 -0
    outer loop
      vertex -3.55369 -10.9371 0
      vertex -4.89646 -10.4055 3
      vertex -3.55369 -10.9371 3
    endloop
  endfacet
  facet normal 0.3681 0.929786 0
    outer loop
      vertex -4.89646 -10.4055 3
      vertex -3.55369 -10.9371 0
      vertex -4.89646 -10.4055 0
    endloop
  endfacet
  facet normal 0.24872 0.968575 -0
    outer loop
      vertex -2.15488 -11.2963 0
      vertex -3.55369 -10.9371 3
      vertex -2.15488 -11.2963 3
    endloop
  endfacet
  facet normal 0.24872 0.968575 0
    outer loop
      vertex -3.55369 -10.9371 3
      vertex -2.15488 -11.2963 0
      vertex -3.55369 -10.9371 0
    endloop
  endfacet
  facet normal 0.770515 0.637422 0
    outer loop
      vertex -8.38314 -7.87229 3
      vertex -9.30369 -6.75953 0
      vertex -9.30369 -6.75953 3
    endloop
  endfacet
  facet normal 0.770515 0.637422 0
    outer loop
      vertex -9.30369 -6.75953 0
      vertex -8.38314 -7.87229 3
      vertex -8.38314 -7.87229 0
    endloop
  endfacet
  facet normal 0.982289 0.187373 0
    outer loop
      vertex -11.1387 -2.85993 3
      vertex -11.4093 -1.44133 0
      vertex -11.4093 -1.44133 3
    endloop
  endfacet
  facet normal 0.982289 0.187373 0
    outer loop
      vertex -11.4093 -1.44133 0
      vertex -11.1387 -2.85993 3
      vertex -11.1387 -2.85993 0
    endloop
  endfacet
  facet normal 0.951052 0.309031 0
    outer loop
      vertex -10.6924 -4.23343 3
      vertex -11.1387 -2.85993 0
      vertex -11.1387 -2.85993 3
    endloop
  endfacet
  facet normal 0.951052 0.309031 0
    outer loop
      vertex -11.1387 -2.85993 0
      vertex -10.6924 -4.23343 3
      vertex -10.6924 -4.23343 0
    endloop
  endfacet
  facet normal -0.684548 0.728968 0
    outer loop
      vertex 8.38314 -7.87229 0
      vertex 7.33038 -8.8609 3
      vertex 8.38314 -7.87229 3
    endloop
  endfacet
  facet normal -0.684548 0.728968 0
    outer loop
      vertex 7.33038 -8.8609 3
      vertex 8.38314 -7.87229 0
      vertex 7.33038 -8.8609 0
    endloop
  endfacet
  facet normal -0.481747 0.87631 0
    outer loop
      vertex 6.16201 -9.70977 0
      vertex 4.89646 -10.4055 3
      vertex 6.16201 -9.70977 3
    endloop
  endfacet
  facet normal -0.481747 0.87631 0
    outer loop
      vertex 4.89646 -10.4055 3
      vertex 6.16201 -9.70977 0
      vertex 4.89646 -10.4055 0
    endloop
  endfacet
  facet normal -0.24872 0.968575 0
    outer loop
      vertex 3.55369 -10.9371 0
      vertex 2.15488 -11.2963 3
      vertex 3.55369 -10.9371 3
    endloop
  endfacet
  facet normal -0.24872 0.968575 0
    outer loop
      vertex 2.15488 -11.2963 3
      vertex 3.55369 -10.9371 0
      vertex 2.15488 -11.2963 0
    endloop
  endfacet
  facet normal -0.844334 0.535817 0
    outer loop
      vertex 9.30369 -6.75953 0
      vertex 10.0775 -5.54017 3
      vertex 10.0775 -5.54017 0
    endloop
  endfacet
  facet normal -0.844334 0.535817 0
    outer loop
      vertex 10.0775 -5.54017 3
      vertex 9.30369 -6.75953 0
      vertex 9.30369 -6.75953 3
    endloop
  endfacet
  facet normal -0.982289 0.187373 0
    outer loop
      vertex 11.1387 -2.85993 0
      vertex 11.4093 -1.44133 3
      vertex 11.4093 -1.44133 0
    endloop
  endfacet
  facet normal -0.982289 0.187373 0
    outer loop
      vertex 11.4093 -1.44133 3
      vertex 11.1387 -2.85993 0
      vertex 11.1387 -2.85993 3
    endloop
  endfacet
  facet normal 0.587785 0.809017 -0
    outer loop
      vertex -6.16201 -9.70977 0
      vertex -7.33038 -8.8609 3
      vertex -6.16201 -9.70977 3
    endloop
  endfacet
  facet normal 0.587785 0.809017 0
    outer loop
      vertex -7.33038 -8.8609 3
      vertex -6.16201 -9.70977 0
      vertex -7.33038 -8.8609 0
    endloop
  endfacet
  facet normal 0.684548 0.728968 -0
    outer loop
      vertex -7.33038 -8.8609 0
      vertex -8.38314 -7.87229 3
      vertex -7.33038 -8.8609 3
    endloop
  endfacet
  facet normal 0.684548 0.728968 0
    outer loop
      vertex -8.38314 -7.87229 3
      vertex -7.33038 -8.8609 0
      vertex -8.38314 -7.87229 0
    endloop
  endfacet
  facet normal 0.904828 0.425776 0
    outer loop
      vertex -10.0775 -5.54017 3
      vertex -10.6924 -4.23343 0
      vertex -10.6924 -4.23343 3
    endloop
  endfacet
  facet normal 0.904828 0.425776 0
    outer loop
      vertex -10.6924 -4.23343 0
      vertex -10.0775 -5.54017 3
      vertex -10.0775 -5.54017 0
    endloop
  endfacet
  facet normal -0.587785 0.809017 0
    outer loop
      vertex 7.33038 -8.8609 0
      vertex 6.16201 -9.70977 3
      vertex 7.33038 -8.8609 3
    endloop
  endfacet
  facet normal -0.587785 0.809017 0
    outer loop
      vertex 6.16201 -9.70977 3
      vertex 7.33038 -8.8609 0
      vertex 6.16201 -9.70977 0
    endloop
  endfacet
  facet normal -0.904828 0.425776 0
    outer loop
      vertex 10.0775 -5.54017 0
      vertex 10.6924 -4.23343 3
      vertex 10.6924 -4.23343 0
    endloop
  endfacet
  facet normal -0.904828 0.425776 0
    outer loop
      vertex 10.6924 -4.23343 3
      vertex 10.0775 -5.54017 0
      vertex 10.0775 -5.54017 3
    endloop
  endfacet
  facet normal 0.125331 0.992115 -0
    outer loop
      vertex -0.722091 -11.4773 0
      vertex -2.15488 -11.2963 3
      vertex -0.722091 -11.4773 3
    endloop
  endfacet
  facet normal 0.125331 0.992115 0
    outer loop
      vertex -2.15488 -11.2963 3
      vertex -0.722091 -11.4773 0
      vertex -2.15488 -11.2963 0
    endloop
  endfacet
  facet normal 0.481747 0.87631 -0
    outer loop
      vertex -4.89646 -10.4055 0
      vertex -6.16201 -9.70977 3
      vertex -4.89646 -10.4055 3
    endloop
  endfacet
  facet normal 0.481747 0.87631 0
    outer loop
      vertex -6.16201 -9.70977 3
      vertex -4.89646 -10.4055 0
      vertex -6.16201 -9.70977 0
    endloop
  endfacet
  facet normal 0.844334 0.535817 0
    outer loop
      vertex -9.30369 -6.75953 3
      vertex -10.0775 -5.54017 0
      vertex -10.0775 -5.54017 3
    endloop
  endfacet
  facet normal 0.844334 0.535817 0
    outer loop
      vertex -10.0775 -5.54017 0
      vertex -9.30369 -6.75953 3
      vertex -9.30369 -6.75953 0
    endloop
  endfacet
endsolid OpenSCAD_Model
