solid OpenSCAD_Model
  facet normal -1 0 0
    outer loop
      vertex 0 9.4 0
      vertex 0 7.4 2
      vertex 0 9.4 8
    endloop
  endfacet
  facet normal -1 0 0
    outer loop
      vertex 0 9.4 0
      vertex 0 2 2
      vertex 0 7.4 2
    endloop
  endfacet
  facet normal -1 0 0
    outer loop
      vertex 0 0 0
      vertex 0 2 2
      vertex 0 9.4 0
    endloop
  endfacet
  facet normal -1 0 0
    outer loop
      vertex 0 0 8
      vertex 0 2 2
      vertex 0 0 0
    endloop
  endfacet
  facet normal -1 0 0
    outer loop
      vertex 0 2 2
      vertex 0 0 8
      vertex 0 2 8
    endloop
  endfacet
  facet normal -1 -0 0
    outer loop
      vertex 0 9.4 8
      vertex 0 7.4 2
      vertex 0 7.4 8
    endloop
  endfacet
  facet normal -0 0 1
    outer loop
      vertex 0 2 8
      vertex 150 0 8
      vertex 150 2 8
    endloop
  endfacet
  facet normal 0 0 1
    outer loop
      vertex 150 0 8
      vertex 0 2 8
      vertex 0 0 8
    endloop
  endfacet
  facet normal -0 0 1
    outer loop
      vertex 0 9.4 8
      vertex 150 7.4 8
      vertex 150 9.4 8
    endloop
  endfacet
  facet normal 0 0 1
    outer loop
      vertex 150 7.4 8
      vertex 0 9.4 8
      vertex 0 7.4 8
    endloop
  endfacet
  facet normal 1 0 0
    outer loop
      vertex 150 2 8
      vertex 150 0 8
      vertex 150 2 2
    endloop
  endfacet
  facet normal 1 0 0
    outer loop
      vertex 150 7.4 2
      vertex 150 9.4 8
      vertex 150 7.4 8
    endloop
  endfacet
  facet normal 1 0 0
    outer loop
      vertex 150 9.4 8
      vertex 150 7.4 2
      vertex 150 9.4 0
    endloop
  endfacet
  facet normal 1 -0 0
    outer loop
      vertex 150 2 2
      vertex 150 9.4 0
      vertex 150 7.4 2
    endloop
  endfacet
  facet normal 1 0 0
    outer loop
      vertex 150 2 2
      vertex 150 0 0
      vertex 150 9.4 0
    endloop
  endfacet
  facet normal 1 0 0
    outer loop
      vertex 150 0 0
      vertex 150 2 2
      vertex 150 0 8
    endloop
  endfacet
  facet normal 0 1 -0
    outer loop
      vertex 150 9.4 0
      vertex 0 9.4 8
      vertex 150 9.4 8
    endloop
  endfacet
  facet normal 0 1 0
    outer loop
      vertex 0 9.4 8
      vertex 150 9.4 0
      vertex 0 9.4 0
    endloop
  endfacet
  facet normal 0 0 -1
    outer loop
      vertex 0 0 0
      vertex 150 9.4 0
      vertex 150 0 0
    endloop
  endfacet
  facet normal -0 0 -1
    outer loop
      vertex 150 9.4 0
      vertex 0 0 0
      vertex 0 9.4 0
    endloop
  endfacet
  facet normal 0 -1 0
    outer loop
      vertex 0 0 0
      vertex 150 0 8
      vertex 0 0 8
    endloop
  endfacet
  facet normal 0 -1 -0
    outer loop
      vertex 150 0 8
      vertex 0 0 0
      vertex 150 0 0
    endloop
  endfacet
  facet normal 0 -1 0
    outer loop
      vertex 0 7.4 2
      vertex 150 7.4 8
      vertex 0 7.4 8
    endloop
  endfacet
  facet normal 0 -1 -0
    outer loop
      vertex 150 7.4 8
      vertex 0 7.4 2
      vertex 150 7.4 2
    endloop
  endfacet
  facet normal -0 0 1
    outer loop
      vertex 0 7.4 2
      vertex 150 2 2
      vertex 150 7.4 2
    endloop
  endfacet
  facet normal 0 0 1
    outer loop
      vertex 150 2 2
      vertex 0 7.4 2
      vertex 0 2 2
    endloop
  endfacet
  facet normal 0 1 -0
    outer loop
      vertex 150 2 2
      vertex 0 2 8
      vertex 150 2 8
    endloop
  endfacet
  facet normal 0 1 0
    outer loop
      vertex 0 2 8
      vertex 150 2 2
      vertex 0 2 2
    endloop
  endfacet
endsolid OpenSCAD_Model
