solid OpenSCAD_Model
  facet normal -0.00598657 -0.999982 0.000402164
    outer loop
      vertex 3.746 -12 6.857
      vertex 3.413 -11.998 6.873
      vertex 3.413 -12 1.9
    endloop
  endfacet
  facet normal -0.911728 -0.410793 0.000165209
    outer loop
      vertex 3.413 -12 1.9
      vertex 3.413 -11.998 6.873
      vertex 3.372 -11.907 6.881
    endloop
  endfacet
  facet normal 0.876243 -0.481707 0.0125497
    outer loop
      vertex 4.847 -10.261 0
      vertex 4.369 -11.081 1.9
      vertex 3.891 -12 0
    endloop
  endfacet
  facet normal -0.935955 -0.352117 -0.00112975
    outer loop
      vertex 3.413 -12 1.9
      vertex 3.372 -11.907 6.881
      vertex 2.936 -10.726 0
    endloop
  endfacet
  facet normal -0.642393 -0.766375 0
    outer loop
      vertex 2.185 -9.515 0
      vertex 2.185 -9.515 1.9
      vertex 0.992 -8.515 0
    endloop
  endfacet
  facet normal -0.93651 -0.35064 0
    outer loop
      vertex 3.413 -12 0
      vertex 3.413 -12 1.9
      vertex 2.936 -10.726 0
    endloop
  endfacet
  facet normal -0.779749 -0.626092 0
    outer loop
      vertex 2.458 -9.855 0
      vertex 2.185 -9.515 1.9
      vertex 2.185 -9.515 0
    endloop
  endfacet
  facet normal -0 0 1
    outer loop
      vertex 10.403 -5.255 12.908
      vertex 12.15 -6.798 12.908
      vertex 12.15 -5.142 12.908
    endloop
  endfacet
  facet normal 0 0 1
    outer loop
      vertex 12.15 -6.798 12.908
      vertex 10.403 -5.255 12.908
      vertex 10.453 -6.91 12.908
    endloop
  endfacet
  facet normal -0 0 1
    outer loop
      vertex 8.612 -5.642 12.908
      vertex 10.453 -6.91 12.908
      vertex 10.403 -5.255 12.908
    endloop
  endfacet
  facet normal 0 0 1
    outer loop
      vertex 10.453 -6.91 12.908
      vertex 8.612 -5.642 12.908
      vertex 8.661 -7.156 12.908
    endloop
  endfacet
  facet normal -0 0 1
    outer loop
      vertex 7.753 -5.904 12.908
      vertex 8.661 -7.156 12.908
      vertex 8.612 -5.642 12.908
    endloop
  endfacet
  facet normal 0 0 1
    outer loop
      vertex 8.661 -7.156 12.908
      vertex 7.753 -5.904 12.908
      vertex 7.802 -7.513 12.908
    endloop
  endfacet
  facet normal -0 0 1
    outer loop
      vertex 6.883 -6.282 12.908
      vertex 7.802 -7.513 12.908
      vertex 7.753 -5.904 12.908
    endloop
  endfacet
  facet normal -0 0 1
    outer loop
      vertex 6.337 -6.653 12.908
      vertex 7.802 -7.513 12.908
      vertex 6.883 -6.282 12.908
    endloop
  endfacet
  facet normal 0 0 1
    outer loop
      vertex 7.802 -7.513 12.908
      vertex 6.337 -6.653 12.908
      vertex 6.659 -8.209 12.908
    endloop
  endfacet
  facet normal -0 0 1
    outer loop
      vertex 5.828 -7.125 12.908
      vertex 6.659 -8.209 12.908
      vertex 6.337 -6.653 12.908
    endloop
  endfacet
  facet normal 0 0 1
    outer loop
      vertex 6.659 -8.209 12.908
      vertex 5.828 -7.125 12.908
      vertex 5.878 -8.821 12.908
    endloop
  endfacet
  facet normal -0 0 1
    outer loop
      vertex 4.936 -8.2 12.908
      vertex 5.878 -8.821 12.908
      vertex 5.828 -7.125 12.908
    endloop
  endfacet
  facet normal 0 0 1
    outer loop
      vertex 5.878 -8.821 12.908
      vertex 4.936 -8.2 12.908
      vertex 5.41 -9.294 12.908
    endloop
  endfacet
  facet normal 0 0 1
    outer loop
      vertex 5.41 -9.294 12.908
      vertex 4.936 -8.2 12.908
      vertex 4.986 -9.955 12.908
    endloop
  endfacet
  facet normal -0 0 1
    outer loop
      vertex 2.185 -9.515 12.908
      vertex 4.986 -9.955 12.908
      vertex 4.936 -8.2 12.908
    endloop
  endfacet
  facet normal 0 -0 1
    outer loop
      vertex 2.936 -10.726 12.908
      vertex 4.986 -9.955 12.908
      vertex 2.185 -9.515 12.908
    endloop
  endfacet
  facet normal 0 0 1
    outer loop
      vertex 4.847 -10.261 12.908
      vertex 2.936 -10.726 12.908
      vertex 4.369 -11.081 12.908
    endloop
  endfacet
  facet normal 0 -0 1
    outer loop
      vertex 3.413 -12 12.908
      vertex 4.369 -11.081 12.908
      vertex 2.936 -10.726 12.908
    endloop
  endfacet
  facet normal 0 0 1
    outer loop
      vertex 4.369 -11.081 12.908
      vertex 3.413 -12 12.908
      vertex 3.891 -12 12.908
    endloop
  endfacet
  facet normal 0 0 1
    outer loop
      vertex 2.185 -9.515 12.908
      vertex 4.936 -8.2 12.908
      vertex 2.408 -8.182 12.908
    endloop
  endfacet
  facet normal 0 0 1
    outer loop
      vertex 4.986 -9.955 12.908
      vertex 2.936 -10.726 12.908
      vertex 4.847 -10.261 12.908
    endloop
  endfacet
  facet normal 0 0 1
    outer loop
      vertex 2.408 -8.182 12.908
      vertex 1.448 -8.885 12.908
      vertex 2.185 -9.515 12.908
    endloop
  endfacet
  facet normal 0 0 1
    outer loop
      vertex 0.992 -8.515 12.908
      vertex 2.408 -8.182 12.908
      vertex 1.398 -7.257 12.908
    endloop
  endfacet
  facet normal 0 0 1
    outer loop
      vertex 2.408 -8.182 12.908
      vertex 0.992 -8.515 12.908
      vertex 1.448 -8.885 12.908
    endloop
  endfacet
  facet normal 0 0 1
    outer loop
      vertex 0.943 -6.977 12.908
      vertex 0.992 -8.515 12.908
      vertex 1.398 -7.257 12.908
    endloop
  endfacet
  facet normal 0 0 1
    outer loop
      vertex -0.0629997 -7.945 12.908
      vertex 0.943 -6.977 12.908
      vertex 0.162 -6.696 12.908
    endloop
  endfacet
  facet normal 0 0 1
    outer loop
      vertex 0.943 -6.977 12.908
      vertex -0.0629997 -7.945 12.908
      vertex 0.992 -8.515 12.908
    endloop
  endfacet
  facet normal 0 0 1
    outer loop
      vertex 0.162 -6.696 12.908
      vertex -0.648 -7.812 12.908
      vertex -0.0629997 -7.945 12.908
    endloop
  endfacet
  facet normal 0 0 1
    outer loop
      vertex -0.698 -6.473 12.908
      vertex -0.648 -7.812 12.908
      vertex 0.162 -6.696 12.908
    endloop
  endfacet
  facet normal 0 0 1
    outer loop
      vertex -0.698 -6.473 12.908
      vertex -1.897 -7.661 12.908
      vertex -0.648 -7.812 12.908
    endloop
  endfacet
  facet normal 0 0 1
    outer loop
      vertex -2.27 -6.42 12.908
      vertex -1.897 -7.661 12.908
      vertex -0.698 -6.473 12.908
    endloop
  endfacet
  facet normal 0 0 1
    outer loop
      vertex -2.27 -6.42 12.908
      vertex -2.544 -7.622 12.908
      vertex -1.897 -7.661 12.908
    endloop
  endfacet
  facet normal -0 0 1
    outer loop
      vertex -5 -6.42 12.908
      vertex -2.544 -7.622 12.908
      vertex -2.27 -6.42 12.908
    endloop
  endfacet
  facet normal 0 0 1
    outer loop
      vertex -2.544 -7.622 12.908
      vertex -5 -6.42 12.908
      vertex -5 -7.622 12.908
    endloop
  endfacet
  facet normal -0.0755099 -0.997145 0
    outer loop
      vertex -1.58 -7.695 1.9
      vertex -2.544 -7.622 12.908
      vertex -2.544 -7.622 0
    endloop
  endfacet
  facet normal -0.0601689 -0.998187 0.00135036
    outer loop
      vertex -1.58 -7.695 1.9
      vertex -1.897 -7.661 12.908
      vertex -2.544 -7.622 12.908
    endloop
  endfacet
  facet normal 0.0336959 0.999432 0.00071634
    outer loop
      vertex -0.698 -6.473 12.908
      vertex -1.947 -6.423 1.9
      vertex -2.27 -6.42 12.908
    endloop
  endfacet
  facet normal 0 -1 0
    outer loop
      vertex -5 -7.622 0
      vertex -2.544 -7.622 12.908
      vertex -5 -7.622 12.908
    endloop
  endfacet
  facet normal 0 -1 -0
    outer loop
      vertex -2.544 -7.622 12.908
      vertex -5 -7.622 0
      vertex -2.544 -7.622 0
    endloop
  endfacet
  facet normal -0.0831735 -0.996527 0.00391198
    outer loop
      vertex -1.262 -7.729 0
      vertex -1.58 -7.695 1.9
      vertex -2.544 -7.622 0
    endloop
  endfacet
  facet normal -0.124559 -0.992212 0
    outer loop
      vertex -0.648 -7.812 1.9
      vertex -0.648 -7.812 12.908
      vertex -1.58 -7.695 1.9
    endloop
  endfacet
  facet normal -0.120023 -0.992771 -0.000389989
    outer loop
      vertex -1.58 -7.695 1.9
      vertex -0.648 -7.812 12.908
      vertex -1.897 -7.661 12.908
    endloop
  endfacet
  facet normal -0 1 0
    outer loop
      vertex -5 -6.42 12.908
      vertex -2.27 -6.42 12.908
      vertex -5 -6.42 1.9
    endloop
  endfacet
  facet normal 0.00098264 0.999999 -0.000243696
    outer loop
      vertex -2.27 -6.42 12.908
      vertex -1.947 -6.423 1.9
      vertex -5 -6.42 1.9
    endloop
  endfacet
  facet normal -0.177283 -0.984086 -0.0120616
    outer loop
      vertex -1.262 -7.729 0
      vertex -0.0629997 -7.945 0
      vertex -1.58 -7.695 1.9
    endloop
  endfacet
  facet normal -0.124499 -0.991733 0.0310888
    outer loop
      vertex -0.0629997 -7.945 0
      vertex -0.648 -7.812 1.9
      vertex -1.58 -7.695 1.9
    endloop
  endfacet
  facet normal -0.221693 -0.975117 0
    outer loop
      vertex -0.648 -7.812 1.9
      vertex -0.0629997 -7.945 12.908
      vertex -0.648 -7.812 12.908
    endloop
  endfacet
  facet normal -0.221693 -0.975117 0
    outer loop
      vertex -0.648 -7.812 1.9
      vertex -0.0629997 -7.945 1.9
      vertex -0.0629997 -7.945 12.908
    endloop
  endfacet
  facet normal -0.221693 -0.975117 -0
    outer loop
      vertex -0.0629997 -7.945 1.9
      vertex -0.648 -7.812 1.9
      vertex -0.0629997 -7.945 0
    endloop
  endfacet
  facet normal 0.04 0.9992 0
    outer loop
      vertex -0.698 -6.473 12.908
      vertex -0.698 -6.473 1.9
      vertex -1.947 -6.423 1.9
    endloop
  endfacet
  facet normal 0.383776 -0.923426 0
    outer loop
      vertex 7.802 -7.513 0
      vertex 8.661 -7.156 12.908
      vertex 7.802 -7.513 12.908
    endloop
  endfacet
  facet normal 0.383776 -0.923426 0
    outer loop
      vertex 8.661 -7.156 12.908
      vertex 7.802 -7.513 0
      vertex 8.661 -7.156 0
    endloop
  endfacet
  facet normal 0.0658555 -0.997829 0
    outer loop
      vertex 10.453 -6.91 0
      vertex 12.15 -6.798 12.908
      vertex 10.453 -6.91 12.908
    endloop
  endfacet
  facet normal 0.0658555 -0.997829 0
    outer loop
      vertex 12.15 -6.798 12.908
      vertex 10.453 -6.91 0
      vertex 12.15 -6.798 0
    endloop
  endfacet
  facet normal 0.136001 -0.990709 0
    outer loop
      vertex 8.661 -7.156 0
      vertex 10.453 -6.91 12.908
      vertex 8.661 -7.156 12.908
    endloop
  endfacet
  facet normal 0.136001 -0.990709 0
    outer loop
      vertex 10.453 -6.91 12.908
      vertex 8.661 -7.156 0
      vertex 10.453 -6.91 0
    endloop
  endfacet
  facet normal -0.0645474 0.997915 0
    outer loop
      vertex 12.15 -5.142 1.9
      vertex 10.403 -5.255 12.908
      vertex 12.15 -5.142 12.908
    endloop
  endfacet
  facet normal -0.0645474 0.997915 0
    outer loop
      vertex 10.403 -5.255 12.908
      vertex 12.15 -5.142 1.9
      vertex 10.403 -5.255 1.9
    endloop
  endfacet
  facet normal -0.211206 0.977442 0
    outer loop
      vertex 10.403 -5.255 1.9
      vertex 8.612 -5.642 12.908
      vertex 10.403 -5.255 12.908
    endloop
  endfacet
  facet normal -0.211206 0.977442 0
    outer loop
      vertex 8.612 -5.642 12.908
      vertex 10.403 -5.255 1.9
      vertex 8.612 -5.642 1.9
    endloop
  endfacet
  facet normal -0.56202 0.827124 0
    outer loop
      vertex 6.883 -6.282 1.9
      vertex 6.337 -6.653 12.908
      vertex 6.883 -6.282 12.908
    endloop
  endfacet
  facet normal -0.56202 0.827124 0
    outer loop
      vertex 6.337 -6.653 12.908
      vertex 6.883 -6.282 1.9
      vertex 6.337 -6.653 1.9
    endloop
  endfacet
  facet normal -0.774051 0.633115 0.00321839
    outer loop
      vertex 5.828 -7.125 12.908
      vertex 5.361 -7.64 1.9
      vertex 5.01 -8.102 8.365
    endloop
  endfacet
  facet normal -0.679954 0.733255 0
    outer loop
      vertex 6.337 -6.653 12.908
      vertex 6.337 -6.653 1.9
      vertex 5.828 -7.125 12.908
    endloop
  endfacet
  facet normal 0.74314 0.669136 -0.000126505
    outer loop
      vertex 2.309 -8.072 7.893
      vertex 2.408 -8.182 7.623
      vertex 2.136 -7.881 1.9
    endloop
  endfacet
  facet normal 0.741944 0.670461 0
    outer loop
      vertex 2.408 -8.182 7.623
      vertex 2.408 -8.182 1.9
      vertex 2.136 -7.881 1.9
    endloop
  endfacet
  facet normal 0.251001 0.967987 0
    outer loop
      vertex -0.698 -6.473 12.908
      vertex 0.162 -6.696 12.908
      vertex -0.698 -6.473 1.9
    endloop
  endfacet
  facet normal -0.398495 0.917171 0
    outer loop
      vertex 7.753 -5.904 1.9
      vertex 6.883 -6.282 12.908
      vertex 7.753 -5.904 12.908
    endloop
  endfacet
  facet normal -0.398495 0.917171 0
    outer loop
      vertex 6.883 -6.282 12.908
      vertex 7.753 -5.904 1.9
      vertex 6.883 -6.282 1.9
    endloop
  endfacet
  facet normal -0.291738 0.956498 0
    outer loop
      vertex 8.612 -5.642 1.9
      vertex 7.753 -5.904 12.908
      vertex 8.612 -5.642 12.908
    endloop
  endfacet
  facet normal -0.291738 0.956498 0
    outer loop
      vertex 7.753 -5.904 12.908
      vertex 8.612 -5.642 1.9
      vertex 7.753 -5.904 1.9
    endloop
  endfacet
  facet normal 0.716318 0.697505 0.019373
    outer loop
      vertex 2.343 -8.11 8.678
      vertex 2.309 -8.072 8.567
      vertex 1.398 -7.257 12.908
    endloop
  endfacet
  facet normal 0 -1 0
    outer loop
      vertex 2.309 -8.072 7.893
      vertex 2.309 -8.072 8.567
      vertex 2.273 -8.072 8.298
    endloop
  endfacet
  facet normal 0.678379 0.734702 0.00383258
    outer loop
      vertex 2.309 -8.072 7.893
      vertex 2.136 -7.881 1.9
      vertex 1.398 -7.257 12.908
    endloop
  endfacet
  facet normal 0.666747 0.745284 0
    outer loop
      vertex 2.309 -8.072 8.567
      vertex 2.309 -8.072 7.893
      vertex 1.398 -7.257 12.908
    endloop
  endfacet
  facet normal 0.675394 0.737457 0
    outer loop
      vertex 2.408 -8.182 12.908
      vertex 2.408 -8.182 8.837
      vertex 1.398 -7.257 12.908
    endloop
  endfacet
  facet normal 0.719088 0.694614 0.0205752
    outer loop
      vertex 2.408 -8.182 8.837
      vertex 2.343 -8.11 8.678
      vertex 1.398 -7.257 12.908
    endloop
  endfacet
  facet normal 0.241756 0.970337 0.000769869
    outer loop
      vertex 0.162 -6.696 12.908
      vertex -0.112 -6.619 1.9
      vertex -0.698 -6.473 1.9
    endloop
  endfacet
  facet normal 0.524097 0.851658 0
    outer loop
      vertex 0.943 -6.977 12.908
      vertex 1.398 -7.257 12.908
      vertex 0.943 -6.977 1.9
    endloop
  endfacet
  facet normal 0.338549 0.940949 0
    outer loop
      vertex 0.943 -6.977 12.908
      vertex 0.943 -6.977 1.9
      vertex 0.162 -6.696 12.908
    endloop
  endfacet
  facet normal 0.321339 0.946963 -0.00137452
    outer loop
      vertex 0.162 -6.696 12.908
      vertex 0.943 -6.977 1.9
      vertex -0.112 -6.619 1.9
    endloop
  endfacet
  facet normal -1 0 0
    outer loop
      vertex -5 8 0
      vertex -5 -6.42 1.9
      vertex -5 8 1.9
    endloop
  endfacet
  facet normal -1 0 0
    outer loop
      vertex -5 -7.622 0
      vertex -5 -6.42 1.9
      vertex -5 8 0
    endloop
  endfacet
  facet normal -1 0 0
    outer loop
      vertex -5 -7.622 12.908
      vertex -5 -6.42 1.9
      vertex -5 -7.622 0
    endloop
  endfacet
  facet normal -1 0 0
    outer loop
      vertex -5 -6.42 1.9
      vertex -5 -7.622 12.908
      vertex -5 -6.42 12.908
    endloop
  endfacet
  facet normal -0.475343 -0.879801 0
    outer loop
      vertex 0.992 -8.515 12.908
      vertex -0.0629997 -7.945 12.908
      vertex -0.0629997 -7.945 1.9
    endloop
  endfacet
  facet normal 0 -1 0
    outer loop
      vertex 3.413 -12 1.9
      vertex 3.891 -12 6.876
      vertex 3.746 -12 6.857
    endloop
  endfacet
  facet normal 0 -1 0
    outer loop
      vertex 3.891 -12 0
      vertex 3.413 -12 1.9
      vertex 3.413 -12 0
    endloop
  endfacet
  facet normal 0 -1 0
    outer loop
      vertex 3.413 -12 1.9
      vertex 3.891 -12 0
      vertex 3.891 -12 6.876
    endloop
  endfacet
  facet normal 0 0 -1
    outer loop
      vertex 10.453 -6.91 0
      vertex 12.15 8 0
      vertex 12.15 -6.798 0
    endloop
  endfacet
  facet normal 0 0 -1
    outer loop
      vertex 8.661 -7.156 0
      vertex 12.15 8 0
      vertex 10.453 -6.91 0
    endloop
  endfacet
  facet normal 0 0 -1
    outer loop
      vertex 7.802 -7.513 0
      vertex 12.15 8 0
      vertex 8.661 -7.156 0
    endloop
  endfacet
  facet normal 0 0 -1
    outer loop
      vertex -0.0629997 -7.945 0
      vertex 7.802 -7.513 0
      vertex 6.932 -8.023 0
    endloop
  endfacet
  facet normal 0 0 -1
    outer loop
      vertex 0.992 -8.515 0
      vertex 6.932 -8.023 0
      vertex 6.132 -8.608 0
    endloop
  endfacet
  facet normal 0 0 -1
    outer loop
      vertex 2.185 -9.515 0
      vertex 6.132 -8.608 0
      vertex 5.41 -9.294 0
    endloop
  endfacet
  facet normal 0 0 -1
    outer loop
      vertex 2.458 -9.855 0
      vertex 5.41 -9.294 0
      vertex 4.986 -9.955 0
    endloop
  endfacet
  facet normal 0 0 -1
    outer loop
      vertex 2.458 -9.855 0
      vertex 4.986 -9.955 0
      vertex 4.847 -10.261 0
    endloop
  endfacet
  facet normal 0 0 -1
    outer loop
      vertex 2.936 -10.726 0
      vertex 4.847 -10.261 0
      vertex 3.891 -12 0
    endloop
  endfacet
  facet normal 0 0 -1
    outer loop
      vertex 2.936 -10.726 0
      vertex 3.891 -12 0
      vertex 3.413 -12 0
    endloop
  endfacet
  facet normal -0 0 -1
    outer loop
      vertex 4.847 -10.261 0
      vertex 2.936 -10.726 0
      vertex 2.458 -9.855 0
    endloop
  endfacet
  facet normal 0 0 -1
    outer loop
      vertex 5.41 -9.294 0
      vertex 2.458 -9.855 0
      vertex 2.185 -9.515 0
    endloop
  endfacet
  facet normal -0 0 -1
    outer loop
      vertex 6.132 -8.608 0
      vertex 2.185 -9.515 0
      vertex 0.992 -8.515 0
    endloop
  endfacet
  facet normal -0 0 -1
    outer loop
      vertex 6.932 -8.023 0
      vertex 0.992 -8.515 0
      vertex -0.0629997 -7.945 0
    endloop
  endfacet
  facet normal 0 0 -1
    outer loop
      vertex -5 8 0
      vertex 7.802 -7.513 0
      vertex -0.0629997 -7.945 0
    endloop
  endfacet
  facet normal 0 0 -1
    outer loop
      vertex -5 8 0
      vertex -0.0629997 -7.945 0
      vertex -1.262 -7.729 0
    endloop
  endfacet
  facet normal 0 0 -1
    outer loop
      vertex -5 8 0
      vertex -1.262 -7.729 0
      vertex -2.544 -7.622 0
    endloop
  endfacet
  facet normal 0 0 -1
    outer loop
      vertex -5 8 0
      vertex -2.544 -7.622 0
      vertex -5 -7.622 0
    endloop
  endfacet
  facet normal 0 0 -1
    outer loop
      vertex 7.802 -7.513 0
      vertex -5 8 0
      vertex 12.15 8 0
    endloop
  endfacet
  facet normal 1 0 0
    outer loop
      vertex 12.15 -5.142 12.908
      vertex 12.15 -6.798 12.908
      vertex 12.15 -5.142 1.9
    endloop
  endfacet
  facet normal 1 -0 0
    outer loop
      vertex 12.15 -5.142 1.9
      vertex 12.15 8 0
      vertex 12.15 8 1.9
    endloop
  endfacet
  facet normal 1 0 0
    outer loop
      vertex 12.15 -5.142 1.9
      vertex 12.15 -6.798 0
      vertex 12.15 8 0
    endloop
  endfacet
  facet normal 1 0 0
    outer loop
      vertex 12.15 -6.798 0
      vertex 12.15 -5.142 1.9
      vertex 12.15 -6.798 12.908
    endloop
  endfacet
  facet normal -0.769569 0.638563 0
    outer loop
      vertex 4.936 -8.2 12.908
      vertex 5.828 -7.125 12.908
      vertex 4.936 -8.2 8.707
    endloop
  endfacet
  facet normal -0.63008 -0.776531 0
    outer loop
      vertex 1.448 -8.885 12.908
      vertex 0.992 -8.515 12.908
      vertex 0.992 -8.515 0
    endloop
  endfacet
  facet normal -0.784533 0.620036 0.00791834
    outer loop
      vertex 5.828 -7.125 12.908
      vertex 5.01 -8.102 8.365
      vertex 4.936 -8.2 8.707
    endloop
  endfacet
  facet normal 0.00712001 0.999966 -0.00410536
    outer loop
      vertex 4.936 -8.2 12.908
      vertex 2.911 -8.2 9.396
      vertex 2.408 -8.182 12.908
    endloop
  endfacet
  facet normal -0.9769 -0.00763166 -0.213563
    outer loop
      vertex 5.01 -8.102 8.365
      vertex 4.986 -9.955 8.541
      vertex 4.936 -8.2 8.707
    endloop
  endfacet
  facet normal -0.835445 -0.0162626 -0.549334
    outer loop
      vertex 4.936 -8.2 8.707
      vertex 4.778 -10.352 9.011
      vertex 4.6 -8.2 9.218
    endloop
  endfacet
  facet normal -0.639763 -0.0239337 -0.768199
    outer loop
      vertex 4.562 -10.665 9.256
      vertex 4.517 -10.746 9.296
      vertex 4.178 -8.2 9.499
    endloop
  endfacet
  facet normal -0.584319 -0.0131053 -0.811418
    outer loop
      vertex 4.517 -10.746 9.296
      vertex 4.457 -10.857 9.341
      vertex 4.178 -8.2 9.499
    endloop
  endfacet
  facet normal -0.550973 -0.00823225 -0.834483
    outer loop
      vertex 4.457 -10.857 9.341
      vertex 4.376 -11.011 9.396
      vertex 4.178 -8.2 9.499
    endloop
  endfacet
  facet normal 0.79993 -0.600093 -0.000150565
    outer loop
      vertex 4.778 -10.352 9.011
      vertex 4.847 -10.261 12.908
      vertex 4.676 -10.488 9.142
    endloop
  endfacet
  facet normal 0.81679 -0.57693 -0.00231225
    outer loop
      vertex 4.676 -10.488 9.142
      vertex 4.847 -10.261 12.908
      vertex 4.626 -10.559 9.195
    endloop
  endfacet
  facet normal 0.910468 -0.413579 0
    outer loop
      vertex 4.847 -10.261 8.901
      vertex 4.986 -9.955 12.908
      vertex 4.847 -10.261 12.908
    endloop
  endfacet
  facet normal 0.910468 -0.413579 0
    outer loop
      vertex 4.986 -9.955 12.908
      vertex 4.847 -10.261 8.901
      vertex 4.986 -9.955 8.541
    endloop
  endfacet
  facet normal -0.934825 0.00694892 -0.35504
    outer loop
      vertex 4.936 -8.2 8.707
      vertex 4.986 -9.955 8.541
      vertex 4.847 -10.261 8.901
    endloop
  endfacet
  facet normal -0.841608 -0.0144766 -0.539894
    outer loop
      vertex 4.936 -8.2 8.707
      vertex 4.847 -10.261 8.901
      vertex 4.778 -10.352 9.011
    endloop
  endfacet
  facet normal 0.876937 -0.480352 -0.0156197
    outer loop
      vertex 4.517 -10.746 9.296
      vertex 4.847 -10.261 12.908
      vertex 4.457 -10.857 9.341
    endloop
  endfacet
  facet normal -0.786195 -0.00558844 -0.617953
    outer loop
      vertex 4.778 -10.352 9.011
      vertex 4.676 -10.488 9.142
      vertex 4.6 -8.2 9.218
    endloop
  endfacet
  facet normal -0.554221 0.00923748 -0.832318
    outer loop
      vertex 4.6 -8.2 9.218
      vertex 4.676 -10.488 9.142
      vertex 4.178 -8.2 9.499
    endloop
  endfacet
  facet normal -0.663462 -0.0296541 -0.747622
    outer loop
      vertex 4.626 -10.559 9.195
      vertex 4.562 -10.665 9.256
      vertex 4.178 -8.2 9.499
    endloop
  endfacet
  facet normal 0.88226 -0.470424 -0.0178605
    outer loop
      vertex 4.457 -10.857 9.341
      vertex 4.847 -10.261 12.908
      vertex 4.376 -11.011 9.396
    endloop
  endfacet
  facet normal -0.491561 -0.00271531 -0.870839
    outer loop
      vertex 4.376 -11.011 9.396
      vertex 4.264 -11.261 9.46
      vertex 4.178 -8.2 9.499
    endloop
  endfacet
  facet normal 0.871188 -0.490758 -0.0136973
    outer loop
      vertex 4.562 -10.665 9.256
      vertex 4.847 -10.261 12.908
      vertex 4.517 -10.746 9.296
    endloop
  endfacet
  facet normal 0.863902 -0.503592 -0.00831552
    outer loop
      vertex 4.376 -11.011 9.396
      vertex 4.847 -10.261 12.908
      vertex 4.369 -11.081 12.908
    endloop
  endfacet
  facet normal 0.911977 -0.410193 -0.00635811
    outer loop
      vertex 4.376 -11.011 9.396
      vertex 4.369 -11.081 12.908
      vertex 4.264 -11.261 9.46
    endloop
  endfacet
  facet normal 0.853722 -0.52065 -0.00902745
    outer loop
      vertex 4.626 -10.559 9.195
      vertex 4.847 -10.261 12.908
      vertex 4.562 -10.665 9.256
    endloop
  endfacet
  facet normal 0.796837 -0.604195 0
    outer loop
      vertex 4.847 -10.261 8.901
      vertex 4.847 -10.261 12.908
      vertex 4.778 -10.352 9.011
    endloop
  endfacet
  facet normal 0 0 1
    outer loop
      vertex 12.15 8 1.9
      vertex 10.403 -5.255 1.9
      vertex 12.15 -5.142 1.9
    endloop
  endfacet
  facet normal 0 0 1
    outer loop
      vertex 12.15 8 1.9
      vertex 8.612 -5.642 1.9
      vertex 10.403 -5.255 1.9
    endloop
  endfacet
  facet normal 0 0 1
    outer loop
      vertex 12.15 8 1.9
      vertex 7.753 -5.904 1.9
      vertex 8.612 -5.642 1.9
    endloop
  endfacet
  facet normal -0 0 1
    outer loop
      vertex -5 8 1.9
      vertex 7.753 -5.904 1.9
      vertex 12.15 8 1.9
    endloop
  endfacet
  facet normal 0 0 1
    outer loop
      vertex 7.753 -5.904 1.9
      vertex -5 8 1.9
      vertex 6.883 -6.282 1.9
    endloop
  endfacet
  facet normal 0 -0 1
    outer loop
      vertex -0.112 -6.619 1.9
      vertex 6.883 -6.282 1.9
      vertex -5 8 1.9
    endloop
  endfacet
  facet normal 0 -0 1
    outer loop
      vertex 1.398 -7.259 1.9
      vertex 6.337 -6.653 1.9
      vertex 0.943 -6.977 1.9
    endloop
  endfacet
  facet normal 0 0 1
    outer loop
      vertex 6.337 -6.653 1.9
      vertex 1.398 -7.259 1.9
      vertex 5.361 -7.64 1.9
    endloop
  endfacet
  facet normal 0 0 1
    outer loop
      vertex 5.361 -7.64 1.9
      vertex 2.408 -8.182 1.9
      vertex 4.936 -8.2 1.9
    endloop
  endfacet
  facet normal 0 -0 1
    outer loop
      vertex 2.408 -8.182 1.9
      vertex 5.361 -7.64 1.9
      vertex 2.136 -7.881 1.9
    endloop
  endfacet
  facet normal 0 -0 1
    outer loop
      vertex 2.136 -7.881 1.9
      vertex 5.361 -7.64 1.9
      vertex 1.398 -7.259 1.9
    endloop
  endfacet
  facet normal 0 0 1
    outer loop
      vertex 6.883 -6.282 1.9
      vertex 0.943 -6.977 1.9
      vertex 6.337 -6.653 1.9
    endloop
  endfacet
  facet normal 0 -0 1
    outer loop
      vertex 0.943 -6.977 1.9
      vertex 6.883 -6.282 1.9
      vertex -0.112 -6.619 1.9
    endloop
  endfacet
  facet normal 0 0 1
    outer loop
      vertex -0.112 -6.619 1.9
      vertex -5 8 1.9
      vertex -0.698 -6.473 1.9
    endloop
  endfacet
  facet normal 0 0 1
    outer loop
      vertex -0.698 -6.473 1.9
      vertex -5 8 1.9
      vertex -1.947 -6.423 1.9
    endloop
  endfacet
  facet normal 0 0 1
    outer loop
      vertex -1.947 -6.423 1.9
      vertex -5 8 1.9
      vertex -5 -6.42 1.9
    endloop
  endfacet
  facet normal -0.711055 0.703131 -0.00272978
    outer loop
      vertex 5.828 -7.125 12.908
      vertex 6.337 -6.653 1.9
      vertex 5.361 -7.64 1.9
    endloop
  endfacet
  facet normal -0.44656 -0.894747 -0.00353247
    outer loop
      vertex 0.485999 -8.219 1.9
      vertex 0.992 -8.515 12.908
      vertex -0.0629997 -7.945 1.9
    endloop
  endfacet
  facet normal -0.643112 -0.765772 0.000768784
    outer loop
      vertex 2.185 -9.515 1.9
      vertex 1.448 -8.885 12.908
      vertex 0.992 -8.515 0
    endloop
  endfacet
  facet normal 0.520089 -0.854112 0
    outer loop
      vertex 7.802 -7.513 0
      vertex 7.802 -7.513 12.908
      vertex 6.659 -8.209 12.908
    endloop
  endfacet
  facet normal 0.505719 -0.862697 -0.00173539
    outer loop
      vertex 6.932 -8.023 0
      vertex 7.802 -7.513 0
      vertex 6.659 -8.209 12.908
    endloop
  endfacet
  facet normal 0.526805 0.849986 -0.000154431
    outer loop
      vertex 1.398 -7.257 12.908
      vertex 1.398 -7.259 1.9
      vertex 0.943 -6.977 1.9
    endloop
  endfacet
  facet normal 0.644455 0.764642 -0.000138925
    outer loop
      vertex 1.398 -7.257 12.908
      vertex 2.136 -7.881 1.9
      vertex 1.398 -7.259 1.9
    endloop
  endfacet
  facet normal 0.887169 -0.461444 0
    outer loop
      vertex 4.369 -11.081 12.908
      vertex 3.891 -12 12.908
      vertex 3.891 -12 9.585
    endloop
  endfacet
  facet normal 0.892477 -0.451079 -0.00362987
    outer loop
      vertex 4.264 -11.261 9.46
      vertex 4.369 -11.081 12.908
      vertex 3.891 -12 9.585
    endloop
  endfacet
  facet normal -0.446469 -0.894565 0.0204619
    outer loop
      vertex 0.992 -8.515 0
      vertex 0.485999 -8.219 1.9
      vertex -0.0629997 -7.945 1.9
    endloop
  endfacet
  facet normal -0.504931 -0.86316 0
    outer loop
      vertex 0.992 -8.515 0
      vertex 0.992 -8.515 12.908
      vertex 0.485999 -8.219 1.9
    endloop
  endfacet
  facet normal -0.475343 -0.879801 0
    outer loop
      vertex 0.992 -8.515 0
      vertex -0.0629997 -7.945 1.9
      vertex -0.0629997 -7.945 0
    endloop
  endfacet
  facet normal 0.616796 -0.787121 0.00170289
    outer loop
      vertex 6.932 -8.023 0
      vertex 6.659 -8.209 12.908
      vertex 5.878 -8.821 12.908
    endloop
  endfacet
  facet normal -0.797492 0.603329 -0.000182769
    outer loop
      vertex 5.01 -8.102 8.365
      vertex 5.361 -7.64 1.9
      vertex 4.936 -8.2 7.753
    endloop
  endfacet
  facet normal 0 1 0
    outer loop
      vertex 4.936 -8.2 12.908
      vertex 3.899 -8.2 9.579
      vertex 3.505 -8.2 9.598
    endloop
  endfacet
  facet normal 0 1 0
    outer loop
      vertex 4.936 -8.2 12.908
      vertex 4.178 -8.2 9.499
      vertex 3.899 -8.2 9.579
    endloop
  endfacet
  facet normal 0 1 0
    outer loop
      vertex 4.936 -8.2 12.908
      vertex 4.6 -8.2 9.218
      vertex 4.178 -8.2 9.499
    endloop
  endfacet
  facet normal -0 1 0
    outer loop
      vertex 4.6 -8.2 9.218
      vertex 4.936 -8.2 12.908
      vertex 4.936 -8.2 8.707
    endloop
  endfacet
  facet normal 0 1 0
    outer loop
      vertex 3.25 -8.2 9.55
      vertex 4.936 -8.2 12.908
      vertex 3.505 -8.2 9.598
    endloop
  endfacet
  facet normal 0 1 0
    outer loop
      vertex 4.936 -8.2 12.908
      vertex 3.25 -8.2 9.55
      vertex 2.911 -8.2 9.396
    endloop
  endfacet
  facet normal -0.275628 0.00450338 -0.961254
    outer loop
      vertex 4.178 -8.2 9.499
      vertex 4.264 -11.261 9.46
      vertex 3.899 -8.2 9.579
    endloop
  endfacet
  facet normal 0.841716 -0.539921 0
    outer loop
      vertex 4.986 -9.955 8.541
      vertex 5.41 -9.294 12.908
      vertex 4.986 -9.955 12.908
    endloop
  endfacet
  facet normal 0.841716 -0.539921 0
    outer loop
      vertex 4.986 -9.955 7.919
      vertex 5.41 -9.294 12.908
      vertex 4.986 -9.955 8.541
    endloop
  endfacet
  facet normal 0.841716 -0.539921 0
    outer loop
      vertex 5.41 -9.294 12.908
      vertex 4.986 -9.955 7.919
      vertex 5.41 -9.294 0
    endloop
  endfacet
  facet normal 0.841716 -0.539921 0
    outer loop
      vertex 5.41 -9.294 0
      vertex 4.986 -9.955 7.919
      vertex 4.986 -9.955 0
    endloop
  endfacet
  facet normal 0.0135351 0.999903 -0.00318625
    outer loop
      vertex 2.911 -8.2 9.396
      vertex 2.731 -8.198 9.259
      vertex 2.408 -8.182 12.908
    endloop
  endfacet
  facet normal -0.999916 0.0129509 0
    outer loop
      vertex 4.986 -9.955 8.541
      vertex 5.01 -8.102 8.365
      vertex 4.986 -9.955 7.919
    endloop
  endfacet
  facet normal -0.992309 -0.0166694 0.122654
    outer loop
      vertex 4.986 -9.955 7.919
      vertex 5.01 -8.102 8.365
      vertex 4.936 -8.2 7.753
    endloop
  endfacet
  facet normal 0.688801 -0.724948 0.00159138
    outer loop
      vertex 6.132 -8.608 0
      vertex 5.878 -8.821 12.908
      vertex 5.41 -9.294 0
    endloop
  endfacet
  facet normal -0.577141 -0.0358277 0.815858
    outer loop
      vertex 4.445 -10.878 7.11
      vertex 4.535 -10.711 7.181
      vertex 3.972 -8.2 6.893
    endloop
  endfacet
  facet normal -0.8957 0.0165113 0.444351
    outer loop
      vertex 4.986 -9.955 7.919
      vertex 4.936 -8.2 7.753
      vertex 4.809 -8.2 7.497
    endloop
  endfacet
  facet normal -0.31627 -0.000832067 -0.948669
    outer loop
      vertex 3.899 -8.2 9.579
      vertex 4.264 -11.261 9.46
      vertex 3.891 -12 9.585
    endloop
  endfacet
  facet normal 0.413559 0.0140958 -0.910368
    outer loop
      vertex 2.911 -8.2 9.396
      vertex 3.25 -8.2 9.55
      vertex 2.782 -10.357 9.304
    endloop
  endfacet
  facet normal 0.53018 -0.020425 -0.847639
    outer loop
      vertex 3.25 -8.2 9.55
      vertex 2.91 -10.593 9.395
      vertex 2.828 -10.439 9.34
    endloop
  endfacet
  facet normal 0.579121 -0.0327496 -0.814584
    outer loop
      vertex 3.25 -8.2 9.55
      vertex 2.828 -10.439 9.34
      vertex 2.782 -10.357 9.304
    endloop
  endfacet
  facet normal 0.605626 -0.0022796 -0.795746
    outer loop
      vertex 2.911 -8.2 9.396
      vertex 2.782 -10.357 9.304
      vertex 2.731 -8.198 9.259
    endloop
  endfacet
  facet normal 0.191211 0.981549 0
    outer loop
      vertex 2.408 -8.182 12.908
      vertex 2.485 -8.197 8.973
      vertex 2.408 -8.182 8.837
    endloop
  endfacet
  facet normal 0.877637 -0.479325 0
    outer loop
      vertex 4.104 -11.61 6.932
      vertex 3.891 -12 6.876
      vertex 3.891 -12 0
    endloop
  endfacet
  facet normal 0.888411 -0.459047 -0.00147192
    outer loop
      vertex 4.369 -11.081 1.9
      vertex 4.104 -11.61 6.932
      vertex 3.891 -12 0
    endloop
  endfacet
  facet normal -0.930794 -0.00598928 0.365496
    outer loop
      vertex 4.847 -10.261 7.56
      vertex 4.986 -9.955 7.919
      vertex 4.809 -8.2 7.497
    endloop
  endfacet
  facet normal -0.813449 -0.00313407 0.581628
    outer loop
      vertex 4.672 -10.493 7.314
      vertex 4.847 -10.261 7.56
      vertex 4.641 -8.2 7.283
    endloop
  endfacet
  facet normal -0.786566 0.00437284 0.617491
    outer loop
      vertex 4.847 -10.261 7.56
      vertex 4.809 -8.2 7.497
      vertex 4.641 -8.2 7.283
    endloop
  endfacet
  facet normal 0.00830747 0.999959 -0.00364923
    outer loop
      vertex 2.731 -8.198 9.259
      vertex 2.485 -8.197 8.973
      vertex 2.408 -8.182 12.908
    endloop
  endfacet
  facet normal 0.87762 -0.47929 0.00802835
    outer loop
      vertex 4.847 -10.261 0
      vertex 4.445 -10.878 7.11
      vertex 4.369 -11.018 7.06
    endloop
  endfacet
  facet normal 0.945962 -0.0198788 -0.323668
    outer loop
      vertex 2.485 -8.197 8.973
      vertex 2.399 -9.782 8.819
      vertex 2.322 -9.685 8.588
    endloop
  endfacet
  facet normal -0.698978 -0.0407341 -0.713982
    outer loop
      vertex 4.676 -10.488 9.142
      vertex 4.626 -10.559 9.195
      vertex 4.178 -8.2 9.499
    endloop
  endfacet
  facet normal 0.991144 0.00626122 -0.132644
    outer loop
      vertex 2.309 -8.072 8.567
      vertex 2.322 -9.685 8.588
      vertex 2.273 -8.072 8.298
    endloop
  endfacet
  facet normal 0.956518 0.00391204 -0.291648
    outer loop
      vertex 2.343 -8.11 8.678
      vertex 2.322 -9.685 8.588
      vertex 2.309 -8.072 8.567
    endloop
  endfacet
  facet normal 0.871255 0.0312976 -0.489832
    outer loop
      vertex 2.408 -8.182 8.837
      vertex 2.485 -8.197 8.973
      vertex 2.322 -9.685 8.588
    endloop
  endfacet
  facet normal 0.927032 0.00906085 -0.374872
    outer loop
      vertex 2.343 -8.11 8.678
      vertex 2.408 -8.182 8.837
      vertex 2.322 -9.685 8.588
    endloop
  endfacet
  facet normal 0.757984 0.0222115 -0.651895
    outer loop
      vertex 2.485 -8.197 8.973
      vertex 2.731 -8.198 9.259
      vertex 2.399 -9.782 8.819
    endloop
  endfacet
  facet normal 0.788113 0.00578791 -0.615503
    outer loop
      vertex 2.731 -8.198 9.259
      vertex 2.782 -10.357 9.304
      vertex 2.399 -9.782 8.819
    endloop
  endfacet
  facet normal 0 -1 -0.000301114
    outer loop
      vertex 3.413 -11.999 9.587
      vertex 3.891 -12 12.908
      vertex 3.413 -12 12.908
    endloop
  endfacet
  facet normal -0.782832 -0.622233 -0.000339909
    outer loop
      vertex 2.322 -9.685 8.588
      vertex 2.399 -9.782 8.819
      vertex 2.185 -9.515 12.908
    endloop
  endfacet
  facet normal -0.773572 -0.633709 0.000405373
    outer loop
      vertex 2.293 -9.65 7.962
      vertex 2.322 -9.685 8.588
      vertex 2.185 -9.515 12.908
    endloop
  endfacet
  facet normal -0.829537 -0.558408 -0.00695185
    outer loop
      vertex 2.399 -9.782 8.819
      vertex 2.782 -10.357 9.304
      vertex 2.185 -9.515 12.908
    endloop
  endfacet
  facet normal 0.437455 -0.00390878 -0.899232
    outer loop
      vertex 3.25 -8.2 9.55
      vertex 3.153 -11.234 9.516
      vertex 2.91 -10.593 9.395
    endloop
  endfacet
  facet normal 0.184984 0.00509865 -0.982728
    outer loop
      vertex 3.25 -8.2 9.55
      vertex 3.505 -8.2 9.598
      vertex 3.153 -11.234 9.516
    endloop
  endfacet
  facet normal -0.00418734 -0.00157012 -0.99999
    outer loop
      vertex 3.899 -8.2 9.579
      vertex 3.891 -12 9.585
      vertex 3.413 -11.999 9.587
    endloop
  endfacet
  facet normal -0.934634 -0.355551 -0.00654362
    outer loop
      vertex 3.153 -11.234 9.516
      vertex 2.936 -10.726 12.908
      vertex 2.91 -10.593 9.395
    endloop
  endfacet
  facet normal -0.796573 0.604542 0
    outer loop
      vertex 4.936 -8.2 7.753
      vertex 5.361 -7.64 1.9
      vertex 4.936 -8.2 1.9
    endloop
  endfacet
  facet normal -0.048167 0.00405857 -0.998831
    outer loop
      vertex 3.505 -8.2 9.598
      vertex 3.899 -8.2 9.579
      vertex 3.413 -11.999 9.587
    endloop
  endfacet
  facet normal 0.798345 -0.6022 0
    outer loop
      vertex 4.847 -10.261 0
      vertex 4.847 -10.261 7.56
      vertex 4.672 -10.493 7.314
    endloop
  endfacet
  facet normal -0.933108 -0.359597 -0.00010828
    outer loop
      vertex 3.413 -11.999 9.587
      vertex 3.413 -12 12.908
      vertex 3.255 -11.589 9.551
    endloop
  endfacet
  facet normal -0.960405 -0.277902 -0.0198213
    outer loop
      vertex 3.153 -11.234 9.516
      vertex 3.255 -11.589 9.551
      vertex 2.936 -10.726 12.908
    endloop
  endfacet
  facet normal 0.878797 -0.477124 0.00828277
    outer loop
      vertex 4.847 -10.261 0
      vertex 4.535 -10.711 7.181
      vertex 4.445 -10.878 7.11
    endloop
  endfacet
  facet normal -0.93651 -0.35064 0.00114852
    outer loop
      vertex 3.255 -11.589 9.551
      vertex 3.413 -12 12.908
      vertex 2.936 -10.726 12.908
    endloop
  endfacet
  facet normal 0.869923 -0.49315 0.00602102
    outer loop
      vertex 4.847 -10.261 0
      vertex 4.369 -11.018 7.06
      vertex 4.369 -11.081 1.9
    endloop
  endfacet
  facet normal 0.84577 -0.533537 0.00331271
    outer loop
      vertex 4.847 -10.261 0
      vertex 4.672 -10.493 7.314
      vertex 4.535 -10.711 7.181
    endloop
  endfacet
  facet normal 0.910468 -0.413579 0
    outer loop
      vertex 4.847 -10.261 7.56
      vertex 4.986 -9.955 0
      vertex 4.986 -9.955 7.919
    endloop
  endfacet
  facet normal 0.910468 -0.413579 0
    outer loop
      vertex 4.986 -9.955 0
      vertex 4.847 -10.261 7.56
      vertex 4.847 -10.261 0
    endloop
  endfacet
  facet normal -0.00209205 -0.999998 0
    outer loop
      vertex 3.891 -12 9.585
      vertex 3.891 -12 12.908
      vertex 3.413 -11.999 9.587
    endloop
  endfacet
  facet normal 0.912313 -0.409464 0.00499927
    outer loop
      vertex 4.369 -11.081 1.9
      vertex 4.369 -11.018 7.06
      vertex 4.104 -11.61 6.932
    endloop
  endfacet
  facet normal -0.849767 -0.526982 -0.013662
    outer loop
      vertex 2.91 -10.593 9.395
      vertex 2.936 -10.726 12.908
      vertex 2.185 -9.515 12.908
    endloop
  endfacet
  facet normal 0.710854 -0.70334 0
    outer loop
      vertex 5.878 -8.821 12.908
      vertex 5.41 -9.294 12.908
      vertex 5.41 -9.294 0
    endloop
  endfacet
  facet normal 0.590269 -0.807205 -0.00170487
    outer loop
      vertex 6.132 -8.608 0
      vertex 6.932 -8.023 0
      vertex 5.878 -8.821 12.908
    endloop
  endfacet
  facet normal -0.877076 -0.479149 -0.033976
    outer loop
      vertex 2.828 -10.439 9.34
      vertex 2.91 -10.593 9.395
      vertex 2.185 -9.515 12.908
    endloop
  endfacet
  facet normal -0.86668 -0.498123 -0.0271888
    outer loop
      vertex 2.782 -10.357 9.304
      vertex 2.828 -10.439 9.34
      vertex 2.185 -9.515 12.908
    endloop
  endfacet
  facet normal 0.297345 -0.00869399 -0.95473
    outer loop
      vertex 3.505 -8.2 9.598
      vertex 3.255 -11.589 9.551
      vertex 3.153 -11.234 9.516
    endloop
  endfacet
  facet normal 0.216207 -0.00240887 -0.976344
    outer loop
      vertex 3.505 -8.2 9.598
      vertex 3.413 -11.999 9.587
      vertex 3.255 -11.589 9.551
    endloop
  endfacet
  facet normal 0.804229 0.0861617 0.588041
    outer loop
      vertex 2.582 -8.198 7.354
      vertex 2.5 -8.197 7.466
      vertex 2.293 -9.65 7.962
    endloop
  endfacet
  facet normal 0.939577 0.00544051 0.342295
    outer loop
      vertex 2.408 -8.182 7.623
      vertex 2.309 -8.072 7.893
      vertex 2.293 -9.65 7.962
    endloop
  endfacet
  facet normal 0.86378 0.0481575 0.501563
    outer loop
      vertex 2.5 -8.197 7.466
      vertex 2.408 -8.182 7.623
      vertex 2.293 -9.65 7.962
    endloop
  endfacet
  facet normal -0.780869 -0.624695 0
    outer loop
      vertex 2.293 -9.65 7.962
      vertex 2.185 -9.515 12.908
      vertex 2.185 -9.515 1.9
    endloop
  endfacet
  facet normal 0.996053 -0.00622796 0.0885381
    outer loop
      vertex 2.293 -9.65 7.962
      vertex 2.309 -8.072 7.893
      vertex 2.273 -8.072 8.298
    endloop
  endfacet
  facet normal 0.723341 0.139222 0.67631
    outer loop
      vertex 2.7 -8.199 7.228
      vertex 2.582 -8.198 7.354
      vertex 2.293 -9.65 7.962
    endloop
  endfacet
  facet normal 0.998738 0.0222451 -0.0450237
    outer loop
      vertex 2.322 -9.685 8.588
      vertex 2.293 -9.65 7.962
      vertex 2.273 -8.072 8.298
    endloop
  endfacet
  facet normal 0.866018 0.00997075 0.499914
    outer loop
      vertex 2.749 -10.299 7.185
      vertex 2.7 -8.199 7.228
      vertex 2.293 -9.65 7.962
    endloop
  endfacet
  facet normal 0.0155236 0.999877 0.00243801
    outer loop
      vertex 2.5 -8.197 7.466
      vertex 2.582 -8.198 7.354
      vertex 2.408 -8.182 1.9
    endloop
  endfacet
  facet normal 0.011224 0.999934 0.00257535
    outer loop
      vertex 2.582 -8.198 7.354
      vertex 2.7 -8.199 7.228
      vertex 2.408 -8.182 1.9
    endloop
  endfacet
  facet normal 0.160919 0.986968 0
    outer loop
      vertex 2.408 -8.182 7.623
      vertex 2.5 -8.197 7.466
      vertex 2.408 -8.182 1.9
    endloop
  endfacet
  facet normal 0.00250584 0.999992 0.00305333
    outer loop
      vertex 2.7 -8.199 7.228
      vertex 2.845 -8.199 7.109
      vertex 2.408 -8.182 1.9
    endloop
  endfacet
  facet normal 0.00366814 0.999989 0.00295581
    outer loop
      vertex 2.845 -8.199 7.109
      vertex 3.282 -8.2 6.905
      vertex 2.408 -8.182 1.9
    endloop
  endfacet
  facet normal 0.00712005 0.999972 0.00235296
    outer loop
      vertex 3.282 -8.2 6.905
      vertex 4.936 -8.2 1.9
      vertex 2.408 -8.182 1.9
    endloop
  endfacet
  facet normal 0 1 0
    outer loop
      vertex 3.282 -8.2 6.905
      vertex 3.643 -8.2 6.857
      vertex 4.936 -8.2 1.9
    endloop
  endfacet
  facet normal 0 1 0
    outer loop
      vertex 3.972 -8.2 6.893
      vertex 4.936 -8.2 1.9
      vertex 3.643 -8.2 6.857
    endloop
  endfacet
  facet normal 0 1 0
    outer loop
      vertex 4.641 -8.2 7.283
      vertex 4.936 -8.2 1.9
      vertex 3.972 -8.2 6.893
    endloop
  endfacet
  facet normal 0 1 0
    outer loop
      vertex 4.809 -8.2 7.497
      vertex 4.936 -8.2 1.9
      vertex 4.641 -8.2 7.283
    endloop
  endfacet
  facet normal 0 1 -0
    outer loop
      vertex 4.936 -8.2 1.9
      vertex 4.809 -8.2 7.497
      vertex 4.936 -8.2 7.753
    endloop
  endfacet
  facet normal -0.649772 -0.76013 0
    outer loop
      vertex 2.185 -9.515 1.9
      vertex 2.185 -9.515 12.908
      vertex 1.448 -8.885 12.908
    endloop
  endfacet
  facet normal -0.129923 -0.0035216 0.991518
    outer loop
      vertex 3.746 -12 6.857
      vertex 3.891 -12 6.876
      vertex 3.643 -8.2 6.857
    endloop
  endfacet
  facet normal 0.0480004 0.00130106 0.998846
    outer loop
      vertex 3.746 -12 6.857
      vertex 3.643 -8.2 6.857
      vertex 3.413 -11.998 6.873
    endloop
  endfacet
  facet normal -0.236138 -0.0105528 0.971662
    outer loop
      vertex 3.891 -12 6.876
      vertex 4.104 -11.61 6.932
      vertex 3.643 -8.2 6.857
    endloop
  endfacet
  facet normal -0.10877 0.00715833 0.994041
    outer loop
      vertex 4.104 -11.61 6.932
      vertex 3.972 -8.2 6.893
      vertex 3.643 -8.2 6.857
    endloop
  endfacet
  facet normal -0.423936 -0.0060523 0.905672
    outer loop
      vertex 4.104 -11.61 6.932
      vertex 4.369 -11.018 7.06
      vertex 3.972 -8.2 6.893
    endloop
  endfacet
  facet normal -0.520011 -0.0226579 0.853859
    outer loop
      vertex 4.369 -11.018 7.06
      vertex 4.445 -10.878 7.11
      vertex 3.972 -8.2 6.893
    endloop
  endfacet
  facet normal 0.177383 -0.00659616 0.98412
    outer loop
      vertex 3.413 -11.998 6.873
      vertex 3.643 -8.2 6.857
      vertex 3.372 -11.907 6.881
    endloop
  endfacet
  facet normal -0.779873 -0.625938 -4.54279e-05
    outer loop
      vertex 2.458 -9.855 0
      vertex 2.293 -9.65 7.962
      vertex 2.185 -9.515 1.9
    endloop
  endfacet
  facet normal 0.37439 0.00308625 0.927266
    outer loop
      vertex 3.372 -11.907 6.881
      vertex 3.282 -8.2 6.905
      vertex 2.923 -10.619 7.058
    endloop
  endfacet
  facet normal 0.524169 -0.0239484 0.851278
    outer loop
      vertex 2.923 -10.619 7.058
      vertex 3.282 -8.2 6.905
      vertex 2.829 -10.437 7.121
    endloop
  endfacet
  facet normal 0.131803 -0.00321775 0.991271
    outer loop
      vertex 3.372 -11.907 6.881
      vertex 3.643 -8.2 6.857
      vertex 3.282 -8.2 6.905
    endloop
  endfacet
  facet normal -0.646585 -0.0577294 0.760655
    outer loop
      vertex 4.535 -10.711 7.181
      vertex 4.672 -10.493 7.314
      vertex 3.972 -8.2 6.893
    endloop
  endfacet
  facet normal -0.503624 0.00487084 0.863909
    outer loop
      vertex 4.672 -10.493 7.314
      vertex 4.641 -8.2 7.283
      vertex 3.972 -8.2 6.893
    endloop
  endfacet
  facet normal -0.944125 -0.329572 0.00325738
    outer loop
      vertex 2.936 -10.726 0
      vertex 3.372 -11.907 6.881
      vertex 2.923 -10.619 7.058
    endloop
  endfacet
  facet normal -0.864341 -0.50289 0.00393042
    outer loop
      vertex 2.829 -10.437 7.121
      vertex 2.749 -10.299 7.185
      vertex 2.458 -9.855 0
    endloop
  endfacet
  facet normal -0.819474 -0.573113 -0.0022262
    outer loop
      vertex 2.458 -9.855 0
      vertex 2.749 -10.299 7.185
      vertex 2.293 -9.65 7.962
    endloop
  endfacet
  facet normal 0.581888 -0.0393989 0.812314
    outer loop
      vertex 2.829 -10.437 7.121
      vertex 3.282 -8.2 6.905
      vertex 2.749 -10.299 7.185
    endloop
  endfacet
  facet normal 0.422986 0.0134534 0.906036
    outer loop
      vertex 3.282 -8.2 6.905
      vertex 2.845 -8.199 7.109
      vertex 2.749 -10.299 7.185
    endloop
  endfacet
  facet normal 0.634398 -0.0010256 0.773006
    outer loop
      vertex 2.749 -10.299 7.185
      vertex 2.845 -8.199 7.109
      vertex 2.7 -8.199 7.228
    endloop
  endfacet
  facet normal -0.887253 -0.461205 0.00853107
    outer loop
      vertex 2.923 -10.619 7.058
      vertex 2.829 -10.437 7.121
      vertex 2.458 -9.855 0
    endloop
  endfacet
  facet normal -0.876648 -0.481099 0.00567883
    outer loop
      vertex 2.936 -10.726 0
      vertex 2.923 -10.619 7.058
      vertex 2.458 -9.855 0
    endloop
  endfacet
  facet normal 0 1 -0
    outer loop
      vertex 12.15 8 0
      vertex -5 8 1.9
      vertex 12.15 8 1.9
    endloop
  endfacet
  facet normal 0 1 0
    outer loop
      vertex -5 8 1.9
      vertex 12.15 8 0
      vertex -5 8 0
    endloop
  endfacet
endsolid OpenSCAD_Model
