solid OpenSCAD_Model
  facet normal 0.998027 0.0627905 0
    outer loop
      vertex 34 0 5
      vertex 33.7319 4.26133 0
      vertex 33.7319 4.26133 5
    endloop
  endfacet
  facet normal 0.998027 0.0627905 0
    outer loop
      vertex 33.7319 4.26133 0
      vertex 34 0 5
      vertex 34 0 0
    endloop
  endfacet
  facet normal -0.998027 0.0627905 0
    outer loop
      vertex -34 0 0
      vertex -33.7319 4.26133 5
      vertex -33.7319 4.26133 0
    endloop
  endfacet
  facet normal -0.998027 0.0627905 0
    outer loop
      vertex -33.7319 4.26133 5
      vertex -34 0 0
      vertex -34 0 5
    endloop
  endfacet
  facet normal 0 1 -0
    outer loop
      vertex 2.13488 33.9329 0
      vertex -2.13488 33.9329 5
      vertex 2.13488 33.9329 5
    endloop
  endfacet
  facet normal 0 1 0
    outer loop
      vertex -2.13488 33.9329 5
      vertex 2.13488 33.9329 0
      vertex -2.13488 33.9329 0
    endloop
  endfacet
  facet normal 0.684543 0.728972 -0
    outer loop
      vertex 24.7849 23.2746 0
      vertex 21.6724 26.1974 5
      vertex 24.7849 23.2746 5
    endloop
  endfacet
  facet normal 0.684543 0.728972 0
    outer loop
      vertex 21.6724 26.1974 5
      vertex 24.7849 23.2746 0
      vertex 21.6724 26.1974 0
    endloop
  endfacet
  facet normal -0.684543 0.728972 0
    outer loop
      vertex -21.6724 26.1974 0
      vertex -24.7849 23.2746 5
      vertex -21.6724 26.1974 5
    endloop
  endfacet
  facet normal -0.684543 0.728972 0
    outer loop
      vertex -24.7849 23.2746 5
      vertex -21.6724 26.1974 0
      vertex -24.7849 23.2746 0
    endloop
  endfacet
  facet normal -0.368126 0.929776 0
    outer loop
      vertex -10.5066 32.3359 0
      vertex -14.4765 30.7641 5
      vertex -10.5066 32.3359 5
    endloop
  endfacet
  facet normal -0.368126 0.929776 0
    outer loop
      vertex -14.4765 30.7641 5
      vertex -10.5066 32.3359 0
      vertex -14.4765 30.7641 0
    endloop
  endfacet
  facet normal 0.904825 0.425784 0
    outer loop
      vertex 31.6124 12.5162 5
      vertex 29.7944 16.3796 0
      vertex 29.7944 16.3796 5
    endloop
  endfacet
  facet normal 0.904825 0.425784 0
    outer loop
      vertex 29.7944 16.3796 0
      vertex 31.6124 12.5162 5
      vertex 31.6124 12.5162 0
    endloop
  endfacet
  facet normal 0.368126 0.929776 -0
    outer loop
      vertex 14.4765 30.7641 0
      vertex 10.5066 32.3359 5
      vertex 14.4765 30.7641 5
    endloop
  endfacet
  facet normal 0.368126 0.929776 0
    outer loop
      vertex 10.5066 32.3359 5
      vertex 14.4765 30.7641 0
      vertex 10.5066 32.3359 0
    endloop
  endfacet
  facet normal 0.2487 0.96858 -0
    outer loop
      vertex 10.5066 32.3359 0
      vertex 6.37096 33.3978 5
      vertex 10.5066 32.3359 5
    endloop
  endfacet
  facet normal 0.2487 0.96858 0
    outer loop
      vertex 6.37096 33.3978 5
      vertex 10.5066 32.3359 0
      vertex 6.37096 33.3978 0
    endloop
  endfacet
  facet normal 0.587786 0.809017 -0
    outer loop
      vertex 21.6724 26.1974 0
      vertex 18.2181 28.7071 5
      vertex 21.6724 26.1974 5
    endloop
  endfacet
  facet normal 0.587786 0.809017 0
    outer loop
      vertex 18.2181 28.7071 5
      vertex 21.6724 26.1974 0
      vertex 18.2181 28.7071 0
    endloop
  endfacet
  facet normal -0.844335 0.535816 0
    outer loop
      vertex -29.7944 16.3796 0
      vertex -27.5066 19.9847 5
      vertex -27.5066 19.9847 0
    endloop
  endfacet
  facet normal -0.844335 0.535816 0
    outer loop
      vertex -27.5066 19.9847 5
      vertex -29.7944 16.3796 0
      vertex -29.7944 16.3796 5
    endloop
  endfacet
  facet normal -0.770507 0.637432 0
    outer loop
      vertex -27.5066 19.9847 0
      vertex -24.7849 23.2746 5
      vertex -24.7849 23.2746 0
    endloop
  endfacet
  facet normal -0.770507 0.637432 0
    outer loop
      vertex -24.7849 23.2746 5
      vertex -27.5066 19.9847 0
      vertex -27.5066 19.9847 5
    endloop
  endfacet
  facet normal -0.982286 0.187387 0
    outer loop
      vertex -33.7319 4.26133 0
      vertex -32.9318 8.45546 5
      vertex -32.9318 8.45546 0
    endloop
  endfacet
  facet normal -0.982286 0.187387 0
    outer loop
      vertex -32.9318 8.45546 5
      vertex -33.7319 4.26133 0
      vertex -33.7319 4.26133 5
    endloop
  endfacet
  facet normal -0.587786 0.809017 0
    outer loop
      vertex -18.2181 28.7071 0
      vertex -21.6724 26.1974 5
      vertex -18.2181 28.7071 5
    endloop
  endfacet
  facet normal -0.587786 0.809017 0
    outer loop
      vertex -21.6724 26.1974 5
      vertex -18.2181 28.7071 0
      vertex -21.6724 26.1974 0
    endloop
  endfacet
  facet normal -0.125324 0.992116 0
    outer loop
      vertex -2.13488 33.9329 0
      vertex -6.37096 33.3978 5
      vertex -2.13488 33.9329 5
    endloop
  endfacet
  facet normal -0.125324 0.992116 0
    outer loop
      vertex -6.37096 33.3978 5
      vertex -2.13488 33.9329 0
      vertex -6.37096 33.3978 0
    endloop
  endfacet
  facet normal 0.998027 -0.0627905 0
    outer loop
      vertex 33.7319 -4.26133 5
      vertex 34 0 0
      vertex 34 0 5
    endloop
  endfacet
  facet normal 0.998027 -0.0627905 0
    outer loop
      vertex 34 0 0
      vertex 33.7319 -4.26133 5
      vertex 33.7319 -4.26133 0
    endloop
  endfacet
  facet normal 0.125324 -0.992116 0
    outer loop
      vertex 2.13488 -33.9329 0
      vertex 6.37096 -33.3978 5
      vertex 2.13488 -33.9329 5
    endloop
  endfacet
  facet normal 0.125324 -0.992116 0
    outer loop
      vertex 6.37096 -33.3978 5
      vertex 2.13488 -33.9329 0
      vertex 6.37096 -33.3978 0
    endloop
  endfacet
  facet normal 0.951058 0.309014 0
    outer loop
      vertex 32.9318 8.45546 5
      vertex 31.6124 12.5162 0
      vertex 31.6124 12.5162 5
    endloop
  endfacet
  facet normal 0.951058 0.309014 0
    outer loop
      vertex 31.6124 12.5162 0
      vertex 32.9318 8.45546 5
      vertex 32.9318 8.45546 0
    endloop
  endfacet
  facet normal 0.982286 0.187387 0
    outer loop
      vertex 33.7319 4.26133 5
      vertex 32.9318 8.45546 0
      vertex 32.9318 8.45546 5
    endloop
  endfacet
  facet normal 0.982286 0.187387 0
    outer loop
      vertex 32.9318 8.45546 0
      vertex 33.7319 4.26133 5
      vertex 33.7319 4.26133 0
    endloop
  endfacet
  facet normal 0.770507 0.637432 0
    outer loop
      vertex 27.5066 19.9847 5
      vertex 24.7849 23.2746 0
      vertex 24.7849 23.2746 5
    endloop
  endfacet
  facet normal 0.770507 0.637432 0
    outer loop
      vertex 24.7849 23.2746 0
      vertex 27.5066 19.9847 5
      vertex 27.5066 19.9847 0
    endloop
  endfacet
  facet normal 0.844335 0.535816 0
    outer loop
      vertex 29.7944 16.3796 5
      vertex 27.5066 19.9847 0
      vertex 27.5066 19.9847 5
    endloop
  endfacet
  facet normal 0.844335 0.535816 0
    outer loop
      vertex 27.5066 19.9847 0
      vertex 29.7944 16.3796 5
      vertex 29.7944 16.3796 0
    endloop
  endfacet
  facet normal 0.125324 0.992116 -0
    outer loop
      vertex 6.37096 33.3978 0
      vertex 2.13488 33.9329 5
      vertex 6.37096 33.3978 5
    endloop
  endfacet
  facet normal 0.125324 0.992116 0
    outer loop
      vertex 2.13488 33.9329 5
      vertex 6.37096 33.3978 0
      vertex 2.13488 33.9329 0
    endloop
  endfacet
  facet normal 0.481761 0.876303 -0
    outer loop
      vertex 18.2181 28.7071 0
      vertex 14.4765 30.7641 5
      vertex 18.2181 28.7071 5
    endloop
  endfacet
  facet normal 0.481761 0.876303 0
    outer loop
      vertex 14.4765 30.7641 5
      vertex 18.2181 28.7071 0
      vertex 14.4765 30.7641 0
    endloop
  endfacet
  facet normal -0.904825 0.425784 0
    outer loop
      vertex -31.6124 12.5162 0
      vertex -29.7944 16.3796 5
      vertex -29.7944 16.3796 0
    endloop
  endfacet
  facet normal -0.904825 0.425784 0
    outer loop
      vertex -29.7944 16.3796 5
      vertex -31.6124 12.5162 0
      vertex -31.6124 12.5162 5
    endloop
  endfacet
  facet normal 0 0 1
    outer loop
      vertex 31 0 5
      vertex 34 0 5
      vertex 33.7319 4.26133 5
    endloop
  endfacet
  facet normal 0 0 1
    outer loop
      vertex 30.7556 3.88533 5
      vertex 33.7319 4.26133 5
      vertex 32.9318 8.45546 5
    endloop
  endfacet
  facet normal 0 0 1
    outer loop
      vertex 34 0 5
      vertex 31 0 5
      vertex 33.7319 -4.26133 5
    endloop
  endfacet
  facet normal 0 0 1
    outer loop
      vertex 30.0261 7.70939 5
      vertex 32.9318 8.45546 5
      vertex 31.6124 12.5162 5
    endloop
  endfacet
  facet normal -0 0 1
    outer loop
      vertex 30.7556 -3.88533 5
      vertex 33.7319 -4.26133 5
      vertex 31 0 5
    endloop
  endfacet
  facet normal 0 0 1
    outer loop
      vertex 33.7319 -4.26133 5
      vertex 30.7556 -3.88533 5
      vertex 32.9318 -8.45546 5
    endloop
  endfacet
  facet normal 0 0 1
    outer loop
      vertex 33.7319 4.26133 5
      vertex 30.7556 3.88533 5
      vertex 31 0 5
    endloop
  endfacet
  facet normal 0 0 1
    outer loop
      vertex 32.9318 8.45546 5
      vertex 30.0261 7.70939 5
      vertex 30.7556 3.88533 5
    endloop
  endfacet
  facet normal 0 0 1
    outer loop
      vertex 28.8231 11.4119 5
      vertex 31.6124 12.5162 5
      vertex 29.7944 16.3796 5
    endloop
  endfacet
  facet normal 0 0 1
    outer loop
      vertex 31.6124 12.5162 5
      vertex 28.8231 11.4119 5
      vertex 30.0261 7.70939 5
    endloop
  endfacet
  facet normal 0 0 1
    outer loop
      vertex 27.1655 14.9344 5
      vertex 29.7944 16.3796 5
      vertex 27.5066 19.9847 5
    endloop
  endfacet
  facet normal 0 0 1
    outer loop
      vertex 29.7944 16.3796 5
      vertex 27.1655 14.9344 5
      vertex 28.8231 11.4119 5
    endloop
  endfacet
  facet normal 0 0 1
    outer loop
      vertex 27.5066 19.9847 5
      vertex 25.0795 18.2213 5
      vertex 27.1655 14.9344 5
    endloop
  endfacet
  facet normal 0 0 1
    outer loop
      vertex 24.7849 23.2746 5
      vertex 25.0795 18.2213 5
      vertex 27.5066 19.9847 5
    endloop
  endfacet
  facet normal 0 0 1
    outer loop
      vertex 24.7849 23.2746 5
      vertex 22.598 21.221 5
      vertex 25.0795 18.2213 5
    endloop
  endfacet
  facet normal 0 0 1
    outer loop
      vertex 21.6724 26.1974 5
      vertex 22.598 21.221 5
      vertex 24.7849 23.2746 5
    endloop
  endfacet
  facet normal 0 0 1
    outer loop
      vertex 21.6724 26.1974 5
      vertex 19.7601 23.8859 5
      vertex 22.598 21.221 5
    endloop
  endfacet
  facet normal 0 0 1
    outer loop
      vertex 18.2181 28.7071 5
      vertex 19.7601 23.8859 5
      vertex 21.6724 26.1974 5
    endloop
  endfacet
  facet normal 0 0 1
    outer loop
      vertex 18.2181 28.7071 5
      vertex 16.6106 26.1742 5
      vertex 19.7601 23.8859 5
    endloop
  endfacet
  facet normal 0 0 1
    outer loop
      vertex 14.4765 30.7641 5
      vertex 16.6106 26.1742 5
      vertex 18.2181 28.7071 5
    endloop
  endfacet
  facet normal 0 0 1
    outer loop
      vertex 14.4765 30.7641 5
      vertex 13.1992 28.0496 5
      vertex 16.6106 26.1742 5
    endloop
  endfacet
  facet normal 0 0 1
    outer loop
      vertex 10.5066 32.3359 5
      vertex 13.1992 28.0496 5
      vertex 14.4765 30.7641 5
    endloop
  endfacet
  facet normal 0 0 1
    outer loop
      vertex 10.5066 32.3359 5
      vertex 9.57953 29.4828 5
      vertex 13.1992 28.0496 5
    endloop
  endfacet
  facet normal 0 0 1
    outer loop
      vertex 6.37096 33.3978 5
      vertex 9.57953 29.4828 5
      vertex 10.5066 32.3359 5
    endloop
  endfacet
  facet normal 0 0 1
    outer loop
      vertex 6.37096 33.3978 5
      vertex 5.80882 30.4509 5
      vertex 9.57953 29.4828 5
    endloop
  endfacet
  facet normal 0 0 1
    outer loop
      vertex 2.13488 33.9329 5
      vertex 5.80882 30.4509 5
      vertex 6.37096 33.3978 5
    endloop
  endfacet
  facet normal 0 0 1
    outer loop
      vertex 2.13488 33.9329 5
      vertex 1.94651 30.9388 5
      vertex 5.80882 30.4509 5
    endloop
  endfacet
  facet normal 0 0 1
    outer loop
      vertex 2.13488 33.9329 5
      vertex -1.94651 30.9388 5
      vertex 1.94651 30.9388 5
    endloop
  endfacet
  facet normal -0 0 1
    outer loop
      vertex -2.13488 33.9329 5
      vertex -1.94651 30.9388 5
      vertex 2.13488 33.9329 5
    endloop
  endfacet
  facet normal 0 0 1
    outer loop
      vertex -2.13488 33.9329 5
      vertex -5.80882 30.4509 5
      vertex -1.94651 30.9388 5
    endloop
  endfacet
  facet normal -0 0 1
    outer loop
      vertex -6.37096 33.3978 5
      vertex -5.80882 30.4509 5
      vertex -2.13488 33.9329 5
    endloop
  endfacet
  facet normal 0 0 1
    outer loop
      vertex -6.37096 33.3978 5
      vertex -9.57953 29.4828 5
      vertex -5.80882 30.4509 5
    endloop
  endfacet
  facet normal -0 0 1
    outer loop
      vertex -10.5066 32.3359 5
      vertex -9.57953 29.4828 5
      vertex -6.37096 33.3978 5
    endloop
  endfacet
  facet normal 0 0 1
    outer loop
      vertex -10.5066 32.3359 5
      vertex -13.1992 28.0496 5
      vertex -9.57953 29.4828 5
    endloop
  endfacet
  facet normal -0 0 1
    outer loop
      vertex -14.4765 30.7641 5
      vertex -13.1992 28.0496 5
      vertex -10.5066 32.3359 5
    endloop
  endfacet
  facet normal 0 0 1
    outer loop
      vertex -14.4765 30.7641 5
      vertex -16.6106 26.1742 5
      vertex -13.1992 28.0496 5
    endloop
  endfacet
  facet normal -0 0 1
    outer loop
      vertex -18.2181 28.7071 5
      vertex -16.6106 26.1742 5
      vertex -14.4765 30.7641 5
    endloop
  endfacet
  facet normal 0 0 1
    outer loop
      vertex -18.2181 28.7071 5
      vertex -19.7601 23.8859 5
      vertex -16.6106 26.1742 5
    endloop
  endfacet
  facet normal -0 0 1
    outer loop
      vertex -21.6724 26.1974 5
      vertex -19.7601 23.8859 5
      vertex -18.2181 28.7071 5
    endloop
  endfacet
  facet normal 0 0 1
    outer loop
      vertex -21.6724 26.1974 5
      vertex -22.598 21.221 5
      vertex -19.7601 23.8859 5
    endloop
  endfacet
  facet normal -0 0 1
    outer loop
      vertex -24.7849 23.2746 5
      vertex -22.598 21.221 5
      vertex -21.6724 26.1974 5
    endloop
  endfacet
  facet normal 0 0 1
    outer loop
      vertex -24.7849 23.2746 5
      vertex -25.0795 18.2213 5
      vertex -22.598 21.221 5
    endloop
  endfacet
  facet normal -0 0 1
    outer loop
      vertex -27.5066 19.9847 5
      vertex -25.0795 18.2213 5
      vertex -24.7849 23.2746 5
    endloop
  endfacet
  facet normal 0 0 1
    outer loop
      vertex -25.0795 18.2213 5
      vertex -27.5066 19.9847 5
      vertex -27.1655 14.9344 5
    endloop
  endfacet
  facet normal -0 0 1
    outer loop
      vertex -29.7944 16.3796 5
      vertex -27.1655 14.9344 5
      vertex -27.5066 19.9847 5
    endloop
  endfacet
  facet normal 0 0 1
    outer loop
      vertex -27.1655 14.9344 5
      vertex -29.7944 16.3796 5
      vertex -28.8231 11.4119 5
    endloop
  endfacet
  facet normal -0 0 1
    outer loop
      vertex -31.6124 12.5162 5
      vertex -28.8231 11.4119 5
      vertex -29.7944 16.3796 5
    endloop
  endfacet
  facet normal 0 0 1
    outer loop
      vertex -28.8231 11.4119 5
      vertex -31.6124 12.5162 5
      vertex -30.0261 7.70939 5
    endloop
  endfacet
  facet normal 0 0 1
    outer loop
      vertex -30.0261 7.70939 5
      vertex -32.9318 8.45546 5
      vertex -30.7556 3.88533 5
    endloop
  endfacet
  facet normal -0 0 1
    outer loop
      vertex -32.9318 8.45546 5
      vertex -30.0261 7.70939 5
      vertex -31.6124 12.5162 5
    endloop
  endfacet
  facet normal -0 0 1
    outer loop
      vertex 30.0261 -7.70939 5
      vertex 32.9318 -8.45546 5
      vertex 30.7556 -3.88533 5
    endloop
  endfacet
  facet normal 0 0 1
    outer loop
      vertex 32.9318 -8.45546 5
      vertex 30.0261 -7.70939 5
      vertex 31.6124 -12.5162 5
    endloop
  endfacet
  facet normal -0 0 1
    outer loop
      vertex 28.8231 -11.4119 5
      vertex 31.6124 -12.5162 5
      vertex 30.0261 -7.70939 5
    endloop
  endfacet
  facet normal 0 0 1
    outer loop
      vertex 31.6124 -12.5162 5
      vertex 28.8231 -11.4119 5
      vertex 29.7944 -16.3796 5
    endloop
  endfacet
  facet normal -0 0 1
    outer loop
      vertex 27.1655 -14.9344 5
      vertex 29.7944 -16.3796 5
      vertex 28.8231 -11.4119 5
    endloop
  endfacet
  facet normal 0 0 1
    outer loop
      vertex 29.7944 -16.3796 5
      vertex 27.1655 -14.9344 5
      vertex 27.5066 -19.9847 5
    endloop
  endfacet
  facet normal -0 0 1
    outer loop
      vertex 25.0795 -18.2213 5
      vertex 27.5066 -19.9847 5
      vertex 27.1655 -14.9344 5
    endloop
  endfacet
  facet normal 0 0 1
    outer loop
      vertex 25.0795 -18.2213 5
      vertex 24.7849 -23.2746 5
      vertex 27.5066 -19.9847 5
    endloop
  endfacet
  facet normal -0 0 1
    outer loop
      vertex 22.598 -21.221 5
      vertex 24.7849 -23.2746 5
      vertex 25.0795 -18.2213 5
    endloop
  endfacet
  facet normal 0 0 1
    outer loop
      vertex 22.598 -21.221 5
      vertex 21.6724 -26.1974 5
      vertex 24.7849 -23.2746 5
    endloop
  endfacet
  facet normal -0 0 1
    outer loop
      vertex 19.7601 -23.8859 5
      vertex 21.6724 -26.1974 5
      vertex 22.598 -21.221 5
    endloop
  endfacet
  facet normal 0 0 1
    outer loop
      vertex 19.7601 -23.8859 5
      vertex 18.2181 -28.7071 5
      vertex 21.6724 -26.1974 5
    endloop
  endfacet
  facet normal -0 0 1
    outer loop
      vertex 16.6106 -26.1742 5
      vertex 18.2181 -28.7071 5
      vertex 19.7601 -23.8859 5
    endloop
  endfacet
  facet normal 0 0 1
    outer loop
      vertex 16.6106 -26.1742 5
      vertex 14.4765 -30.7641 5
      vertex 18.2181 -28.7071 5
    endloop
  endfacet
  facet normal -0 0 1
    outer loop
      vertex 13.1992 -28.0496 5
      vertex 14.4765 -30.7641 5
      vertex 16.6106 -26.1742 5
    endloop
  endfacet
  facet normal 0 0 1
    outer loop
      vertex 13.1992 -28.0496 5
      vertex 10.5066 -32.3359 5
      vertex 14.4765 -30.7641 5
    endloop
  endfacet
  facet normal -0 0 1
    outer loop
      vertex 9.57953 -29.4828 5
      vertex 10.5066 -32.3359 5
      vertex 13.1992 -28.0496 5
    endloop
  endfacet
  facet normal 0 0 1
    outer loop
      vertex 9.57953 -29.4828 5
      vertex 6.37096 -33.3978 5
      vertex 10.5066 -32.3359 5
    endloop
  endfacet
  facet normal -0 0 1
    outer loop
      vertex 5.80882 -30.4509 5
      vertex 6.37096 -33.3978 5
      vertex 9.57953 -29.4828 5
    endloop
  endfacet
  facet normal 0 0 1
    outer loop
      vertex 5.80882 -30.4509 5
      vertex 2.13488 -33.9329 5
      vertex 6.37096 -33.3978 5
    endloop
  endfacet
  facet normal -0 0 1
    outer loop
      vertex 1.94651 -30.9388 5
      vertex 2.13488 -33.9329 5
      vertex 5.80882 -30.4509 5
    endloop
  endfacet
  facet normal -0 0 1
    outer loop
      vertex -1.94651 -30.9388 5
      vertex 2.13488 -33.9329 5
      vertex 1.94651 -30.9388 5
    endloop
  endfacet
  facet normal 0 0 1
    outer loop
      vertex -1.94651 -30.9388 5
      vertex -2.13488 -33.9329 5
      vertex 2.13488 -33.9329 5
    endloop
  endfacet
  facet normal 0 0 1
    outer loop
      vertex -5.80882 -30.4509 5
      vertex -2.13488 -33.9329 5
      vertex -1.94651 -30.9388 5
    endloop
  endfacet
  facet normal 0 0 1
    outer loop
      vertex -5.80882 -30.4509 5
      vertex -6.37096 -33.3978 5
      vertex -2.13488 -33.9329 5
    endloop
  endfacet
  facet normal 0 0 1
    outer loop
      vertex -9.57953 -29.4828 5
      vertex -6.37096 -33.3978 5
      vertex -5.80882 -30.4509 5
    endloop
  endfacet
  facet normal 0 0 1
    outer loop
      vertex -9.57953 -29.4828 5
      vertex -10.5066 -32.3359 5
      vertex -6.37096 -33.3978 5
    endloop
  endfacet
  facet normal 0 0 1
    outer loop
      vertex -13.1992 -28.0496 5
      vertex -10.5066 -32.3359 5
      vertex -9.57953 -29.4828 5
    endloop
  endfacet
  facet normal 0 0 1
    outer loop
      vertex -13.1992 -28.0496 5
      vertex -14.4765 -30.7641 5
      vertex -10.5066 -32.3359 5
    endloop
  endfacet
  facet normal 0 0 1
    outer loop
      vertex -16.6106 -26.1742 5
      vertex -14.4765 -30.7641 5
      vertex -13.1992 -28.0496 5
    endloop
  endfacet
  facet normal 0 0 1
    outer loop
      vertex -16.6106 -26.1742 5
      vertex -18.2181 -28.7071 5
      vertex -14.4765 -30.7641 5
    endloop
  endfacet
  facet normal 0 0 1
    outer loop
      vertex -19.7601 -23.8859 5
      vertex -18.2181 -28.7071 5
      vertex -16.6106 -26.1742 5
    endloop
  endfacet
  facet normal 0 0 1
    outer loop
      vertex -19.7601 -23.8859 5
      vertex -21.6724 -26.1974 5
      vertex -18.2181 -28.7071 5
    endloop
  endfacet
  facet normal 0 0 1
    outer loop
      vertex -22.598 -21.221 5
      vertex -21.6724 -26.1974 5
      vertex -19.7601 -23.8859 5
    endloop
  endfacet
  facet normal 0 0 1
    outer loop
      vertex -22.598 -21.221 5
      vertex -24.7849 -23.2746 5
      vertex -21.6724 -26.1974 5
    endloop
  endfacet
  facet normal 0 0 1
    outer loop
      vertex -25.0795 -18.2213 5
      vertex -24.7849 -23.2746 5
      vertex -22.598 -21.221 5
    endloop
  endfacet
  facet normal 0 0 1
    outer loop
      vertex -27.5066 -19.9847 5
      vertex -25.0795 -18.2213 5
      vertex -27.1655 -14.9344 5
    endloop
  endfacet
  facet normal 0 0 1
    outer loop
      vertex -25.0795 -18.2213 5
      vertex -27.5066 -19.9847 5
      vertex -24.7849 -23.2746 5
    endloop
  endfacet
  facet normal 0 0 1
    outer loop
      vertex -29.7944 -16.3796 5
      vertex -27.1655 -14.9344 5
      vertex -28.8231 -11.4119 5
    endloop
  endfacet
  facet normal 0 0 1
    outer loop
      vertex -27.1655 -14.9344 5
      vertex -29.7944 -16.3796 5
      vertex -27.5066 -19.9847 5
    endloop
  endfacet
  facet normal 0 0 1
    outer loop
      vertex -31.6124 -12.5162 5
      vertex -28.8231 -11.4119 5
      vertex -30.0261 -7.70939 5
    endloop
  endfacet
  facet normal 0 0 1
    outer loop
      vertex -32.9318 -8.45546 5
      vertex -30.0261 -7.70939 5
      vertex -30.7556 -3.88533 5
    endloop
  endfacet
  facet normal 0 0 1
    outer loop
      vertex -28.8231 -11.4119 5
      vertex -31.6124 -12.5162 5
      vertex -29.7944 -16.3796 5
    endloop
  endfacet
  facet normal 0 0 1
    outer loop
      vertex -33.7319 -4.26133 5
      vertex -30.7556 -3.88533 5
      vertex -31 0 5
    endloop
  endfacet
  facet normal -0 0 1
    outer loop
      vertex -33.7319 4.26133 5
      vertex -30.7556 3.88533 5
      vertex -32.9318 8.45546 5
    endloop
  endfacet
  facet normal 0 0 1
    outer loop
      vertex -30.7556 3.88533 5
      vertex -33.7319 4.26133 5
      vertex -31 0 5
    endloop
  endfacet
  facet normal 0 0 1
    outer loop
      vertex -30.0261 -7.70939 5
      vertex -32.9318 -8.45546 5
      vertex -31.6124 -12.5162 5
    endloop
  endfacet
  facet normal 0 0 1
    outer loop
      vertex -34 0 5
      vertex -31 0 5
      vertex -33.7319 4.26133 5
    endloop
  endfacet
  facet normal 0 0 1
    outer loop
      vertex -30.7556 -3.88533 5
      vertex -33.7319 -4.26133 5
      vertex -32.9318 -8.45546 5
    endloop
  endfacet
  facet normal 0 0 1
    outer loop
      vertex -31 0 5
      vertex -34 0 5
      vertex -33.7319 -4.26133 5
    endloop
  endfacet
  facet normal -0.2487 0.96858 0
    outer loop
      vertex -6.37096 33.3978 0
      vertex -10.5066 32.3359 5
      vertex -6.37096 33.3978 5
    endloop
  endfacet
  facet normal -0.2487 0.96858 0
    outer loop
      vertex -10.5066 32.3359 5
      vertex -6.37096 33.3978 0
      vertex -10.5066 32.3359 0
    endloop
  endfacet
  facet normal 0.951058 -0.309014 0
    outer loop
      vertex 31.6124 -12.5162 5
      vertex 32.9318 -8.45546 0
      vertex 32.9318 -8.45546 5
    endloop
  endfacet
  facet normal 0.951058 -0.309014 0
    outer loop
      vertex 32.9318 -8.45546 0
      vertex 31.6124 -12.5162 5
      vertex 31.6124 -12.5162 0
    endloop
  endfacet
  facet normal -0.998027 -0.0627905 0
    outer loop
      vertex -33.7319 -4.26133 0
      vertex -34 0 5
      vertex -34 0 0
    endloop
  endfacet
  facet normal -0.998027 -0.0627905 0
    outer loop
      vertex -34 0 5
      vertex -33.7319 -4.26133 0
      vertex -33.7319 -4.26133 5
    endloop
  endfacet
  facet normal -0.951058 -0.309014 0
    outer loop
      vertex -31.6124 -12.5162 0
      vertex -32.9318 -8.45546 5
      vertex -32.9318 -8.45546 0
    endloop
  endfacet
  facet normal -0.951058 -0.309014 0
    outer loop
      vertex -32.9318 -8.45546 5
      vertex -31.6124 -12.5162 0
      vertex -31.6124 -12.5162 5
    endloop
  endfacet
  facet normal 0.368126 -0.929776 0
    outer loop
      vertex 10.5066 -32.3359 0
      vertex 14.4765 -30.7641 5
      vertex 10.5066 -32.3359 5
    endloop
  endfacet
  facet normal 0.368126 -0.929776 0
    outer loop
      vertex 14.4765 -30.7641 5
      vertex 10.5066 -32.3359 0
      vertex 14.4765 -30.7641 0
    endloop
  endfacet
  facet normal 0.2487 -0.96858 0
    outer loop
      vertex 6.37096 -33.3978 0
      vertex 10.5066 -32.3359 5
      vertex 6.37096 -33.3978 5
    endloop
  endfacet
  facet normal 0.2487 -0.96858 0
    outer loop
      vertex 10.5066 -32.3359 5
      vertex 6.37096 -33.3978 0
      vertex 10.5066 -32.3359 0
    endloop
  endfacet
  facet normal -0.951058 0.309014 0
    outer loop
      vertex -32.9318 8.45546 0
      vertex -31.6124 12.5162 5
      vertex -31.6124 12.5162 0
    endloop
  endfacet
  facet normal -0.951058 0.309014 0
    outer loop
      vertex -31.6124 12.5162 5
      vertex -32.9318 8.45546 0
      vertex -32.9318 8.45546 5
    endloop
  endfacet
  facet normal -0.481761 0.876303 0
    outer loop
      vertex -14.4765 30.7641 0
      vertex -18.2181 28.7071 5
      vertex -14.4765 30.7641 5
    endloop
  endfacet
  facet normal -0.481761 0.876303 0
    outer loop
      vertex -18.2181 28.7071 5
      vertex -14.4765 30.7641 0
      vertex -18.2181 28.7071 0
    endloop
  endfacet
  facet normal 0.982286 -0.187387 0
    outer loop
      vertex 32.9318 -8.45546 5
      vertex 33.7319 -4.26133 0
      vertex 33.7319 -4.26133 5
    endloop
  endfacet
  facet normal 0.982286 -0.187387 0
    outer loop
      vertex 33.7319 -4.26133 0
      vertex 32.9318 -8.45546 5
      vertex 32.9318 -8.45546 0
    endloop
  endfacet
  facet normal 0.684543 -0.728972 0
    outer loop
      vertex 21.6724 -26.1974 0
      vertex 24.7849 -23.2746 5
      vertex 21.6724 -26.1974 5
    endloop
  endfacet
  facet normal 0.684543 -0.728972 0
    outer loop
      vertex 24.7849 -23.2746 5
      vertex 21.6724 -26.1974 0
      vertex 24.7849 -23.2746 0
    endloop
  endfacet
  facet normal 0.844335 -0.535816 0
    outer loop
      vertex 27.5066 -19.9847 5
      vertex 29.7944 -16.3796 0
      vertex 29.7944 -16.3796 5
    endloop
  endfacet
  facet normal 0.844335 -0.535816 0
    outer loop
      vertex 29.7944 -16.3796 0
      vertex 27.5066 -19.9847 5
      vertex 27.5066 -19.9847 0
    endloop
  endfacet
  facet normal -0.368126 -0.929776 0
    outer loop
      vertex -14.4765 -30.7641 0
      vertex -10.5066 -32.3359 5
      vertex -14.4765 -30.7641 5
    endloop
  endfacet
  facet normal -0.368126 -0.929776 -0
    outer loop
      vertex -10.5066 -32.3359 5
      vertex -14.4765 -30.7641 0
      vertex -10.5066 -32.3359 0
    endloop
  endfacet
  facet normal -0.770507 -0.637432 0
    outer loop
      vertex -24.7849 -23.2746 0
      vertex -27.5066 -19.9847 5
      vertex -27.5066 -19.9847 0
    endloop
  endfacet
  facet normal -0.770507 -0.637432 0
    outer loop
      vertex -27.5066 -19.9847 5
      vertex -24.7849 -23.2746 0
      vertex -24.7849 -23.2746 5
    endloop
  endfacet
  facet normal -0.904825 -0.425784 0
    outer loop
      vertex -29.7944 -16.3796 0
      vertex -31.6124 -12.5162 5
      vertex -31.6124 -12.5162 0
    endloop
  endfacet
  facet normal -0.904825 -0.425784 0
    outer loop
      vertex -31.6124 -12.5162 5
      vertex -29.7944 -16.3796 0
      vertex -29.7944 -16.3796 5
    endloop
  endfacet
  facet normal -0.982286 -0.187387 0
    outer loop
      vertex -32.9318 -8.45546 0
      vertex -33.7319 -4.26133 5
      vertex -33.7319 -4.26133 0
    endloop
  endfacet
  facet normal -0.982286 -0.187387 0
    outer loop
      vertex -33.7319 -4.26133 5
      vertex -32.9318 -8.45546 0
      vertex -32.9318 -8.45546 5
    endloop
  endfacet
  facet normal 0 0 -1
    outer loop
      vertex 12 0 0
      vertex 34 0 0
      vertex 33.7319 -4.26133 0
    endloop
  endfacet
  facet normal 0 0 -1
    outer loop
      vertex 11.9054 -1.504 0
      vertex 33.7319 -4.26133 0
      vertex 32.9318 -8.45546 0
    endloop
  endfacet
  facet normal 0 0 -1
    outer loop
      vertex 34 0 0
      vertex 12 0 0
      vertex 33.7319 4.26133 0
    endloop
  endfacet
  facet normal 0 0 -1
    outer loop
      vertex 11.623 -2.98428 0
      vertex 32.9318 -8.45546 0
      vertex 31.6124 -12.5162 0
    endloop
  endfacet
  facet normal 0 0 -1
    outer loop
      vertex 11.9054 1.504 0
      vertex 33.7319 4.26133 0
      vertex 12 0 0
    endloop
  endfacet
  facet normal 0 0 -1
    outer loop
      vertex 11.1573 -4.41749 0
      vertex 31.6124 -12.5162 0
      vertex 29.7944 -16.3796 0
    endloop
  endfacet
  facet normal -0 0 -1
    outer loop
      vertex 33.7319 4.26133 0
      vertex 11.9054 1.504 0
      vertex 32.9318 8.45546 0
    endloop
  endfacet
  facet normal 0 0 -1
    outer loop
      vertex 10.5157 -5.78104 0
      vertex 29.7944 -16.3796 0
      vertex 27.5066 -19.9847 0
    endloop
  endfacet
  facet normal 0 0 -1
    outer loop
      vertex 11.623 2.98428 0
      vertex 32.9318 8.45546 0
      vertex 11.9054 1.504 0
    endloop
  endfacet
  facet normal 0 0 -1
    outer loop
      vertex 9.7082 -7.05342 0
      vertex 27.5066 -19.9847 0
      vertex 24.7849 -23.2746 0
    endloop
  endfacet
  facet normal -0 0 -1
    outer loop
      vertex 32.9318 8.45546 0
      vertex 11.623 2.98428 0
      vertex 31.6124 12.5162 0
    endloop
  endfacet
  facet normal 0 0 -1
    outer loop
      vertex 8.74762 -8.21456 0
      vertex 24.7849 -23.2746 0
      vertex 21.6724 -26.1974 0
    endloop
  endfacet
  facet normal 0 0 -1
    outer loop
      vertex 11.1573 4.41749 0
      vertex 31.6124 12.5162 0
      vertex 11.623 2.98428 0
    endloop
  endfacet
  facet normal 0 0 -1
    outer loop
      vertex 7.64909 -9.24616 0
      vertex 21.6724 -26.1974 0
      vertex 18.2181 -28.7071 0
    endloop
  endfacet
  facet normal -0 0 -1
    outer loop
      vertex 31.6124 12.5162 0
      vertex 11.1573 4.41749 0
      vertex 29.7944 16.3796 0
    endloop
  endfacet
  facet normal 0 0 -1
    outer loop
      vertex 6.42992 -10.1319 0
      vertex 18.2181 -28.7071 0
      vertex 14.4765 -30.7641 0
    endloop
  endfacet
  facet normal 0 0 -1
    outer loop
      vertex 10.5157 5.78104 0
      vertex 29.7944 16.3796 0
      vertex 11.1573 4.41749 0
    endloop
  endfacet
  facet normal -0 0 -1
    outer loop
      vertex 29.7944 16.3796 0
      vertex 10.5157 5.78104 0
      vertex 27.5066 19.9847 0
    endloop
  endfacet
  facet normal 0 0 -1
    outer loop
      vertex 33.7319 -4.26133 0
      vertex 11.9054 -1.504 0
      vertex 12 0 0
    endloop
  endfacet
  facet normal 0 0 -1
    outer loop
      vertex 32.9318 -8.45546 0
      vertex 11.623 -2.98428 0
      vertex 11.9054 -1.504 0
    endloop
  endfacet
  facet normal 0 0 -1
    outer loop
      vertex 31.6124 -12.5162 0
      vertex 11.1573 -4.41749 0
      vertex 11.623 -2.98428 0
    endloop
  endfacet
  facet normal 0 0 -1
    outer loop
      vertex 29.7944 -16.3796 0
      vertex 10.5157 -5.78104 0
      vertex 11.1573 -4.41749 0
    endloop
  endfacet
  facet normal 0 0 -1
    outer loop
      vertex 5.10935 -10.8579 0
      vertex 14.4765 -30.7641 0
      vertex 10.5066 -32.3359 0
    endloop
  endfacet
  facet normal 0 0 -1
    outer loop
      vertex 27.5066 -19.9847 0
      vertex 9.7082 -7.05342 0
      vertex 10.5157 -5.78104 0
    endloop
  endfacet
  facet normal 0 0 -1
    outer loop
      vertex 24.7849 -23.2746 0
      vertex 8.74762 -8.21456 0
      vertex 9.7082 -7.05342 0
    endloop
  endfacet
  facet normal 0 0 -1
    outer loop
      vertex 21.6724 -26.1974 0
      vertex 7.64909 -9.24616 0
      vertex 8.74762 -8.21456 0
    endloop
  endfacet
  facet normal 0 0 -1
    outer loop
      vertex 18.2181 -28.7071 0
      vertex 6.42992 -10.1319 0
      vertex 7.64909 -9.24616 0
    endloop
  endfacet
  facet normal 0 0 -1
    outer loop
      vertex 3.7082 -11.4127 0
      vertex 10.5066 -32.3359 0
      vertex 6.37096 -33.3978 0
    endloop
  endfacet
  facet normal 0 0 -1
    outer loop
      vertex 14.4765 -30.7641 0
      vertex 5.10935 -10.8579 0
      vertex 6.42992 -10.1319 0
    endloop
  endfacet
  facet normal 0 0 -1
    outer loop
      vertex 10.5066 -32.3359 0
      vertex 3.7082 -11.4127 0
      vertex 5.10935 -10.8579 0
    endloop
  endfacet
  facet normal 0 0 -1
    outer loop
      vertex 6.37096 -33.3978 0
      vertex 2.24858 -11.7874 0
      vertex 3.7082 -11.4127 0
    endloop
  endfacet
  facet normal 0 0 -1
    outer loop
      vertex 2.13488 -33.9329 0
      vertex 2.24858 -11.7874 0
      vertex 6.37096 -33.3978 0
    endloop
  endfacet
  facet normal 0 0 -1
    outer loop
      vertex 2.13488 -33.9329 0
      vertex 0.753486 -11.9763 0
      vertex 2.24858 -11.7874 0
    endloop
  endfacet
  facet normal 0 0 -1
    outer loop
      vertex 2.13488 -33.9329 0
      vertex -0.753486 -11.9763 0
      vertex 0.753486 -11.9763 0
    endloop
  endfacet
  facet normal 0 0 -1
    outer loop
      vertex -2.13488 -33.9329 0
      vertex -0.753486 -11.9763 0
      vertex 2.13488 -33.9329 0
    endloop
  endfacet
  facet normal 0 0 -1
    outer loop
      vertex -2.13488 -33.9329 0
      vertex -2.24858 -11.7874 0
      vertex -0.753486 -11.9763 0
    endloop
  endfacet
  facet normal 0 0 -1
    outer loop
      vertex -6.37096 -33.3978 0
      vertex -2.24858 -11.7874 0
      vertex -2.13488 -33.9329 0
    endloop
  endfacet
  facet normal -0 0 -1
    outer loop
      vertex -2.24858 -11.7874 0
      vertex -6.37096 -33.3978 0
      vertex -3.7082 -11.4127 0
    endloop
  endfacet
  facet normal 0 0 -1
    outer loop
      vertex -10.5066 -32.3359 0
      vertex -3.7082 -11.4127 0
      vertex -6.37096 -33.3978 0
    endloop
  endfacet
  facet normal -0 0 -1
    outer loop
      vertex -3.7082 -11.4127 0
      vertex -10.5066 -32.3359 0
      vertex -5.10935 -10.8579 0
    endloop
  endfacet
  facet normal 0 0 -1
    outer loop
      vertex -14.4765 -30.7641 0
      vertex -5.10935 -10.8579 0
      vertex -10.5066 -32.3359 0
    endloop
  endfacet
  facet normal -0 0 -1
    outer loop
      vertex -5.10935 -10.8579 0
      vertex -14.4765 -30.7641 0
      vertex -6.42992 -10.1319 0
    endloop
  endfacet
  facet normal 0 0 -1
    outer loop
      vertex -18.2181 -28.7071 0
      vertex -6.42992 -10.1319 0
      vertex -14.4765 -30.7641 0
    endloop
  endfacet
  facet normal -0 0 -1
    outer loop
      vertex -6.42992 -10.1319 0
      vertex -18.2181 -28.7071 0
      vertex -7.64909 -9.24616 0
    endloop
  endfacet
  facet normal 0 0 -1
    outer loop
      vertex -21.6724 -26.1974 0
      vertex -7.64909 -9.24616 0
      vertex -18.2181 -28.7071 0
    endloop
  endfacet
  facet normal -0 0 -1
    outer loop
      vertex -7.64909 -9.24616 0
      vertex -21.6724 -26.1974 0
      vertex -8.74762 -8.21456 0
    endloop
  endfacet
  facet normal 0 0 -1
    outer loop
      vertex -24.7849 -23.2746 0
      vertex -8.74762 -8.21456 0
      vertex -21.6724 -26.1974 0
    endloop
  endfacet
  facet normal -0 0 -1
    outer loop
      vertex -8.74762 -8.21456 0
      vertex -24.7849 -23.2746 0
      vertex -9.7082 -7.05342 0
    endloop
  endfacet
  facet normal 0 0 -1
    outer loop
      vertex -27.5066 -19.9847 0
      vertex -9.7082 -7.05342 0
      vertex -24.7849 -23.2746 0
    endloop
  endfacet
  facet normal -0 0 -1
    outer loop
      vertex -9.7082 -7.05342 0
      vertex -27.5066 -19.9847 0
      vertex -10.5157 -5.78104 0
    endloop
  endfacet
  facet normal 0 0 -1
    outer loop
      vertex 9.7082 7.05342 0
      vertex 27.5066 19.9847 0
      vertex 10.5157 5.78104 0
    endloop
  endfacet
  facet normal -0 0 -1
    outer loop
      vertex 27.5066 19.9847 0
      vertex 9.7082 7.05342 0
      vertex 24.7849 23.2746 0
    endloop
  endfacet
  facet normal 0 0 -1
    outer loop
      vertex 8.74762 8.21456 0
      vertex 24.7849 23.2746 0
      vertex 9.7082 7.05342 0
    endloop
  endfacet
  facet normal -0 0 -1
    outer loop
      vertex 24.7849 23.2746 0
      vertex 8.74762 8.21456 0
      vertex 21.6724 26.1974 0
    endloop
  endfacet
  facet normal 0 0 -1
    outer loop
      vertex 7.64909 9.24616 0
      vertex 21.6724 26.1974 0
      vertex 8.74762 8.21456 0
    endloop
  endfacet
  facet normal -0 0 -1
    outer loop
      vertex 21.6724 26.1974 0
      vertex 7.64909 9.24616 0
      vertex 18.2181 28.7071 0
    endloop
  endfacet
  facet normal 0 0 -1
    outer loop
      vertex 6.42992 10.1319 0
      vertex 18.2181 28.7071 0
      vertex 7.64909 9.24616 0
    endloop
  endfacet
  facet normal -0 0 -1
    outer loop
      vertex 18.2181 28.7071 0
      vertex 6.42992 10.1319 0
      vertex 14.4765 30.7641 0
    endloop
  endfacet
  facet normal 0 0 -1
    outer loop
      vertex 5.10935 10.8579 0
      vertex 14.4765 30.7641 0
      vertex 6.42992 10.1319 0
    endloop
  endfacet
  facet normal -0 0 -1
    outer loop
      vertex 14.4765 30.7641 0
      vertex 5.10935 10.8579 0
      vertex 10.5066 32.3359 0
    endloop
  endfacet
  facet normal 0 0 -1
    outer loop
      vertex 3.7082 11.4127 0
      vertex 10.5066 32.3359 0
      vertex 5.10935 10.8579 0
    endloop
  endfacet
  facet normal -0 0 -1
    outer loop
      vertex 10.5066 32.3359 0
      vertex 3.7082 11.4127 0
      vertex 6.37096 33.3978 0
    endloop
  endfacet
  facet normal 0 0 -1
    outer loop
      vertex 2.24858 11.7874 0
      vertex 6.37096 33.3978 0
      vertex 3.7082 11.4127 0
    endloop
  endfacet
  facet normal 0 0 -1
    outer loop
      vertex 2.24858 11.7874 0
      vertex 2.13488 33.9329 0
      vertex 6.37096 33.3978 0
    endloop
  endfacet
  facet normal 0 0 -1
    outer loop
      vertex 0.753486 11.9763 0
      vertex 2.13488 33.9329 0
      vertex 2.24858 11.7874 0
    endloop
  endfacet
  facet normal 0 0 -1
    outer loop
      vertex -0.753486 11.9763 0
      vertex 2.13488 33.9329 0
      vertex 0.753486 11.9763 0
    endloop
  endfacet
  facet normal 0 0 -1
    outer loop
      vertex -0.753486 11.9763 0
      vertex -2.13488 33.9329 0
      vertex 2.13488 33.9329 0
    endloop
  endfacet
  facet normal 0 0 -1
    outer loop
      vertex -2.24858 11.7874 0
      vertex -2.13488 33.9329 0
      vertex -0.753486 11.9763 0
    endloop
  endfacet
  facet normal 0 0 -1
    outer loop
      vertex -6.37096 33.3978 0
      vertex -2.24858 11.7874 0
      vertex -3.7082 11.4127 0
    endloop
  endfacet
  facet normal 0 0 -1
    outer loop
      vertex -10.5066 32.3359 0
      vertex -3.7082 11.4127 0
      vertex -5.10935 10.8579 0
    endloop
  endfacet
  facet normal 0 0 -1
    outer loop
      vertex -2.24858 11.7874 0
      vertex -6.37096 33.3978 0
      vertex -2.13488 33.9329 0
    endloop
  endfacet
  facet normal 0 0 -1
    outer loop
      vertex -14.4765 30.7641 0
      vertex -5.10935 10.8579 0
      vertex -6.42992 10.1319 0
    endloop
  endfacet
  facet normal 0 0 -1
    outer loop
      vertex -18.2181 28.7071 0
      vertex -6.42992 10.1319 0
      vertex -7.64909 9.24616 0
    endloop
  endfacet
  facet normal 0 0 -1
    outer loop
      vertex -21.6724 26.1974 0
      vertex -7.64909 9.24616 0
      vertex -8.74762 8.21456 0
    endloop
  endfacet
  facet normal 0 0 -1
    outer loop
      vertex -24.7849 23.2746 0
      vertex -8.74762 8.21456 0
      vertex -9.7082 7.05342 0
    endloop
  endfacet
  facet normal 0 0 -1
    outer loop
      vertex -3.7082 11.4127 0
      vertex -10.5066 32.3359 0
      vertex -6.37096 33.3978 0
    endloop
  endfacet
  facet normal 0 0 -1
    outer loop
      vertex -27.5066 19.9847 0
      vertex -9.7082 7.05342 0
      vertex -10.5157 5.78104 0
    endloop
  endfacet
  facet normal 0 0 -1
    outer loop
      vertex -29.7944 16.3796 0
      vertex -10.5157 5.78104 0
      vertex -11.1573 4.41749 0
    endloop
  endfacet
  facet normal 0 0 -1
    outer loop
      vertex -31.6124 12.5162 0
      vertex -11.1573 4.41749 0
      vertex -11.623 2.98428 0
    endloop
  endfacet
  facet normal 0 0 -1
    outer loop
      vertex -32.9318 8.45546 0
      vertex -11.623 2.98428 0
      vertex -11.9054 1.504 0
    endloop
  endfacet
  facet normal 0 0 -1
    outer loop
      vertex -33.7319 4.26133 0
      vertex -11.9054 1.504 0
      vertex -12 0 0
    endloop
  endfacet
  facet normal 0 0 -1
    outer loop
      vertex -29.7944 -16.3796 0
      vertex -10.5157 -5.78104 0
      vertex -27.5066 -19.9847 0
    endloop
  endfacet
  facet normal 0 0 -1
    outer loop
      vertex -5.10935 10.8579 0
      vertex -14.4765 30.7641 0
      vertex -10.5066 32.3359 0
    endloop
  endfacet
  facet normal -0 0 -1
    outer loop
      vertex -10.5157 -5.78104 0
      vertex -29.7944 -16.3796 0
      vertex -11.1573 -4.41749 0
    endloop
  endfacet
  facet normal 0 0 -1
    outer loop
      vertex -6.42992 10.1319 0
      vertex -18.2181 28.7071 0
      vertex -14.4765 30.7641 0
    endloop
  endfacet
  facet normal 0 0 -1
    outer loop
      vertex -31.6124 -12.5162 0
      vertex -11.1573 -4.41749 0
      vertex -29.7944 -16.3796 0
    endloop
  endfacet
  facet normal 0 0 -1
    outer loop
      vertex -7.64909 9.24616 0
      vertex -21.6724 26.1974 0
      vertex -18.2181 28.7071 0
    endloop
  endfacet
  facet normal -0 0 -1
    outer loop
      vertex -11.1573 -4.41749 0
      vertex -31.6124 -12.5162 0
      vertex -11.623 -2.98428 0
    endloop
  endfacet
  facet normal 0 0 -1
    outer loop
      vertex -8.74762 8.21456 0
      vertex -24.7849 23.2746 0
      vertex -21.6724 26.1974 0
    endloop
  endfacet
  facet normal 0 0 -1
    outer loop
      vertex -32.9318 -8.45546 0
      vertex -11.623 -2.98428 0
      vertex -31.6124 -12.5162 0
    endloop
  endfacet
  facet normal 0 0 -1
    outer loop
      vertex -9.7082 7.05342 0
      vertex -27.5066 19.9847 0
      vertex -24.7849 23.2746 0
    endloop
  endfacet
  facet normal -0 0 -1
    outer loop
      vertex -11.623 -2.98428 0
      vertex -32.9318 -8.45546 0
      vertex -11.9054 -1.504 0
    endloop
  endfacet
  facet normal 0 0 -1
    outer loop
      vertex -10.5157 5.78104 0
      vertex -29.7944 16.3796 0
      vertex -27.5066 19.9847 0
    endloop
  endfacet
  facet normal 0 0 -1
    outer loop
      vertex -33.7319 -4.26133 0
      vertex -11.9054 -1.504 0
      vertex -32.9318 -8.45546 0
    endloop
  endfacet
  facet normal 0 0 -1
    outer loop
      vertex -11.1573 4.41749 0
      vertex -31.6124 12.5162 0
      vertex -29.7944 16.3796 0
    endloop
  endfacet
  facet normal -0 0 -1
    outer loop
      vertex -11.9054 -1.504 0
      vertex -33.7319 -4.26133 0
      vertex -12 0 0
    endloop
  endfacet
  facet normal 0 0 -1
    outer loop
      vertex -11.623 2.98428 0
      vertex -32.9318 8.45546 0
      vertex -31.6124 12.5162 0
    endloop
  endfacet
  facet normal 0 0 -1
    outer loop
      vertex -34 0 0
      vertex -12 0 0
      vertex -33.7319 -4.26133 0
    endloop
  endfacet
  facet normal 0 0 -1
    outer loop
      vertex -11.9054 1.504 0
      vertex -33.7319 4.26133 0
      vertex -32.9318 8.45546 0
    endloop
  endfacet
  facet normal 0 0 -1
    outer loop
      vertex -12 0 0
      vertex -34 0 0
      vertex -33.7319 4.26133 0
    endloop
  endfacet
  facet normal 0.481761 -0.876303 0
    outer loop
      vertex 14.4765 -30.7641 0
      vertex 18.2181 -28.7071 5
      vertex 14.4765 -30.7641 5
    endloop
  endfacet
  facet normal 0.481761 -0.876303 0
    outer loop
      vertex 18.2181 -28.7071 5
      vertex 14.4765 -30.7641 0
      vertex 18.2181 -28.7071 0
    endloop
  endfacet
  facet normal 0.904825 -0.425784 0
    outer loop
      vertex 29.7944 -16.3796 5
      vertex 31.6124 -12.5162 0
      vertex 31.6124 -12.5162 5
    endloop
  endfacet
  facet normal 0.904825 -0.425784 0
    outer loop
      vertex 31.6124 -12.5162 0
      vertex 29.7944 -16.3796 5
      vertex 29.7944 -16.3796 0
    endloop
  endfacet
  facet normal 0 -1 0
    outer loop
      vertex -2.13488 -33.9329 0
      vertex 2.13488 -33.9329 5
      vertex -2.13488 -33.9329 5
    endloop
  endfacet
  facet normal 0 -1 -0
    outer loop
      vertex 2.13488 -33.9329 5
      vertex -2.13488 -33.9329 0
      vertex 2.13488 -33.9329 0
    endloop
  endfacet
  facet normal -0.125324 -0.992116 0
    outer loop
      vertex -6.37096 -33.3978 0
      vertex -2.13488 -33.9329 5
      vertex -6.37096 -33.3978 5
    endloop
  endfacet
  facet normal -0.125324 -0.992116 -0
    outer loop
      vertex -2.13488 -33.9329 5
      vertex -6.37096 -33.3978 0
      vertex -2.13488 -33.9329 0
    endloop
  endfacet
  facet normal -0.2487 -0.96858 0
    outer loop
      vertex -10.5066 -32.3359 0
      vertex -6.37096 -33.3978 5
      vertex -10.5066 -32.3359 5
    endloop
  endfacet
  facet normal -0.2487 -0.96858 -0
    outer loop
      vertex -6.37096 -33.3978 5
      vertex -10.5066 -32.3359 0
      vertex -6.37096 -33.3978 0
    endloop
  endfacet
  facet normal -0.684543 -0.728972 0
    outer loop
      vertex -24.7849 -23.2746 0
      vertex -21.6724 -26.1974 5
      vertex -24.7849 -23.2746 5
    endloop
  endfacet
  facet normal -0.684543 -0.728972 -0
    outer loop
      vertex -21.6724 -26.1974 5
      vertex -24.7849 -23.2746 0
      vertex -21.6724 -26.1974 0
    endloop
  endfacet
  facet normal -0.844335 -0.535816 0
    outer loop
      vertex -27.5066 -19.9847 0
      vertex -29.7944 -16.3796 5
      vertex -29.7944 -16.3796 0
    endloop
  endfacet
  facet normal -0.844335 -0.535816 0
    outer loop
      vertex -29.7944 -16.3796 5
      vertex -27.5066 -19.9847 0
      vertex -27.5066 -19.9847 5
    endloop
  endfacet
  facet normal 0.587786 -0.809017 0
    outer loop
      vertex 18.2181 -28.7071 0
      vertex 21.6724 -26.1974 5
      vertex 18.2181 -28.7071 5
    endloop
  endfacet
  facet normal 0.587786 -0.809017 0
    outer loop
      vertex 21.6724 -26.1974 5
      vertex 18.2181 -28.7071 0
      vertex 21.6724 -26.1974 0
    endloop
  endfacet
  facet normal 0.770507 -0.637432 0
    outer loop
      vertex 24.7849 -23.2746 5
      vertex 27.5066 -19.9847 0
      vertex 27.5066 -19.9847 5
    endloop
  endfacet
  facet normal 0.770507 -0.637432 0
    outer loop
      vertex 27.5066 -19.9847 0
      vertex 24.7849 -23.2746 5
      vertex 24.7849 -23.2746 0
    endloop
  endfacet
  facet normal -0.481761 -0.876303 0
    outer loop
      vertex -18.2181 -28.7071 0
      vertex -14.4765 -30.7641 5
      vertex -18.2181 -28.7071 5
    endloop
  endfacet
  facet normal -0.481761 -0.876303 -0
    outer loop
      vertex -14.4765 -30.7641 5
      vertex -18.2181 -28.7071 0
      vertex -14.4765 -30.7641 0
    endloop
  endfacet
  facet normal -0.587786 -0.809017 0
    outer loop
      vertex -21.6724 -26.1974 0
      vertex -18.2181 -28.7071 5
      vertex -21.6724 -26.1974 5
    endloop
  endfacet
  facet normal -0.587786 -0.809017 -0
    outer loop
      vertex -18.2181 -28.7071 5
      vertex -21.6724 -26.1974 0
      vertex -18.2181 -28.7071 0
    endloop
  endfacet
  facet normal 0.99486 0.0625986 0.0795888
    outer loop
      vertex 31 0 5
      vertex 28.7713 3.63466 30
      vertex 29 0 30
    endloop
  endfacet
  facet normal 0.994861 0.06258 0.0795916
    outer loop
      vertex 30.7556 3.88533 5
      vertex 28.7713 3.63466 30
      vertex 31 0 5
    endloop
  endfacet
  facet normal -0.682367 -0.726665 0.0795869
    outer loop
      vertex -18.4853 -22.3449 30
      vertex -22.598 -21.221 5
      vertex -19.7601 -23.8859 5
    endloop
  endfacet
  facet normal 0.768078 -0.635392 0.0795861
    outer loop
      vertex 23.4615 -17.0458 30
      vertex 22.598 -21.221 5
      vertex 25.0795 -18.2213 5
    endloop
  endfacet
  facet normal 0.58593 0.806444 0.079587
    outer loop
      vertex 19.7601 23.8859 5
      vertex 16.6106 26.1742 5
      vertex 18.4853 22.3449 30
    endloop
  endfacet
  facet normal 0.994861 -0.06258 0.0795916
    outer loop
      vertex 31 0 5
      vertex 28.7713 -3.63466 30
      vertex 30.7556 -3.88533 5
    endloop
  endfacet
  facet normal -0.480228 0.873525 0.0795894
    outer loop
      vertex -12.3476 26.24 30
      vertex -16.6106 26.1742 5
      vertex -15.539 24.4855 30
    endloop
  endfacet
  facet normal 0.76807 -0.635401 0.0795879
    outer loop
      vertex 23.4615 -17.0458 30
      vertex 21.1401 -19.8519 30
      vertex 22.598 -21.221 5
    endloop
  endfacet
  facet normal 0.682367 0.726665 0.0795869
    outer loop
      vertex 19.7601 23.8859 5
      vertex 18.4853 22.3449 30
      vertex 22.598 21.221 5
    endloop
  endfacet
  facet normal 0.480219 0.87353 0.0795878
    outer loop
      vertex 13.1992 28.0496 5
      vertex 12.3476 26.24 30
      vertex 16.6106 26.1742 5
    endloop
  endfacet
  facet normal 0.366973 0.926821 0.0795876
    outer loop
      vertex 13.1992 28.0496 5
      vertex 9.57953 29.4828 5
      vertex 12.3476 26.24 30
    endloop
  endfacet
  facet normal 0.901962 0.424417 0.0795915
    outer loop
      vertex 28.8231 11.4119 5
      vertex 25.4129 13.9709 30
      vertex 26.9635 10.6756 30
    endloop
  endfacet
  facet normal 0.901953 0.424436 0.0795883
    outer loop
      vertex 27.1655 14.9344 5
      vertex 25.4129 13.9709 30
      vertex 28.8231 11.4119 5
    endloop
  endfacet
  facet normal -0.994861 -0.06258 0.0795916
    outer loop
      vertex -28.7713 -3.63466 30
      vertex -31 0 5
      vertex -30.7556 -3.88533 5
    endloop
  endfacet
  facet normal -0.901953 -0.424436 0.0795883
    outer loop
      vertex -25.4129 -13.9709 30
      vertex -28.8231 -11.4119 5
      vertex -27.1655 -14.9344 5
    endloop
  endfacet
  facet normal -0.585918 -0.806452 0.079589
    outer loop
      vertex -15.539 -24.4855 30
      vertex -18.4853 -22.3449 30
      vertex -16.6106 -26.1742 5
    endloop
  endfacet
  facet normal 0.585918 -0.806452 0.079589
    outer loop
      vertex 18.4853 -22.3449 30
      vertex 15.539 -24.4855 30
      vertex 16.6106 -26.1742 5
    endloop
  endfacet
  facet normal 0.841642 -0.53414 0.0795863
    outer loop
      vertex 27.1655 -14.9344 5
      vertex 23.4615 -17.0458 30
      vertex 25.0795 -18.2213 5
    endloop
  endfacet
  facet normal 0.99486 -0.0625986 0.0795888
    outer loop
      vertex 29 0 30
      vertex 28.7713 -3.63466 30
      vertex 31 0 5
    endloop
  endfacet
  facet normal 0.12495 -0.988966 0.0795867
    outer loop
      vertex 5.43406 -28.4863 30
      vertex 1.82092 -28.9428 30
      vertex 1.94651 -30.9388 5
    endloop
  endfacet
  facet normal 0.247888 -0.965514 0.0795899
    outer loop
      vertex 9.57953 -29.4828 5
      vertex 5.43406 -28.4863 30
      vertex 5.80882 -30.4509 5
    endloop
  endfacet
  facet normal 0.97917 0.186792 0.0795916
    outer loop
      vertex 30.0261 7.70939 5
      vertex 28.7713 3.63466 30
      vertex 30.7556 3.88533 5
    endloop
  endfacet
  facet normal -0.948041 0.308032 0.0795902
    outer loop
      vertex -28.8231 11.4119 5
      vertex -30.0261 7.70939 5
      vertex -28.0889 7.21201 30
    endloop
  endfacet
  facet normal -0.99486 -0.0625986 0.0795888
    outer loop
      vertex -29 0 30
      vertex -31 0 5
      vertex -28.7713 -3.63466 30
    endloop
  endfacet
  facet normal -0.366943 0.926832 0.0795922
    outer loop
      vertex -9.57953 29.4828 5
      vertex -12.3476 26.24 30
      vertex -8.96149 27.5806 30
    endloop
  endfacet
  facet normal -0.585918 0.806452 0.079589
    outer loop
      vertex -16.6106 26.1742 5
      vertex -18.4853 22.3449 30
      vertex -15.539 24.4855 30
    endloop
  endfacet
  facet normal -0.247888 0.965514 0.0795899
    outer loop
      vertex -5.80882 30.4509 5
      vertex -9.57953 29.4828 5
      vertex -5.43406 28.4863 30
    endloop
  endfacet
  facet normal 0.12495 0.988966 0.0795867
    outer loop
      vertex 1.94651 30.9388 5
      vertex 1.82092 28.9428 30
      vertex 5.43406 28.4863 30
    endloop
  endfacet
  facet normal 0.841642 0.53414 0.0795863
    outer loop
      vertex 25.0795 18.2213 5
      vertex 23.4615 17.0458 30
      vertex 27.1655 14.9344 5
    endloop
  endfacet
  facet normal 0.768078 0.635392 0.0795861
    outer loop
      vertex 25.0795 18.2213 5
      vertex 22.598 21.221 5
      vertex 23.4615 17.0458 30
    endloop
  endfacet
  facet normal 0.979172 0.186783 0.0795902
    outer loop
      vertex 30.0261 7.70939 5
      vertex 28.0889 7.21201 30
      vertex 28.7713 3.63466 30
    endloop
  endfacet
  facet normal 0.948041 0.308032 0.0795902
    outer loop
      vertex 28.8231 11.4119 5
      vertex 28.0889 7.21201 30
      vertex 30.0261 7.70939 5
    endloop
  endfacet
  facet normal -0.97917 -0.186792 0.0795916
    outer loop
      vertex -28.7713 -3.63466 30
      vertex -30.7556 -3.88533 5
      vertex -30.0261 -7.70939 5
    endloop
  endfacet
  facet normal -0.841642 -0.53414 0.0795863
    outer loop
      vertex -23.4615 -17.0458 30
      vertex -27.1655 -14.9344 5
      vertex -25.0795 -18.2213 5
    endloop
  endfacet
  facet normal -0.841648 -0.534129 0.0795882
    outer loop
      vertex -25.4129 -13.9709 30
      vertex -27.1655 -14.9344 5
      vertex -23.4615 -17.0458 30
    endloop
  endfacet
  facet normal -0.76807 -0.635401 0.0795879
    outer loop
      vertex -21.1401 -19.8519 30
      vertex -23.4615 -17.0458 30
      vertex -22.598 -21.221 5
    endloop
  endfacet
  facet normal -0.682372 -0.726659 0.079588
    outer loop
      vertex -21.1401 -19.8519 30
      vertex -22.598 -21.221 5
      vertex -18.4853 -22.3449 30
    endloop
  endfacet
  facet normal -0.948038 -0.308039 0.0795913
    outer loop
      vertex -28.0889 -7.21201 30
      vertex -28.8231 -11.4119 5
      vertex -26.9635 -10.6756 30
    endloop
  endfacet
  facet normal -0.58593 -0.806444 0.079587
    outer loop
      vertex -18.4853 -22.3449 30
      vertex -19.7601 -23.8859 5
      vertex -16.6106 -26.1742 5
    endloop
  endfacet
  facet normal 0 -0.996828 0.0795867
    outer loop
      vertex -1.94651 -30.9388 5
      vertex 1.82092 -28.9428 30
      vertex -1.82092 -28.9428 30
    endloop
  endfacet
  facet normal 0 -0.996828 0.0795867
    outer loop
      vertex 1.82092 -28.9428 30
      vertex -1.94651 -30.9388 5
      vertex 1.94651 -30.9388 5
    endloop
  endfacet
  facet normal 0.58593 -0.806444 0.079587
    outer loop
      vertex 18.4853 -22.3449 30
      vertex 16.6106 -26.1742 5
      vertex 19.7601 -23.8859 5
    endloop
  endfacet
  facet normal 0.901953 -0.424436 0.0795883
    outer loop
      vertex 28.8231 -11.4119 5
      vertex 25.4129 -13.9709 30
      vertex 27.1655 -14.9344 5
    endloop
  endfacet
  facet normal 0.901962 -0.424417 0.0795915
    outer loop
      vertex 26.9635 -10.6756 30
      vertex 25.4129 -13.9709 30
      vertex 28.8231 -11.4119 5
    endloop
  endfacet
  facet normal 0.948041 -0.308032 0.0795902
    outer loop
      vertex 30.0261 -7.70939 5
      vertex 28.0889 -7.21201 30
      vertex 28.8231 -11.4119 5
    endloop
  endfacet
  facet normal 0.366943 -0.926832 0.0795922
    outer loop
      vertex 12.3476 -26.24 30
      vertex 8.96149 -27.5806 30
      vertex 9.57953 -29.4828 5
    endloop
  endfacet
  facet normal 0.12493 -0.988968 0.0795898
    outer loop
      vertex 5.43406 -28.4863 30
      vertex 1.94651 -30.9388 5
      vertex 5.80882 -30.4509 5
    endloop
  endfacet
  facet normal -0.768078 0.635392 0.0795861
    outer loop
      vertex -22.598 21.221 5
      vertex -25.0795 18.2213 5
      vertex -23.4615 17.0458 30
    endloop
  endfacet
  facet normal -0.979172 0.186783 0.0795902
    outer loop
      vertex -28.0889 7.21201 30
      vertex -30.0261 7.70939 5
      vertex -28.7713 3.63466 30
    endloop
  endfacet
  facet normal -0.97917 0.186792 0.0795916
    outer loop
      vertex -30.0261 7.70939 5
      vertex -30.7556 3.88533 5
      vertex -28.7713 3.63466 30
    endloop
  endfacet
  facet normal -0.12493 0.988968 0.0795898
    outer loop
      vertex -1.94651 30.9388 5
      vertex -5.80882 30.4509 5
      vertex -5.43406 28.4863 30
    endloop
  endfacet
  facet normal 0.585918 0.806452 0.079589
    outer loop
      vertex 16.6106 26.1742 5
      vertex 15.539 24.4855 30
      vertex 18.4853 22.3449 30
    endloop
  endfacet
  facet normal 0.247903 0.96551 0.0795923
    outer loop
      vertex 9.57953 29.4828 5
      vertex 5.43406 28.4863 30
      vertex 8.96149 27.5806 30
    endloop
  endfacet
  facet normal 0 0.996828 0.0795867
    outer loop
      vertex 1.94651 30.9388 5
      vertex -1.82092 28.9428 30
      vertex 1.82092 28.9428 30
    endloop
  endfacet
  facet normal 0 0.996828 0.0795867
    outer loop
      vertex -1.82092 28.9428 30
      vertex 1.94651 30.9388 5
      vertex -1.94651 30.9388 5
    endloop
  endfacet
  facet normal -0.12495 0.988966 0.0795867
    outer loop
      vertex -1.94651 30.9388 5
      vertex -5.43406 28.4863 30
      vertex -1.82092 28.9428 30
    endloop
  endfacet
  facet normal 0.841648 0.534129 0.0795882
    outer loop
      vertex 27.1655 14.9344 5
      vertex 23.4615 17.0458 30
      vertex 25.4129 13.9709 30
    endloop
  endfacet
  facet normal 0.948038 0.308039 0.0795913
    outer loop
      vertex 28.8231 11.4119 5
      vertex 26.9635 10.6756 30
      vertex 28.0889 7.21201 30
    endloop
  endfacet
  facet normal -0.768078 -0.635392 0.0795861
    outer loop
      vertex -23.4615 -17.0458 30
      vertex -25.0795 -18.2213 5
      vertex -22.598 -21.221 5
    endloop
  endfacet
  facet normal -0.901962 -0.424417 0.0795915
    outer loop
      vertex -26.9635 -10.6756 30
      vertex -28.8231 -11.4119 5
      vertex -25.4129 -13.9709 30
    endloop
  endfacet
  facet normal -0.979172 -0.186783 0.0795902
    outer loop
      vertex -28.7713 -3.63466 30
      vertex -30.0261 -7.70939 5
      vertex -28.0889 -7.21201 30
    endloop
  endfacet
  facet normal -0.948041 -0.308032 0.0795902
    outer loop
      vertex -28.0889 -7.21201 30
      vertex -30.0261 -7.70939 5
      vertex -28.8231 -11.4119 5
    endloop
  endfacet
  facet normal -0.480219 -0.87353 0.0795878
    outer loop
      vertex -12.3476 -26.24 30
      vertex -16.6106 -26.1742 5
      vertex -13.1992 -28.0496 5
    endloop
  endfacet
  facet normal -0.12493 -0.988968 0.0795898
    outer loop
      vertex -5.43406 -28.4863 30
      vertex -5.80882 -30.4509 5
      vertex -1.94651 -30.9388 5
    endloop
  endfacet
  facet normal -0.366943 -0.926832 0.0795922
    outer loop
      vertex -8.96149 -27.5806 30
      vertex -12.3476 -26.24 30
      vertex -9.57953 -29.4828 5
    endloop
  endfacet
  facet normal -0.366973 -0.926821 0.0795876
    outer loop
      vertex -12.3476 -26.24 30
      vertex -13.1992 -28.0496 5
      vertex -9.57953 -29.4828 5
    endloop
  endfacet
  facet normal -0.12495 -0.988966 0.0795867
    outer loop
      vertex -1.82092 -28.9428 30
      vertex -5.43406 -28.4863 30
      vertex -1.94651 -30.9388 5
    endloop
  endfacet
  facet normal 0.841648 -0.534129 0.0795882
    outer loop
      vertex 25.4129 -13.9709 30
      vertex 23.4615 -17.0458 30
      vertex 27.1655 -14.9344 5
    endloop
  endfacet
  facet normal 0.948038 -0.308039 0.0795913
    outer loop
      vertex 28.0889 -7.21201 30
      vertex 26.9635 -10.6756 30
      vertex 28.8231 -11.4119 5
    endloop
  endfacet
  facet normal 0.97917 -0.186792 0.0795916
    outer loop
      vertex 30.7556 -3.88533 5
      vertex 28.7713 -3.63466 30
      vertex 30.0261 -7.70939 5
    endloop
  endfacet
  facet normal 0.480219 -0.87353 0.0795878
    outer loop
      vertex 16.6106 -26.1742 5
      vertex 12.3476 -26.24 30
      vertex 13.1992 -28.0496 5
    endloop
  endfacet
  facet normal 0.366973 -0.926821 0.0795876
    outer loop
      vertex 12.3476 -26.24 30
      vertex 9.57953 -29.4828 5
      vertex 13.1992 -28.0496 5
    endloop
  endfacet
  facet normal 0.682367 -0.726665 0.0795869
    outer loop
      vertex 22.598 -21.221 5
      vertex 18.4853 -22.3449 30
      vertex 19.7601 -23.8859 5
    endloop
  endfacet
  facet normal 0.682372 -0.726659 0.079588
    outer loop
      vertex 21.1401 -19.8519 30
      vertex 18.4853 -22.3449 30
      vertex 22.598 -21.221 5
    endloop
  endfacet
  facet normal 0.247903 -0.96551 0.0795923
    outer loop
      vertex 8.96149 -27.5806 30
      vertex 5.43406 -28.4863 30
      vertex 9.57953 -29.4828 5
    endloop
  endfacet
  facet normal -0.901953 0.424436 0.0795883
    outer loop
      vertex -27.1655 14.9344 5
      vertex -28.8231 11.4119 5
      vertex -25.4129 13.9709 30
    endloop
  endfacet
  facet normal -0.841648 0.534129 0.0795882
    outer loop
      vertex -23.4615 17.0458 30
      vertex -27.1655 14.9344 5
      vertex -25.4129 13.9709 30
    endloop
  endfacet
  facet normal -0.994861 0.06258 0.0795916
    outer loop
      vertex -30.7556 3.88533 5
      vertex -31 0 5
      vertex -28.7713 3.63466 30
    endloop
  endfacet
  facet normal -0.99486 0.0625986 0.0795888
    outer loop
      vertex -28.7713 3.63466 30
      vertex -31 0 5
      vertex -29 0 30
    endloop
  endfacet
  facet normal 0 0 1
    outer loop
      vertex 12 0 30
      vertex 29 0 30
      vertex 28.7713 3.63466 30
    endloop
  endfacet
  facet normal 0 0 1
    outer loop
      vertex 11.9054 1.504 30
      vertex 28.7713 3.63466 30
      vertex 28.0889 7.21201 30
    endloop
  endfacet
  facet normal 0 0 1
    outer loop
      vertex 29 0 30
      vertex 12 0 30
      vertex 28.7713 -3.63466 30
    endloop
  endfacet
  facet normal 0 0 1
    outer loop
      vertex 11.623 2.98428 30
      vertex 28.0889 7.21201 30
      vertex 26.9635 10.6756 30
    endloop
  endfacet
  facet normal -0 0 1
    outer loop
      vertex 11.9054 -1.504 30
      vertex 28.7713 -3.63466 30
      vertex 12 0 30
    endloop
  endfacet
  facet normal 0 0 1
    outer loop
      vertex 11.1573 4.41749 30
      vertex 26.9635 10.6756 30
      vertex 25.4129 13.9709 30
    endloop
  endfacet
  facet normal 0 0 1
    outer loop
      vertex 28.7713 -3.63466 30
      vertex 11.9054 -1.504 30
      vertex 28.0889 -7.21201 30
    endloop
  endfacet
  facet normal 0 0 1
    outer loop
      vertex 10.5157 5.78104 30
      vertex 25.4129 13.9709 30
      vertex 23.4615 17.0458 30
    endloop
  endfacet
  facet normal -0 0 1
    outer loop
      vertex 11.623 -2.98428 30
      vertex 28.0889 -7.21201 30
      vertex 11.9054 -1.504 30
    endloop
  endfacet
  facet normal 0 0 1
    outer loop
      vertex 9.7082 7.05342 30
      vertex 23.4615 17.0458 30
      vertex 21.1401 19.8519 30
    endloop
  endfacet
  facet normal 0 0 1
    outer loop
      vertex 28.0889 -7.21201 30
      vertex 11.623 -2.98428 30
      vertex 26.9635 -10.6756 30
    endloop
  endfacet
  facet normal 0 0 1
    outer loop
      vertex 8.74762 8.21456 30
      vertex 21.1401 19.8519 30
      vertex 18.4853 22.3449 30
    endloop
  endfacet
  facet normal -0 0 1
    outer loop
      vertex 11.1573 -4.41749 30
      vertex 26.9635 -10.6756 30
      vertex 11.623 -2.98428 30
    endloop
  endfacet
  facet normal 0 0 1
    outer loop
      vertex 7.64909 9.24616 30
      vertex 18.4853 22.3449 30
      vertex 15.539 24.4855 30
    endloop
  endfacet
  facet normal 0 0 1
    outer loop
      vertex 26.9635 -10.6756 30
      vertex 11.1573 -4.41749 30
      vertex 25.4129 -13.9709 30
    endloop
  endfacet
  facet normal 0 0 1
    outer loop
      vertex 6.42992 10.1319 30
      vertex 15.539 24.4855 30
      vertex 12.3476 26.24 30
    endloop
  endfacet
  facet normal -0 0 1
    outer loop
      vertex 10.5157 -5.78104 30
      vertex 25.4129 -13.9709 30
      vertex 11.1573 -4.41749 30
    endloop
  endfacet
  facet normal 0 0 1
    outer loop
      vertex 25.4129 -13.9709 30
      vertex 10.5157 -5.78104 30
      vertex 23.4615 -17.0458 30
    endloop
  endfacet
  facet normal 0 0 1
    outer loop
      vertex 28.7713 3.63466 30
      vertex 11.9054 1.504 30
      vertex 12 0 30
    endloop
  endfacet
  facet normal 0 0 1
    outer loop
      vertex 28.0889 7.21201 30
      vertex 11.623 2.98428 30
      vertex 11.9054 1.504 30
    endloop
  endfacet
  facet normal 0 0 1
    outer loop
      vertex 26.9635 10.6756 30
      vertex 11.1573 4.41749 30
      vertex 11.623 2.98428 30
    endloop
  endfacet
  facet normal 0 0 1
    outer loop
      vertex 25.4129 13.9709 30
      vertex 10.5157 5.78104 30
      vertex 11.1573 4.41749 30
    endloop
  endfacet
  facet normal 0 0 1
    outer loop
      vertex 23.4615 17.0458 30
      vertex 9.7082 7.05342 30
      vertex 10.5157 5.78104 30
    endloop
  endfacet
  facet normal 0 0 1
    outer loop
      vertex 5.10935 10.8579 30
      vertex 12.3476 26.24 30
      vertex 8.96149 27.5806 30
    endloop
  endfacet
  facet normal 0 0 1
    outer loop
      vertex 21.1401 19.8519 30
      vertex 8.74762 8.21456 30
      vertex 9.7082 7.05342 30
    endloop
  endfacet
  facet normal 0 0 1
    outer loop
      vertex 18.4853 22.3449 30
      vertex 7.64909 9.24616 30
      vertex 8.74762 8.21456 30
    endloop
  endfacet
  facet normal 0 0 1
    outer loop
      vertex 15.539 24.4855 30
      vertex 6.42992 10.1319 30
      vertex 7.64909 9.24616 30
    endloop
  endfacet
  facet normal 0 0 1
    outer loop
      vertex 3.7082 11.4127 30
      vertex 8.96149 27.5806 30
      vertex 5.43406 28.4863 30
    endloop
  endfacet
  facet normal 0 0 1
    outer loop
      vertex 12.3476 26.24 30
      vertex 5.10935 10.8579 30
      vertex 6.42992 10.1319 30
    endloop
  endfacet
  facet normal 0 0 1
    outer loop
      vertex 8.96149 27.5806 30
      vertex 3.7082 11.4127 30
      vertex 5.10935 10.8579 30
    endloop
  endfacet
  facet normal 0 0 1
    outer loop
      vertex 5.43406 28.4863 30
      vertex 2.24858 11.7874 30
      vertex 3.7082 11.4127 30
    endloop
  endfacet
  facet normal 0 0 1
    outer loop
      vertex 1.82092 28.9428 30
      vertex 2.24858 11.7874 30
      vertex 5.43406 28.4863 30
    endloop
  endfacet
  facet normal 0 0 1
    outer loop
      vertex 1.82092 28.9428 30
      vertex 0.753486 11.9763 30
      vertex 2.24858 11.7874 30
    endloop
  endfacet
  facet normal 0 0 1
    outer loop
      vertex 1.82092 28.9428 30
      vertex -0.753486 11.9763 30
      vertex 0.753486 11.9763 30
    endloop
  endfacet
  facet normal -0 0 1
    outer loop
      vertex -1.82092 28.9428 30
      vertex -0.753486 11.9763 30
      vertex 1.82092 28.9428 30
    endloop
  endfacet
  facet normal 0 0 1
    outer loop
      vertex -1.82092 28.9428 30
      vertex -2.24858 11.7874 30
      vertex -0.753486 11.9763 30
    endloop
  endfacet
  facet normal -0 0 1
    outer loop
      vertex -5.43406 28.4863 30
      vertex -2.24858 11.7874 30
      vertex -1.82092 28.9428 30
    endloop
  endfacet
  facet normal 0 0 1
    outer loop
      vertex -2.24858 11.7874 30
      vertex -5.43406 28.4863 30
      vertex -3.7082 11.4127 30
    endloop
  endfacet
  facet normal -0 0 1
    outer loop
      vertex -8.96149 27.5806 30
      vertex -3.7082 11.4127 30
      vertex -5.43406 28.4863 30
    endloop
  endfacet
  facet normal 0 0 1
    outer loop
      vertex -3.7082 11.4127 30
      vertex -8.96149 27.5806 30
      vertex -5.10935 10.8579 30
    endloop
  endfacet
  facet normal -0 0 1
    outer loop
      vertex -12.3476 26.24 30
      vertex -5.10935 10.8579 30
      vertex -8.96149 27.5806 30
    endloop
  endfacet
  facet normal 0 0 1
    outer loop
      vertex -5.10935 10.8579 30
      vertex -12.3476 26.24 30
      vertex -6.42992 10.1319 30
    endloop
  endfacet
  facet normal -0 0 1
    outer loop
      vertex -15.539 24.4855 30
      vertex -6.42992 10.1319 30
      vertex -12.3476 26.24 30
    endloop
  endfacet
  facet normal 0 0 1
    outer loop
      vertex -6.42992 10.1319 30
      vertex -15.539 24.4855 30
      vertex -7.64909 9.24616 30
    endloop
  endfacet
  facet normal -0 0 1
    outer loop
      vertex -18.4853 22.3449 30
      vertex -7.64909 9.24616 30
      vertex -15.539 24.4855 30
    endloop
  endfacet
  facet normal 0 0 1
    outer loop
      vertex -7.64909 9.24616 30
      vertex -18.4853 22.3449 30
      vertex -8.74762 8.21456 30
    endloop
  endfacet
  facet normal -0 0 1
    outer loop
      vertex -21.1401 19.8519 30
      vertex -8.74762 8.21456 30
      vertex -18.4853 22.3449 30
    endloop
  endfacet
  facet normal 0 0 1
    outer loop
      vertex -8.74762 8.21456 30
      vertex -21.1401 19.8519 30
      vertex -9.7082 7.05342 30
    endloop
  endfacet
  facet normal 0 0 1
    outer loop
      vertex -9.7082 7.05342 30
      vertex -23.4615 17.0458 30
      vertex -10.5157 5.78104 30
    endloop
  endfacet
  facet normal -0 0 1
    outer loop
      vertex -23.4615 17.0458 30
      vertex -9.7082 7.05342 30
      vertex -21.1401 19.8519 30
    endloop
  endfacet
  facet normal -0 0 1
    outer loop
      vertex 9.7082 -7.05342 30
      vertex 23.4615 -17.0458 30
      vertex 10.5157 -5.78104 30
    endloop
  endfacet
  facet normal 0 0 1
    outer loop
      vertex 23.4615 -17.0458 30
      vertex 9.7082 -7.05342 30
      vertex 21.1401 -19.8519 30
    endloop
  endfacet
  facet normal -0 0 1
    outer loop
      vertex 8.74762 -8.21456 30
      vertex 21.1401 -19.8519 30
      vertex 9.7082 -7.05342 30
    endloop
  endfacet
  facet normal 0 0 1
    outer loop
      vertex 21.1401 -19.8519 30
      vertex 8.74762 -8.21456 30
      vertex 18.4853 -22.3449 30
    endloop
  endfacet
  facet normal -0 0 1
    outer loop
      vertex 7.64909 -9.24616 30
      vertex 18.4853 -22.3449 30
      vertex 8.74762 -8.21456 30
    endloop
  endfacet
  facet normal 0 0 1
    outer loop
      vertex 18.4853 -22.3449 30
      vertex 7.64909 -9.24616 30
      vertex 15.539 -24.4855 30
    endloop
  endfacet
  facet normal -0 0 1
    outer loop
      vertex 6.42992 -10.1319 30
      vertex 15.539 -24.4855 30
      vertex 7.64909 -9.24616 30
    endloop
  endfacet
  facet normal 0 0 1
    outer loop
      vertex 15.539 -24.4855 30
      vertex 6.42992 -10.1319 30
      vertex 12.3476 -26.24 30
    endloop
  endfacet
  facet normal -0 0 1
    outer loop
      vertex 5.10935 -10.8579 30
      vertex 12.3476 -26.24 30
      vertex 6.42992 -10.1319 30
    endloop
  endfacet
  facet normal 0 0 1
    outer loop
      vertex 12.3476 -26.24 30
      vertex 5.10935 -10.8579 30
      vertex 8.96149 -27.5806 30
    endloop
  endfacet
  facet normal -0 0 1
    outer loop
      vertex 3.7082 -11.4127 30
      vertex 8.96149 -27.5806 30
      vertex 5.10935 -10.8579 30
    endloop
  endfacet
  facet normal 0 0 1
    outer loop
      vertex 8.96149 -27.5806 30
      vertex 3.7082 -11.4127 30
      vertex 5.43406 -28.4863 30
    endloop
  endfacet
  facet normal -0 0 1
    outer loop
      vertex 2.24858 -11.7874 30
      vertex 5.43406 -28.4863 30
      vertex 3.7082 -11.4127 30
    endloop
  endfacet
  facet normal 0 0 1
    outer loop
      vertex 2.24858 -11.7874 30
      vertex 1.82092 -28.9428 30
      vertex 5.43406 -28.4863 30
    endloop
  endfacet
  facet normal -0 0 1
    outer loop
      vertex 0.753486 -11.9763 30
      vertex 1.82092 -28.9428 30
      vertex 2.24858 -11.7874 30
    endloop
  endfacet
  facet normal -0 0 1
    outer loop
      vertex -0.753486 -11.9763 30
      vertex 1.82092 -28.9428 30
      vertex 0.753486 -11.9763 30
    endloop
  endfacet
  facet normal 0 0 1
    outer loop
      vertex -0.753486 -11.9763 30
      vertex -1.82092 -28.9428 30
      vertex 1.82092 -28.9428 30
    endloop
  endfacet
  facet normal 0 0 1
    outer loop
      vertex -2.24858 -11.7874 30
      vertex -1.82092 -28.9428 30
      vertex -0.753486 -11.9763 30
    endloop
  endfacet
  facet normal 0 0 1
    outer loop
      vertex -5.43406 -28.4863 30
      vertex -2.24858 -11.7874 30
      vertex -3.7082 -11.4127 30
    endloop
  endfacet
  facet normal 0 0 1
    outer loop
      vertex -8.96149 -27.5806 30
      vertex -3.7082 -11.4127 30
      vertex -5.10935 -10.8579 30
    endloop
  endfacet
  facet normal 0 0 1
    outer loop
      vertex -2.24858 -11.7874 30
      vertex -5.43406 -28.4863 30
      vertex -1.82092 -28.9428 30
    endloop
  endfacet
  facet normal 0 0 1
    outer loop
      vertex -12.3476 -26.24 30
      vertex -5.10935 -10.8579 30
      vertex -6.42992 -10.1319 30
    endloop
  endfacet
  facet normal 0 0 1
    outer loop
      vertex -15.539 -24.4855 30
      vertex -6.42992 -10.1319 30
      vertex -7.64909 -9.24616 30
    endloop
  endfacet
  facet normal 0 0 1
    outer loop
      vertex -18.4853 -22.3449 30
      vertex -7.64909 -9.24616 30
      vertex -8.74762 -8.21456 30
    endloop
  endfacet
  facet normal 0 0 1
    outer loop
      vertex -3.7082 -11.4127 30
      vertex -8.96149 -27.5806 30
      vertex -5.43406 -28.4863 30
    endloop
  endfacet
  facet normal 0 0 1
    outer loop
      vertex -21.1401 -19.8519 30
      vertex -8.74762 -8.21456 30
      vertex -9.7082 -7.05342 30
    endloop
  endfacet
  facet normal 0 0 1
    outer loop
      vertex -23.4615 -17.0458 30
      vertex -9.7082 -7.05342 30
      vertex -10.5157 -5.78104 30
    endloop
  endfacet
  facet normal 0 0 1
    outer loop
      vertex -25.4129 -13.9709 30
      vertex -10.5157 -5.78104 30
      vertex -11.1573 -4.41749 30
    endloop
  endfacet
  facet normal 0 0 1
    outer loop
      vertex -26.9635 -10.6756 30
      vertex -11.1573 -4.41749 30
      vertex -11.623 -2.98428 30
    endloop
  endfacet
  facet normal 0 0 1
    outer loop
      vertex -28.0889 -7.21201 30
      vertex -11.623 -2.98428 30
      vertex -11.9054 -1.504 30
    endloop
  endfacet
  facet normal 0 0 1
    outer loop
      vertex -5.10935 -10.8579 30
      vertex -12.3476 -26.24 30
      vertex -8.96149 -27.5806 30
    endloop
  endfacet
  facet normal 0 0 1
    outer loop
      vertex -28.7713 -3.63466 30
      vertex -11.9054 -1.504 30
      vertex -12 0 30
    endloop
  endfacet
  facet normal -0 0 1
    outer loop
      vertex -25.4129 13.9709 30
      vertex -10.5157 5.78104 30
      vertex -23.4615 17.0458 30
    endloop
  endfacet
  facet normal 0 0 1
    outer loop
      vertex -10.5157 5.78104 30
      vertex -25.4129 13.9709 30
      vertex -11.1573 4.41749 30
    endloop
  endfacet
  facet normal 0 0 1
    outer loop
      vertex -6.42992 -10.1319 30
      vertex -15.539 -24.4855 30
      vertex -12.3476 -26.24 30
    endloop
  endfacet
  facet normal -0 0 1
    outer loop
      vertex -26.9635 10.6756 30
      vertex -11.1573 4.41749 30
      vertex -25.4129 13.9709 30
    endloop
  endfacet
  facet normal 0 0 1
    outer loop
      vertex -7.64909 -9.24616 30
      vertex -18.4853 -22.3449 30
      vertex -15.539 -24.4855 30
    endloop
  endfacet
  facet normal 0 0 1
    outer loop
      vertex -11.1573 4.41749 30
      vertex -26.9635 10.6756 30
      vertex -11.623 2.98428 30
    endloop
  endfacet
  facet normal 0 0 1
    outer loop
      vertex -8.74762 -8.21456 30
      vertex -21.1401 -19.8519 30
      vertex -18.4853 -22.3449 30
    endloop
  endfacet
  facet normal -0 0 1
    outer loop
      vertex -28.0889 7.21201 30
      vertex -11.623 2.98428 30
      vertex -26.9635 10.6756 30
    endloop
  endfacet
  facet normal 0 0 1
    outer loop
      vertex -9.7082 -7.05342 30
      vertex -23.4615 -17.0458 30
      vertex -21.1401 -19.8519 30
    endloop
  endfacet
  facet normal 0 0 1
    outer loop
      vertex -11.623 2.98428 30
      vertex -28.0889 7.21201 30
      vertex -11.9054 1.504 30
    endloop
  endfacet
  facet normal 0 0 1
    outer loop
      vertex -10.5157 -5.78104 30
      vertex -25.4129 -13.9709 30
      vertex -23.4615 -17.0458 30
    endloop
  endfacet
  facet normal -0 0 1
    outer loop
      vertex -28.7713 3.63466 30
      vertex -11.9054 1.504 30
      vertex -28.0889 7.21201 30
    endloop
  endfacet
  facet normal 0 0 1
    outer loop
      vertex -11.1573 -4.41749 30
      vertex -26.9635 -10.6756 30
      vertex -25.4129 -13.9709 30
    endloop
  endfacet
  facet normal 0 0 1
    outer loop
      vertex -11.9054 1.504 30
      vertex -28.7713 3.63466 30
      vertex -12 0 30
    endloop
  endfacet
  facet normal 0 0 1
    outer loop
      vertex -11.623 -2.98428 30
      vertex -28.0889 -7.21201 30
      vertex -26.9635 -10.6756 30
    endloop
  endfacet
  facet normal 0 0 1
    outer loop
      vertex -29 0 30
      vertex -12 0 30
      vertex -28.7713 3.63466 30
    endloop
  endfacet
  facet normal 0 0 1
    outer loop
      vertex -11.9054 -1.504 30
      vertex -28.7713 -3.63466 30
      vertex -28.0889 -7.21201 30
    endloop
  endfacet
  facet normal 0 0 1
    outer loop
      vertex -12 0 30
      vertex -29 0 30
      vertex -28.7713 -3.63466 30
    endloop
  endfacet
  facet normal -0.901962 0.424417 0.0795915
    outer loop
      vertex -25.4129 13.9709 30
      vertex -28.8231 11.4119 5
      vertex -26.9635 10.6756 30
    endloop
  endfacet
  facet normal -0.948038 0.308039 0.0795913
    outer loop
      vertex -26.9635 10.6756 30
      vertex -28.8231 11.4119 5
      vertex -28.0889 7.21201 30
    endloop
  endfacet
  facet normal -0.366973 0.926821 0.0795876
    outer loop
      vertex -9.57953 29.4828 5
      vertex -13.1992 28.0496 5
      vertex -12.3476 26.24 30
    endloop
  endfacet
  facet normal -0.480219 0.87353 0.0795878
    outer loop
      vertex -13.1992 28.0496 5
      vertex -16.6106 26.1742 5
      vertex -12.3476 26.24 30
    endloop
  endfacet
  facet normal 0.366943 0.926832 0.0795922
    outer loop
      vertex 9.57953 29.4828 5
      vertex 8.96149 27.5806 30
      vertex 12.3476 26.24 30
    endloop
  endfacet
  facet normal 0.12493 0.988968 0.0795898
    outer loop
      vertex 5.80882 30.4509 5
      vertex 1.94651 30.9388 5
      vertex 5.43406 28.4863 30
    endloop
  endfacet
  facet normal 0.247888 0.965514 0.0795899
    outer loop
      vertex 5.80882 30.4509 5
      vertex 5.43406 28.4863 30
      vertex 9.57953 29.4828 5
    endloop
  endfacet
  facet normal 0.76807 0.635401 0.0795879
    outer loop
      vertex 22.598 21.221 5
      vertex 21.1401 19.8519 30
      vertex 23.4615 17.0458 30
    endloop
  endfacet
  facet normal 0.682372 0.726659 0.079588
    outer loop
      vertex 22.598 21.221 5
      vertex 18.4853 22.3449 30
      vertex 21.1401 19.8519 30
    endloop
  endfacet
  facet normal -0.480228 -0.873525 0.0795894
    outer loop
      vertex -15.539 -24.4855 30
      vertex -16.6106 -26.1742 5
      vertex -12.3476 -26.24 30
    endloop
  endfacet
  facet normal 0.979172 -0.186783 0.0795902
    outer loop
      vertex 28.7713 -3.63466 30
      vertex 28.0889 -7.21201 30
      vertex 30.0261 -7.70939 5
    endloop
  endfacet
  facet normal 0.480228 -0.873525 0.0795894
    outer loop
      vertex 15.539 -24.4855 30
      vertex 12.3476 -26.24 30
      vertex 16.6106 -26.1742 5
    endloop
  endfacet
  facet normal -0.682367 0.726665 0.0795869
    outer loop
      vertex -19.7601 23.8859 5
      vertex -22.598 21.221 5
      vertex -18.4853 22.3449 30
    endloop
  endfacet
  facet normal -0.58593 0.806444 0.079587
    outer loop
      vertex -16.6106 26.1742 5
      vertex -19.7601 23.8859 5
      vertex -18.4853 22.3449 30
    endloop
  endfacet
  facet normal -0.682372 0.726659 0.079588
    outer loop
      vertex -18.4853 22.3449 30
      vertex -22.598 21.221 5
      vertex -21.1401 19.8519 30
    endloop
  endfacet
  facet normal -0.76807 0.635401 0.0795879
    outer loop
      vertex -22.598 21.221 5
      vertex -23.4615 17.0458 30
      vertex -21.1401 19.8519 30
    endloop
  endfacet
  facet normal -0.841642 0.53414 0.0795863
    outer loop
      vertex -25.0795 18.2213 5
      vertex -27.1655 14.9344 5
      vertex -23.4615 17.0458 30
    endloop
  endfacet
  facet normal -0.247903 0.96551 0.0795923
    outer loop
      vertex -5.43406 28.4863 30
      vertex -9.57953 29.4828 5
      vertex -8.96149 27.5806 30
    endloop
  endfacet
  facet normal 0.480228 0.873525 0.0795894
    outer loop
      vertex 16.6106 26.1742 5
      vertex 12.3476 26.24 30
      vertex 15.539 24.4855 30
    endloop
  endfacet
  facet normal -0.247903 -0.96551 0.0795923
    outer loop
      vertex -8.96149 -27.5806 30
      vertex -9.57953 -29.4828 5
      vertex -5.43406 -28.4863 30
    endloop
  endfacet
  facet normal -0.247888 -0.965514 0.0795899
    outer loop
      vertex -5.43406 -28.4863 30
      vertex -9.57953 -29.4828 5
      vertex -5.80882 -30.4509 5
    endloop
  endfacet
  facet normal -0.998028 -0.0627749 0
    outer loop
      vertex 12 0 0
      vertex 11.9054 1.504 30
      vertex 11.9054 1.504 0
    endloop
  endfacet
  facet normal -0.998028 -0.0627749 0
    outer loop
      vertex 11.9054 1.504 30
      vertex 12 0 0
      vertex 12 0 30
    endloop
  endfacet
  facet normal 0.998028 -0.0627749 0
    outer loop
      vertex -12 0 30
      vertex -11.9054 1.504 0
      vertex -11.9054 1.504 30
    endloop
  endfacet
  facet normal 0.998028 -0.0627749 0
    outer loop
      vertex -11.9054 1.504 0
      vertex -12 0 30
      vertex -12 0 0
    endloop
  endfacet
  facet normal 0 -1 0
    outer loop
      vertex -0.753486 11.9763 0
      vertex 0.753486 11.9763 30
      vertex -0.753486 11.9763 30
    endloop
  endfacet
  facet normal 0 -1 -0
    outer loop
      vertex 0.753486 11.9763 30
      vertex -0.753486 11.9763 0
      vertex 0.753486 11.9763 0
    endloop
  endfacet
  facet normal 0 1 -0
    outer loop
      vertex 0.753486 -11.9763 0
      vertex -0.753486 -11.9763 30
      vertex 0.753486 -11.9763 30
    endloop
  endfacet
  facet normal 0 1 0
    outer loop
      vertex -0.753486 -11.9763 30
      vertex 0.753486 -11.9763 0
      vertex -0.753486 -11.9763 0
    endloop
  endfacet
  facet normal -0.684551 -0.728965 0
    outer loop
      vertex 7.64909 9.24616 0
      vertex 8.74762 8.21456 30
      vertex 7.64909 9.24616 30
    endloop
  endfacet
  facet normal -0.684551 -0.728965 -0
    outer loop
      vertex 8.74762 8.21456 30
      vertex 7.64909 9.24616 0
      vertex 8.74762 8.21456 0
    endloop
  endfacet
  facet normal 0.684551 -0.728965 0
    outer loop
      vertex -8.74762 8.21456 0
      vertex -7.64909 9.24616 30
      vertex -8.74762 8.21456 30
    endloop
  endfacet
  facet normal 0.684551 -0.728965 0
    outer loop
      vertex -7.64909 9.24616 30
      vertex -8.74762 8.21456 0
      vertex -7.64909 9.24616 0
    endloop
  endfacet
  facet normal 0.368151 -0.929766 0
    outer loop
      vertex -5.10935 10.8579 0
      vertex -3.7082 11.4127 30
      vertex -5.10935 10.8579 30
    endloop
  endfacet
  facet normal 0.368151 -0.929766 0
    outer loop
      vertex -3.7082 11.4127 30
      vertex -5.10935 10.8579 0
      vertex -3.7082 11.4127 0
    endloop
  endfacet
  facet normal -0.844321 0.535838 0
    outer loop
      vertex 9.7082 -7.05342 0
      vertex 10.5157 -5.78104 30
      vertex 10.5157 -5.78104 0
    endloop
  endfacet
  facet normal -0.844321 0.535838 0
    outer loop
      vertex 10.5157 -5.78104 30
      vertex 9.7082 -7.05342 0
      vertex 9.7082 -7.05342 30
    endloop
  endfacet
  facet normal -0.904837 -0.425759 0
    outer loop
      vertex 11.1573 4.41749 0
      vertex 10.5157 5.78104 30
      vertex 10.5157 5.78104 0
    endloop
  endfacet
  facet normal -0.904837 -0.425759 0
    outer loop
      vertex 10.5157 5.78104 30
      vertex 11.1573 4.41749 0
      vertex 11.1573 4.41749 30
    endloop
  endfacet
  facet normal -0.982285 -0.187395 0
    outer loop
      vertex 11.9054 1.504 0
      vertex 11.623 2.98428 30
      vertex 11.623 2.98428 0
    endloop
  endfacet
  facet normal -0.982285 -0.187395 0
    outer loop
      vertex 11.623 2.98428 30
      vertex 11.9054 1.504 0
      vertex 11.9054 1.504 30
    endloop
  endfacet
  facet normal -0.844321 -0.535838 0
    outer loop
      vertex 10.5157 5.78104 0
      vertex 9.7082 7.05342 30
      vertex 9.7082 7.05342 0
    endloop
  endfacet
  facet normal -0.844321 -0.535838 0
    outer loop
      vertex 9.7082 7.05342 30
      vertex 10.5157 5.78104 0
      vertex 10.5157 5.78104 30
    endloop
  endfacet
  facet normal -0.368151 -0.929766 0
    outer loop
      vertex 3.7082 11.4127 0
      vertex 5.10935 10.8579 30
      vertex 3.7082 11.4127 30
    endloop
  endfacet
  facet normal -0.368151 -0.929766 -0
    outer loop
      vertex 5.10935 10.8579 30
      vertex 3.7082 11.4127 0
      vertex 5.10935 10.8579 0
    endloop
  endfacet
  facet normal -0.248648 -0.968594 0
    outer loop
      vertex 2.24858 11.7874 0
      vertex 3.7082 11.4127 30
      vertex 2.24858 11.7874 30
    endloop
  endfacet
  facet normal -0.248648 -0.968594 -0
    outer loop
      vertex 3.7082 11.4127 30
      vertex 2.24858 11.7874 0
      vertex 3.7082 11.4127 0
    endloop
  endfacet
  facet normal -0.481759 -0.876304 0
    outer loop
      vertex 5.10935 10.8579 0
      vertex 6.42992 10.1319 30
      vertex 5.10935 10.8579 30
    endloop
  endfacet
  facet normal -0.481759 -0.876304 -0
    outer loop
      vertex 6.42992 10.1319 30
      vertex 5.10935 10.8579 0
      vertex 6.42992 10.1319 0
    endloop
  endfacet
  facet normal 0.904837 -0.425759 0
    outer loop
      vertex -11.1573 4.41749 30
      vertex -10.5157 5.78104 0
      vertex -10.5157 5.78104 30
    endloop
  endfacet
  facet normal 0.904837 -0.425759 0
    outer loop
      vertex -10.5157 5.78104 0
      vertex -11.1573 4.41749 30
      vertex -11.1573 4.41749 0
    endloop
  endfacet
  facet normal 0.770513 -0.637425 0
    outer loop
      vertex -9.7082 7.05342 30
      vertex -8.74762 8.21456 0
      vertex -8.74762 8.21456 30
    endloop
  endfacet
  facet normal 0.770513 -0.637425 0
    outer loop
      vertex -8.74762 8.21456 0
      vertex -9.7082 7.05342 30
      vertex -9.7082 7.05342 0
    endloop
  endfacet
  facet normal 0.951052 -0.30903 0
    outer loop
      vertex -11.623 2.98428 30
      vertex -11.1573 4.41749 0
      vertex -11.1573 4.41749 30
    endloop
  endfacet
  facet normal 0.951052 -0.30903 0
    outer loop
      vertex -11.1573 4.41749 0
      vertex -11.623 2.98428 30
      vertex -11.623 2.98428 0
    endloop
  endfacet
  facet normal 0.12535 -0.992113 0
    outer loop
      vertex -2.24858 11.7874 0
      vertex -0.753486 11.9763 30
      vertex -2.24858 11.7874 30
    endloop
  endfacet
  facet normal 0.12535 -0.992113 0
    outer loop
      vertex -0.753486 11.9763 30
      vertex -2.24858 11.7874 0
      vertex -0.753486 11.9763 0
    endloop
  endfacet
  facet normal -0.12535 0.992113 0
    outer loop
      vertex 2.24858 -11.7874 0
      vertex 0.753486 -11.9763 30
      vertex 2.24858 -11.7874 30
    endloop
  endfacet
  facet normal -0.12535 0.992113 0
    outer loop
      vertex 0.753486 -11.9763 30
      vertex 2.24858 -11.7874 0
      vertex 0.753486 -11.9763 0
    endloop
  endfacet
  facet normal -0.951052 -0.30903 0
    outer loop
      vertex 11.623 2.98428 0
      vertex 11.1573 4.41749 30
      vertex 11.1573 4.41749 0
    endloop
  endfacet
  facet normal -0.951052 -0.30903 0
    outer loop
      vertex 11.1573 4.41749 30
      vertex 11.623 2.98428 0
      vertex 11.623 2.98428 30
    endloop
  endfacet
  facet normal -0.770513 -0.637425 0
    outer loop
      vertex 9.7082 7.05342 0
      vertex 8.74762 8.21456 30
      vertex 8.74762 8.21456 0
    endloop
  endfacet
  facet normal -0.770513 -0.637425 0
    outer loop
      vertex 8.74762 8.21456 30
      vertex 9.7082 7.05342 0
      vertex 9.7082 7.05342 30
    endloop
  endfacet
  facet normal -0.12535 -0.992113 0
    outer loop
      vertex 0.753486 11.9763 0
      vertex 2.24858 11.7874 30
      vertex 0.753486 11.9763 30
    endloop
  endfacet
  facet normal -0.12535 -0.992113 -0
    outer loop
      vertex 2.24858 11.7874 30
      vertex 0.753486 11.9763 0
      vertex 2.24858 11.7874 0
    endloop
  endfacet
  facet normal -0.587768 -0.809029 0
    outer loop
      vertex 6.42992 10.1319 0
      vertex 7.64909 9.24616 30
      vertex 6.42992 10.1319 30
    endloop
  endfacet
  facet normal -0.587768 -0.809029 -0
    outer loop
      vertex 7.64909 9.24616 30
      vertex 6.42992 10.1319 0
      vertex 7.64909 9.24616 0
    endloop
  endfacet
  facet normal 0.844321 -0.535838 0
    outer loop
      vertex -10.5157 5.78104 30
      vertex -9.7082 7.05342 0
      vertex -9.7082 7.05342 30
    endloop
  endfacet
  facet normal 0.844321 -0.535838 0
    outer loop
      vertex -9.7082 7.05342 0
      vertex -10.5157 5.78104 30
      vertex -10.5157 5.78104 0
    endloop
  endfacet
  facet normal 0.982285 -0.187395 0
    outer loop
      vertex -11.9054 1.504 30
      vertex -11.623 2.98428 0
      vertex -11.623 2.98428 30
    endloop
  endfacet
  facet normal 0.982285 -0.187395 0
    outer loop
      vertex -11.623 2.98428 0
      vertex -11.9054 1.504 30
      vertex -11.9054 1.504 0
    endloop
  endfacet
  facet normal 0.481759 -0.876304 0
    outer loop
      vertex -6.42992 10.1319 0
      vertex -5.10935 10.8579 30
      vertex -6.42992 10.1319 30
    endloop
  endfacet
  facet normal 0.481759 -0.876304 0
    outer loop
      vertex -5.10935 10.8579 30
      vertex -6.42992 10.1319 0
      vertex -5.10935 10.8579 0
    endloop
  endfacet
  facet normal 0.587768 -0.809029 0
    outer loop
      vertex -7.64909 9.24616 0
      vertex -6.42992 10.1319 30
      vertex -7.64909 9.24616 30
    endloop
  endfacet
  facet normal 0.587768 -0.809029 0
    outer loop
      vertex -6.42992 10.1319 30
      vertex -7.64909 9.24616 0
      vertex -6.42992 10.1319 0
    endloop
  endfacet
  facet normal 0.248648 -0.968594 0
    outer loop
      vertex -3.7082 11.4127 0
      vertex -2.24858 11.7874 30
      vertex -3.7082 11.4127 30
    endloop
  endfacet
  facet normal 0.248648 -0.968594 0
    outer loop
      vertex -2.24858 11.7874 30
      vertex -3.7082 11.4127 0
      vertex -2.24858 11.7874 0
    endloop
  endfacet
  facet normal -0.770513 0.637425 0
    outer loop
      vertex 8.74762 -8.21456 0
      vertex 9.7082 -7.05342 30
      vertex 9.7082 -7.05342 0
    endloop
  endfacet
  facet normal -0.770513 0.637425 0
    outer loop
      vertex 9.7082 -7.05342 30
      vertex 8.74762 -8.21456 0
      vertex 8.74762 -8.21456 30
    endloop
  endfacet
  facet normal -0.951052 0.30903 0
    outer loop
      vertex 11.1573 -4.41749 0
      vertex 11.623 -2.98428 30
      vertex 11.623 -2.98428 0
    endloop
  endfacet
  facet normal -0.951052 0.30903 0
    outer loop
      vertex 11.623 -2.98428 30
      vertex 11.1573 -4.41749 0
      vertex 11.1573 -4.41749 30
    endloop
  endfacet
  facet normal -0.982285 0.187395 0
    outer loop
      vertex 11.623 -2.98428 0
      vertex 11.9054 -1.504 30
      vertex 11.9054 -1.504 0
    endloop
  endfacet
  facet normal -0.982285 0.187395 0
    outer loop
      vertex 11.9054 -1.504 30
      vertex 11.623 -2.98428 0
      vertex 11.623 -2.98428 30
    endloop
  endfacet
  facet normal 0.684551 0.728965 -0
    outer loop
      vertex -7.64909 -9.24616 0
      vertex -8.74762 -8.21456 30
      vertex -7.64909 -9.24616 30
    endloop
  endfacet
  facet normal 0.684551 0.728965 0
    outer loop
      vertex -8.74762 -8.21456 30
      vertex -7.64909 -9.24616 0
      vertex -8.74762 -8.21456 0
    endloop
  endfacet
  facet normal 0.770513 0.637425 0
    outer loop
      vertex -8.74762 -8.21456 30
      vertex -9.7082 -7.05342 0
      vertex -9.7082 -7.05342 30
    endloop
  endfacet
  facet normal 0.770513 0.637425 0
    outer loop
      vertex -9.7082 -7.05342 0
      vertex -8.74762 -8.21456 30
      vertex -8.74762 -8.21456 0
    endloop
  endfacet
  facet normal -0.481759 0.876304 0
    outer loop
      vertex 6.42992 -10.1319 0
      vertex 5.10935 -10.8579 30
      vertex 6.42992 -10.1319 30
    endloop
  endfacet
  facet normal -0.481759 0.876304 0
    outer loop
      vertex 5.10935 -10.8579 30
      vertex 6.42992 -10.1319 0
      vertex 5.10935 -10.8579 0
    endloop
  endfacet
  facet normal -0.684551 0.728965 0
    outer loop
      vertex 8.74762 -8.21456 0
      vertex 7.64909 -9.24616 30
      vertex 8.74762 -8.21456 30
    endloop
  endfacet
  facet normal -0.684551 0.728965 0
    outer loop
      vertex 7.64909 -9.24616 30
      vertex 8.74762 -8.21456 0
      vertex 7.64909 -9.24616 0
    endloop
  endfacet
  facet normal -0.998028 0.0627749 0
    outer loop
      vertex 11.9054 -1.504 0
      vertex 12 0 30
      vertex 12 0 0
    endloop
  endfacet
  facet normal -0.998028 0.0627749 0
    outer loop
      vertex 12 0 30
      vertex 11.9054 -1.504 0
      vertex 11.9054 -1.504 30
    endloop
  endfacet
  facet normal 0.368151 0.929766 -0
    outer loop
      vertex -3.7082 -11.4127 0
      vertex -5.10935 -10.8579 30
      vertex -3.7082 -11.4127 30
    endloop
  endfacet
  facet normal 0.368151 0.929766 0
    outer loop
      vertex -5.10935 -10.8579 30
      vertex -3.7082 -11.4127 0
      vertex -5.10935 -10.8579 0
    endloop
  endfacet
  facet normal 0.951052 0.30903 0
    outer loop
      vertex -11.1573 -4.41749 30
      vertex -11.623 -2.98428 0
      vertex -11.623 -2.98428 30
    endloop
  endfacet
  facet normal 0.951052 0.30903 0
    outer loop
      vertex -11.623 -2.98428 0
      vertex -11.1573 -4.41749 30
      vertex -11.1573 -4.41749 0
    endloop
  endfacet
  facet normal 0.998028 0.0627749 0
    outer loop
      vertex -11.9054 -1.504 30
      vertex -12 0 0
      vertex -12 0 30
    endloop
  endfacet
  facet normal 0.998028 0.0627749 0
    outer loop
      vertex -12 0 0
      vertex -11.9054 -1.504 30
      vertex -11.9054 -1.504 0
    endloop
  endfacet
  facet normal -0.368151 0.929766 0
    outer loop
      vertex 5.10935 -10.8579 0
      vertex 3.7082 -11.4127 30
      vertex 5.10935 -10.8579 30
    endloop
  endfacet
  facet normal -0.368151 0.929766 0
    outer loop
      vertex 3.7082 -11.4127 30
      vertex 5.10935 -10.8579 0
      vertex 3.7082 -11.4127 0
    endloop
  endfacet
  facet normal -0.248648 0.968594 0
    outer loop
      vertex 3.7082 -11.4127 0
      vertex 2.24858 -11.7874 30
      vertex 3.7082 -11.4127 30
    endloop
  endfacet
  facet normal -0.248648 0.968594 0
    outer loop
      vertex 2.24858 -11.7874 30
      vertex 3.7082 -11.4127 0
      vertex 2.24858 -11.7874 0
    endloop
  endfacet
  facet normal -0.904837 0.425759 0
    outer loop
      vertex 10.5157 -5.78104 0
      vertex 11.1573 -4.41749 30
      vertex 11.1573 -4.41749 0
    endloop
  endfacet
  facet normal -0.904837 0.425759 0
    outer loop
      vertex 11.1573 -4.41749 30
      vertex 10.5157 -5.78104 0
      vertex 10.5157 -5.78104 30
    endloop
  endfacet
  facet normal 0.12535 0.992113 -0
    outer loop
      vertex -0.753486 -11.9763 0
      vertex -2.24858 -11.7874 30
      vertex -0.753486 -11.9763 30
    endloop
  endfacet
  facet normal 0.12535 0.992113 0
    outer loop
      vertex -2.24858 -11.7874 30
      vertex -0.753486 -11.9763 0
      vertex -2.24858 -11.7874 0
    endloop
  endfacet
  facet normal 0.587768 0.809029 -0
    outer loop
      vertex -6.42992 -10.1319 0
      vertex -7.64909 -9.24616 30
      vertex -6.42992 -10.1319 30
    endloop
  endfacet
  facet normal 0.587768 0.809029 0
    outer loop
      vertex -7.64909 -9.24616 30
      vertex -6.42992 -10.1319 0
      vertex -7.64909 -9.24616 0
    endloop
  endfacet
  facet normal 0.481759 0.876304 -0
    outer loop
      vertex -5.10935 -10.8579 0
      vertex -6.42992 -10.1319 30
      vertex -5.10935 -10.8579 30
    endloop
  endfacet
  facet normal 0.481759 0.876304 0
    outer loop
      vertex -6.42992 -10.1319 30
      vertex -5.10935 -10.8579 0
      vertex -6.42992 -10.1319 0
    endloop
  endfacet
  facet normal 0.844321 0.535838 0
    outer loop
      vertex -9.7082 -7.05342 30
      vertex -10.5157 -5.78104 0
      vertex -10.5157 -5.78104 30
    endloop
  endfacet
  facet normal 0.844321 0.535838 0
    outer loop
      vertex -10.5157 -5.78104 0
      vertex -9.7082 -7.05342 30
      vertex -9.7082 -7.05342 0
    endloop
  endfacet
  facet normal 0.904837 0.425759 0
    outer loop
      vertex -10.5157 -5.78104 30
      vertex -11.1573 -4.41749 0
      vertex -11.1573 -4.41749 30
    endloop
  endfacet
  facet normal 0.904837 0.425759 0
    outer loop
      vertex -11.1573 -4.41749 0
      vertex -10.5157 -5.78104 30
      vertex -10.5157 -5.78104 0
    endloop
  endfacet
  facet normal 0.982285 0.187395 0
    outer loop
      vertex -11.623 -2.98428 30
      vertex -11.9054 -1.504 0
      vertex -11.9054 -1.504 30
    endloop
  endfacet
  facet normal 0.982285 0.187395 0
    outer loop
      vertex -11.9054 -1.504 0
      vertex -11.623 -2.98428 30
      vertex -11.623 -2.98428 0
    endloop
  endfacet
  facet normal -0.587768 0.809029 0
    outer loop
      vertex 7.64909 -9.24616 0
      vertex 6.42992 -10.1319 30
      vertex 7.64909 -9.24616 30
    endloop
  endfacet
  facet normal -0.587768 0.809029 0
    outer loop
      vertex 6.42992 -10.1319 30
      vertex 7.64909 -9.24616 0
      vertex 6.42992 -10.1319 0
    endloop
  endfacet
  facet normal 0.248648 0.968594 -0
    outer loop
      vertex -2.24858 -11.7874 0
      vertex -3.7082 -11.4127 30
      vertex -2.24858 -11.7874 30
    endloop
  endfacet
  facet normal 0.248648 0.968594 0
    outer loop
      vertex -3.7082 -11.4127 30
      vertex -2.24858 -11.7874 0
      vertex -3.7082 -11.4127 0
    endloop
  endfacet
endsolid OpenSCAD_Model
