solid OpenSCAD_Model
  facet normal -1 0 0
    outer loop
      vertex 0 0 0
      vertex 0 2 50
      vertex 0 2 0
    endloop
  endfacet
  facet normal -1 -0 0
    outer loop
      vertex 0 2 50
      vertex 0 0 0
      vertex 0 0 50
    endloop
  endfacet
  facet normal -0 0 1
    outer loop
      vertex 0 2 50
      vertex 15 0 50
      vertex 15 2 50
    endloop
  endfacet
  facet normal 0 0 1
    outer loop
      vertex 15 0 50
      vertex 0 2 50
      vertex 0 0 50
    endloop
  endfacet
  facet normal -0 0 1
    outer loop
      vertex 0 6 50
      vertex 15 4 50
      vertex 15 6 50
    endloop
  endfacet
  facet normal 0 0 1
    outer loop
      vertex 15 4 50
      vertex 0 6 50
      vertex 0 4 50
    endloop
  endfacet
  facet normal -0 0 1
    outer loop
      vertex 18.518 4 50
      vertex 27 2 50
      vertex 27 4 50
    endloop
  endfacet
  facet normal 0 0 1
    outer loop
      vertex 18.518 4 50
      vertex 18.518 2 50
      vertex 27 2 50
    endloop
  endfacet
  facet normal -0 0 1
    outer loop
      vertex 15 6 50
      vertex 18.518 4 50
      vertex 15 6.03109 50
    endloop
  endfacet
  facet normal 0 0 1
    outer loop
      vertex 15 4 50
      vertex 18.518 4 50
      vertex 15 6 50
    endloop
  endfacet
  facet normal 0 0 1
    outer loop
      vertex 18.518 4 50
      vertex 15 4 50
      vertex 18.518 2 50
    endloop
  endfacet
  facet normal 0 0 1
    outer loop
      vertex 15 2 50
      vertex 18.518 2 50
      vertex 15 4 50
    endloop
  endfacet
  facet normal 0 0 1
    outer loop
      vertex 15 0 50
      vertex 18.518 2 50
      vertex 15 2 50
    endloop
  endfacet
  facet normal 0 0 1
    outer loop
      vertex 18.518 2 50
      vertex 15 0 50
      vertex 15 -0.0310888 50
    endloop
  endfacet
  facet normal -1 0 0
    outer loop
      vertex 15 6 0
      vertex 15 6.03109 50
      vertex 15 6.03109 0
    endloop
  endfacet
  facet normal -1 -0 0
    outer loop
      vertex 15 6.03109 50
      vertex 15 6 0
      vertex 15 6 50
    endloop
  endfacet
  facet normal -1 0 0
    outer loop
      vertex 15 -0.0310888 0
      vertex 15 0 50
      vertex 15 0 0
    endloop
  endfacet
  facet normal -1 -0 0
    outer loop
      vertex 15 0 50
      vertex 15 -0.0310888 0
      vertex 15 -0.0310888 50
    endloop
  endfacet
  facet normal -1 0 0
    outer loop
      vertex 15 2 0
      vertex 15 4 50
      vertex 15 4 0
    endloop
  endfacet
  facet normal -1 -0 0
    outer loop
      vertex 15 4 50
      vertex 15 2 0
      vertex 15 2 50
    endloop
  endfacet
  facet normal 0 1 -0
    outer loop
      vertex 15 2 0
      vertex 0 2 50
      vertex 15 2 50
    endloop
  endfacet
  facet normal 0 1 0
    outer loop
      vertex 0 2 50
      vertex 15 2 0
      vertex 0 2 0
    endloop
  endfacet
  facet normal 0 0 -1
    outer loop
      vertex 0 4 0
      vertex 15 6 0
      vertex 15 4 0
    endloop
  endfacet
  facet normal -0 0 -1
    outer loop
      vertex 15 6 0
      vertex 0 4 0
      vertex 0 6 0
    endloop
  endfacet
  facet normal 0 0 -1
    outer loop
      vertex 0 0 0
      vertex 15 2 0
      vertex 15 0 0
    endloop
  endfacet
  facet normal -0 0 -1
    outer loop
      vertex 15 2 0
      vertex 0 0 0
      vertex 0 2 0
    endloop
  endfacet
  facet normal 0 0 -1
    outer loop
      vertex 18.518 2 0
      vertex 27 4 0
      vertex 27 2 0
    endloop
  endfacet
  facet normal 0 0 -1
    outer loop
      vertex 18.518 2 0
      vertex 18.518 4 0
      vertex 27 4 0
    endloop
  endfacet
  facet normal 0 0 -1
    outer loop
      vertex 15 0 0
      vertex 18.518 2 0
      vertex 15 -0.0310888 0
    endloop
  endfacet
  facet normal 0 0 -1
    outer loop
      vertex 15 2 0
      vertex 18.518 2 0
      vertex 15 0 0
    endloop
  endfacet
  facet normal 0 0 -1
    outer loop
      vertex 18.518 2 0
      vertex 15 2 0
      vertex 18.518 4 0
    endloop
  endfacet
  facet normal 0 0 -1
    outer loop
      vertex 15 4 0
      vertex 18.518 4 0
      vertex 15 2 0
    endloop
  endfacet
  facet normal 0 0 -1
    outer loop
      vertex 15 6 0
      vertex 18.518 4 0
      vertex 15 4 0
    endloop
  endfacet
  facet normal 0 0 -1
    outer loop
      vertex 18.518 4 0
      vertex 15 6 0
      vertex 15 6.03109 0
    endloop
  endfacet
  facet normal 0 -1 0
    outer loop
      vertex 0 0 0
      vertex 15 0 50
      vertex 0 0 50
    endloop
  endfacet
  facet normal 0 -1 -0
    outer loop
      vertex 15 0 50
      vertex 0 0 0
      vertex 15 0 0
    endloop
  endfacet
  facet normal -1 0 0
    outer loop
      vertex 0 4 0
      vertex 0 6 50
      vertex 0 6 0
    endloop
  endfacet
  facet normal -1 -0 0
    outer loop
      vertex 0 6 50
      vertex 0 4 0
      vertex 0 4 50
    endloop
  endfacet
  facet normal 0 -1 0
    outer loop
      vertex 0 4 0
      vertex 15 4 50
      vertex 0 4 50
    endloop
  endfacet
  facet normal 0 -1 -0
    outer loop
      vertex 15 4 50
      vertex 0 4 0
      vertex 15 4 0
    endloop
  endfacet
  facet normal 0 1 -0
    outer loop
      vertex 15 6 0
      vertex 0 6 50
      vertex 15 6 50
    endloop
  endfacet
  facet normal 0 1 0
    outer loop
      vertex 0 6 50
      vertex 15 6 0
      vertex 0 6 0
    endloop
  endfacet
  facet normal 1 -0 0
    outer loop
      vertex 27 2 50
      vertex 27 4 0
      vertex 27 4 50
    endloop
  endfacet
  facet normal 1 0 0
    outer loop
      vertex 27 4 0
      vertex 27 2 50
      vertex 27 2 0
    endloop
  endfacet
  facet normal 0 1 -0
    outer loop
      vertex 27 4 0
      vertex 18.518 4 50
      vertex 27 4 50
    endloop
  endfacet
  facet normal 0 1 0
    outer loop
      vertex 18.518 4 50
      vertex 27 4 0
      vertex 18.518 4 0
    endloop
  endfacet
  facet normal 0 -1 0
    outer loop
      vertex 18.518 2 0
      vertex 27 2 50
      vertex 18.518 2 50
    endloop
  endfacet
  facet normal 0 -1 -0
    outer loop
      vertex 27 2 50
      vertex 18.518 2 0
      vertex 27 2 0
    endloop
  endfacet
  facet normal 0.499995 0.866028 -0
    outer loop
      vertex 18.518 4 0
      vertex 15 6.03109 50
      vertex 18.518 4 50
    endloop
  endfacet
  facet normal 0.499995 0.866028 0
    outer loop
      vertex 15 6.03109 50
      vertex 18.518 4 0
      vertex 15 6.03109 0
    endloop
  endfacet
  facet normal 0.499995 -0.866029 0
    outer loop
      vertex 15 -0.0310888 0
      vertex 18.518 2 50
      vertex 15 -0.0310888 50
    endloop
  endfacet
  facet normal 0.499995 -0.866029 0
    outer loop
      vertex 18.518 2 50
      vertex 15 -0.0310888 0
      vertex 18.518 2 0
    endloop
  endfacet
endsolid OpenSCAD_Model
