solid OpenSCAD_Model
  facet normal -0 0 1
    outer loop
      vertex 0 40 1.4
      vertex 3 0 1.4
      vertex 3 40 1.4
    endloop
  endfacet
  facet normal 0 0 1
    outer loop
      vertex 3 0 1.4
      vertex 0 40 1.4
      vertex 0 0 1.4
    endloop
  endfacet
  facet normal 0 0 -1
    outer loop
      vertex 0 0 0
      vertex 3 40 0
      vertex 3 0 0
    endloop
  endfacet
  facet normal -0 0 -1
    outer loop
      vertex 3 40 0
      vertex 0 0 0
      vertex 0 40 0
    endloop
  endfacet
  facet normal 0 -1 0
    outer loop
      vertex 0 0 0
      vertex 3 0 1.4
      vertex 0 0 1.4
    endloop
  endfacet
  facet normal 0 -1 -0
    outer loop
      vertex 3 0 1.4
      vertex 0 0 0
      vertex 3 0 0
    endloop
  endfacet
  facet normal 1 -0 0
    outer loop
      vertex 3 0 1.4
      vertex 3 40 0
      vertex 3 40 1.4
    endloop
  endfacet
  facet normal 1 0 0
    outer loop
      vertex 3 40 0
      vertex 3 0 1.4
      vertex 3 0 0
    endloop
  endfacet
  facet normal 0 1 -0
    outer loop
      vertex 3 40 0
      vertex 0 40 1.4
      vertex 3 40 1.4
    endloop
  endfacet
  facet normal 0 1 0
    outer loop
      vertex 0 40 1.4
      vertex 3 40 0
      vertex 0 40 0
    endloop
  endfacet
  facet normal -1 0 0
    outer loop
      vertex 0 0 0
      vertex 0 40 1.4
      vertex 0 40 0
    endloop
  endfacet
  facet normal -1 -0 0
    outer loop
      vertex 0 40 1.4
      vertex 0 0 0
      vertex 0 0 1.4
    endloop
  endfacet
endsolid OpenSCAD_Model
