solid OpenSCAD_Model
  facet normal -1 0 0
    outer loop
      vertex 0 55.8038 5
      vertex 0 61 0.355573
      vertex 0 61 0
    endloop
  endfacet
  facet normal -1 0 0
    outer loop
      vertex 0 61 0.355573
      vertex 0 55.8038 5
      vertex 0 61 2
    endloop
  endfacet
  facet normal -1 -0 0
    outer loop
      vertex 0 55.8038 5
      vertex 0 6.07692 1.59395
      vertex 0 55.8038 11
    endloop
  endfacet
  facet normal -1 0 0
    outer loop
      vertex 0 6 0
      vertex 0 55.8038 5
      vertex 0 61 0
    endloop
  endfacet
  facet normal -1 0 0
    outer loop
      vertex 0 55.8038 5
      vertex 0 6 0
      vertex 0 6.07692 1.59395
    endloop
  endfacet
  facet normal -1 0 0
    outer loop
      vertex 0 5.87485 0.00984859
      vertex 0 6.07692 1.59395
      vertex 0 6 0
    endloop
  endfacet
  facet normal -1 0 0
    outer loop
      vertex 0 5.75279 0.0391541
      vertex 0 6.07692 1.59395
      vertex 0 5.87485 0.00984859
    endloop
  endfacet
  facet normal -1 -0 0
    outer loop
      vertex 0 6.07692 1.59395
      vertex 0 5.87485 1.59015
      vertex 0 6 1.6
    endloop
  endfacet
  facet normal -1 0 0
    outer loop
      vertex 0 5.75279 1.56084
      vertex 0 6.07692 1.59395
      vertex 0 5.75279 0.0391541
    endloop
  endfacet
  facet normal -1 0 0
    outer loop
      vertex 0 6.07692 1.59395
      vertex 0 5.75279 1.56084
      vertex 0 5.87485 1.59015
    endloop
  endfacet
  facet normal -1 0 0
    outer loop
      vertex 0 5.63681 0.0871944
      vertex 0 5.75279 1.56084
      vertex 0 5.75279 0.0391541
    endloop
  endfacet
  facet normal -1 0 0
    outer loop
      vertex 0 5.63681 0.0871944
      vertex 0 5.63681 1.5128
      vertex 0 5.75279 1.56084
    endloop
  endfacet
  facet normal -1 0 0
    outer loop
      vertex 0 5.52977 0.152786
      vertex 0 5.63681 1.5128
      vertex 0 5.63681 0.0871944
    endloop
  endfacet
  facet normal -1 0 0
    outer loop
      vertex 0 5.52977 0.152786
      vertex 0 5.52977 1.44721
      vertex 0 5.63681 1.5128
    endloop
  endfacet
  facet normal -1 0 0
    outer loop
      vertex 0 5.43431 0.234314
      vertex 0 5.52977 1.44721
      vertex 0 5.52977 0.152786
    endloop
  endfacet
  facet normal -1 0 0
    outer loop
      vertex 0 5.43431 0.234314
      vertex 0 5.43431 1.36568
      vertex 0 5.52977 1.44721
    endloop
  endfacet
  facet normal -1 0 0
    outer loop
      vertex 0 5.35279 0.329771
      vertex 0 5.43431 1.36568
      vertex 0 5.43431 0.234314
    endloop
  endfacet
  facet normal -1 0 0
    outer loop
      vertex 0 5.35279 0.329771
      vertex 0 5.35279 1.27023
      vertex 0 5.43431 1.36568
    endloop
  endfacet
  facet normal -1 0 0
    outer loop
      vertex 0 5.28719 0.436807
      vertex 0 5.35279 1.27023
      vertex 0 5.35279 0.329771
    endloop
  endfacet
  facet normal -1 0 0
    outer loop
      vertex 0 5.28719 0.436807
      vertex 0 5.28719 1.16319
      vertex 0 5.35279 1.27023
    endloop
  endfacet
  facet normal -1 0 0
    outer loop
      vertex 0 5.23915 0.552786
      vertex 0 5.28719 1.16319
      vertex 0 5.28719 0.436807
    endloop
  endfacet
  facet normal -1 0 0
    outer loop
      vertex 0 5.23915 0.552786
      vertex 0 5.23915 1.04721
      vertex 0 5.28719 1.16319
    endloop
  endfacet
  facet normal -1 0 0
    outer loop
      vertex 0 5.20985 0.674852
      vertex 0 5.23915 1.04721
      vertex 0 5.23915 0.552786
    endloop
  endfacet
  facet normal -1 0 0
    outer loop
      vertex 0 5.20985 0.674852
      vertex 0 5.20985 0.925147
      vertex 0 5.23915 1.04721
    endloop
  endfacet
  facet normal -1 0 -0
    outer loop
      vertex 0 5.20985 0.925147
      vertex 0 5.20985 0.674852
      vertex 0 5.2 0.799999
    endloop
  endfacet
  facet normal -1 0 0
    outer loop
      vertex 0 66.1962 11
      vertex 0 68.2505 4.61905
      vertex 0 66.1962 5
    endloop
  endfacet
  facet normal -1 0 0
    outer loop
      vertex 0 61.6972 0.0304422
      vertex 0 66.1962 5
      vertex 0 68.2505 4.61905
    endloop
  endfacet
  facet normal -1 0 0
    outer loop
      vertex 0 61 2
      vertex 0 61.6972 0.0304422
      vertex 0 61 0.355573
    endloop
  endfacet
  facet normal -1 0 0
    outer loop
      vertex 0 61.6972 0.0304422
      vertex 0 61 2
      vertex 0 66.1962 5
    endloop
  endfacet
  facet normal -1 0 0
    outer loop
      vertex 0 68.2505 4.61905
      vertex 0 66.1962 11
      vertex 0 67.5532 12.5886
    endloop
  endfacet
  facet normal -1 0 0
    outer loop
      vertex 0 61 14
      vertex 0 67.5532 12.5886
      vertex 0 66.1962 11
    endloop
  endfacet
  facet normal -1 0 0
    outer loop
      vertex 0 61 14
      vertex 0 61 15.6444
      vertex 0 67.5532 12.5886
    endloop
  endfacet
  facet normal -1 0 0
    outer loop
      vertex 0 59.9546 15.7258
      vertex 0 61 15.6444
      vertex 0 61 14
    endloop
  endfacet
  facet normal -1 0 0
    outer loop
      vertex 0 61 15.6444
      vertex 0 60.512 15.872
      vertex 0 61 16
    endloop
  endfacet
  facet normal -1 0 0
    outer loop
      vertex 0 61 15.6444
      vertex 0 59.9546 15.7258
      vertex 0 60.512 15.872
    endloop
  endfacet
  facet normal -1 -0 0
    outer loop
      vertex 0 60.512 15.872
      vertex 0 59.9546 15.7258
      vertex 0 60.3028 15.9696
    endloop
  endfacet
  facet normal -1 0 0
    outer loop
      vertex 0 55.8038 11
      vertex 0 59.9546 15.7258
      vertex 0 61 14
    endloop
  endfacet
  facet normal -1 0 0
    outer loop
      vertex 0 59.9546 15.7258
      vertex 0 55.8038 11
      vertex 0 6.07692 1.59395
    endloop
  endfacet
  facet normal 0 -0.253713 0.96728
    outer loop
      vertex 0 61 16
      vertex 33 60.512 15.872
      vertex 33 61 16
    endloop
  endfacet
  facet normal 0 -0.253713 0.96728
    outer loop
      vertex 33 60.512 15.872
      vertex 0 61 16
      vertex 0 60.512 15.872
    endloop
  endfacet
  facet normal 0 -0.25371 0.96728
    outer loop
      vertex 15.5 59.9546 15.7258
      vertex 0 59.9546 15.7258
      vertex 15.5 40.7661 10.6928
    endloop
  endfacet
  facet normal 0 -0.25371 0.96728
    outer loop
      vertex 17.5 40.7661 10.6928
      vertex 33 59.9546 15.7258
      vertex 17.5 59.9546 15.7258
    endloop
  endfacet
  facet normal 3.05817e-06 -0.253713 0.96728
    outer loop
      vertex 33 59.9546 15.7258
      vertex 17.5 40.7661 10.6928
      vertex 33 6.07692 1.59395
    endloop
  endfacet
  facet normal 0 -0.253714 0.967279
    outer loop
      vertex 15.5 40.7661 10.6928
      vertex 33 6.07692 1.59395
      vertex 17.5 40.7661 10.6928
    endloop
  endfacet
  facet normal -3.05817e-06 -0.253713 0.96728
    outer loop
      vertex 0 6.07692 1.59395
      vertex 15.5 40.7661 10.6928
      vertex 0 59.9546 15.7258
    endloop
  endfacet
  facet normal 0 -0.253714 0.967279
    outer loop
      vertex 15.5 40.7661 10.6928
      vertex 0 6.07692 1.59395
      vertex 33 6.07692 1.59395
    endloop
  endfacet
  facet normal 0 1 -0
    outer loop
      vertex 33 61 0
      vertex 0 61 0.355573
      vertex 33 61 0.355573
    endloop
  endfacet
  facet normal 0 1 0
    outer loop
      vertex 0 61 0.355573
      vertex 33 61 0
      vertex 0 61 0
    endloop
  endfacet
  facet normal 0 1 -0
    outer loop
      vertex 33 61 15.6444
      vertex 0 61 16
      vertex 33 61 16
    endloop
  endfacet
  facet normal 0 1 0
    outer loop
      vertex 0 61 16
      vertex 33 61 15.6444
      vertex 0 61 15.6444
    endloop
  endfacet
  facet normal 0 0 -1
    outer loop
      vertex 0 6 0
      vertex 33 61 0
      vertex 33 6 0
    endloop
  endfacet
  facet normal -0 0 -1
    outer loop
      vertex 33 61 0
      vertex 0 6 0
      vertex 0 61 0
    endloop
  endfacet
  facet normal 1 -0 0
    outer loop
      vertex 33 60.512 15.872
      vertex 33 61 15.6444
      vertex 33 61 16
    endloop
  endfacet
  facet normal 1 -0 0
    outer loop
      vertex 33 59.9546 15.7258
      vertex 33 61 15.6444
      vertex 33 60.512 15.872
    endloop
  endfacet
  facet normal 1 0 0
    outer loop
      vertex 33 59.9546 15.7258
      vertex 33 60.512 15.872
      vertex 33 60.3028 15.9696
    endloop
  endfacet
  facet normal 1 0 0
    outer loop
      vertex 33 61 15.6444
      vertex 33 59.9546 15.7258
      vertex 33 61 14
    endloop
  endfacet
  facet normal 1 0 0
    outer loop
      vertex 33 59.9546 15.7258
      vertex 33 55.8038 11
      vertex 33 61 14
    endloop
  endfacet
  facet normal 1 0 0
    outer loop
      vertex 33 55.8038 11
      vertex 33 6.07692 1.59395
      vertex 33 55.8038 5
    endloop
  endfacet
  facet normal 1 0 0
    outer loop
      vertex 33 6.07692 1.59395
      vertex 33 55.8038 11
      vertex 33 59.9546 15.7258
    endloop
  endfacet
  facet normal 1 -0 0
    outer loop
      vertex 33 61 14
      vertex 33 67.5532 12.5886
      vertex 33 61 15.6444
    endloop
  endfacet
  facet normal 1 0 0
    outer loop
      vertex 33 67.5532 12.5886
      vertex 33 61 14
      vertex 33 66.1962 11
    endloop
  endfacet
  facet normal 1 -0 0
    outer loop
      vertex 33 66.1962 11
      vertex 33 68.2505 4.61905
      vertex 33 67.5532 12.5886
    endloop
  endfacet
  facet normal 1 -0 0
    outer loop
      vertex 33 66.1962 5
      vertex 33 68.2505 4.61905
      vertex 33 66.1962 11
    endloop
  endfacet
  facet normal 1 0 0
    outer loop
      vertex 33 66.1962 5
      vertex 33 61.6972 0.0304422
      vertex 33 68.2505 4.61905
    endloop
  endfacet
  facet normal 1 -0 0
    outer loop
      vertex 33 61 2
      vertex 33 61.6972 0.0304422
      vertex 33 66.1962 5
    endloop
  endfacet
  facet normal 1 0 0
    outer loop
      vertex 33 61 2
      vertex 33 61 0.355573
      vertex 33 61.6972 0.0304422
    endloop
  endfacet
  facet normal 1 0 0
    outer loop
      vertex 33 55.8038 5
      vertex 33 61 0.355573
      vertex 33 61 2
    endloop
  endfacet
  facet normal 1 0 0
    outer loop
      vertex 33 61 0.355573
      vertex 33 55.8038 5
      vertex 33 61 0
    endloop
  endfacet
  facet normal 1 0 0
    outer loop
      vertex 33 6 0
      vertex 33 55.8038 5
      vertex 33 6.07692 1.59395
    endloop
  endfacet
  facet normal 1 0 0
    outer loop
      vertex 33 55.8038 5
      vertex 33 6 0
      vertex 33 61 0
    endloop
  endfacet
  facet normal 1 0 0
    outer loop
      vertex 33 5.87485 1.59015
      vertex 33 6.07692 1.59395
      vertex 33 6 1.6
    endloop
  endfacet
  facet normal 1 0 0
    outer loop
      vertex 33 5.75279 1.56084
      vertex 33 6.07692 1.59395
      vertex 33 5.87485 1.59015
    endloop
  endfacet
  facet normal 1 0 0
    outer loop
      vertex 33 6.07692 1.59395
      vertex 33 5.87485 0.00984859
      vertex 33 6 0
    endloop
  endfacet
  facet normal 1 0 0
    outer loop
      vertex 33 6.07692 1.59395
      vertex 33 5.75279 1.56084
      vertex 33 5.87485 0.00984859
    endloop
  endfacet
  facet normal 1 0 0
    outer loop
      vertex 33 5.75279 1.56084
      vertex 33 5.75279 0.0391541
      vertex 33 5.87485 0.00984859
    endloop
  endfacet
  facet normal 1 -0 0
    outer loop
      vertex 33 5.63681 1.5128
      vertex 33 5.75279 0.0391541
      vertex 33 5.75279 1.56084
    endloop
  endfacet
  facet normal 1 0 0
    outer loop
      vertex 33 5.63681 1.5128
      vertex 33 5.63681 0.0871944
      vertex 33 5.75279 0.0391541
    endloop
  endfacet
  facet normal 1 -0 0
    outer loop
      vertex 33 5.52977 1.44721
      vertex 33 5.63681 0.0871944
      vertex 33 5.63681 1.5128
    endloop
  endfacet
  facet normal 1 0 0
    outer loop
      vertex 33 5.52977 1.44721
      vertex 33 5.52977 0.152786
      vertex 33 5.63681 0.0871944
    endloop
  endfacet
  facet normal 1 -0 0
    outer loop
      vertex 33 5.43431 1.36568
      vertex 33 5.52977 0.152786
      vertex 33 5.52977 1.44721
    endloop
  endfacet
  facet normal 1 0 0
    outer loop
      vertex 33 5.43431 1.36568
      vertex 33 5.43431 0.234314
      vertex 33 5.52977 0.152786
    endloop
  endfacet
  facet normal 1 -0 0
    outer loop
      vertex 33 5.35279 1.27023
      vertex 33 5.43431 0.234314
      vertex 33 5.43431 1.36568
    endloop
  endfacet
  facet normal 1 0 0
    outer loop
      vertex 33 5.35279 1.27023
      vertex 33 5.35279 0.329771
      vertex 33 5.43431 0.234314
    endloop
  endfacet
  facet normal 1 -0 0
    outer loop
      vertex 33 5.28719 1.16319
      vertex 33 5.35279 0.329771
      vertex 33 5.35279 1.27023
    endloop
  endfacet
  facet normal 1 0 0
    outer loop
      vertex 33 5.28719 1.16319
      vertex 33 5.28719 0.436807
      vertex 33 5.35279 0.329771
    endloop
  endfacet
  facet normal 1 -0 0
    outer loop
      vertex 33 5.23915 1.04721
      vertex 33 5.28719 0.436807
      vertex 33 5.28719 1.16319
    endloop
  endfacet
  facet normal 1 0 0
    outer loop
      vertex 33 5.23915 1.04721
      vertex 33 5.23915 0.552786
      vertex 33 5.28719 0.436807
    endloop
  endfacet
  facet normal 1 -0 0
    outer loop
      vertex 33 5.20985 0.925147
      vertex 33 5.23915 0.552786
      vertex 33 5.23915 1.04721
    endloop
  endfacet
  facet normal 1 0 0
    outer loop
      vertex 33 5.20985 0.925147
      vertex 33 5.20985 0.674852
      vertex 33 5.23915 0.552786
    endloop
  endfacet
  facet normal 1 0 -0
    outer loop
      vertex 33 5.20985 0.674852
      vertex 33 5.20985 0.925147
      vertex 33 5.2 0.799999
    endloop
  endfacet
  facet normal 0 0.573571 -0.819156
    outer loop
      vertex 0 61.6972 0.0304422
      vertex 33 68.2505 4.61905
      vertex 33 61.6972 0.0304422
    endloop
  endfacet
  facet normal 0 0.573571 -0.819156
    outer loop
      vertex 33 68.2505 4.61905
      vertex 0 61.6972 0.0304422
      vertex 0 68.2505 4.61905
    endloop
  endfacet
  facet normal -0 0.422617 0.906308
    outer loop
      vertex 0 67.5532 12.5886
      vertex 33 61 15.6444
      vertex 33 67.5532 12.5886
    endloop
  endfacet
  facet normal 0 0.422617 0.906308
    outer loop
      vertex 33 61 15.6444
      vertex 0 67.5532 12.5886
      vertex 0 61 15.6444
    endloop
  endfacet
  facet normal -0 0.422791 0.906227
    outer loop
      vertex 0 60.512 15.872
      vertex 33 60.3028 15.9696
      vertex 33 60.512 15.872
    endloop
  endfacet
  facet normal 0 0.422791 0.906227
    outer loop
      vertex 33 60.3028 15.9696
      vertex 0 60.512 15.872
      vertex 0 60.3028 15.9696
    endloop
  endfacet
  facet normal 0 0.996194 0.0871625
    outer loop
      vertex 33 68.2505 4.61905
      vertex 0 67.5532 12.5886
      vertex 33 67.5532 12.5886
    endloop
  endfacet
  facet normal 0 0.996194 0.0871625
    outer loop
      vertex 0 67.5532 12.5886
      vertex 33 68.2505 4.61905
      vertex 0 68.2505 4.61905
    endloop
  endfacet
  facet normal 0 -0.422641 -0.906297
    outer loop
      vertex 0 61 0.355573
      vertex 33 61.6972 0.0304422
      vertex 33 61 0.355573
    endloop
  endfacet
  facet normal -0 -0.422641 -0.906297
    outer loop
      vertex 33 61.6972 0.0304422
      vertex 0 61 0.355573
      vertex 0 61.6972 0.0304422
    endloop
  endfacet
  facet normal 1.97009e-06 -0.573557 0.819166
    outer loop
      vertex 33 60.3028 15.9696
      vertex 17.5 59.9704 15.7369
      vertex 33 59.9546 15.7258
    endloop
  endfacet
  facet normal 0 -0.573495 0.819209
    outer loop
      vertex 33 60.3028 15.9696
      vertex 15.5 59.9704 15.7369
      vertex 17.5 59.9704 15.7369
    endloop
  endfacet
  facet normal 0 -0.573495 0.819209
    outer loop
      vertex 0 60.3028 15.9696
      vertex 15.5 59.9704 15.7369
      vertex 33 60.3028 15.9696
    endloop
  endfacet
  facet normal -1.97009e-06 -0.573557 0.819166
    outer loop
      vertex 0 59.9546 15.7258
      vertex 15.5 59.9704 15.7369
      vertex 0 60.3028 15.9696
    endloop
  endfacet
  facet normal 0 -0.574852 0.818258
    outer loop
      vertex 15.5 59.9704 15.7369
      vertex 0 59.9546 15.7258
      vertex 15.5 59.9546 15.7258
    endloop
  endfacet
  facet normal 0 -0.574852 0.818258
    outer loop
      vertex 33 59.9546 15.7258
      vertex 17.5 59.9704 15.7369
      vertex 17.5 59.9546 15.7258
    endloop
  endfacet
  facet normal -1 0 0
    outer loop
      vertex 15.5 59.9546 15.7258
      vertex 15.5 57.3372 25.5643
      vertex 15.5 59.9704 15.7369
    endloop
  endfacet
  facet normal -1 0 0
    outer loop
      vertex 15.5 57.3372 25.5643
      vertex 15.5 57.3121 25.7761
      vertex 15.5 57.333 25.6892
    endloop
  endfacet
  facet normal -1 0 0
    outer loop
      vertex 15.5 57.2431 25.9156
      vertex 15.5 57.3121 25.7761
      vertex 15.5 57.3372 25.5643
    endloop
  endfacet
  facet normal -1 0 0
    outer loop
      vertex 15.5 57.3121 25.7761
      vertex 15.5 57.2431 25.9156
      vertex 15.5 57.2779 25.8588
    endloop
  endfacet
  facet normal -1 0 0
    outer loop
      vertex 15.5 56.356 26
      vertex 15.5 57.3372 25.5643
      vertex 15.5 59.9546 15.7258
    endloop
  endfacet
  facet normal -1 -0 -0
    outer loop
      vertex 15.5 56.3643 26
      vertex 15.5 57.3372 25.5643
      vertex 15.5 56.356 26
    endloop
  endfacet
  facet normal -1 0 0
    outer loop
      vertex 15.5 57.2431 25.9156
      vertex 15.5 57.1757 26
      vertex 15.5 57.2204 26
    endloop
  endfacet
  facet normal -1 0 0
    outer loop
      vertex 15.5 57.2431 25.9156
      vertex 15.5 56.3643 26
      vertex 15.5 57.1757 26
    endloop
  endfacet
  facet normal -1 0 -0
    outer loop
      vertex 15.5 57.105 26.0611
      vertex 15.5 57.1757 26
      vertex 15.5 56.3643 26
    endloop
  endfacet
  facet normal -1 0 0
    outer loop
      vertex 15.5 57.1757 26
      vertex 15.5 57.105 26.0611
      vertex 15.5 57.173 26.0031
    endloop
  endfacet
  facet normal -1 -0 0
    outer loop
      vertex 15.5 57.105 26.0611
      vertex 15.5 56.3643 26
      vertex 15.5 57.0288 26.1079
    endloop
  endfacet
  facet normal -1 -0 0
    outer loop
      vertex 15.5 57.0288 26.1079
      vertex 15.5 56.3643 26
      vertex 15.5 56.9461 26.1421
    endloop
  endfacet
  facet normal -1 -0 0
    outer loop
      vertex 15.5 56.9461 26.1421
      vertex 15.5 56.3643 26
      vertex 15.5 56.8592 26.163
    endloop
  endfacet
  facet normal -1 -0 0
    outer loop
      vertex 15.5 56.8592 26.163
      vertex 15.5 56.3643 26
      vertex 15.5 56.77 26.17
    endloop
  endfacet
  facet normal -1 0 0
    outer loop
      vertex 15.5 56.77 26.17
      vertex 15.5 56.3643 26
      vertex 15.5 56.6808 26.163
    endloop
  endfacet
  facet normal -1 0 0
    outer loop
      vertex 15.5 56.6808 26.163
      vertex 15.5 56.3643 26
      vertex 15.5 56.5939 26.1421
    endloop
  endfacet
  facet normal -1 0 0
    outer loop
      vertex 15.5 56.5939 26.1421
      vertex 15.5 56.3643 26
      vertex 15.5 56.5112 26.1079
    endloop
  endfacet
  facet normal -1 0 0
    outer loop
      vertex 15.5 56.5112 26.1079
      vertex 15.5 56.3643 26
      vertex 15.5 56.435 26.0611
    endloop
  endfacet
  facet normal -1 0 0
    outer loop
      vertex 15.5 56.435 26.0611
      vertex 15.5 56.3643 26
      vertex 15.5 56.367 26.0031
    endloop
  endfacet
  facet normal -1 0 0
    outer loop
      vertex 15.5 57.3372 25.5643
      vertex 15.5 56.3643 26
      vertex 15.5 57.2431 25.9156
    endloop
  endfacet
  facet normal -1 0 -0
    outer loop
      vertex 15.5 56.356 26
      vertex 15.5 59.9546 15.7258
      vertex 15.5 40.7661 10.6928
    endloop
  endfacet
  facet normal -1 -0 0
    outer loop
      vertex 15.5 57.34 25.6
      vertex 15.5 57.3372 25.5643
      vertex 15.5 57.333 25.6892
    endloop
  endfacet
  facet normal 0 -0.700608 0.713547
    outer loop
      vertex 15.5 56.356 26
      vertex 17.5 40.7661 10.6928
      vertex 17.5 56.356 26
    endloop
  endfacet
  facet normal 0 -0.700608 0.713547
    outer loop
      vertex 17.5 40.7661 10.6928
      vertex 15.5 56.356 26
      vertex 15.5 40.7661 10.6928
    endloop
  endfacet
  facet normal 0 0.965927 0.258815
    outer loop
      vertex 17.5 59.9704 15.7369
      vertex 15.5 57.3372 25.5643
      vertex 17.5 57.3372 25.5643
    endloop
  endfacet
  facet normal 0 0.965927 0.258815
    outer loop
      vertex 15.5 57.3372 25.5643
      vertex 17.5 59.9704 15.7369
      vertex 15.5 59.9704 15.7369
    endloop
  endfacet
  facet normal 0 0.965682 0.259727
    outer loop
      vertex 17.5 57.2431 25.9156
      vertex 15.5 57.2204 26
      vertex 17.5 57.2204 26
    endloop
  endfacet
  facet normal 0 0.965682 0.259727
    outer loop
      vertex 15.5 57.2204 26
      vertex 17.5 57.2431 25.9156
      vertex 15.5 57.2431 25.9156
    endloop
  endfacet
  facet normal 1 0 0
    outer loop
      vertex 17.5 57.34 25.6
      vertex 17.5 57.333 25.6892
      vertex 17.5 57.3372 25.5643
    endloop
  endfacet
  facet normal 1 0 0
    outer loop
      vertex 17.5 57.3372 25.5643
      vertex 17.5 59.9546 15.7258
      vertex 17.5 59.9704 15.7369
    endloop
  endfacet
  facet normal 1 0 0
    outer loop
      vertex 17.5 57.3121 25.7761
      vertex 17.5 57.3372 25.5643
      vertex 17.5 57.333 25.6892
    endloop
  endfacet
  facet normal 1 0 0
    outer loop
      vertex 17.5 57.2431 25.9156
      vertex 17.5 57.3121 25.7761
      vertex 17.5 57.2779 25.8588
    endloop
  endfacet
  facet normal 1 0 0
    outer loop
      vertex 17.5 57.3121 25.7761
      vertex 17.5 57.2431 25.9156
      vertex 17.5 57.3372 25.5643
    endloop
  endfacet
  facet normal 1 0 0
    outer loop
      vertex 17.5 56.3643 26
      vertex 17.5 57.3372 25.5643
      vertex 17.5 57.2431 25.9156
    endloop
  endfacet
  facet normal 1 -0 0
    outer loop
      vertex 17.5 57.1757 26
      vertex 17.5 57.2431 25.9156
      vertex 17.5 57.2204 26
    endloop
  endfacet
  facet normal 1 -0 0
    outer loop
      vertex 17.5 56.3643 26
      vertex 17.5 57.2431 25.9156
      vertex 17.5 57.1757 26
    endloop
  endfacet
  facet normal 1 0 0
    outer loop
      vertex 17.5 57.105 26.0611
      vertex 17.5 57.1757 26
      vertex 17.5 57.173 26.0031
    endloop
  endfacet
  facet normal 1 0 0
    outer loop
      vertex 17.5 57.1757 26
      vertex 17.5 57.105 26.0611
      vertex 17.5 56.3643 26
    endloop
  endfacet
  facet normal 1 0 0
    outer loop
      vertex 17.5 56.3643 26
      vertex 17.5 57.105 26.0611
      vertex 17.5 57.0288 26.1079
    endloop
  endfacet
  facet normal 1 0 0
    outer loop
      vertex 17.5 56.3643 26
      vertex 17.5 57.0288 26.1079
      vertex 17.5 56.9461 26.1421
    endloop
  endfacet
  facet normal 1 0 0
    outer loop
      vertex 17.5 56.3643 26
      vertex 17.5 56.9461 26.1421
      vertex 17.5 56.8592 26.163
    endloop
  endfacet
  facet normal 1 0 0
    outer loop
      vertex 17.5 56.3643 26
      vertex 17.5 56.8592 26.163
      vertex 17.5 56.77 26.17
    endloop
  endfacet
  facet normal 1 0 0
    outer loop
      vertex 17.5 56.3643 26
      vertex 17.5 56.77 26.17
      vertex 17.5 56.6808 26.163
    endloop
  endfacet
  facet normal 1 0 0
    outer loop
      vertex 17.5 56.3643 26
      vertex 17.5 56.6808 26.163
      vertex 17.5 56.5939 26.1421
    endloop
  endfacet
  facet normal 1 0 0
    outer loop
      vertex 17.5 56.3643 26
      vertex 17.5 56.5939 26.1421
      vertex 17.5 56.5112 26.1079
    endloop
  endfacet
  facet normal 1 0 0
    outer loop
      vertex 17.5 56.3643 26
      vertex 17.5 56.5112 26.1079
      vertex 17.5 56.435 26.0611
    endloop
  endfacet
  facet normal 1 0 0
    outer loop
      vertex 17.5 56.3643 26
      vertex 17.5 56.435 26.0611
      vertex 17.5 56.367 26.0031
    endloop
  endfacet
  facet normal 1 0 0
    outer loop
      vertex 17.5 57.3372 25.5643
      vertex 17.5 56.3643 26
      vertex 17.5 56.356 26
    endloop
  endfacet
  facet normal 1 0 0
    outer loop
      vertex 17.5 57.3372 25.5643
      vertex 17.5 56.356 26
      vertex 17.5 59.9546 15.7258
    endloop
  endfacet
  facet normal 1 0 0
    outer loop
      vertex 17.5 59.9546 15.7258
      vertex 17.5 56.356 26
      vertex 17.5 40.7661 10.6928
    endloop
  endfacet
  facet normal 0 -0.499997 0.866027
    outer loop
      vertex 0 66.1962 5
      vertex 33 61 2
      vertex 33 66.1962 5
    endloop
  endfacet
  facet normal 0 -0.499997 0.866027
    outer loop
      vertex 33 61 2
      vertex 0 66.1962 5
      vertex 0 61 2
    endloop
  endfacet
  facet normal 0 0.499997 -0.866027
    outer loop
      vertex 0 55.8038 11
      vertex 33 61 14
      vertex 33 55.8038 11
    endloop
  endfacet
  facet normal 0 0.499997 -0.866027
    outer loop
      vertex 33 61 14
      vertex 0 55.8038 11
      vertex 0 61 14
    endloop
  endfacet
  facet normal 0 1 -0
    outer loop
      vertex 33 55.8038 5
      vertex 0 55.8038 11
      vertex 33 55.8038 11
    endloop
  endfacet
  facet normal 0 1 0
    outer loop
      vertex 0 55.8038 11
      vertex 33 55.8038 5
      vertex 0 55.8038 5
    endloop
  endfacet
  facet normal 0 -0.499997 -0.866027
    outer loop
      vertex 0 61 14
      vertex 33 66.1962 11
      vertex 33 61 14
    endloop
  endfacet
  facet normal -0 -0.499997 -0.866027
    outer loop
      vertex 33 66.1962 11
      vertex 0 61 14
      vertex 0 66.1962 11
    endloop
  endfacet
  facet normal 0 -1 0
    outer loop
      vertex 0 66.1962 5
      vertex 33 66.1962 11
      vertex 0 66.1962 11
    endloop
  endfacet
  facet normal 0 -1 -0
    outer loop
      vertex 33 66.1962 11
      vertex 0 66.1962 5
      vertex 33 66.1962 5
    endloop
  endfacet
  facet normal -0 0.499997 0.866027
    outer loop
      vertex 0 61 2
      vertex 33 55.8038 5
      vertex 33 61 2
    endloop
  endfacet
  facet normal 0 0.499997 0.866027
    outer loop
      vertex 33 55.8038 5
      vertex 0 61 2
      vertex 0 55.8038 5
    endloop
  endfacet
  facet normal -0 0 1
    outer loop
      vertex 15.5 56.3643 26
      vertex 17.5 56.356 26
      vertex 17.5 56.3643 26
    endloop
  endfacet
  facet normal 0 0 1
    outer loop
      vertex 17.5 56.356 26
      vertex 15.5 56.3643 26
      vertex 15.5 56.356 26
    endloop
  endfacet
  facet normal -0 0 1
    outer loop
      vertex 15.5 57.2204 26
      vertex 17.5 57.1757 26
      vertex 17.5 57.2204 26
    endloop
  endfacet
  facet normal 0 0 1
    outer loop
      vertex 17.5 57.1757 26
      vertex 15.5 57.2204 26
      vertex 15.5 57.1757 26
    endloop
  endfacet
  facet normal -0 0.078411 0.996921
    outer loop
      vertex 0 6.07692 1.59395
      vertex 33 6 1.6
      vertex 33 6.07692 1.59395
    endloop
  endfacet
  facet normal 0 0.078411 0.996921
    outer loop
      vertex 33 6 1.6
      vertex 0 6.07692 1.59395
      vertex 0 6 1.6
    endloop
  endfacet
  facet normal 0 -0.996917 -0.0784648
    outer loop
      vertex 0 5.20985 0.674852
      vertex 33 5.2 0.799999
      vertex 0 5.2 0.799999
    endloop
  endfacet
  facet normal 0 -0.996917 -0.0784648
    outer loop
      vertex 33 5.2 0.799999
      vertex 0 5.20985 0.674852
      vertex 33 5.20985 0.674852
    endloop
  endfacet
  facet normal 0 -0.522484 -0.852649
    outer loop
      vertex 0 5.52977 0.152786
      vertex 33 5.63681 0.0871944
      vertex 33 5.52977 0.152786
    endloop
  endfacet
  facet normal -0 -0.522484 -0.852649
    outer loop
      vertex 33 5.63681 0.0871944
      vertex 0 5.52977 0.152786
      vertex 0 5.63681 0.0871944
    endloop
  endfacet
  facet normal 0 -0.649436 -0.760416
    outer loop
      vertex 0 5.43431 0.234314
      vertex 33 5.52977 0.152786
      vertex 33 5.43431 0.234314
    endloop
  endfacet
  facet normal -0 -0.649436 -0.760416
    outer loop
      vertex 33 5.52977 0.152786
      vertex 0 5.43431 0.234314
      vertex 0 5.52977 0.152786
    endloop
  endfacet
  facet normal 0 -0.382682 -0.92388
    outer loop
      vertex 0 5.63681 0.0871944
      vertex 33 5.75279 0.0391541
      vertex 33 5.63681 0.0871944
    endloop
  endfacet
  facet normal -0 -0.382682 -0.92388
    outer loop
      vertex 33 5.75279 0.0391541
      vertex 0 5.63681 0.0871944
      vertex 0 5.75279 0.0391541
    endloop
  endfacet
  facet normal 0 -0.233457 -0.972367
    outer loop
      vertex 0 5.75279 0.0391541
      vertex 33 5.87485 0.00984859
      vertex 33 5.75279 0.0391541
    endloop
  endfacet
  facet normal -0 -0.233457 -0.972367
    outer loop
      vertex 33 5.87485 0.00984859
      vertex 0 5.75279 0.0391541
      vertex 0 5.87485 0.00984859
    endloop
  endfacet
  facet normal 0 -0.923881 0.38268
    outer loop
      vertex 0 5.23915 1.04721
      vertex 33 5.28719 1.16319
      vertex 0 5.28719 1.16319
    endloop
  endfacet
  facet normal 0 -0.923881 0.38268
    outer loop
      vertex 33 5.28719 1.16319
      vertex 0 5.23915 1.04721
      vertex 33 5.23915 1.04721
    endloop
  endfacet
  facet normal 0 -0.97238 -0.233404
    outer loop
      vertex 0 5.23915 0.552786
      vertex 33 5.20985 0.674852
      vertex 0 5.20985 0.674852
    endloop
  endfacet
  facet normal 0 -0.97238 -0.233404
    outer loop
      vertex 33 5.20985 0.674852
      vertex 0 5.23915 0.552786
      vertex 33 5.23915 0.552786
    endloop
  endfacet
  facet normal 0 -0.852611 -0.522546
    outer loop
      vertex 0 5.35279 0.329771
      vertex 33 5.28719 0.436807
      vertex 0 5.28719 0.436807
    endloop
  endfacet
  facet normal 0 -0.852611 -0.522546
    outer loop
      vertex 33 5.28719 0.436807
      vertex 0 5.35279 0.329771
      vertex 33 5.35279 0.329771
    endloop
  endfacet
  facet normal 0 -0.0784517 -0.996918
    outer loop
      vertex 0 5.87485 0.00984859
      vertex 33 6 0
      vertex 33 5.87485 0.00984859
    endloop
  endfacet
  facet normal -0 -0.0784517 -0.996918
    outer loop
      vertex 33 6 0
      vertex 0 5.87485 0.00984859
      vertex 0 6 0
    endloop
  endfacet
  facet normal 0 -0.972378 0.23341
    outer loop
      vertex 0 5.20985 0.925147
      vertex 33 5.23915 1.04721
      vertex 0 5.23915 1.04721
    endloop
  endfacet
  facet normal 0 -0.972378 0.23341
    outer loop
      vertex 33 5.23915 1.04721
      vertex 0 5.20985 0.925147
      vertex 33 5.20985 0.925147
    endloop
  endfacet
  facet normal 0 -0.85262 0.522532
    outer loop
      vertex 0 5.28719 1.16319
      vertex 33 5.35279 1.27023
      vertex 0 5.35279 1.27023
    endloop
  endfacet
  facet normal 0 -0.85262 0.522532
    outer loop
      vertex 33 5.35279 1.27023
      vertex 0 5.28719 1.16319
      vertex 33 5.28719 1.16319
    endloop
  endfacet
  facet normal 0 -0.649446 0.760408
    outer loop
      vertex 0 5.52977 1.44721
      vertex 33 5.43431 1.36568
      vertex 33 5.52977 1.44721
    endloop
  endfacet
  facet normal 0 -0.649446 0.760408
    outer loop
      vertex 33 5.43431 1.36568
      vertex 0 5.52977 1.44721
      vertex 0 5.43431 1.36568
    endloop
  endfacet
  facet normal 0 -0.522474 0.852655
    outer loop
      vertex 0 5.63681 1.5128
      vertex 33 5.52977 1.44721
      vertex 33 5.63681 1.5128
    endloop
  endfacet
  facet normal 0 -0.522474 0.852655
    outer loop
      vertex 33 5.52977 1.44721
      vertex 0 5.63681 1.5128
      vertex 0 5.52977 1.44721
    endloop
  endfacet
  facet normal 0 -0.0784629 0.996917
    outer loop
      vertex 0 6 1.6
      vertex 33 5.87485 1.59015
      vertex 33 6 1.6
    endloop
  endfacet
  facet normal 0 -0.0784629 0.996917
    outer loop
      vertex 33 5.87485 1.59015
      vertex 0 6 1.6
      vertex 0 5.87485 1.59015
    endloop
  endfacet
  facet normal 0 -0.38268 0.923881
    outer loop
      vertex 0 5.75279 1.56084
      vertex 33 5.63681 1.5128
      vertex 33 5.75279 1.56084
    endloop
  endfacet
  facet normal 0 -0.38268 0.923881
    outer loop
      vertex 33 5.63681 1.5128
      vertex 0 5.75279 1.56084
      vertex 0 5.63681 1.5128
    endloop
  endfacet
  facet normal 0 -0.92388 -0.382683
    outer loop
      vertex 0 5.28719 0.436807
      vertex 33 5.23915 0.552786
      vertex 0 5.23915 0.552786
    endloop
  endfacet
  facet normal 0 -0.92388 -0.382683
    outer loop
      vertex 33 5.23915 0.552786
      vertex 0 5.28719 0.436807
      vertex 33 5.28719 0.436807
    endloop
  endfacet
  facet normal 0 -0.760437 -0.649411
    outer loop
      vertex 0 5.43431 0.234314
      vertex 33 5.35279 0.329771
      vertex 0 5.35279 0.329771
    endloop
  endfacet
  facet normal 0 -0.760437 -0.649411
    outer loop
      vertex 33 5.35279 0.329771
      vertex 0 5.43431 0.234314
      vertex 33 5.43431 0.234314
    endloop
  endfacet
  facet normal 0 -0.996917 0.0784642
    outer loop
      vertex 0 5.2 0.799999
      vertex 33 5.20985 0.925147
      vertex 0 5.20985 0.925147
    endloop
  endfacet
  facet normal 0 -0.996917 0.0784642
    outer loop
      vertex 33 5.20985 0.925147
      vertex 0 5.2 0.799999
      vertex 33 5.2 0.799999
    endloop
  endfacet
  facet normal 0 -0.760414 0.649439
    outer loop
      vertex 0 5.35279 1.27023
      vertex 33 5.43431 1.36568
      vertex 0 5.43431 1.36568
    endloop
  endfacet
  facet normal 0 -0.760414 0.649439
    outer loop
      vertex 33 5.43431 1.36568
      vertex 0 5.35279 1.27023
      vertex 33 5.35279 1.27023
    endloop
  endfacet
  facet normal 0 -0.23349 0.972359
    outer loop
      vertex 0 5.87485 1.59015
      vertex 33 5.75279 1.56084
      vertex 33 5.87485 1.59015
    endloop
  endfacet
  facet normal 0 -0.23349 0.972359
    outer loop
      vertex 33 5.75279 1.56084
      vertex 0 5.87485 1.59015
      vertex 0 5.75279 1.56084
    endloop
  endfacet
  facet normal -0 0.0782348 0.996935
    outer loop
      vertex 15.5 56.8592 26.163
      vertex 17.5 56.77 26.17
      vertex 17.5 56.8592 26.163
    endloop
  endfacet
  facet normal 0 0.0782348 0.996935
    outer loop
      vertex 17.5 56.77 26.17
      vertex 15.5 56.8592 26.163
      vertex 15.5 56.77 26.17
    endloop
  endfacet
  facet normal 0 0.996935 0.0782348
    outer loop
      vertex 17.5 57.34 25.6
      vertex 15.5 57.333 25.6892
      vertex 17.5 57.333 25.6892
    endloop
  endfacet
  facet normal 0 0.996935 0.0782348
    outer loop
      vertex 15.5 57.333 25.6892
      vertex 17.5 57.34 25.6
      vertex 15.5 57.34 25.6
    endloop
  endfacet
  facet normal 0 0.754082 0.656781
    outer loop
      vertex 17.5 57.1757 26
      vertex 15.5 57.173 26.0031
      vertex 17.5 57.173 26.0031
    endloop
  endfacet
  facet normal 0 0.754082 0.656781
    outer loop
      vertex 15.5 57.173 26.0031
      vertex 17.5 57.1757 26
      vertex 15.5 57.1757 26
    endloop
  endfacet
  facet normal 0 0.924098 0.382154
    outer loop
      vertex 17.5 57.3121 25.7761
      vertex 15.5 57.2779 25.8588
      vertex 17.5 57.2779 25.8588
    endloop
  endfacet
  facet normal 0 0.924098 0.382154
    outer loop
      vertex 15.5 57.2779 25.8588
      vertex 17.5 57.3121 25.7761
      vertex 15.5 57.3121 25.7761
    endloop
  endfacet
  facet normal 0 0.996938 -0.0781912
    outer loop
      vertex 17.5 57.3372 25.5643
      vertex 15.5 57.34 25.6
      vertex 17.5 57.34 25.6
    endloop
  endfacet
  facet normal 0 0.996938 -0.0781912
    outer loop
      vertex 15.5 57.34 25.6
      vertex 17.5 57.3372 25.5643
      vertex 15.5 57.3372 25.5643
    endloop
  endfacet
  facet normal -0 0.523349 0.852119
    outer loop
      vertex 15.5 57.105 26.0611
      vertex 17.5 57.0288 26.1079
      vertex 17.5 57.105 26.0611
    endloop
  endfacet
  facet normal 0 0.523349 0.852119
    outer loop
      vertex 17.5 57.0288 26.1079
      vertex 15.5 57.105 26.0611
      vertex 15.5 57.0288 26.1079
    endloop
  endfacet
  facet normal -0 0.648947 0.760834
    outer loop
      vertex 15.5 57.173 26.0031
      vertex 17.5 57.105 26.0611
      vertex 17.5 57.173 26.0031
    endloop
  endfacet
  facet normal 0 0.648947 0.760834
    outer loop
      vertex 17.5 57.105 26.0611
      vertex 15.5 57.173 26.0031
      vertex 15.5 57.105 26.0611
    endloop
  endfacet
  facet normal 0 0.852688 0.522421
    outer loop
      vertex 17.5 57.2779 25.8588
      vertex 15.5 57.2431 25.9156
      vertex 17.5 57.2431 25.9156
    endloop
  endfacet
  facet normal 0 0.852688 0.522421
    outer loop
      vertex 15.5 57.2431 25.9156
      vertex 17.5 57.2779 25.8588
      vertex 15.5 57.2779 25.8588
    endloop
  endfacet
  facet normal 0 0.972275 0.233838
    outer loop
      vertex 17.5 57.333 25.6892
      vertex 15.5 57.3121 25.7761
      vertex 17.5 57.3121 25.7761
    endloop
  endfacet
  facet normal 0 0.972275 0.233838
    outer loop
      vertex 15.5 57.3121 25.7761
      vertex 17.5 57.333 25.6892
      vertex 15.5 57.333 25.6892
    endloop
  endfacet
  facet normal -0 0.382154 0.924098
    outer loop
      vertex 15.5 57.0288 26.1079
      vertex 17.5 56.9461 26.1421
      vertex 17.5 57.0288 26.1079
    endloop
  endfacet
  facet normal 0 0.382154 0.924098
    outer loop
      vertex 17.5 56.9461 26.1421
      vertex 15.5 57.0288 26.1079
      vertex 15.5 56.9461 26.1421
    endloop
  endfacet
  facet normal -0 0.233838 0.972275
    outer loop
      vertex 15.5 56.9461 26.1421
      vertex 17.5 56.8592 26.163
      vertex 17.5 56.9461 26.1421
    endloop
  endfacet
  facet normal 0 0.233838 0.972275
    outer loop
      vertex 17.5 56.8592 26.163
      vertex 15.5 56.9461 26.1421
      vertex 15.5 56.8592 26.163
    endloop
  endfacet
  facet normal 0 -0.648947 0.760834
    outer loop
      vertex 15.5 56.435 26.0611
      vertex 17.5 56.367 26.0031
      vertex 17.5 56.435 26.0611
    endloop
  endfacet
  facet normal 0 -0.648947 0.760834
    outer loop
      vertex 17.5 56.367 26.0031
      vertex 15.5 56.435 26.0611
      vertex 15.5 56.367 26.0031
    endloop
  endfacet
  facet normal 0 -0.523349 0.852119
    outer loop
      vertex 15.5 56.5112 26.1079
      vertex 17.5 56.435 26.0611
      vertex 17.5 56.5112 26.1079
    endloop
  endfacet
  facet normal 0 -0.523349 0.852119
    outer loop
      vertex 17.5 56.435 26.0611
      vertex 15.5 56.5112 26.1079
      vertex 15.5 56.435 26.0611
    endloop
  endfacet
  facet normal 0 -0.0782348 0.996935
    outer loop
      vertex 15.5 56.77 26.17
      vertex 17.5 56.6808 26.163
      vertex 17.5 56.77 26.17
    endloop
  endfacet
  facet normal 0 -0.0782348 0.996935
    outer loop
      vertex 17.5 56.6808 26.163
      vertex 15.5 56.77 26.17
      vertex 15.5 56.6808 26.163
    endloop
  endfacet
  facet normal 0 -0.382154 0.924098
    outer loop
      vertex 15.5 56.5939 26.1421
      vertex 17.5 56.5112 26.1079
      vertex 17.5 56.5939 26.1421
    endloop
  endfacet
  facet normal 0 -0.382154 0.924098
    outer loop
      vertex 17.5 56.5112 26.1079
      vertex 15.5 56.5939 26.1421
      vertex 15.5 56.5112 26.1079
    endloop
  endfacet
  facet normal 0 -0.754082 0.656781
    outer loop
      vertex 15.5 56.3643 26
      vertex 17.5 56.367 26.0031
      vertex 15.5 56.367 26.0031
    endloop
  endfacet
  facet normal 0 -0.754082 0.656781
    outer loop
      vertex 17.5 56.367 26.0031
      vertex 15.5 56.3643 26
      vertex 17.5 56.3643 26
    endloop
  endfacet
  facet normal 0 -0.233838 0.972275
    outer loop
      vertex 15.5 56.6808 26.163
      vertex 17.5 56.5939 26.1421
      vertex 17.5 56.6808 26.163
    endloop
  endfacet
  facet normal 0 -0.233838 0.972275
    outer loop
      vertex 17.5 56.5939 26.1421
      vertex 15.5 56.6808 26.163
      vertex 15.5 56.5939 26.1421
    endloop
  endfacet
endsolid OpenSCAD_Model
