solid OpenSCAD_Model
  facet normal -1 0 0
    outer loop
      vertex 0 0 0
      vertex 0 3 14
      vertex 0 3 0
    endloop
  endfacet
  facet normal -1 -0 0
    outer loop
      vertex 0 3 14
      vertex 0 0 0
      vertex 0 0 14
    endloop
  endfacet
  facet normal -0 0 1
    outer loop
      vertex 65 3 14
      vertex 120 0 14
      vertex 120 3 14
    endloop
  endfacet
  facet normal 0 0 1
    outer loop
      vertex 65 3 14
      vertex 65 0 14
      vertex 120 0 14
    endloop
  endfacet
  facet normal -0 0 1
    outer loop
      vertex 63.5355 3 14
      vertex 65 0 14
      vertex 65 3 14
    endloop
  endfacet
  facet normal 0 0 1
    outer loop
      vertex 65 0 14
      vertex 63.5355 3 14
      vertex 63.5355 0 14
    endloop
  endfacet
  facet normal -0 0 1
    outer loop
      vertex 55 3 14
      vertex 56.4645 0 14
      vertex 56.4645 3 14
    endloop
  endfacet
  facet normal 0 0 1
    outer loop
      vertex 55 3 14
      vertex 55 0 14
      vertex 56.4645 0 14
    endloop
  endfacet
  facet normal -0 0 1
    outer loop
      vertex 0 3 14
      vertex 55 0 14
      vertex 55 3 14
    endloop
  endfacet
  facet normal 0 0 1
    outer loop
      vertex 55 0 14
      vertex 0 3 14
      vertex 0 0 14
    endloop
  endfacet
  facet normal 1 -0 0
    outer loop
      vertex 120 0 14
      vertex 120 3 0
      vertex 120 3 14
    endloop
  endfacet
  facet normal 1 0 0
    outer loop
      vertex 120 3 0
      vertex 120 0 14
      vertex 120 0 0
    endloop
  endfacet
  facet normal 0 1 -0
    outer loop
      vertex 65 3 0
      vertex 63.5355 3 14
      vertex 65 3 14
    endloop
  endfacet
  facet normal 0 1 0
    outer loop
      vertex 63.5355 3 14
      vertex 65 3 0
      vertex 56.4645 3 14
    endloop
  endfacet
  facet normal 0 1 0
    outer loop
      vertex 55 3 0
      vertex 56.4645 3 14
      vertex 65 3 0
    endloop
  endfacet
  facet normal 0 1 0
    outer loop
      vertex 56.4645 3 14
      vertex 55 3 0
      vertex 55 3 14
    endloop
  endfacet
  facet normal 0 1 0
    outer loop
      vertex 63.5355 3 14
      vertex 61.5 3 58
      vertex 62.1213 3 58
    endloop
  endfacet
  facet normal 0 1 0
    outer loop
      vertex 61.5 3 58
      vertex 63.5355 3 14
      vertex 58.5 3 58
    endloop
  endfacet
  facet normal 0 1 0
    outer loop
      vertex 56.4645 3 14
      vertex 58.5 3 58
      vertex 63.5355 3 14
    endloop
  endfacet
  facet normal 0 1 0
    outer loop
      vertex 58.5 3 58
      vertex 56.4645 3 14
      vertex 57.8787 3 58
    endloop
  endfacet
  facet normal 0 1 -0
    outer loop
      vertex 120 3 0
      vertex 65 3 14
      vertex 120 3 14
    endloop
  endfacet
  facet normal 0 1 0
    outer loop
      vertex 65 3 14
      vertex 120 3 0
      vertex 65 3 0
    endloop
  endfacet
  facet normal 0 1 -0
    outer loop
      vertex 55 3 0
      vertex 0 3 14
      vertex 55 3 14
    endloop
  endfacet
  facet normal 0 1 0
    outer loop
      vertex 0 3 14
      vertex 55 3 0
      vertex 0 3 0
    endloop
  endfacet
  facet normal 0 0 -1
    outer loop
      vertex 65 0 0
      vertex 120 3 0
      vertex 120 0 0
    endloop
  endfacet
  facet normal 0 0 -1
    outer loop
      vertex 65 0 0
      vertex 65 3 0
      vertex 120 3 0
    endloop
  endfacet
  facet normal 0 0 -1
    outer loop
      vertex 55 0 0
      vertex 65 3 0
      vertex 65 0 0
    endloop
  endfacet
  facet normal 0 0 -1
    outer loop
      vertex 55 0 0
      vertex 55 3 0
      vertex 65 3 0
    endloop
  endfacet
  facet normal 0 0 -1
    outer loop
      vertex 0 0 0
      vertex 55 3 0
      vertex 55 0 0
    endloop
  endfacet
  facet normal -0 0 -1
    outer loop
      vertex 55 3 0
      vertex 0 0 0
      vertex 0 3 0
    endloop
  endfacet
  facet normal 0 -1 0
    outer loop
      vertex 55 0 0
      vertex 56.4645 0 14
      vertex 55 0 14
    endloop
  endfacet
  facet normal 0 -1 -0
    outer loop
      vertex 56.4645 0 14
      vertex 55 0 0
      vertex 63.5355 0 14
    endloop
  endfacet
  facet normal 0 -1 0
    outer loop
      vertex 65 0 0
      vertex 63.5355 0 14
      vertex 55 0 0
    endloop
  endfacet
  facet normal 0 -1 0
    outer loop
      vertex 63.5355 0 14
      vertex 65 0 0
      vertex 65 0 14
    endloop
  endfacet
  facet normal 0 -1 0
    outer loop
      vertex 56.4645 0 14
      vertex 58.5 0 58
      vertex 57.8787 0 58
    endloop
  endfacet
  facet normal 0 -1 -0
    outer loop
      vertex 58.5 0 58
      vertex 56.4645 0 14
      vertex 61.5 0 58
    endloop
  endfacet
  facet normal 0 -1 0
    outer loop
      vertex 63.5355 0 14
      vertex 61.5 0 58
      vertex 56.4645 0 14
    endloop
  endfacet
  facet normal 0 -1 0
    outer loop
      vertex 61.5 0 58
      vertex 63.5355 0 14
      vertex 62.1213 0 58
    endloop
  endfacet
  facet normal 0 -1 0
    outer loop
      vertex 65 0 0
      vertex 120 0 14
      vertex 65 0 14
    endloop
  endfacet
  facet normal 0 -1 -0
    outer loop
      vertex 120 0 14
      vertex 65 0 0
      vertex 120 0 0
    endloop
  endfacet
  facet normal 0 -1 0
    outer loop
      vertex 0 0 0
      vertex 55 0 14
      vertex 0 0 14
    endloop
  endfacet
  facet normal 0 -1 -0
    outer loop
      vertex 55 0 14
      vertex 0 0 0
      vertex 55 0 0
    endloop
  endfacet
  facet normal -0.999484 0 0.0321243
    outer loop
      vertex 56.4645 0 14
      vertex 57.8787 3 58
      vertex 56.4645 3 14
    endloop
  endfacet
  facet normal -0.999484 0 0.0321243
    outer loop
      vertex 57.8787 3 58
      vertex 56.4645 0 14
      vertex 57.8787 0 58
    endloop
  endfacet
  facet normal -0 0 1
    outer loop
      vertex 57.8787 3 58
      vertex 58.5 0 58
      vertex 58.5 3 58
    endloop
  endfacet
  facet normal 0 0 1
    outer loop
      vertex 58.5 0 58
      vertex 57.8787 3 58
      vertex 57.8787 0 58
    endloop
  endfacet
  facet normal -0 0 1
    outer loop
      vertex 61.5 3 58
      vertex 62.1213 0 58
      vertex 62.1213 3 58
    endloop
  endfacet
  facet normal 0 0 1
    outer loop
      vertex 62.1213 0 58
      vertex 61.5 3 58
      vertex 61.5 0 58
    endloop
  endfacet
  facet normal 0.999484 -0 0.0321243
    outer loop
      vertex 62.1213 0 58
      vertex 63.5355 3 14
      vertex 62.1213 3 58
    endloop
  endfacet
  facet normal 0.999484 0 0.0321243
    outer loop
      vertex 63.5355 3 14
      vertex 62.1213 0 58
      vertex 63.5355 0 14
    endloop
  endfacet
  facet normal -1 0 0
    outer loop
      vertex 58.5 0 58
      vertex 58.5 3 108
      vertex 58.5 3 58
    endloop
  endfacet
  facet normal -1 -0 0
    outer loop
      vertex 58.5 3 108
      vertex 58.5 0 58
      vertex 58.5 0 108
    endloop
  endfacet
  facet normal 0 0 -1
    outer loop
      vertex 61.5 0 108
      vertex 62.1 3 108
      vertex 62.1 0 108
    endloop
  endfacet
  facet normal -0 0 -1
    outer loop
      vertex 62.1 3 108
      vertex 61.5 0 108
      vertex 61.5 3 108
    endloop
  endfacet
  facet normal 0 0 -1
    outer loop
      vertex 57.9426 0 108
      vertex 58.5 3 108
      vertex 58.5 0 108
    endloop
  endfacet
  facet normal -0 0 -1
    outer loop
      vertex 58.5 3 108
      vertex 57.9426 0 108
      vertex 57.9426 3 108
    endloop
  endfacet
  facet normal 1 -0 0
    outer loop
      vertex 61.5 0 108
      vertex 61.5 3 58
      vertex 61.5 3 108
    endloop
  endfacet
  facet normal 1 0 0
    outer loop
      vertex 61.5 3 58
      vertex 61.5 0 108
      vertex 61.5 0 58
    endloop
  endfacet
  facet normal 0 1 -0
    outer loop
      vertex 61.5 3 58
      vertex 58.5 3 108
      vertex 61.5 3 108
    endloop
  endfacet
  facet normal 0 1 0
    outer loop
      vertex 58.5 3 108
      vertex 61.5 3 58
      vertex 58.5 3 58
    endloop
  endfacet
  facet normal 0 1 0
    outer loop
      vertex 61.5 3 108
      vertex 62.1 3 112
      vertex 63 3 111.1
    endloop
  endfacet
  facet normal 0 1 0
    outer loop
      vertex 62.1 3 112
      vertex 61.5 3 108
      vertex 57.9426 3 112
    endloop
  endfacet
  facet normal 0 1 0
    outer loop
      vertex 57.9426 3 112
      vertex 58.5 3 108
      vertex 57 3 111.057
    endloop
  endfacet
  facet normal 0 1 0
    outer loop
      vertex 61.5 3 108
      vertex 63 3 111.1
      vertex 63 3 108.9
    endloop
  endfacet
  facet normal 0 1 0
    outer loop
      vertex 61.5 3 108
      vertex 63 3 108.9
      vertex 62.1 3 108
    endloop
  endfacet
  facet normal 0 1 0
    outer loop
      vertex 57.9426 3 112
      vertex 61.5 3 108
      vertex 58.5 3 108
    endloop
  endfacet
  facet normal 0 1 0
    outer loop
      vertex 57 3 111.057
      vertex 58.5 3 108
      vertex 57 3 108.943
    endloop
  endfacet
  facet normal 0 1 0
    outer loop
      vertex 57 3 108.943
      vertex 58.5 3 108
      vertex 57.9426 3 108
    endloop
  endfacet
  facet normal 0 -1 0
    outer loop
      vertex 58.5 0 58
      vertex 61.5 0 108
      vertex 58.5 0 108
    endloop
  endfacet
  facet normal 0 -1 -0
    outer loop
      vertex 61.5 0 108
      vertex 58.5 0 58
      vertex 61.5 0 58
    endloop
  endfacet
  facet normal 0 -1 0
    outer loop
      vertex 61.5 0 108
      vertex 62.1 0 112
      vertex 57.9426 0 112
    endloop
  endfacet
  facet normal 0 -1 0
    outer loop
      vertex 58.5 0 108
      vertex 57.9426 0 112
      vertex 57 0 111.057
    endloop
  endfacet
  facet normal 0 -1 0
    outer loop
      vertex 58.5 0 108
      vertex 57 0 111.057
      vertex 57 0 108.943
    endloop
  endfacet
  facet normal 0 -1 0
    outer loop
      vertex 61.5 0 108
      vertex 57.9426 0 112
      vertex 58.5 0 108
    endloop
  endfacet
  facet normal 0 -1 0
    outer loop
      vertex 58.5 0 108
      vertex 57 0 108.943
      vertex 57.9426 0 108
    endloop
  endfacet
  facet normal 0 -1 -0
    outer loop
      vertex 62.1 0 112
      vertex 61.5 0 108
      vertex 63 0 111.1
    endloop
  endfacet
  facet normal 0 -1 -0
    outer loop
      vertex 63 0 111.1
      vertex 61.5 0 108
      vertex 63 0 108.9
    endloop
  endfacet
  facet normal 0 -1 0
    outer loop
      vertex 63 0 108.9
      vertex 61.5 0 108
      vertex 62.1 0 108
    endloop
  endfacet
  facet normal -1 0 0
    outer loop
      vertex 57 0 108.943
      vertex 57 3 111.057
      vertex 57 3 108.943
    endloop
  endfacet
  facet normal -1 -0 0
    outer loop
      vertex 57 3 111.057
      vertex 57 0 108.943
      vertex 57 0 111.057
    endloop
  endfacet
  facet normal -0 0 1
    outer loop
      vertex 57.9426 3 112
      vertex 62.1 0 112
      vertex 62.1 3 112
    endloop
  endfacet
  facet normal 0 0 1
    outer loop
      vertex 62.1 0 112
      vertex 57.9426 3 112
      vertex 57.9426 0 112
    endloop
  endfacet
  facet normal 1 -0 0
    outer loop
      vertex 63 0 111.1
      vertex 63 3 108.9
      vertex 63 3 111.1
    endloop
  endfacet
  facet normal 1 0 0
    outer loop
      vertex 63 3 108.9
      vertex 63 0 111.1
      vertex 63 0 108.9
    endloop
  endfacet
  facet normal -0.707257 0 -0.706957
    outer loop
      vertex 57.9426 0 108
      vertex 57 3 108.943
      vertex 57.9426 3 108
    endloop
  endfacet
  facet normal -0.707257 -0 -0.706957
    outer loop
      vertex 57 3 108.943
      vertex 57.9426 0 108
      vertex 57 0 108.943
    endloop
  endfacet
  facet normal 0.707107 0 -0.707107
    outer loop
      vertex 63 0 108.9
      vertex 62.1 3 108
      vertex 63 3 108.9
    endloop
  endfacet
  facet normal 0.707107 0 -0.707107
    outer loop
      vertex 62.1 3 108
      vertex 63 0 108.9
      vertex 62.1 0 108
    endloop
  endfacet
  facet normal -0.707257 0 0.706957
    outer loop
      vertex 57 0 111.057
      vertex 57.9426 3 112
      vertex 57 3 111.057
    endloop
  endfacet
  facet normal -0.707257 0 0.706957
    outer loop
      vertex 57.9426 3 112
      vertex 57 0 111.057
      vertex 57.9426 0 112
    endloop
  endfacet
  facet normal 0.707107 -0 0.707107
    outer loop
      vertex 62.1 0 112
      vertex 63 3 111.1
      vertex 62.1 3 112
    endloop
  endfacet
  facet normal 0.707107 0 0.707107
    outer loop
      vertex 63 3 111.1
      vertex 62.1 0 112
      vertex 63 0 111.1
    endloop
  endfacet
endsolid OpenSCAD_Model
