solid OpenSCAD_Model
  facet normal -1 0 0
    outer loop
      vertex 0 0 0
      vertex 0 31 2
      vertex 0 31 0
    endloop
  endfacet
  facet normal -1 -0 0
    outer loop
      vertex 0 31 2
      vertex 0 0 0
      vertex 0 0 2
    endloop
  endfacet
  facet normal 0 0 1
    outer loop
      vertex 67 31 2
      vertex 64.75 28.75 2
      vertex 67 0 2
    endloop
  endfacet
  facet normal 0 0 1
    outer loop
      vertex 67 31 2
      vertex 2.25 28.75 2
      vertex 64.75 28.75 2
    endloop
  endfacet
  facet normal 0 0 1
    outer loop
      vertex 2.25 28.75 2
      vertex 0 31 2
      vertex 2.25 2.25 2
    endloop
  endfacet
  facet normal -0 0 1
    outer loop
      vertex 0 31 2
      vertex 2.25 28.75 2
      vertex 67 31 2
    endloop
  endfacet
  facet normal -0 0 1
    outer loop
      vertex 64.75 2.25 2
      vertex 67 0 2
      vertex 64.75 28.75 2
    endloop
  endfacet
  facet normal -0 0 1
    outer loop
      vertex 2.25 2.25 2
      vertex 67 0 2
      vertex 64.75 2.25 2
    endloop
  endfacet
  facet normal 0 0 1
    outer loop
      vertex 2.25 2.25 2
      vertex 0 0 2
      vertex 67 0 2
    endloop
  endfacet
  facet normal 0 0 1
    outer loop
      vertex 0 0 2
      vertex 2.25 2.25 2
      vertex 0 31 2
    endloop
  endfacet
  facet normal 1 -0 0
    outer loop
      vertex 67 0 2
      vertex 67 31 0
      vertex 67 31 2
    endloop
  endfacet
  facet normal 1 0 0
    outer loop
      vertex 67 31 0
      vertex 67 0 2
      vertex 67 0 0
    endloop
  endfacet
  facet normal 0 0 -1
    outer loop
      vertex 67 0 0
      vertex 64 7 0
      vertex 67 31 0
    endloop
  endfacet
  facet normal 0 0 -1
    outer loop
      vertex 67 0 0
      vertex 62 7 0
      vertex 64 7 0
    endloop
  endfacet
  facet normal 0 0 -1
    outer loop
      vertex 62 7 0
      vertex 60 7 0
      vertex 62 24 0
    endloop
  endfacet
  facet normal 0 0 -1
    outer loop
      vertex 67 0 0
      vertex 60 7 0
      vertex 62 7 0
    endloop
  endfacet
  facet normal 0 0 -1
    outer loop
      vertex 67 0 0
      vertex 58 7 0
      vertex 60 7 0
    endloop
  endfacet
  facet normal 0 0 -1
    outer loop
      vertex 58 7 0
      vertex 56 7 0
      vertex 58 24 0
    endloop
  endfacet
  facet normal 0 0 -1
    outer loop
      vertex 67 0 0
      vertex 56 7 0
      vertex 58 7 0
    endloop
  endfacet
  facet normal 0 0 -1
    outer loop
      vertex 67 0 0
      vertex 54 7 0
      vertex 56 7 0
    endloop
  endfacet
  facet normal -0 0 -1
    outer loop
      vertex 54 7 0
      vertex 0 0 0
      vertex 54 24 0
    endloop
  endfacet
  facet normal 0 0 -1
    outer loop
      vertex 0 0 0
      vertex 54 7 0
      vertex 67 0 0
    endloop
  endfacet
  facet normal 0 0 -1
    outer loop
      vertex 64 24 0
      vertex 67 31 0
      vertex 64 7 0
    endloop
  endfacet
  facet normal 0 0 -1
    outer loop
      vertex 62 24 0
      vertex 67 31 0
      vertex 64 24 0
    endloop
  endfacet
  facet normal 0 0 -1
    outer loop
      vertex 60 24 0
      vertex 62 24 0
      vertex 60 7 0
    endloop
  endfacet
  facet normal 0 0 -1
    outer loop
      vertex 60 24 0
      vertex 67 31 0
      vertex 62 24 0
    endloop
  endfacet
  facet normal 0 0 -1
    outer loop
      vertex 58 24 0
      vertex 67 31 0
      vertex 60 24 0
    endloop
  endfacet
  facet normal 0 0 -1
    outer loop
      vertex 56 24 0
      vertex 58 24 0
      vertex 56 7 0
    endloop
  endfacet
  facet normal 0 0 -1
    outer loop
      vertex 56 24 0
      vertex 67 31 0
      vertex 58 24 0
    endloop
  endfacet
  facet normal 0 0 -1
    outer loop
      vertex 54 24 0
      vertex 67 31 0
      vertex 56 24 0
    endloop
  endfacet
  facet normal 0 0 -1
    outer loop
      vertex 0 31 0
      vertex 54 24 0
      vertex 0 0 0
    endloop
  endfacet
  facet normal 0 0 -1
    outer loop
      vertex 54 24 0
      vertex 0 31 0
      vertex 67 31 0
    endloop
  endfacet
  facet normal 0 -1 0
    outer loop
      vertex 0 0 0
      vertex 67 0 2
      vertex 0 0 2
    endloop
  endfacet
  facet normal 0 -1 -0
    outer loop
      vertex 67 0 2
      vertex 0 0 0
      vertex 67 0 0
    endloop
  endfacet
  facet normal 0 1 -0
    outer loop
      vertex 67 31 0
      vertex 0 31 2
      vertex 67 31 2
    endloop
  endfacet
  facet normal 0 1 0
    outer loop
      vertex 0 31 2
      vertex 67 31 0
      vertex 0 31 0
    endloop
  endfacet
  facet normal -1 0 0
    outer loop
      vertex 2.25 2.25 2
      vertex 2.25 28.75 5
      vertex 2.25 28.75 2
    endloop
  endfacet
  facet normal -1 -0 0
    outer loop
      vertex 2.25 28.75 5
      vertex 2.25 2.25 2
      vertex 2.25 2.25 5
    endloop
  endfacet
  facet normal 0 0 1
    outer loop
      vertex 64.75 28.75 5
      vertex 64 24 5
      vertex 64.75 2.25 5
    endloop
  endfacet
  facet normal 0 0 1
    outer loop
      vertex 64.75 28.75 5
      vertex 62 24 5
      vertex 64 24 5
    endloop
  endfacet
  facet normal 0 0 1
    outer loop
      vertex 62 24 5
      vertex 60 24 5
      vertex 62 7 5
    endloop
  endfacet
  facet normal 0 0 1
    outer loop
      vertex 64.75 28.75 5
      vertex 60 24 5
      vertex 62 24 5
    endloop
  endfacet
  facet normal 0 0 1
    outer loop
      vertex 64.75 28.75 5
      vertex 58 24 5
      vertex 60 24 5
    endloop
  endfacet
  facet normal 0 0 1
    outer loop
      vertex 58 24 5
      vertex 56 24 5
      vertex 58 7 5
    endloop
  endfacet
  facet normal 0 0 1
    outer loop
      vertex 64.75 28.75 5
      vertex 56 24 5
      vertex 58 24 5
    endloop
  endfacet
  facet normal 0 0 1
    outer loop
      vertex 64.75 28.75 5
      vertex 54 24 5
      vertex 56 24 5
    endloop
  endfacet
  facet normal 0 0 1
    outer loop
      vertex 54 24 5
      vertex 2.25 28.75 5
      vertex 54 7 5
    endloop
  endfacet
  facet normal -0 0 1
    outer loop
      vertex 2.25 28.75 5
      vertex 54 24 5
      vertex 64.75 28.75 5
    endloop
  endfacet
  facet normal -0 0 1
    outer loop
      vertex 64 7 5
      vertex 64.75 2.25 5
      vertex 64 24 5
    endloop
  endfacet
  facet normal -0 0 1
    outer loop
      vertex 62 7 5
      vertex 64.75 2.25 5
      vertex 64 7 5
    endloop
  endfacet
  facet normal 0 0 1
    outer loop
      vertex 60 7 5
      vertex 62 7 5
      vertex 60 24 5
    endloop
  endfacet
  facet normal -0 0 1
    outer loop
      vertex 60 7 5
      vertex 64.75 2.25 5
      vertex 62 7 5
    endloop
  endfacet
  facet normal -0 0 1
    outer loop
      vertex 58 7 5
      vertex 64.75 2.25 5
      vertex 60 7 5
    endloop
  endfacet
  facet normal 0 0 1
    outer loop
      vertex 56 7 5
      vertex 58 7 5
      vertex 56 24 5
    endloop
  endfacet
  facet normal -0 0 1
    outer loop
      vertex 56 7 5
      vertex 64.75 2.25 5
      vertex 58 7 5
    endloop
  endfacet
  facet normal -0 0 1
    outer loop
      vertex 54 7 5
      vertex 64.75 2.25 5
      vertex 56 7 5
    endloop
  endfacet
  facet normal 0 0 1
    outer loop
      vertex 2.25 2.25 5
      vertex 54 7 5
      vertex 2.25 28.75 5
    endloop
  endfacet
  facet normal 0 0 1
    outer loop
      vertex 54 7 5
      vertex 2.25 2.25 5
      vertex 64.75 2.25 5
    endloop
  endfacet
  facet normal 1 -0 0
    outer loop
      vertex 64.75 2.25 5
      vertex 64.75 28.75 2
      vertex 64.75 28.75 5
    endloop
  endfacet
  facet normal 1 0 0
    outer loop
      vertex 64.75 28.75 2
      vertex 64.75 2.25 5
      vertex 64.75 2.25 2
    endloop
  endfacet
  facet normal 0 1 -0
    outer loop
      vertex 64.75 28.75 2
      vertex 2.25 28.75 5
      vertex 64.75 28.75 5
    endloop
  endfacet
  facet normal 0 1 0
    outer loop
      vertex 2.25 28.75 5
      vertex 64.75 28.75 2
      vertex 2.25 28.75 2
    endloop
  endfacet
  facet normal 0 -1 0
    outer loop
      vertex 2.25 2.25 2
      vertex 64.75 2.25 5
      vertex 2.25 2.25 5
    endloop
  endfacet
  facet normal 0 -1 -0
    outer loop
      vertex 64.75 2.25 5
      vertex 2.25 2.25 2
      vertex 64.75 2.25 2
    endloop
  endfacet
  facet normal 1 -0 0
    outer loop
      vertex 62 7 5
      vertex 62 24 0
      vertex 62 24 5
    endloop
  endfacet
  facet normal 1 0 0
    outer loop
      vertex 62 24 0
      vertex 62 7 5
      vertex 62 7 0
    endloop
  endfacet
  facet normal -1 0 0
    outer loop
      vertex 64 7 0
      vertex 64 24 5
      vertex 64 24 0
    endloop
  endfacet
  facet normal -1 -0 0
    outer loop
      vertex 64 24 5
      vertex 64 7 0
      vertex 64 7 5
    endloop
  endfacet
  facet normal 0 -1 0
    outer loop
      vertex 62 24 0
      vertex 64 24 5
      vertex 62 24 5
    endloop
  endfacet
  facet normal 0 -1 -0
    outer loop
      vertex 64 24 5
      vertex 62 24 0
      vertex 64 24 0
    endloop
  endfacet
  facet normal 0 1 -0
    outer loop
      vertex 64 7 0
      vertex 62 7 5
      vertex 64 7 5
    endloop
  endfacet
  facet normal 0 1 0
    outer loop
      vertex 62 7 5
      vertex 64 7 0
      vertex 62 7 0
    endloop
  endfacet
  facet normal 1 -0 0
    outer loop
      vertex 58 7 5
      vertex 58 24 0
      vertex 58 24 5
    endloop
  endfacet
  facet normal 1 0 0
    outer loop
      vertex 58 24 0
      vertex 58 7 5
      vertex 58 7 0
    endloop
  endfacet
  facet normal -1 0 0
    outer loop
      vertex 60 7 0
      vertex 60 24 5
      vertex 60 24 0
    endloop
  endfacet
  facet normal -1 -0 0
    outer loop
      vertex 60 24 5
      vertex 60 7 0
      vertex 60 7 5
    endloop
  endfacet
  facet normal 0 -1 0
    outer loop
      vertex 58 24 0
      vertex 60 24 5
      vertex 58 24 5
    endloop
  endfacet
  facet normal 0 -1 -0
    outer loop
      vertex 60 24 5
      vertex 58 24 0
      vertex 60 24 0
    endloop
  endfacet
  facet normal 0 1 -0
    outer loop
      vertex 60 7 0
      vertex 58 7 5
      vertex 60 7 5
    endloop
  endfacet
  facet normal 0 1 0
    outer loop
      vertex 58 7 5
      vertex 60 7 0
      vertex 58 7 0
    endloop
  endfacet
  facet normal 1 -0 0
    outer loop
      vertex 54 7 5
      vertex 54 24 0
      vertex 54 24 5
    endloop
  endfacet
  facet normal 1 0 0
    outer loop
      vertex 54 24 0
      vertex 54 7 5
      vertex 54 7 0
    endloop
  endfacet
  facet normal -1 0 0
    outer loop
      vertex 56 7 0
      vertex 56 24 5
      vertex 56 24 0
    endloop
  endfacet
  facet normal -1 -0 0
    outer loop
      vertex 56 24 5
      vertex 56 7 0
      vertex 56 7 5
    endloop
  endfacet
  facet normal 0 -1 0
    outer loop
      vertex 54 24 0
      vertex 56 24 5
      vertex 54 24 5
    endloop
  endfacet
  facet normal 0 -1 -0
    outer loop
      vertex 56 24 5
      vertex 54 24 0
      vertex 56 24 0
    endloop
  endfacet
  facet normal 0 1 -0
    outer loop
      vertex 56 7 0
      vertex 54 7 5
      vertex 56 7 5
    endloop
  endfacet
  facet normal 0 1 0
    outer loop
      vertex 54 7 5
      vertex 56 7 0
      vertex 54 7 0
    endloop
  endfacet
endsolid OpenSCAD_Model
