  0
SECTION
  2
HEADER
  9
$ACADVER
  1
AC1014
  9
$HANDSEED
  5
FFFF
  9
$MEASUREMENT
 70
     1
  0
ENDSEC
  0
SECTION
  2
TABLES
  0
TABLE
  2
VPORT
  5
8
330
0
100
AcDbSymbolTable
 70
     4
  0
VPORT
  5
2E
330
8
100
AcDbSymbolTableRecord
100
AcDbViewportTableRecord
  2
*ACTIVE
 70
     0
 10
0.0
 20
0.0
 11
1.0
 21
1.0
 12
210.0
 22
148.5
 13
0.0
 23
0.0
 14
10.0
 24
10.0
 15
10.0
 25
10.0
 16
0.0
 26
0.0
 36
1.0
 17
0.0
 27
0.0
 37
0.0
 40
341.0
 41
1.24
 42
50.0
 43
0.0
 44
0.0
 50
0.0
 51
0.0
 71
     0
 72
   100
 73
     1
 74
     3
 75
     0
 76
     0
 77
     0
 78
     0
  0
ENDTAB
  0
TABLE
  2
LTYPE
  5
5
330
0
100
AcDbSymbolTable
 70
     1
  0
LTYPE
  5
14
330
5
100
AcDbSymbolTableRecord
100
AcDbLinetypeTableRecord
  2
BYBLOCK
 70
     0
  3

 72
    65
 73
     0
 40
0.0
  0
LTYPE
  5
15
330
5
100
AcDbSymbolTableRecord
100
AcDbLinetypeTableRecord
  2
BYLAYER
 70
     0
  3

 72
    65
 73
     0
 40
0.0
  0
LTYPE
  5
16
330
5
100
AcDbSymbolTableRecord
100
AcDbLinetypeTableRecord
  2
CONTINUOUS
 70
     0
  3
Solid line
 72
    65
 73
     0
 40
0.0
  0
ENDTAB
  0
TABLE
  2
LAYER
  5
2
100
AcDbSymbolTable
 70
2
  0
LAYER
  5
50
100
AcDbSymbolTableRecord
100
AcDbLayerTableRecord
  2
0
 70
0
  6
CONTINUOUS
  0
LAYER
  5
51
100
AcDbSymbolTableRecord
100
AcDbLayerTableRecord
  2
wifi
 70
0
  6
CONTINUOUS
  0
ENDTAB
  0
TABLE
  2
STYLE
  5
3
330
0
100
AcDbSymbolTable
 70
     1
  0
STYLE
  5
11
330
3
100
AcDbSymbolTableRecord
100
AcDbTextStyleTableRecord
  2
STANDARD
 70
     0
 40
0.0
 41
1.0
 50
0.0
 71
     0
 42
2.5
  3
txt
  4

  0
ENDTAB
  0
TABLE
  2
VIEW
  5
6
330
0
100
AcDbSymbolTable
 70
     0
  0
ENDTAB
  0
TABLE
  2
UCS
  5
7
330
0
100
AcDbSymbolTable
 70
     0
  0
ENDTAB
  0
TABLE
  2
APPID
  5
9
330
0
100
AcDbSymbolTable
 70
     2
  0
APPID
  5
12
330
9
100
AcDbSymbolTableRecord
100
AcDbRegAppTableRecord
  2
ACAD
 70
     0
  0
ENDTAB
  0
TABLE
  2
DIMSTYLE
  5
A
330
0
100
AcDbSymbolTable
 70
     1
  0
DIMSTYLE
105
27
330
A
100
AcDbSymbolTableRecord
100
AcDbDimStyleTableRecord
  2
ISO-25
 70
     0
  3

  4

  5

  6

  7

 40
1.0
 41
2.5
 42
0.625
 43
3.75
 44
1.25
 45
0.0
 46
0.0
 47
0.0
 48
0.0
140
2.5
141
2.5
142
0.0
143
0.03937007874016
144
1.0
145
0.0
146
1.0
147
0.625
 71
     0
 72
     0
 73
     0
 74
     0
 75
     0
 76
     0
 77
     1
 78
     8
170
     0
171
     3
172
     1
173
     0
174
     0
175
     0
176
     0
177
     0
178
     0
270
     2
271
     2
272
     2
273
     2
274
     3
340
11
275
     0
280
     0
281
     0
282
     0
283
     0
284
     8
285
     0
286
     0
287
     3
288
     0
  0
ENDTAB
  0
TABLE
  2
BLOCK_RECORD
  5
1
330
0
100
AcDbSymbolTable
 70
     1
  0
BLOCK_RECORD
  5
1F
330
1
100
AcDbSymbolTableRecord
100
AcDbBlockTableRecord
  2
*MODEL_SPACE
  0
BLOCK_RECORD
  5
1B
330
1
100
AcDbSymbolTableRecord
100
AcDbBlockTableRecord
  2
*PAPER_SPACE
  0
ENDTAB
  0
ENDSEC
  0
SECTION
  2
BLOCKS
  0
BLOCK
  5
20
330
1F
100
AcDbEntity
  8
0
100
AcDbBlockBegin
  2
*MODEL_SPACE
 70
     0
 10
0.0
 20
0.0
 30
0.0
  3
*MODEL_SPACE
  1

  0
ENDBLK
  5
21
330
1F
100
AcDbEntity
  8
0
100
AcDbBlockEnd
  0
BLOCK
  5
1C
330
1B
100
AcDbEntity
 67
     1
  8
0
100
AcDbBlockBegin
  2
*PAPER_SPACE
  1

  0
ENDBLK
  5
1D
330
1B
100
AcDbEntity
 67
     1
  8
0
100
AcDbBlockEnd
  0
ENDSEC
  0
SECTION
  2
ENTITIES
  0
LWPOLYLINE
  5
100
100
AcDbEntity
  8
wifi
 62
7
100
AcDbPolyline
 90
59
 70
1
 10
13.000899
 20
20.204110
 30
0.0
 10
12.050066
 20
20.174710
 30
0.0
 10
11.101462
 20
20.089110
 30
0.0
 10
10.160629
 20
19.947780
 30
0.0
 10
9.228660
 20
19.750850
 30
0.0
 10
8.309518
 20
19.499020
 30
0.0
 10
7.408041
 20
19.193700
 30
0.0
 10
6.525849
 20
18.835550
 30
0.0
 10
5.666441
 20
18.425970
 30
0.0
 10
4.831959
 20
17.965900
 30
0.0
 10
4.027605
 20
17.458280
 30
0.0
 10
3.253833
 20
16.903440
 30
0.0
 10
2.513864
 20
16.303530
 30
0.0
 10
1.811352
 20
15.661560
 30
0.0
 10
1.147021
 20
14.978190
 30
0.0
 10
1.635479
 20
14.378390
 30
0.0
 10
2.125101
 20
13.777170
 30
0.0
 10
2.613925
 20
13.176920
 30
0.0
 10
3.284507
 20
13.892130
 30
0.0
 10
4.003778
 20
14.557620
 30
0.0
 10
4.768889
 20
15.170700
 30
0.0
 10
5.575540
 20
15.727860
 30
0.0
 10
6.419110
 20
16.226050
 30
0.0
 10
7.296710
 20
16.663560
 30
0.0
 10
8.203244
 20
17.037750
 30
0.0
 10
9.134142
 20
17.346690
 30
0.0
 10
10.084462
 20
17.588710
 30
0.0
 10
11.047763
 20
17.762370
 30
0.0
 10
12.022502
 20
17.867410
 30
0.0
 10
13.000899
 20
17.903010
 30
0.0
 10
13.980459
 20
17.866710
 30
0.0
 10
14.954487
 20
17.761030
 30
0.0
 10
15.919073
 20
17.586380
 30
0.0
 10
16.868756
 20
17.343720
 30
0.0
 10
17.798200
 20
17.034510
 30
0.0
 10
18.704223
 20
16.659820
 30
0.0
 10
19.581484
 20
16.221750
 30
0.0
 10
20.425533
 20
15.722480
 30
0.0
 10
21.231874
 20
15.164660
 30
0.0
 10
21.995184
 20
14.552180
 30
0.0
 10
22.714258
 20
13.886040
 30
0.0
 10
23.383379
 20
13.171570
 30
0.0
 10
23.872735
 20
13.772270
 30
0.0
 10
24.363256
 20
14.374390
 30
0.0
 10
24.852979
 20
14.975540
 30
0.0
 10
24.190109
 20
15.657790
 30
0.0
 10
23.487243
 20
16.300490
 30
0.0
 10
22.748451
 20
16.899860
 30
0.0
 10
21.974581
 20
17.455190
 30
0.0
 10
21.168825
 20
17.964030
 30
0.0
 10
20.335492
 20
18.423760
 30
0.0
 10
19.476154
 20
18.833630
 30
0.0
 10
18.594209
 20
19.191990
 30
0.0
 10
17.691791
 20
19.497910
 30
0.0
 10
16.774576
 20
19.749510
 30
0.0
 10
15.843127
 20
19.946700
 30
0.0
 10
14.901186
 20
20.088540
 30
0.0
 10
13.953451
 20
20.174340
 30
0.0
 10
13.000899
 20
20.204040
 30
0.0
  0
LWPOLYLINE
  5
101
100
AcDbEntity
  8
wifi
 62
7
100
AcDbPolyline
 90
47
 70
1
 10
13.000899
 20
15.601980
 30
0.0
 10
12.074393
 20
15.564080
 30
0.0
 10
11.154754
 20
15.451790
 30
0.0
 10
10.246040
 20
15.265550
 30
0.0
 10
9.355043
 20
15.006590
 30
0.0
 10
8.489401
 20
14.677360
 30
0.0
 10
7.651922
 20
14.279030
 30
0.0
 10
6.849481
 20
13.814730
 30
0.0
 10
6.087231
 20
13.287490
 30
0.0
 10
5.370036
 20
12.700690
 30
0.0
 10
4.702433
 20
12.058030
 30
0.0
 10
4.088918
 20
11.363980
 30
0.0
 10
4.586355
 20
10.752810
 30
0.0
 10
5.084977
 20
10.140180
 30
0.0
 10
5.582787
 20
9.528550
 30
0.0
 10
6.187711
 20
10.271680
 30
0.0
 10
6.867791
 20
10.948910
 30
0.0
 10
7.614237
 20
11.551200
 30
0.0
 10
8.418770
 20
12.072220
 30
0.0
 10
9.274123
 20
12.507250
 30
0.0
 10
10.168901
 20
12.850520
 30
0.0
 10
11.095661
 20
13.099120
 30
0.0
 10
12.042127
 20
13.249680
 30
0.0
 10
13.000899
 20
13.300980
 30
0.0
 10
13.957647
 20
13.249780
 30
0.0
 10
14.905404
 20
13.099070
 30
0.0
 10
15.831692
 20
12.850600
 30
0.0
 10
16.726520
 20
12.507340
 30
0.0
 10
17.581801
 20
12.072390
 30
0.0
 10
18.386163
 20
11.551550
 30
0.0
 10
19.132867
 20
10.949110
 30
0.0
 10
19.811964
 20
10.273020
 30
0.0
 10
20.418112
 20
9.528530
 30
0.0
 10
20.915549
 20
10.139410
 30
0.0
 10
21.414171
 20
10.751740
 30
0.0
 10
21.911981
 20
11.363070
 30
0.0
 10
21.297915
 20
12.057830
 30
0.0
 10
20.630503
 20
12.700340
 30
0.0
 10
19.912618
 20
13.287720
 30
0.0
 10
19.149505
 20
13.815460
 30
0.0
 10
18.347884
 20
14.279200
 30
0.0
 10
17.510430
 20
14.677490
 30
0.0
 10
16.643919
 20
15.006980
 30
0.0
 10
15.753946
 20
15.265580
 30
0.0
 10
14.846198
 20
15.451650
 30
0.0
 10
13.926417
 20
15.564010
 30
0.0
 10
13.000899
 20
15.602010
 30
0.0
  0
LWPOLYLINE
  5
102
100
AcDbEntity
  8
wifi
 62
7
100
AcDbPolyline
 90
35
 70
1
 10
13.000899
 20
10.999960
 30
0.0
 10
12.117316
 20
10.942160
 30
0.0
 10
11.248806
 20
10.771810
 30
0.0
 10
10.409400
 20
10.491680
 30
0.0
 10
9.612400
 20
10.106320
 30
0.0
 10
8.871654
 20
9.622550
 30
0.0
 10
8.198833
 20
9.048020
 30
0.0
 10
7.605213
 20
8.392210
 30
0.0
 10
7.100026
 20
7.665230
 30
0.0
 10
7.631284
 20
7.012460
 30
0.0
 10
8.163808
 20
6.358120
 30
0.0
 10
8.695464
 20
5.704860
 30
0.0
 10
9.106183
 20
6.538420
 30
0.0
 10
9.675924
 20
7.271950
 30
0.0
 10
10.380867
 20
7.875730
 30
0.0
 10
11.192991
 20
8.326280
 30
0.0
 10
12.077682
 20
8.604240
 30
0.0
 10
13.000899
 20
8.698940
 30
0.0
 10
13.925410
 20
8.604840
 30
0.0
 10
14.811661
 20
8.326810
 30
0.0
 10
15.623471
 20
7.876800
 30
0.0
 10
16.329070
 20
7.272870
 30
0.0
 10
16.898236
 20
6.540710
 30
0.0
 10
17.309031
 20
5.708490
 30
0.0
 10
17.839091
 20
6.359770
 30
0.0
 10
18.370415
 20
7.012600
 30
0.0
 10
18.900873
 20
7.664370
 30
0.0
 10
18.395706
 20
8.391540
 30
0.0
 10
17.801862
 20
9.047730
 30
0.0
 10
17.128981
 20
9.622380
 30
0.0
 10
16.387820
 20
10.106430
 30
0.0
 10
15.591367
 20
10.491550
 30
0.0
 10
14.752193
 20
10.771680
 30
0.0
 10
13.884228
 20
10.942040
 30
0.0
 10
13.000899
 20
10.999940
 30
0.0
  0
LWPOLYLINE
  5
103
100
AcDbEntity
  8
wifi
 62
7
100
AcDbPolyline
 90
17
 70
1
 10
13.000899
 20
6.397890
 30
0.0
 10
12.120333
 20
6.222730
 30
0.0
 10
11.373826
 20
5.723930
 30
0.0
 10
10.875027
 20
4.977430
 30
0.0
 10
10.699873
 20
4.096860
 30
0.0
 10
10.875027
 20
3.216290
 30
0.0
 10
11.373826
 20
2.469790
 30
0.0
 10
12.120333
 20
1.970990
 30
0.0
 10
13.000899
 20
1.795830
 30
0.0
 10
13.881465
 20
1.970990
 30
0.0
 10
14.627972
 20
2.469790
 30
0.0
 10
15.126771
 20
3.216290
 30
0.0
 10
15.301925
 20
4.096860
 30
0.0
 10
15.126771
 20
4.977430
 30
0.0
 10
14.627972
 20
5.723930
 30
0.0
 10
13.881465
 20
6.222730
 30
0.0
 10
13.000899
 20
6.397890
 30
0.0
  0
ENDSEC
  0
SECTION
  2
OBJECTS
  0
DICTIONARY
  5
C
330
0
100
AcDbDictionary
  3
ACAD_GROUP
350
D
  3
ACAD_MLINESTYLE
350
17
  0
DICTIONARY
  5
D
330
C
100
AcDbDictionary
  0
DICTIONARY
  5
1A
330
C
100
AcDbDictionary
  0
DICTIONARY
  5
17
330
C
100
AcDbDictionary
  3
STANDARD
350
18
  0
DICTIONARY
  5
19
330
C
100
AcDbDictionary
  0
ENDSEC
  0
EOF
